<svg width="1400" height="438" viewBox="0 0 1400 438" fill="none" xmlns="http://www.w3.org/2000/svg">
<path d="M1004.02 169C993.86 169 984.507 165.81 984.017 178.556C983.7 186.782 987.894 185 995.017 185C998.932 185 1006.23 183.592 1007.79 178.889C1010.48 170.847 1002.22 169.207 998.017 165" stroke="black" stroke-width="2" stroke-linecap="round"/>
<path d="M1377 409C1369.1 414.133 1355.92 429.956 1371.44 434.556C1374.4 435.431 1393.34 437.886 1394.56 436.111C1399.08 429.523 1400.69 424.165 1396.56 415.889C1391.9 406.582 1360.92 415.889 1352 415.889" stroke="black" stroke-width="2" stroke-linecap="round"/>
<path d="M373 377C365.014 377 369.299 369.357 371 365C371.746 362.016 377.232 357.752 380.555 361.444C382.343 363.431 381 371.285 381 373.889C381 378.38 376.419 377 373 377Z" stroke="black" stroke-width="2" stroke-linecap="round"/>
<path d="M15 311C2.6925 311 1 307.146 1 295C4.74918 280.003 27 285.771 27 301.444C27 307.552 20.9213 311 15 311Z" stroke="black" stroke-width="2" stroke-linecap="round"/>
<path d="M455 23C442.746 23 444.682 19.1694 447 7.00005C447 -3.22733 467.478 3.35637 467 11.0001C466.859 13.2531 463.381 14.8007 462.889 18C462.209 22.4176 458.786 23 455 23Z" stroke="black" stroke-width="2" stroke-linecap="round"/>
</svg>
