<svg width="173" height="198" viewBox="0 0 173 198" fill="none" xmlns="http://www.w3.org/2000/svg">
<path d="M33.9354 26.8406C44.863 18.8082 49.7825 27.352 52.5206 37.5707C55.3727 48.215 58.2249 58.8593 61.077 69.5035C62.8293 76.0433 65.4414 87.6621 73.0475 89.0507C77.4326 89.8512 84.1954 86.802 88.5871 86.3207C95.24 85.5916 102.546 84.7624 109.025 83.0263C119.379 80.252 127.799 76.9959 124.903 64.8073C122.105 53.0288 118.623 41.3697 115.49 29.6754C112.959 20.2313 112.248 4.73474 124.742 1.38691C134.492 -1.22566 135.586 42.1148 135.936 49.4452C136.67 64.8054 142.473 80.1246 146.444 94.9441C148.803 103.747 151.161 112.549 153.52 121.351C155.928 130.34 156.501 139.582 158.564 148.552C159.329 151.878 162.671 158.078 160.298 161.304C156.909 165.91 148.378 168.445 143.14 170.327C138.141 172.124 132.915 170.985 127.879 172.235C119.552 174.302 111.244 176.585 102.984 178.905C91.055 182.256 80.5656 188.458 68.0787 189.63C61.2911 190.267 52.8578 192.275 46.2797 190.172C39.0466 187.858 39.0565 179.758 38.3853 173.273C37.9031 168.615 39.3007 163.625 39.9275 159.02C40.7627 152.884 40.6263 146.523 40.7818 140.338C41.0735 128.738 40.1987 117.41 39.6467 105.855C38.8127 88.3978 44.1963 69.3227 39.6057 52.1904C37.6472 44.8809 31.7715 22.9526 33.7301 30.262" stroke="black" stroke-width="2" stroke-linecap="round"/>
<path d="M44.1777 60.8776C41.8913 52.3444 40.57 46.0795 41.2092 37.2351C38.6826 27.8059 47.3041 55.7937 49.8306 65.223C50.4461 67.5198 48.8229 68.5745 46.7999 67.4066C44.8611 66.2872 44.738 62.9684 44.1777 60.8776Z" stroke="black" stroke-width="2" stroke-linecap="round"/>
<path d="M122.463 22.1963C121.984 31.087 123.983 39.9191 123.666 48.5561C123.47 53.9016 127.756 55.4334 128.943 49.6359C130.678 41.1579 125.544 27.7054 119.042 21.9909" stroke="black" stroke-width="2" stroke-linecap="round"/>
</svg>
