<svg width="85" height="140" viewBox="0 0 85 140" fill="none" xmlns="http://www.w3.org/2000/svg">
<path d="M61.5433 64.2956C52.0832 80.3779 25.0366 125.258 12.0911 138.203C7.78901 136.052 -4.28343 135.414 3.62591 129.087C8.47602 125.207 30.9443 90.8928 33.9049 85.7118C39.9319 75.1646 46.4138 64.0866 55.0317 55.4687C59.1125 51.3878 61.4441 44.8485 65.1609 40.2024C68.2007 36.4027 77.1441 31.7191 68.3444 29.2049C57.1119 25.9956 47.9087 16.9791 37.1607 12.2022C34.7182 11.1166 29.3987 8.63406 27.6826 6.70341C27.056 5.99851 31.6573 2.14987 32.3131 1.49407C34.65 -0.842822 44.9575 5.74557 47.2176 8.00575C55.0479 15.836 71.2592 14.6156 78.1843 23.272C82.425 28.573 84.6235 24.647 81.0784 31.7372C79.4302 35.0336 78.1807 39.2297 75.5796 42.1559C69.9905 48.4437 65.8068 57.0477 61.5433 64.2956Z" stroke="black" stroke-width="2" stroke-linecap="round"/>
<path d="M69.0679 29.1324C71.6928 27.4919 73.5296 25.9731 75.5796 23.9231" stroke="black" stroke-width="2" stroke-linecap="round"/>
<path d="M71.6729 33.0396C77.8541 34.2457 80.6314 34.6575 83.3939 29.1326" stroke="black" stroke-width="2" stroke-linecap="round"/>
<path d="M69.0679 38.2488C71.7735 39.3987 73.4878 40.4824 75.5796 42.1558" stroke="black" stroke-width="2" stroke-linecap="round"/>
</svg>
