<svg width="246" height="111" viewBox="0 0 246 111" fill="none" xmlns="http://www.w3.org/2000/svg">
<path d="M5.00469 61.2237C4.41943 51.8701 4.20513 40.877 6.47512 31.6508C7.86746 25.9917 10.1528 40.9609 9.87764 43.7213C9.36757 48.8385 10.3571 54.6034 9.80547 60.1381C8.84603 69.7636 5.11117 60.1555 5.62221 55.0285" stroke="black" stroke-width="2" stroke-linecap="round"/>
<path d="M10.4179 38.3005C16.6346 38.9202 35.3745 39.2239 29.1578 38.6042" stroke="black" stroke-width="2" stroke-linecap="round"/>
<path d="M9.80539 60.1381C17.5539 59.4127 40.7813 63.2257 33.0374 62.4538" stroke="black" stroke-width="2" stroke-linecap="round"/>
<path d="M29.1581 38.604C36.6432 33.871 42.6446 26.4055 52.2307 26.8262C56.3904 27.0087 61.3818 25.357 65.6957 25.1268C70.9238 24.8479 76.4058 26.3019 81.6224 26.6274C87.6927 27.0063 95.5092 25.3126 101.626 24.7109C109.266 23.9594 116.706 25.853 124.367 24.9789C138.228 23.3977 154.492 21.766 168.385 22.7622C180.637 23.6406 193.278 22.1149 205.521 23.3353C210.256 23.8072 233.372 19.6546 235.189 23.8593C241.776 39.1085 233.962 56.332 235.806 71.7154C236.214 75.1176 239.649 102.753 237.718 103.103C234.164 103.745 229.412 102.362 225.835 102.005C218.637 101.288 211.546 102.875 204.35 101.341C193.001 98.922 183.192 98.3544 171.636 98.254C151.396 98.0781 133.339 100.606 113.033 98.5825C94.8495 96.77 77.1816 95.635 61.2411 86.3812C53.1358 81.6759 33.5928 72.5764 34.7408 61.0591" stroke="black" stroke-width="2" stroke-linecap="round"/>
</svg>
