<svg width="285" height="129" viewBox="0 0 285 129" fill="none" xmlns="http://www.w3.org/2000/svg">
<path d="M279.438 70.9898C280.116 60.1442 280.365 47.3974 277.733 36.6995C276.118 30.1377 273.469 47.4947 273.788 50.6955C274.379 56.6289 273.232 63.3134 273.871 69.7309C274.984 80.8919 279.314 69.7511 278.722 63.8064" stroke="black" stroke-width="2" stroke-linecap="round"/>
<path d="M273.161 44.4099C265.953 45.1284 244.223 45.4806 251.432 44.7621" stroke="black" stroke-width="2" stroke-linecap="round"/>
<path d="M273.871 69.7311C264.887 68.8899 237.954 73.3112 246.933 72.4161" stroke="black" stroke-width="2" stroke-linecap="round"/>
<path d="M251.431 44.7618C242.752 39.2738 235.794 30.6175 224.678 31.1052C219.855 31.3168 214.067 29.4016 209.065 29.1348C203.003 28.8113 196.647 30.4973 190.598 30.8748C183.56 31.314 174.496 29.3502 167.403 28.6525C158.545 27.7812 149.919 29.9768 141.035 28.9633C124.963 27.1298 106.105 25.2378 89.9949 26.3929C75.7891 27.4114 61.1319 25.6424 46.9354 27.0575C41.4459 27.6047 14.6417 22.7896 12.5357 27.665C4.89794 45.3468 13.9581 65.3177 11.8195 83.155C11.3466 87.0999 7.36341 119.144 9.60304 119.549C13.7233 120.294 19.2334 118.69 23.3812 118.276C31.7278 117.445 39.9497 119.285 48.2932 117.506C61.4523 114.701 72.8269 114.043 86.2256 113.927C109.694 113.723 130.632 116.655 154.176 114.308C175.261 112.206 195.747 110.89 214.231 100.16C223.629 94.7043 246.289 84.1533 244.958 70.7988" stroke="black" stroke-width="2" stroke-linecap="round"/>
</svg>
