<svg width="382" height="384" viewBox="0 0 382 384" fill="none" xmlns="http://www.w3.org/2000/svg">
<path d="M319.524 294.857C301.849 314.554 289.048 300.192 279.748 281.763C270.06 262.565 260.372 243.368 250.684 224.171C244.732 212.377 235.114 191.222 220.031 191.599C211.336 191.816 199.632 200.335 191.434 203.004C179.016 207.046 165.39 211.54 153.704 217.437C135.031 226.861 120.244 236.435 130.63 258.565C140.667 279.95 151.962 300.835 162.606 321.926C171.202 338.959 178.733 368.278 156.199 379.649C138.615 388.524 119.263 306.168 115.674 292.305C108.154 263.255 90.9663 236.303 77.4781 209.576C69.4665 193.7 61.455 177.825 53.4434 161.95C45.2626 145.739 40.4877 128.311 32.9735 111.999C30.1869 105.949 21.3344 95.4371 24.5826 88.3299C29.221 78.1811 44.5068 69.9404 53.7633 64.2587C62.5969 58.8366 73.0349 58.9299 82.1566 54.5365C97.2402 47.2717 112.201 39.6004 127.055 31.8783C148.508 20.7257 166.075 4.70156 189.461 -2.51113C202.173 -6.43177 217.483 -13.6279 230.887 -12.2292C245.625 -10.6913 248.833 4.78708 252.698 16.9073C255.474 25.6126 254.792 35.702 255.429 44.7485C256.278 56.8017 259.072 68.8987 261.239 80.7761C265.302 103.051 271.485 124.342 277.142 146.194C285.688 179.21 283.002 217.793 298.595 248.691C305.248 261.874 325.206 301.422 318.554 288.24" stroke="black" stroke-width="2" stroke-linecap="round"/>
<path d="M286.401 233.918C294.168 249.307 299.187 260.749 301.489 277.898C310.071 294.904 282.454 244.874 273.872 227.868C271.782 223.726 274.462 221.065 278.792 222.49C282.941 223.856 284.498 230.147 286.401 233.918Z" stroke="black" stroke-width="2" stroke-linecap="round"/>
<path d="M152.265 338.99C149.638 321.816 142.302 305.741 139.467 289.116C137.713 278.826 128.914 277.608 128.957 289.155C129.02 306.041 144.185 329.694 158.882 338.02" stroke="black" stroke-width="2" stroke-linecap="round"/>
</svg>
