<svg width="84" height="86" viewBox="0 0 84 86" fill="none" xmlns="http://www.w3.org/2000/svg">
<path d="M35.841 51.9566C33.7769 42.009 28.2779 14.0123 28.767 4.05572C31.2892 3.35044 36.3931 -0.806709 35.5158 4.63827C34.9778 7.97721 38.4604 30.0369 39.1605 33.2098C40.5857 39.6689 42.0214 46.5086 41.6958 53.1367C41.5416 56.2753 42.9922 59.7662 43.1915 62.9998C43.3545 65.6443 41.459 70.8042 45.9285 68.6008C51.6338 65.7882 58.6439 66.0607 64.7269 64.0577C66.1093 63.6025 69.1632 62.659 70.5615 62.8104C71.0721 62.8656 70.623 66.1009 70.5982 66.6053C70.5099 68.4026 63.9422 69.5136 62.2039 69.4282C56.1816 69.1324 50.0874 75.5526 44.1281 74.5925C40.4788 74.0045 41.0274 76.3924 39.8651 72.2355C39.3247 70.3029 38.2944 68.1531 38.2738 66.0214C38.2295 61.4408 36.7712 56.4397 35.841 51.9566Z" stroke="black" stroke-width="2" stroke-linecap="round"/>
<path d="M45.663 68.8946C45.2039 70.5163 45.0182 71.8008 44.9407 73.3774" stroke="black" stroke-width="2" stroke-linecap="round"/>
<path d="M43.1836 68.2709C40.2488 70.0446 38.9777 70.894 39.8835 74.1331" stroke="black" stroke-width="2" stroke-linecap="round"/>
<path d="M42.3296 65.2166C40.8176 65.742 39.7296 65.9316 38.2738 66.0214" stroke="black" stroke-width="2" stroke-linecap="round"/>
</svg>
