<svg width="1246" height="53" viewBox="0 0 1246 53" fill="none" xmlns="http://www.w3.org/2000/svg">
<path d="M1190 29C1178.8 43.4 1191.33 47 1199 47H1236C1245.6 47 1244.67 38.3333 1243 34C1235.8 17.2 1223.33 27 1218 34C1210.8 23.6 1196.33 26.3333 1190 29Z" fill="white"/>
<path d="M1208 42.9999C1202.44 44.0582 1190.36 48.0467 1186.44 40.9999C1183.92 36.4597 1188.79 30.6342 1192 28.1111C1197.24 23.9967 1201.55 22.7133 1208 24.5555C1211.5 25.5547 1213.27 27.4901 1215.89 29.8888C1216.99 30.8977 1217.56 35.164 1218.11 33.7777C1228.34 8.20598 1260.1 36.9666 1236 44.9999" stroke="black" stroke-width="2" stroke-linecap="round"/>
<path d="M725.52 38.5765C731.754 46.5918 724.778 48.5956 720.511 48.5956H699.916C694.572 48.5956 695.092 43.7716 696.02 41.3596C700.027 32.0084 706.966 37.4632 709.935 41.3596C713.943 35.5707 721.995 37.0922 725.52 38.5765Z" fill="white"/>
<path d="M715.501 46.3691C718.594 46.9581 725.321 49.1782 727.5 45.2559C728.904 42.7287 726.195 39.4861 724.407 38.0817C721.493 35.7915 719.09 35.0772 715.501 36.1026C713.555 36.6587 712.567 37.736 711.11 39.0712C710.498 39.6328 710.182 42.0074 709.873 41.2358C704.18 27.0021 686.502 43.0108 699.916 47.4823" stroke="black" stroke-width="2" stroke-linecap="round"/>
<path d="M265.52 42.1146C271.754 50.1299 264.778 52.1337 260.511 52.1337H239.916C234.572 52.1337 235.092 47.3097 236.02 44.8977C240.027 35.5465 246.966 41.0013 249.935 44.8977C253.943 39.1088 261.995 40.6302 265.52 42.1146Z" fill="white"/>
<path d="M255.501 49.9072C258.594 50.4962 265.321 52.7163 267.5 48.7939C268.904 46.2668 266.195 43.0242 264.407 41.6197C261.493 39.3296 259.09 38.6152 255.501 39.6406C253.555 40.1968 252.567 41.2741 251.11 42.6093C250.498 43.1708 250.182 45.5455 249.873 44.7739C244.18 30.5402 226.502 46.5489 239.916 51.0204" stroke="black" stroke-width="2" stroke-linecap="round"/>
<path d="M599.909 21.6782C582.539 44.012 601.977 49.5954 613.868 49.5954H671.253C686.142 49.5954 684.695 36.1538 682.11 29.433C670.943 3.37702 651.608 18.5763 643.336 29.433C632.169 13.3031 609.732 17.5424 599.909 21.6782Z" fill="white"/>
<path d="M627.827 43.3916C619.21 45.0329 600.467 51.2188 594.395 40.2897C590.483 33.248 598.031 24.2129 603.011 20.2996C611.133 13.9185 617.826 11.9279 627.827 14.7851C633.251 16.3348 636.003 19.3364 640.062 23.0568C641.769 24.6215 642.648 31.2383 643.508 29.0883C659.373 -10.5723 708.631 34.0341 671.253 46.4935" stroke="black" stroke-width="2" stroke-linecap="round"/>
<path d="M7.90926 13.0496C-9.46142 41.4862 9.9772 48.5953 21.8678 48.5953H79.2531C94.1422 48.5953 92.6947 31.4807 90.1098 22.9234C78.9429 -10.2526 59.6077 9.10007 51.3359 22.9234C40.1691 2.38586 17.732 7.78355 7.90926 13.0496Z" fill="white"/>
<path d="M35.8265 40.6963C27.2098 42.7861 8.46663 50.6624 2.39488 36.7468C-1.51715 27.7809 6.03073 16.2769 11.0113 11.2943C19.1327 3.16947 25.8264 0.634956 35.8265 4.27288C41.2505 6.24605 44.0032 10.0679 48.0618 14.805C49.7688 16.7972 50.6484 25.2221 51.5084 22.4846C67.3726 -28.0136 116.631 28.7819 79.2532 44.6458" stroke="black" stroke-width="2" stroke-linecap="round"/>
<path d="M101.831 32.5955C113.031 46.9955 100.498 50.5955 92.8313 50.5955H55.8313C46.2313 50.5955 47.1646 41.9288 48.8313 37.5955C56.0313 20.7955 68.498 30.5955 73.8313 37.5955C81.0313 27.1955 95.498 29.9288 101.831 32.5955Z" fill="white"/>
<path d="M83.8316 46.5954C89.3874 47.6537 101.472 51.6421 105.387 44.5954C107.909 40.0552 103.043 34.2297 99.8316 31.7065C94.5952 27.5922 90.2793 26.3088 83.8316 28.151C80.3344 29.1502 78.5595 31.0855 75.9427 33.4843C74.8421 34.4932 74.275 38.7594 73.7205 37.3732C63.4918 11.8014 31.7316 40.5621 55.8316 48.5954" stroke="black" stroke-width="2" stroke-linecap="round"/>
</svg>
