<svg width="180" height="126" viewBox="0 0 180 126" fill="none" xmlns="http://www.w3.org/2000/svg">
<path d="M93.7243 51.0854C71.7877 32.9416 31.9132 33.7449 9.51961 50.3813C9.51874 50.3827 9.51786 50.3842 9.51698 50.3856C8.48557 52.0957 8.55854 54.2064 9.37023 55.6209C11.4788 59.2953 15.0018 59.5568 17.2827 62.6744C21.5975 68.5719 31.892 71.7763 36.1582 77.6075C40.7287 83.8545 54.6249 82.2437 60.9928 83.9679C70.2386 86.4713 80.1529 85.8816 89.273 88.351C97.0635 90.4603 107.821 92.5932 115.082 88.4269C119.61 85.8281 119.886 88.9825 120.943 93.6517C121.784 97.3688 123.865 100.241 125.734 103.498C129.705 110.418 137.085 116.011 142.598 121.161C150.777 128.801 142.61 105.688 142.778 102.019C143.179 93.263 139.701 79.4284 146.896 72.0305C150.173 68.6614 150.132 62.7603 153.663 59.1293C157.145 55.5493 160.58 51.9873 163.854 48.701C166.053 46.4935 169.211 44.7628 172.129 43.6659C173.976 42.9716 179.689 42.4387 177.785 41.9231C173.306 40.7103 167.754 41.1338 163.34 41.195C152.852 41.3406 136.794 48.2145 129.173 55.8634C125.465 59.5855 124.887 65.6488 123.541 70.6181C122.792 73.3875 123.523 82.412 121.042 76.4896C115.892 64.1927 103.349 59.0461 93.7243 51.0854Z" fill="white"/>
<path d="M9.51463 50.385C31.9073 33.7451 71.786 32.9403 93.7243 51.0854C103.349 59.0461 115.892 64.1927 121.042 76.4896C123.523 82.412 122.791 73.3875 123.541 70.6181C124.887 65.6488 125.465 59.5855 129.173 55.8634C136.794 48.2145 152.852 41.3406 163.34 41.195C167.754 41.1338 173.306 40.7103 177.785 41.9231C179.689 42.4387 173.976 42.9716 172.129 43.6659C169.211 44.7628 166.053 46.4935 163.854 48.701C160.58 51.9873 157.145 55.5493 153.663 59.1293C150.132 62.7603 150.173 68.6614 146.896 72.0305C139.701 79.4284 143.179 93.263 142.778 102.019C142.61 105.688 150.777 128.801 142.598 121.161C137.085 116.011 129.705 110.418 125.734 103.498C123.865 100.241 121.784 97.3688 120.943 93.6517C119.886 88.9825 119.61 85.8281 115.082 88.4269C107.821 92.5932 97.0635 90.4603 89.273 88.351C80.1529 85.8816 70.2386 86.4713 60.9928 83.9679C54.6249 82.2437 40.7287 83.8545 36.1582 77.6075C31.892 71.7763 21.5975 68.5719 17.2827 62.6744C15.0018 59.5568 11.4788 59.2953 9.37023 55.6209C8.55854 54.2064 8.48557 52.0957 9.51698 50.3856C10.1014 49.4168 11.7962 49.3657 9.9276 48.8598" stroke="black" stroke-width="2" stroke-linecap="round"/>
<path d="M72.199 60.4333C68.3889 55.6707 61.6033 53.6741 56.199 51.4333C54.5712 54.6889 47.024 66.0933 51.199 69.4333C57.2739 74.2933 62.4787 75.4333 70.199 75.4333C73.5536 75.4333 87.0013 77.2752 77.199 69.4333C75.2938 67.9092 74.0698 62.7718 72.199 60.4333Z" stroke="black" stroke-width="2" stroke-linecap="round"/>
</svg>
