<svg width="100" height="78" viewBox="0 0 100 78" fill="none" xmlns="http://www.w3.org/2000/svg">
<path d="M44.0986 39.5651C25.9469 39.2864 6.42661 55.5899 1.9194 72.7994C1.91954 72.8004 1.91968 72.8015 1.91983 72.8026C2.08868 74.0648 2.96683 75.086 3.93485 75.466C6.44955 76.4533 8.30681 75.1783 10.6852 75.8199C15.1843 77.0334 21.5847 74.5219 26.0332 75.7218C30.7989 77.0073 37.0709 70.6634 40.9271 68.9815C46.5261 66.5395 51.2241 62.2917 56.7469 59.8829C61.4646 57.8253 67.6682 54.5958 69.619 49.6271C70.8358 46.5278 72.2313 47.9872 74.6192 49.8892C76.5202 51.4033 78.7017 52.0023 80.9307 52.8774C85.6665 54.7368 91.569 54.5766 96.366 54.94C103.483 55.4792 90.2013 47.2364 88.8215 45.3438C85.5285 40.8269 78.28 35.3304 78.9096 28.7795C79.1963 25.7961 76.8222 22.8763 77.1313 19.661C77.4359 16.491 77.724 13.3489 78.0425 10.4078C78.2564 8.43216 79.1375 6.31143 80.1518 4.60186C80.7938 3.51993 83.4241 0.975961 82.271 1.4789C79.5584 2.66202 76.9649 5.08703 74.7929 6.87811C69.6327 11.1333 64.3842 20.9583 63.6429 27.8038C63.2822 31.1349 65.4129 34.3825 66.7254 37.3917C67.4569 39.0688 71.42 43.2676 67.8237 41.31C60.3565 37.2455 52.0628 39.6873 44.0986 39.5651Z" fill="white"/>
<path d="M1.9184 72.8032C6.42371 55.5923 25.9455 39.2864 44.0986 39.5651C52.0628 39.6873 60.3565 37.2455 67.8237 41.31C71.42 43.2676 67.4569 39.0688 66.7254 37.3917C65.4129 34.3825 63.2822 31.1349 63.643 27.8038C64.3842 20.9583 69.6327 11.1333 74.7929 6.87811C76.9649 5.08703 79.5584 2.66202 82.271 1.4789C83.4241 0.975962 80.7938 3.51993 80.1518 4.60186C79.1375 6.31143 78.2564 8.43216 78.0425 10.4078C77.724 13.3489 77.4359 16.491 77.1313 19.661C76.8222 22.8763 79.1963 25.7961 78.9096 28.7795C78.28 35.3304 85.5285 40.8269 88.8215 45.3438C90.2013 47.2364 103.483 55.4792 96.366 54.94C91.569 54.5766 85.6665 54.7368 80.9307 52.8774C78.7017 52.0023 76.5202 51.4033 74.6192 49.8892C72.2313 47.9872 70.8358 46.5278 69.619 49.6271C67.6682 54.5958 61.4646 57.8253 56.7469 59.8829C51.2241 62.2917 46.5261 66.5395 40.9271 68.9815C37.0709 70.6634 30.7989 77.0073 26.0332 75.7218C21.5847 74.5219 15.1843 77.0334 10.6852 75.8199C8.30681 75.1783 6.44955 76.4533 3.93485 75.466C2.96683 75.086 2.08868 74.0648 1.91983 72.8026C1.82416 72.0874 2.64713 71.386 1.51555 71.8795" stroke="black" stroke-width="2" stroke-linecap="round"/>
</svg>
