<svg width="300" height="268" viewBox="0 0 300 268" fill="none" xmlns="http://www.w3.org/2000/svg">
<path d="M130.713 197.708C160.806 205.771 186.295 235.43 205.106 259.635C216.021 247.325 227.023 226.378 232.164 210.894C238.078 193.081 254.486 179.825 259.805 159.976C266.254 135.909 280.807 104.853 280.158 80.1465C280.042 75.717 284.072 50.2768 276.938 62.1752C271.393 71.4235 268.397 78.1152 259.12 85.1374C244.233 96.4072 221.987 115.562 203.409 100.538C193.586 92.5939 198.318 92.1536 198.082 77.8548C197.965 70.7817 193.541 56.241 188.954 50.0055C179.213 36.764 167.405 25.0762 158.889 10.325C148.887 -6.99802 119.976 -8.33208 113.124 -23.9712C109.065 -33.2357 52.723 -42.4886 67.9968 -38.396C89.7951 -32.5552 106.794 -22.9997 123.009 -8.62092C133.242 0.45321 165.034 26.3013 165.287 41.5902C165.488 53.7825 180.851 89.6084 167.718 99.2697C151.141 111.464 138.747 136.596 120.27 150.583C115.798 153.969 83.0469 177.134 72.1656 180.29C69.8383 179.781 68.5702 179.66 68.816 180.086C69.2212 180.787 70.4081 180.8 72.1656 180.29C84.481 182.985 126.457 196.567 130.713 197.708Z" fill="white" stroke="black" stroke-width="2" stroke-linecap="round"/>
<path d="M200.836 188.502C208.47 182.568 216.197 176.961 224.082 171.401" stroke="black" stroke-width="2" stroke-linecap="round"/>
</svg>
