<svg width="113" height="111" viewBox="0 0 113 111" fill="none" xmlns="http://www.w3.org/2000/svg">
<path d="M61.9605 50.2877C55.4169 33.5023 33.1221 21.671 15.6186 23.9757C15.6177 23.9763 15.6167 23.9768 15.6158 23.9773C14.5191 24.6054 13.9096 25.7949 13.923 26.8268C13.9577 29.5076 15.8251 30.7368 16.1265 33.1628C16.6967 37.7519 21.4023 42.6929 21.966 47.2305C22.57 52.0916 30.7494 55.479 33.7395 58.3927C38.0811 62.6232 43.7445 65.3493 48.027 69.5223C51.6852 73.087 56.9768 77.5781 62.2737 77.5095C65.5778 77.4667 64.7594 79.2959 63.906 82.2028C63.2266 84.5169 63.4934 86.7462 63.5242 89.1223C63.5895 94.1709 65.9479 99.5352 67.4108 104.08C69.5814 110.822 72.1809 95.5286 73.4033 93.5516C76.3207 88.8334 78.6565 80.1132 84.9125 78.2378C87.7615 77.3837 89.5554 74.1082 92.6259 73.1878C95.6533 72.2802 98.6487 71.3679 101.471 70.5589C103.366 70.0154 105.645 70.0307 107.596 70.3224C108.831 70.507 112.154 71.9713 111.26 71.1C109.157 69.0503 105.957 67.5754 103.497 66.2503C97.6537 63.1023 86.6587 61.9595 80.0902 63.8426C76.8939 64.759 74.7076 67.9336 72.4339 70.267C71.1667 71.5675 68.7927 76.7823 69.2444 72.7441C70.1824 64.3594 64.8316 57.6524 61.9605 50.2877Z" fill="white"/>
<path d="M15.6147 23.9763C33.1187 21.6693 55.4164 33.5011 61.9605 50.2877C64.8316 57.6524 70.1824 64.3594 69.2444 72.7441C68.7927 76.7823 71.1667 71.5675 72.4339 70.267C74.7076 67.9336 76.8939 64.759 80.0902 63.8426C86.6587 61.9595 97.6537 63.1023 103.497 66.2503C105.957 67.5754 109.157 69.0503 111.26 71.1C112.154 71.9713 108.831 70.507 107.596 70.3224C105.645 70.0307 103.366 70.0154 101.471 70.5589C98.6487 71.3679 95.6533 72.2802 92.6259 73.1878C89.5554 74.1082 87.7615 77.3837 84.9125 78.2378C78.6565 80.1132 76.3207 88.8334 73.4033 93.5516C72.1809 95.5286 69.5814 110.822 67.4108 104.08C65.9479 99.5352 63.5895 94.1709 63.5242 89.1223C63.4934 86.7462 63.2266 84.5169 63.906 82.2028C64.7594 79.2959 65.5778 77.4667 62.2737 77.5095C56.9768 77.5781 51.6852 73.087 48.027 69.5223C43.7445 65.3493 38.0811 62.6232 33.7395 58.3927C30.7494 55.479 22.57 52.0916 21.966 47.2305C21.4023 42.6929 16.6967 37.7519 16.1265 33.1628C15.8251 30.7368 13.9577 29.5076 13.923 26.8268C13.9096 25.7949 14.5191 24.6054 15.6158 23.9773C16.2372 23.6215 17.19 24.1151 16.3126 23.2601" stroke="black" stroke-width="2" stroke-linecap="round"/>
<path d="M46 47.9999C46 38.6707 39.19 43.2254 34 46.9999C35.5643 50.1286 39.9122 49.3902 42 51.9999C43.8832 54.354 46 60.1111 46 60.1111V47.9999Z" stroke="black" stroke-width="2" stroke-linecap="round"/>
</svg>
