<svg width="345" height="62" viewBox="0 0 345 62" fill="none" xmlns="http://www.w3.org/2000/svg">
<path d="M256.355 19.9836C283.906 26.8714 317.525 29.3243 344.418 39.8195C337.493 39.8195 329.992 43.2692 322.858 43.2692H299.572C288.491 43.2692 278.359 44.994 267.183 44.994C256.301 44.994 245.999 43.2692 235.369 43.2692C225.523 43.2692 215.308 39.8195 205.567 39.8195C198.561 39.8195 187.994 39.4557 181.324 37.2322C163.666 31.3462 140.661 34.6449 121.912 34.6449C113.884 34.6449 106.31 31.1952 98.6263 31.1952C93.1622 31.1952 80.3165 27.7455 93.4517 27.7455C102.93 27.7455 112.096 24.5684 121.912 24.2957C135.158 23.9278 146.904 23.2292 159.475 19.5045C172.135 15.7534 186.628 17.3963 199.722 17.3963C207.996 17.3963 216.105 19.1212 224.445 19.1212C234.648 19.1212 246.416 17.4988 256.355 19.9836Z" fill="white" stroke="black" stroke-width="2" stroke-linecap="round"/>
<path d="M87.4146 27.7457C77.2048 14.2687 62.4192 11.5191 46.7846 8.67641C44.0475 8.17875 40.1389 7.86845 36.2687 7.33265C29.8381 4.18204 22.7806 1.8728 18.4203 1.8728C8.38278 1.8728 22.4394 2.16494 24.9364 3.98096C27.4493 5.80852 31.8337 6.71865 36.2687 7.33265C41.8844 10.084 47.022 13.477 49.4677 16.5341C52.337 20.1207 58.4961 23.3835 62.3083 25.925C66.1711 28.5002 52.6636 25.6881 48.6053 23.4335C39.9135 18.6048 19.5339 18.9671 10.5626 22.9544C8.8932 23.6963 -2.42847 29.4705 2.03412 29.4705H21.0075C32.5837 29.4705 43.0883 31.1954 54.6423 31.1954H71.8908C77.7156 31.1954 82.3 27.7457 87.4146 27.7457Z" fill="white" stroke="black" stroke-width="2" stroke-linecap="round"/>
<path d="M266.8 46.719C255.302 55.0813 242.275 60.5179 227.991 60.5179C221.185 60.5179 229.151 57.7288 231.919 54.96C234.818 52.0612 238.421 44.5221 240.927 43.2693" stroke="black" stroke-width="2" stroke-linecap="round"/>
</svg>
