<svg width="179" height="126" viewBox="0 0 179 126" fill="none" xmlns="http://www.w3.org/2000/svg">
<path d="M85.4749 51.0854C107.412 32.9416 147.286 33.7449 169.68 50.3813C169.68 50.3827 169.681 50.3842 169.682 50.3856C170.714 52.0957 170.641 54.2064 169.829 55.6209C167.72 59.2953 164.197 59.5568 161.916 62.6744C157.602 68.5719 147.307 71.7763 143.041 77.6075C138.471 83.8545 124.574 82.2437 118.206 83.9679C108.961 86.4713 99.0463 85.8816 89.9262 88.351C82.1357 90.4603 71.3778 92.5932 64.1177 88.4269C59.5891 85.8281 59.3129 88.9825 58.2566 93.6517C57.4157 97.3688 55.3339 100.241 53.4649 103.498C49.4939 110.418 42.1146 116.011 36.6017 121.161C28.4223 128.801 36.5891 105.688 36.4211 102.019C36.0202 93.263 39.4984 79.4284 32.303 72.0305C29.0261 68.6614 29.0673 62.7603 25.5357 59.1293C22.0538 55.5493 18.6196 51.9873 15.3454 48.701C13.146 46.4935 9.98792 44.7628 7.07011 43.6659C5.22353 42.9716 -0.489957 42.4387 1.41424 41.9231C5.89369 40.7103 11.4454 41.1338 15.8596 41.195C26.347 41.3406 42.4049 48.2145 50.0258 55.8634C53.7343 59.5855 54.3124 65.6488 55.6579 70.6181C56.4077 73.3875 55.6767 82.412 58.1571 76.4896C63.3073 64.1927 75.85 59.0461 85.4749 51.0854Z" fill="white"/>
<path d="M169.685 50.385C147.292 33.7451 107.413 32.9403 85.4749 51.0854C75.85 59.0461 63.3073 64.1927 58.1571 76.4896C55.6767 82.412 56.4077 73.3875 55.6579 70.6181C54.3124 65.6488 53.7343 59.5855 50.0258 55.8634C42.4049 48.2145 26.3469 41.3406 15.8596 41.195C11.4454 41.1338 5.8937 40.7103 1.41424 41.9231C-0.489957 42.4387 5.22353 42.9716 7.0701 43.6659C9.98792 44.7628 13.146 46.4935 15.3454 48.701C18.6197 51.9873 22.0538 55.5493 25.5357 59.1293C29.0673 62.7603 29.0261 68.6614 32.303 72.0305C39.4984 79.4284 36.0202 93.263 36.4211 102.019C36.5891 105.688 28.4223 128.801 36.6017 121.161C42.1146 116.011 49.4939 110.418 53.4649 103.498C55.3339 100.241 57.4157 97.3688 58.2566 93.6517C59.3129 88.9825 59.5891 85.8281 64.1177 88.4269C71.3778 92.5932 82.1357 90.4603 89.9262 88.351C99.0463 85.8816 108.961 86.4713 118.206 83.9679C124.574 82.2437 138.471 83.8545 143.041 77.6075C147.307 71.7763 157.602 68.5719 161.916 62.6744C164.197 59.5568 167.72 59.2953 169.829 55.6209C170.641 54.2064 170.714 52.0957 169.682 50.3856C169.098 49.4168 167.403 49.3657 169.272 48.8598" stroke="black" stroke-width="2" stroke-linecap="round"/>
<path d="M107 60.4333C110.81 55.6707 117.596 53.6741 123 51.4333C124.628 54.6889 132.175 66.0933 128 69.4333C121.925 74.2933 116.721 75.4333 109 75.4333C105.646 75.4333 92.1979 77.2752 102 69.4333C103.905 67.9092 105.129 62.7718 107 60.4333Z" stroke="black" stroke-width="2" stroke-linecap="round"/>
</svg>
