<svg width="231" height="49" viewBox="0 0 231 49" fill="none" xmlns="http://www.w3.org/2000/svg">
<path d="M159.481 15.5027C181.543 21.0183 208.464 22.9825 230 31.3867C224.454 31.3867 218.448 34.1492 212.735 34.1492H194.088C185.215 34.1492 177.101 35.5304 168.152 35.5304C159.438 35.5304 151.188 34.1492 142.676 34.1492C134.792 34.1492 126.612 31.3867 118.812 31.3867C113.202 31.3867 104.74 31.0955 99.3981 29.3149C85.2583 24.6016 66.8365 27.2431 51.8228 27.2431C45.3945 27.2431 39.3295 24.4806 33.1764 24.4806C28.8009 24.4806 18.5144 21.7182 29.0327 21.7182C36.6227 21.7182 43.9628 19.1741 51.8228 18.9558C62.4302 18.6611 71.8361 18.1017 81.9027 15.1191C92.0405 12.1153 103.645 13.4309 114.131 13.4309C120.756 13.4309 127.25 14.8121 133.929 14.8121C142.099 14.8121 151.522 13.513 159.481 15.5027Z" fill="white" stroke="black" stroke-width="2" stroke-linecap="round"/>
<path d="M24.1982 21.7183C16.0225 10.9263 4.18264 8.72446 -8.33712 6.44814C-10.5289 6.04963 -13.6588 5.80115 -16.7579 5.3721C-21.9074 2.84917 -27.5589 1 -31.0505 1C-39.0882 1 -27.8321 1.23394 -25.8326 2.68816C-23.8203 4.15161 -20.3094 4.88042 -16.7579 5.3721C-12.261 7.5753 -8.14698 10.2923 -6.18856 12.7404C-3.89089 15.6124 1.04114 18.2252 4.09384 20.2603C7.18711 22.3225 -3.62937 20.0707 -6.87917 18.2652C-13.8393 14.3985 -30.1587 14.6887 -37.3427 17.8816C-38.6795 18.4757 -47.7456 23.0995 -44.1721 23.0995H-28.9787C-19.7088 23.0995 -11.297 24.4807 -2.0449 24.4807H11.7673C16.4316 24.4807 20.1027 21.7183 24.1982 21.7183Z" fill="white" stroke="black" stroke-width="2" stroke-linecap="round"/>
<path d="M167.845 36.9116C158.638 43.6079 148.207 47.9614 136.768 47.9614C131.318 47.9614 137.697 45.7279 139.914 43.5108C142.235 41.1895 145.121 35.1524 147.127 34.1492" stroke="black" stroke-width="2" stroke-linecap="round"/>
</svg>
