<svg width="401" height="70" viewBox="0 0 401 70" fill="none" xmlns="http://www.w3.org/2000/svg">
<path d="M103.111 21.9998C71.1649 29.9864 32.1839 32.8305 1 44.9998C9.03069 44.9998 17.7277 48.9998 26 48.9998H53C65.8488 48.9998 77.5974 50.9998 90.5556 50.9998C103.174 50.9998 115.12 48.9998 127.444 48.9998C138.861 48.9998 150.705 44.9998 162 44.9998C170.124 44.9998 182.376 44.5781 190.111 41.9998C210.586 35.175 237.26 38.9998 259 38.9998C268.308 38.9998 277.09 34.9998 286 34.9998C292.336 34.9998 307.231 30.9998 292 30.9998C281.01 30.9998 270.381 27.316 259 26.9998C243.641 26.5732 230.021 25.7632 215.444 21.4443C200.765 17.0948 183.961 18.9998 168.778 18.9998C159.184 18.9998 149.782 20.9998 140.111 20.9998C128.28 20.9998 114.636 19.1187 103.111 21.9998Z" fill="white" stroke="black" stroke-width="2" stroke-linecap="round"/>
<path d="M299 31C310.838 15.3733 327.983 12.185 346.111 8.88889C349.285 8.31185 353.817 7.95205 358.304 7.33078C365.761 3.6776 373.944 1 379 1C390.639 1 374.34 1.33874 371.444 3.44444C368.531 5.56353 363.447 6.61884 358.304 7.33078C351.793 10.521 345.836 14.4553 343 18C339.673 22.1588 332.531 25.942 328.111 28.8889C323.632 31.8749 339.294 28.6143 344 26C354.078 20.401 377.709 20.8212 388.111 25.4444C390.047 26.3047 403.174 33 398 33H376C362.577 33 350.397 35 337 35H317C310.246 35 304.93 31 299 31Z" fill="white" stroke="black" stroke-width="2" stroke-linecap="round"/>
<path d="M91 53C104.332 62.6962 119.437 69 136 69C143.891 69 134.655 65.766 131.444 62.5556C128.083 59.1943 123.905 50.4526 121 49" stroke="black" stroke-width="2" stroke-linecap="round"/>
</svg>
