<svg width="437" height="423" viewBox="0 0 437 423" fill="none" xmlns="http://www.w3.org/2000/svg">
<path d="M97.676 179.062C107.609 135.178 86.8441 82.6529 68.5597 42.3318C91.6336 36.6595 125.805 36.6863 149.054 40.5298C175.798 44.9511 203.776 32.8943 232.722 39.4462C267.82 47.3904 317.3 49.6759 348.441 67.1217C354.024 70.2495 389.25 82.2088 369.245 83.3243C353.695 84.1914 343.127 83.5201 327.913 90.6538C303.497 102.103 264.053 117.652 270.761 151.5C274.308 169.399 278.053 163.648 296.17 173.566C305.131 178.472 320.741 193.906 325.625 203.962C335.998 225.318 342.995 248.269 356.121 269.076C371.535 293.509 353.796 331.358 369.176 350.634C378.287 362.053 352.22 440.287 357.262 418.013C364.457 386.224 363.677 358.071 356.204 327.676C351.489 308.494 339.835 250.476 320.463 239.871C305.016 231.414 269.558 187.684 248.378 197.971C221.643 210.957 181.186 209.895 150.883 224.104C143.548 227.543 91.9137 253.822 80.5617 265.607C79.6474 268.924 78.9487 270.626 78.57 270.026C77.9455 269.036 78.7282 267.51 80.5617 265.607C85.3996 248.054 96.2709 185.27 97.676 179.062Z" fill="white" stroke="black" stroke-width="2" stroke-linecap="round"/>
<path d="M156.604 95.6293C169.322 89.8622 181.685 83.757 194.095 77.4197" stroke="black" stroke-width="2" stroke-linecap="round"/>
</svg>
