<svg width="100" height="77" viewBox="0 0 100 77" fill="none" xmlns="http://www.w3.org/2000/svg">
<path d="M55.4864 39.1957C73.6381 38.9171 93.1584 55.2205 97.6656 72.43C97.6654 72.431 97.6653 72.4321 97.6651 72.4332C97.4963 73.6955 96.6181 74.7166 95.6501 75.0966C93.1354 76.0839 91.2782 74.8089 88.8997 75.4505C84.4006 76.664 78.0003 74.1525 73.5517 75.3524C68.786 76.6379 62.514 70.294 58.6578 68.6121C53.0588 66.1701 48.3609 61.9224 42.838 59.5136C38.1203 57.4559 31.9168 54.2265 29.966 49.2577C28.7492 46.1584 27.3536 47.6178 24.9657 49.5198C23.0648 51.034 20.8832 51.633 18.6543 52.5081C13.9185 54.3674 8.01592 54.2072 3.21898 54.5706C-3.89804 55.1098 9.38371 46.8671 10.7635 44.9745C14.0565 40.4575 21.305 34.961 20.6754 28.4101C20.3886 25.4267 22.7627 22.5069 22.4537 19.2917C22.149 16.1216 21.861 12.9795 21.5425 10.0384C21.3286 8.06278 20.4475 5.94205 19.4331 4.23247C18.7912 3.15055 16.1609 0.606576 17.314 1.10952C20.0266 2.29263 22.6201 4.71765 24.7921 6.50872C29.9523 10.764 35.2007 20.5889 35.942 27.4344C36.3027 30.7655 34.172 34.0131 32.8595 37.0223C32.1281 38.6994 28.165 42.8982 31.7613 40.9406C39.2285 36.8761 47.5221 39.3179 55.4864 39.1957Z" fill="white"/>
<path d="M97.6666 72.4338C93.1613 55.2229 73.6395 38.917 55.4864 39.1957C47.5221 39.3179 39.2285 36.8761 31.7613 40.9406C28.165 42.8982 32.1281 38.6994 32.8596 37.0223C34.172 34.0131 36.3027 30.7655 35.942 27.4344C35.2007 20.5889 29.9523 10.764 24.7921 6.50872C22.6201 4.71765 20.0266 2.29263 17.314 1.10951C16.1609 0.606577 18.7912 3.15055 19.4331 4.23247C20.4475 5.94205 21.3286 8.06278 21.5425 10.0384C21.861 12.9795 22.149 16.1216 22.4537 19.2917C22.7627 22.5069 20.3886 25.4267 20.6754 28.4101C21.305 34.961 14.0565 40.4575 10.7635 44.9745C9.38371 46.8671 -3.89804 55.1098 3.21898 54.5706C8.01592 54.2072 13.9185 54.3674 18.6543 52.5081C20.8832 51.633 23.0648 51.034 24.9657 49.5198C27.3536 47.6178 28.7492 46.1584 29.966 49.2577C31.9168 54.2265 38.1203 57.4559 42.838 59.5136C48.3609 61.9224 53.0588 66.1701 58.6578 68.6121C62.514 70.294 68.786 76.6379 73.5517 75.3524C78.0003 74.1525 84.4006 76.664 88.8997 75.4505C91.2782 74.8089 93.1354 76.0839 95.6501 75.0966C96.6181 74.7166 97.4963 73.6955 97.6651 72.4332C97.7608 71.718 96.9378 71.0166 98.0694 71.5102" stroke="black" stroke-width="2" stroke-linecap="round"/>
</svg>
