<svg width="3411" height="429" viewBox="0 0 3411 429" fill="none" xmlns="http://www.w3.org/2000/svg">
<path d="M1331 403.959C1319.8 418.359 1332.33 421.959 1340 421.959H1377C1386.6 421.959 1385.67 413.292 1384 408.959C1376.8 392.159 1364.33 401.959 1359 408.959C1351.8 398.559 1337.33 401.292 1331 403.959Z" fill="white"/>
<path d="M1349 417.959C1343.44 419.017 1331.36 423.006 1327.44 415.959C1324.92 411.419 1329.79 405.593 1333 403.07C1338.24 398.956 1342.55 397.672 1349 399.514C1352.5 400.514 1354.27 402.449 1356.89 404.848C1357.99 405.857 1358.56 410.123 1359.11 408.737C1369.34 383.165 1401.1 411.926 1377 419.959" stroke="black" stroke-width="2" stroke-linecap="round"/>
<path d="M2631.83 406.595C2643.03 420.995 2630.5 424.595 2622.83 424.595H2585.83C2576.23 424.595 2577.16 415.929 2578.83 411.595C2586.03 394.795 2598.5 404.595 2603.83 411.595C2611.03 401.195 2625.5 403.929 2631.83 406.595Z" fill="white"/>
<path d="M2613.83 420.595C2619.39 421.654 2631.47 425.642 2635.39 418.595C2637.91 414.055 2633.04 408.23 2629.83 405.707C2624.6 401.592 2620.28 400.309 2613.83 402.151C2610.33 403.15 2608.56 405.086 2605.94 407.484C2604.84 408.493 2604.27 412.759 2603.72 411.373C2593.49 385.801 2561.73 414.562 2585.83 422.595" stroke="black" stroke-width="2" stroke-linecap="round"/>
<path d="M866.52 413.535C872.754 421.551 865.778 423.555 861.511 423.555H840.916C835.572 423.555 836.092 418.731 837.02 416.319C841.027 406.967 847.966 412.422 850.935 416.319C854.943 410.53 862.995 412.051 866.52 413.535Z" fill="white"/>
<path d="M856.501 421.328C859.594 421.917 866.321 424.137 868.5 420.215C869.904 417.688 867.195 414.445 865.407 413.041C862.493 410.751 860.09 410.036 856.501 411.062C854.555 411.618 853.567 412.695 852.11 414.03C851.498 414.592 851.182 416.966 850.873 416.195C845.18 401.961 827.502 417.97 840.916 422.441" stroke="black" stroke-width="2" stroke-linecap="round"/>
<path d="M2097.52 415.115C2103.75 423.13 2096.78 425.134 2092.51 425.134H2071.92C2066.57 425.134 2067.09 420.31 2068.02 417.898C2072.03 408.546 2078.97 414.001 2081.94 417.898C2085.94 412.109 2094 413.63 2097.52 415.115Z" fill="white"/>
<path d="M2087.5 422.907C2090.59 423.496 2097.32 425.716 2099.5 421.794C2100.9 419.267 2098.19 416.024 2096.41 414.62C2093.49 412.33 2091.09 411.615 2087.5 412.641C2085.55 413.197 2084.57 414.274 2083.11 415.609C2082.5 416.171 2082.18 418.546 2081.87 417.774C2076.18 403.54 2058.5 419.549 2071.92 424.02" stroke="black" stroke-width="2" stroke-linecap="round"/>
<path d="M2311.52 415.115C2317.75 423.13 2310.78 425.134 2306.51 425.134H2285.92C2280.57 425.134 2281.09 420.31 2282.02 417.898C2286.03 408.546 2292.97 414.001 2295.94 417.898C2299.94 412.109 2308 413.63 2311.52 415.115Z" fill="white"/>
<path d="M2301.5 422.907C2304.59 423.496 2311.32 425.716 2313.5 421.794C2314.9 419.267 2312.19 416.024 2310.41 414.62C2307.49 412.33 2305.09 411.615 2301.5 412.641C2299.55 413.197 2298.57 414.274 2297.11 415.609C2296.5 416.171 2296.18 418.546 2295.87 417.774C2290.18 403.54 2272.5 419.549 2285.92 424.02" stroke="black" stroke-width="2" stroke-linecap="round"/>
<path d="M3407.52 411.115C3413.75 419.13 3406.78 421.134 3402.51 421.134H3381.92C3376.57 421.134 3377.09 416.31 3378.02 413.898C3382.03 404.546 3388.97 410.001 3391.94 413.898C3395.94 408.109 3404 409.63 3407.52 411.115Z" fill="white"/>
<path d="M3397.5 418.907C3400.59 419.496 3407.32 421.716 3409.5 417.794C3410.9 415.267 3408.19 412.024 3406.41 410.62C3403.49 408.33 3401.09 407.615 3397.5 408.641C3395.55 409.197 3394.57 410.274 3393.11 411.609C3392.5 412.171 3392.18 414.546 3391.87 413.774C3386.18 399.54 3368.5 415.549 3381.92 420.02" stroke="black" stroke-width="2" stroke-linecap="round"/>
<path d="M406.52 417.074C412.754 425.089 405.778 427.093 401.511 427.093H380.916C375.572 427.093 376.092 422.269 377.02 419.857C381.027 410.505 387.966 415.96 390.935 419.857C394.943 414.068 402.995 415.589 406.52 417.074Z" fill="white"/>
<path d="M396.501 424.866C399.594 425.455 406.321 427.675 408.5 423.753C409.904 421.226 407.195 417.983 405.407 416.579C402.493 414.289 400.09 413.574 396.501 414.6C394.555 415.156 393.567 416.233 392.11 417.568C391.498 418.13 391.182 420.505 390.873 419.733C385.18 405.499 367.502 421.508 380.916 425.979" stroke="black" stroke-width="2" stroke-linecap="round"/>
<path d="M740.909 396.637C723.539 418.971 742.977 424.554 754.868 424.554H812.253C827.142 424.554 825.695 411.113 823.11 404.392C811.943 378.336 792.608 393.535 784.336 404.392C773.169 388.262 750.732 392.501 740.909 396.637Z" fill="white"/>
<path d="M768.827 418.351C760.21 419.992 741.467 426.178 735.395 415.249C731.483 408.207 739.031 399.172 744.011 395.259C752.133 388.877 758.826 386.887 768.827 389.744C774.251 391.294 777.003 394.295 781.062 398.016C782.769 399.581 783.648 406.197 784.508 404.047C800.373 364.387 849.631 408.993 812.253 421.452" stroke="black" stroke-width="2" stroke-linecap="round"/>
<path d="M3259.84 380.658C3287.18 415.808 3256.59 424.595 3237.87 424.595H3147.56C3124.12 424.595 3126.4 403.44 3130.47 392.863C3148.05 351.855 3178.48 375.776 3191.49 392.863C3209.07 367.477 3244.38 374.149 3259.84 380.658Z" fill="white"/>
<path d="M3215.9 414.832C3229.47 417.415 3258.96 427.15 3268.52 409.95C3274.68 398.867 3262.8 384.647 3254.96 378.488C3242.18 368.446 3231.64 365.313 3215.9 369.809C3207.37 372.248 3203.04 376.973 3196.65 382.828C3193.96 385.29 3192.58 395.704 3191.22 392.32C3166.26 329.901 3088.73 400.104 3147.56 419.713" stroke="black" stroke-width="2" stroke-linecap="round"/>
<path d="M1521.91 398.678C1504.54 421.012 1523.98 426.595 1535.87 426.595H1593.25C1608.14 426.595 1606.69 413.154 1604.11 406.433C1592.94 380.377 1573.61 395.576 1565.34 406.433C1554.17 390.303 1531.73 394.542 1521.91 398.678Z" fill="white"/>
<path d="M1549.83 420.392C1541.21 422.033 1522.47 428.219 1516.39 417.29C1512.48 410.248 1520.03 401.213 1525.01 397.3C1533.13 390.918 1539.83 388.928 1549.83 391.785C1555.25 393.335 1558 396.336 1562.06 400.057C1563.77 401.622 1564.65 408.238 1565.51 406.088C1581.37 366.428 1630.63 411.034 1593.25 423.493" stroke="black" stroke-width="2" stroke-linecap="round"/>
<path d="M148.909 388.009C131.539 416.445 150.977 423.554 162.868 423.554H220.253C235.142 423.554 233.695 406.44 231.11 397.882C219.943 364.706 200.608 384.059 192.336 397.882C181.169 377.345 158.732 382.743 148.909 388.009Z" fill="white"/>
<path d="M176.827 415.655C168.21 417.745 149.467 425.621 143.395 411.706C139.483 402.74 147.031 391.236 152.011 386.253C160.133 378.128 166.826 375.594 176.827 379.232C182.251 381.205 185.003 385.027 189.062 389.764C190.769 391.756 191.648 400.181 192.508 397.444C208.373 346.945 257.631 403.741 220.253 419.605" stroke="black" stroke-width="2" stroke-linecap="round"/>
<path d="M242.831 407.554C254.031 421.954 241.498 425.554 233.831 425.554H196.831C187.231 425.554 188.165 416.888 189.831 412.554C197.031 395.754 209.498 405.554 214.831 412.554C222.031 402.154 236.498 404.888 242.831 407.554Z" fill="white"/>
<path d="M224.832 421.554C230.387 422.613 242.472 426.601 246.387 419.554C248.909 415.014 244.043 409.189 240.832 406.666C235.595 402.551 231.279 401.268 224.832 403.11C221.334 404.109 219.56 406.045 216.943 408.443C215.842 409.452 215.275 413.718 214.72 412.332C204.492 386.76 172.732 415.521 196.832 423.554" stroke="black" stroke-width="2" stroke-linecap="round"/>
<path d="M2386.32 367.098C2357.87 413.675 2389.7 425.319 2409.18 425.319H2503.17C2527.56 425.319 2525.19 397.287 2520.95 383.271C2502.66 328.931 2470.99 360.629 2457.45 383.271C2439.16 349.632 2402.41 358.473 2386.32 367.098Z" fill="white"/>
<path d="M2432.04 412.381C2417.93 415.804 2387.23 428.705 2377.28 405.912C2370.88 391.227 2383.24 372.384 2391.4 364.223C2404.7 350.915 2415.66 346.764 2432.04 352.723C2440.93 355.955 2445.44 362.215 2452.08 369.973C2454.88 373.237 2456.32 387.036 2457.73 382.552C2483.71 299.84 2564.39 392.867 2503.17 418.85" stroke="black" stroke-width="2" stroke-linecap="round"/>
<path d="M2540.15 399.113C2558.5 422.699 2537.97 428.595 2525.41 428.595H2464.81C2449.09 428.595 2450.61 414.4 2453.34 407.302C2465.14 379.785 2485.56 395.837 2494.29 407.302C2506.08 390.268 2529.78 394.745 2540.15 399.113Z" fill="white"/>
<path d="M2510.67 422.044C2519.77 423.777 2539.57 430.31 2545.98 418.768C2550.11 411.331 2542.14 401.79 2536.88 397.657C2528.3 390.918 2521.23 388.816 2510.67 391.833C2504.94 393.47 2502.04 396.64 2497.75 400.569C2495.95 402.221 2495.02 409.209 2494.11 406.938C2477.36 365.054 2425.34 412.162 2464.81 425.32" stroke="black" stroke-width="2" stroke-linecap="round"/>
<path d="M1234 362.848C1259.49 369.496 1259.1 392.328 1259.01 413.829C1259.2 423.798 1262.85 422.959 1272.56 422.959C1277.49 422.959 1287.78 425.061 1292.11 422.515C1296.35 420.019 1293 388.438 1293 382.959C1293 357.822 1305 329.644 1286 309.181C1281.8 304.657 1275.95 299.758 1270.89 295.959C1264.81 291.401 1261.78 287.937 1257 281.959C1253.14 277.134 1246.86 277.452 1242.11 274.737C1238.67 272.773 1239.78 262.538 1238.11 259.403C1232.84 249.517 1231.35 241.974 1223.89 234.07C1220.27 230.235 1214.98 225.325 1212 219.959C1208.45 213.569 1205.36 207.081 1200 202.959C1194.3 198.574 1188.14 200.178 1183 195.848C1180.13 193.434 1172.58 194.959 1169.11 194.959C1165.52 194.959 1154.78 194.451 1158.33 194.959C1167.11 196.213 1177.45 199.034 1185.89 201.848C1203.52 207.726 1207 219.36 1207 235.959C1207 240.338 1214.31 248.467 1217 251.959C1221.37 257.635 1220.74 265.002 1223.44 271.403C1224.36 273.57 1233.67 280.718 1236.56 280.959C1243.61 281.546 1243 288.497 1243 293.848V311.848C1243 312.48 1248.97 323.868 1249.89 324.515C1262.1 333.133 1279 332.259 1279 351.07C1279 369.593 1285.94 386.847 1280.56 405.403C1279.45 409.211 1273 426.446 1273 413.403V394.959C1273 387.199 1271 379.712 1271 372.07C1271 365.184 1265.99 360.86 1265.11 354.737C1264.37 349.533 1264.18 340.178 1259 337.07C1254.25 334.22 1248.86 334.606 1243.89 332.515C1230.05 326.689 1243.99 311.353 1236 304.959C1227.86 298.444 1219.4 287.846 1219 277.403C1218.55 265.662 1214.86 251.07 1202.11 245.403C1190.76 240.359 1187.93 237.964 1181.11 227.737C1176.09 220.199 1169.26 216.03 1162.11 210.181C1156.72 205.767 1139.93 208.696 1132.56 205.848C1124.78 202.843 1120.94 195.888 1112.56 193.403C1108.13 192.091 1102.09 190.738 1101.11 184.848C1098.45 168.902 1086.64 164.251 1074.11 157.737C1066.46 153.758 1062.01 150.959 1053 150.959C1050.19 150.959 1058.04 152.751 1059 153.07C1076.56 158.923 1071.97 177.517 1086.11 188.515C1097.04 197.013 1110.43 196.485 1121.44 204.959C1126.84 209.107 1127.29 217.31 1130.22 223.181C1136.77 236.286 1150.85 237.645 1163 242.959C1173.13 247.39 1181.29 258.262 1191 261.403C1204.63 265.812 1206.03 286.073 1197.11 295.737C1182.34 311.739 1218.36 313.89 1219 322.515C1219.61 330.71 1219 339.189 1219 347.403C1219 358.461 1223.19 360.028 1234 362.848Z" fill="white"/>
<path d="M1259 416.959C1259 394.59 1260.73 369.82 1234 362.848C1223.19 360.028 1219 358.461 1219 347.403C1219 339.189 1219.61 330.71 1219 322.515C1218.36 313.89 1182.34 311.739 1197.11 295.737C1206.03 286.073 1204.63 265.812 1191 261.403C1181.29 258.262 1173.13 247.39 1163 242.959C1150.85 237.645 1136.77 236.286 1130.22 223.181C1127.29 217.31 1126.84 209.107 1121.44 204.959C1110.43 196.485 1097.04 197.013 1086.11 188.515C1071.97 177.517 1076.56 158.923 1059 153.07C1058.04 152.751 1050.19 150.959 1053 150.959C1062.01 150.959 1066.46 153.758 1074.11 157.737C1086.64 164.251 1098.45 168.902 1101.11 184.848C1102.09 190.738 1108.13 192.091 1112.56 193.403C1120.94 195.888 1124.78 202.843 1132.56 205.848C1139.93 208.696 1156.72 205.767 1162.11 210.181C1169.26 216.03 1176.09 220.199 1181.11 227.737C1187.93 237.964 1190.76 240.359 1202.11 245.403C1214.86 251.07 1218.55 265.662 1219 277.403C1219.4 287.846 1227.86 298.444 1236 304.959C1243.99 311.353 1230.05 326.689 1243.89 332.515C1248.86 334.606 1254.25 334.22 1259 337.07C1264.18 340.178 1264.37 349.533 1265.11 354.737C1265.99 360.86 1271 365.184 1271 372.07C1271 379.712 1273 387.199 1273 394.959C1273 401.107 1273 407.255 1273 413.403C1273 426.446 1279.45 409.211 1280.56 405.403C1285.94 386.847 1279 369.593 1279 351.07C1279 332.259 1262.1 333.133 1249.89 324.515C1248.97 323.868 1243 312.48 1243 311.848C1243 305.848 1243 299.848 1243 293.848C1243 288.497 1243.61 281.546 1236.56 280.959C1233.67 280.718 1224.36 273.57 1223.44 271.403C1220.74 265.002 1221.37 257.635 1217 251.959C1214.31 248.467 1207 240.338 1207 235.959C1207 219.36 1203.52 207.726 1185.89 201.848C1177.45 199.034 1167.11 196.213 1158.33 194.959C1154.78 194.451 1165.52 194.959 1169.11 194.959C1172.58 194.959 1180.13 193.434 1183 195.848C1188.14 200.178 1194.3 198.574 1200 202.959C1205.36 207.081 1208.45 213.569 1212 219.959C1214.98 225.325 1220.27 230.235 1223.89 234.07C1231.35 241.974 1232.84 249.517 1238.11 259.403C1239.78 262.538 1238.67 272.773 1242.11 274.737C1246.86 277.452 1253.14 277.134 1257 281.959C1261.78 287.937 1264.81 291.401 1270.89 295.959C1275.95 299.758 1281.8 304.657 1286 309.181C1305 329.644 1293 357.822 1293 382.959C1293 388.438 1296.35 420.019 1292.11 422.515C1287.78 425.061 1277.49 422.959 1272.56 422.959C1262.58 422.959 1259 423.846 1259 412.959" stroke="black" stroke-width="2" stroke-linecap="round"/>
<path d="M1766.66 391.278C1752.58 394.958 1752.8 407.595 1752.85 419.496C1752.74 425.013 1750.72 424.549 1745.36 424.549C1742.64 424.549 1736.95 425.712 1734.56 424.303C1732.21 422.921 1734.07 405.442 1734.07 402.409C1734.07 388.496 1727.44 372.9 1737.93 361.574C1740.25 359.07 1743.48 356.359 1746.28 354.256C1749.64 351.733 1751.31 349.816 1753.96 346.507C1756.09 343.836 1759.56 344.012 1762.18 342.509C1764.08 341.422 1763.47 335.758 1764.39 334.023C1767.3 328.551 1768.12 324.376 1772.25 320.001C1774.25 317.878 1777.17 315.161 1778.82 312.191C1780.78 308.654 1782.49 305.063 1785.45 302.781C1788.6 300.354 1792 301.242 1794.84 298.845C1796.42 297.509 1800.6 298.353 1802.51 298.353C1804.5 298.353 1810.43 298.072 1808.47 298.353C1803.62 299.047 1797.91 300.609 1793.24 302.166C1783.5 305.42 1781.58 311.859 1781.58 321.046C1781.58 323.47 1777.54 327.97 1776.06 329.902C1773.64 333.044 1773.99 337.122 1772.49 340.665C1771.99 341.864 1766.85 345.82 1765.25 345.953C1761.36 346.279 1761.69 350.126 1761.69 353.087V363.05C1761.69 363.4 1758.39 369.703 1757.88 370.061C1751.14 374.831 1741.8 374.347 1741.8 384.759C1741.8 395.011 1737.96 404.561 1740.94 414.832C1741.55 416.939 1745.12 426.479 1745.12 419.26V409.051C1745.12 404.756 1746.22 400.612 1746.22 396.382C1746.22 392.571 1748.99 390.178 1749.47 386.789C1749.88 383.908 1749.99 378.731 1752.85 377.01C1755.47 375.433 1758.45 375.647 1761.2 374.489C1768.84 371.264 1761.14 362.776 1765.56 359.237C1770.06 355.631 1774.73 349.765 1774.95 343.985C1775.2 337.487 1777.24 329.41 1784.28 326.274C1790.55 323.482 1792.12 322.156 1795.88 316.496C1798.66 312.324 1802.43 310.016 1806.38 306.779C1809.36 304.336 1818.64 305.957 1822.71 304.38C1827.01 302.717 1829.13 298.868 1833.76 297.492C1836.21 296.766 1839.54 296.017 1840.08 292.757C1841.55 283.931 1848.08 281.357 1855 277.751C1859.23 275.549 1861.69 274 1866.67 274C1868.22 274 1863.88 274.992 1863.35 275.168C1853.65 278.408 1856.18 288.7 1848.37 294.787C1842.33 299.49 1834.94 299.198 1828.85 303.888C1825.87 306.184 1825.62 310.725 1824 313.974C1820.38 321.227 1812.6 321.98 1805.89 324.921C1800.29 327.374 1795.79 333.391 1790.42 335.13C1782.89 337.57 1782.12 348.784 1787.04 354.133C1795.21 362.99 1775.3 364.18 1774.95 368.954C1774.62 373.49 1774.95 378.183 1774.95 382.73C1774.95 388.85 1772.64 389.717 1766.66 391.278Z" fill="white"/>
<path d="M1752.85 421.228C1752.85 408.847 1751.9 395.137 1766.66 391.278C1772.64 389.717 1774.95 388.85 1774.95 382.73C1774.95 378.183 1774.62 373.49 1774.95 368.954C1775.3 364.18 1795.21 362.99 1787.04 354.133C1782.12 348.784 1782.89 337.57 1790.42 335.13C1795.79 333.391 1800.29 327.374 1805.89 324.921C1812.6 321.98 1820.38 321.227 1824 313.974C1825.62 310.725 1825.87 306.184 1828.85 303.888C1834.94 299.198 1842.33 299.49 1848.37 294.787C1856.18 288.7 1853.65 278.408 1863.35 275.168C1863.88 274.992 1868.22 274 1866.67 274C1861.69 274 1859.23 275.549 1855 277.751C1848.08 281.357 1841.55 283.931 1840.08 292.757C1839.54 296.017 1836.21 296.766 1833.76 297.492C1829.13 298.868 1827.01 302.717 1822.71 304.38C1818.64 305.957 1809.36 304.336 1806.38 306.779C1802.43 310.016 1798.66 312.324 1795.88 316.496C1792.12 322.156 1790.55 323.482 1784.28 326.274C1777.24 329.41 1775.2 337.487 1774.95 343.985C1774.73 349.765 1770.06 355.631 1765.56 359.237C1761.14 362.776 1768.84 371.264 1761.2 374.489C1758.45 375.647 1755.47 375.433 1752.85 377.01C1749.99 378.731 1749.88 383.908 1749.47 386.789C1748.99 390.178 1746.22 392.571 1746.22 396.382C1746.22 400.612 1745.12 404.756 1745.12 409.051C1745.12 412.454 1745.12 415.857 1745.12 419.26C1745.12 426.479 1741.55 416.939 1740.94 414.832C1737.96 404.561 1741.8 395.011 1741.8 384.759C1741.8 374.347 1751.14 374.831 1757.88 370.061C1758.39 369.703 1761.69 363.4 1761.69 363.05C1761.69 359.729 1761.69 356.408 1761.69 353.087C1761.69 350.126 1761.36 346.279 1765.25 345.953C1766.85 345.82 1771.99 341.864 1772.49 340.665C1773.99 337.122 1773.64 333.044 1776.06 329.902C1777.54 327.97 1781.58 323.47 1781.58 321.046C1781.58 311.859 1783.5 305.42 1793.24 302.166C1797.91 300.609 1803.62 299.047 1808.47 298.353C1810.43 298.072 1804.5 298.353 1802.51 298.353C1800.6 298.353 1796.42 297.509 1794.84 298.845C1792 301.242 1788.6 300.354 1785.45 302.781C1782.49 305.063 1780.78 308.654 1778.82 312.191C1777.17 315.161 1774.25 317.878 1772.25 320.001C1768.12 324.376 1767.3 328.551 1764.39 334.023C1763.47 335.758 1764.08 341.422 1762.18 342.51C1759.56 344.012 1756.09 343.836 1753.96 346.507C1751.31 349.816 1749.64 351.733 1746.28 354.256C1743.48 356.359 1740.25 359.07 1737.93 361.574C1727.44 372.9 1734.07 388.496 1734.07 402.409C1734.07 405.442 1732.21 422.921 1734.56 424.303C1736.95 425.712 1742.64 424.549 1745.36 424.549C1750.87 424.549 1752.85 425.04 1752.85 419.014" stroke="black" stroke-width="2" stroke-linecap="round"/>
<path d="M1092.35 406.579C1096.01 410.972 1094.81 418.284 1094.81 423.491C1093.43 422.108 1087.85 425.749 1084.52 424.798C1082.75 424.292 1083.75 415.715 1083.75 413.805C1083.75 405.8 1075.7 402.957 1074 395.279C1072.79 389.861 1066.77 388.833 1064.32 384.747C1061.16 379.482 1050.73 377.189 1050.73 370.218C1050.73 365.525 1051.95 360.513 1051.95 355.611C1051.95 350.678 1049.19 348.131 1049.19 343.235C1049.19 333.071 1032.43 331.824 1031.29 323.862C1030.25 316.541 1027.42 310.022 1021.62 305.182C1015.53 300.11 1016.01 291.62 1016.01 284.426C1016.01 280.816 1018.77 279.155 1018.77 274.663C1018.77 271.062 1020.35 282.342 1023.23 284.503C1026.33 286.831 1028.7 289.027 1030.91 292.344C1031.82 293.712 1031.1 296.313 1031.22 297.879C1031.39 300.202 1033.52 300.112 1034.29 302.03C1038.38 312.262 1050.7 318.004 1059.48 323.555C1063.24 325.929 1068.54 325.88 1068.54 330.781C1068.54 334.485 1069.23 338.849 1066.55 341.851C1065.07 343.504 1058.99 351.009 1058.87 352.613C1058.41 358.284 1061.62 358.019 1064.09 361.838C1065.52 364.044 1069.05 367.666 1071.31 369.218C1074.01 371.076 1075.45 375.458 1077.45 378.136C1079.34 380.658 1084.85 380.806 1085.13 384.439C1085.39 387.826 1085.13 391.339 1085.13 394.74C1085.13 399.805 1089.26 402.868 1092.35 406.579Z" fill="white" stroke="black" stroke-width="2" stroke-linecap="round"/>
<path d="M2926.35 404.62C2930.01 409.013 2928.81 416.325 2928.81 421.532C2927.43 420.149 2921.85 423.79 2918.52 422.839C2916.75 422.333 2917.75 413.756 2917.75 411.846C2917.75 403.841 2909.7 400.998 2908 393.32C2906.79 387.902 2900.77 386.874 2898.32 382.788C2895.16 377.524 2884.73 375.23 2884.73 368.259C2884.73 363.566 2885.95 358.554 2885.95 353.652C2885.95 348.719 2883.19 346.172 2883.19 341.276C2883.19 331.112 2866.43 329.865 2865.29 321.903C2864.25 314.582 2861.42 308.063 2855.62 303.223C2849.53 298.151 2850.01 289.661 2850.01 282.467C2850.01 278.857 2852.77 277.196 2852.77 272.704C2852.77 269.103 2854.35 280.383 2857.23 282.544C2860.33 284.872 2862.7 287.068 2864.91 290.385C2865.82 291.753 2865.1 294.354 2865.22 295.92C2865.39 298.243 2867.52 298.153 2868.29 300.071C2872.38 310.303 2884.7 316.045 2893.48 321.596C2897.24 323.971 2902.54 323.921 2902.54 328.822C2902.54 332.526 2903.23 336.89 2900.55 339.892C2899.07 341.545 2892.99 349.05 2892.87 350.654C2892.41 356.325 2895.62 356.06 2898.09 359.879C2899.52 362.085 2903.05 365.707 2905.31 367.259C2908.01 369.117 2909.45 373.499 2911.45 376.177C2913.34 378.699 2918.85 378.847 2919.13 382.48C2919.39 385.867 2919.13 389.38 2919.13 392.781C2919.13 397.846 2923.26 400.909 2926.35 404.62Z" fill="white" stroke="black" stroke-width="2" stroke-linecap="round"/>
<path d="M2.90918 411.691C0.270245 414.862 1.13583 420.141 1.13583 423.9C2.13334 422.901 6.16187 425.53 8.56173 424.843C9.8392 424.478 9.1159 418.286 9.1159 416.908C9.1159 411.129 14.9238 409.077 16.1539 403.534C17.0217 399.623 21.3689 398.882 23.1364 395.932C25.4134 392.132 32.9452 390.476 32.9452 385.444C32.9452 382.056 32.0586 378.438 32.0586 374.9C32.0586 371.339 34.0536 369.501 34.0536 365.966C34.0536 358.63 46.1458 357.729 46.9658 351.982C47.7197 346.697 49.7615 341.991 53.9483 338.497C58.3359 334.836 57.9938 328.708 57.9938 323.515C57.9938 320.909 55.9988 319.71 55.9988 316.467C55.9988 313.868 54.8613 322.01 52.7846 323.57C50.5462 325.251 48.8368 326.836 47.2429 329.23C46.5853 330.218 47.108 332.095 47.0212 333.226C46.8924 334.903 45.3576 334.838 44.8045 336.222C41.8541 343.608 32.9637 347.753 26.6277 351.76C23.9173 353.474 20.0885 353.438 20.0885 356.976C20.0885 359.65 19.5929 362.8 21.5293 364.967C22.5955 366.16 26.9785 371.578 27.071 372.736C27.3981 376.829 25.0843 376.638 23.3027 379.395C22.2736 380.988 19.7211 383.602 18.0935 384.722C16.1455 386.063 15.1077 389.227 13.6601 391.159C12.2964 392.98 8.31987 393.087 8.11839 395.71C7.9306 398.154 8.11839 400.69 8.11839 403.146C8.11839 406.801 5.13848 409.013 2.90918 411.691Z" fill="white" stroke="black" stroke-width="2" stroke-linecap="round"/>
<path d="M32.9092 411.691C30.2702 414.862 31.1358 420.141 31.1358 423.9C32.1333 422.901 36.1619 425.53 38.5617 424.843C39.8392 424.478 39.1159 418.286 39.1159 416.908C39.1159 411.129 44.9238 409.077 46.1539 403.534C47.0217 399.623 51.3689 398.882 53.1364 395.932C55.4134 392.132 62.9452 390.476 62.9452 385.444C62.9452 382.056 62.0586 378.438 62.0586 374.9C62.0586 371.339 64.0536 369.501 64.0536 365.966C64.0536 358.63 76.1458 357.729 76.9658 351.982C77.7197 346.697 79.7615 341.991 83.9483 338.497C88.3359 334.836 87.9938 328.708 87.9938 323.515C87.9938 320.909 85.9988 319.71 85.9988 316.467C85.9988 313.868 84.8613 322.01 82.7846 323.57C80.5462 325.251 78.8368 326.836 77.2429 329.23C76.5853 330.218 77.108 332.095 77.0212 333.226C76.8924 334.903 75.3576 334.838 74.8045 336.222C71.8541 343.608 62.9637 347.753 56.6277 351.76C53.9173 353.474 50.0885 353.438 50.0885 356.976C50.0885 359.65 49.5929 362.8 51.5293 364.967C52.5955 366.16 56.9785 371.578 57.071 372.736C57.3981 376.829 55.0843 376.638 53.3027 379.395C52.2736 380.988 49.7211 383.602 48.0935 384.722C46.1455 386.063 45.1077 389.227 43.6601 391.159C42.2964 392.98 38.3199 393.087 38.1184 395.71C37.9306 398.154 38.1184 400.69 38.1184 403.146C38.1184 406.801 35.1385 409.013 32.9092 411.691Z" fill="white" stroke="black" stroke-width="2" stroke-linecap="round"/>
<path d="M1655.37 358.494C1653.48 356.225 1654.1 352.448 1654.1 349.758C1654.81 350.473 1657.69 348.592 1659.41 349.083C1660.33 349.345 1659.81 353.775 1659.81 354.762C1659.81 358.897 1663.96 360.365 1664.84 364.332C1665.47 367.13 1668.58 367.661 1669.84 369.772C1671.47 372.491 1676.86 373.676 1676.86 377.277C1676.86 379.701 1676.23 382.29 1676.23 384.822C1676.23 387.37 1677.65 388.686 1677.65 391.215C1677.65 396.465 1686.31 397.109 1686.89 401.222C1687.43 405.004 1688.89 408.371 1691.89 410.872C1695.03 413.492 1694.78 417.877 1694.78 421.593C1694.78 423.458 1693.36 424.316 1693.36 426.636C1693.36 428.497 1692.54 422.67 1691.06 421.554C1689.46 420.351 1688.23 419.216 1687.09 417.503C1686.62 416.796 1686.99 415.453 1686.93 414.644C1686.84 413.444 1685.74 413.491 1685.35 412.5C1683.24 407.214 1676.87 404.248 1672.34 401.381C1670.4 400.154 1667.66 400.18 1667.66 397.648C1667.66 395.735 1667.3 393.481 1668.69 391.93C1669.45 391.076 1672.59 387.199 1672.66 386.371C1672.89 383.441 1671.23 383.578 1669.96 381.605C1669.22 380.466 1667.4 378.595 1666.23 377.793C1664.84 376.834 1664.1 374.57 1663.06 373.187C1662.08 371.884 1659.24 371.808 1659.09 369.931C1658.96 368.181 1659.09 366.367 1659.09 364.61C1659.09 361.993 1656.96 360.411 1655.37 358.494Z" fill="white" stroke="black" stroke-width="2" stroke-linecap="round"/>
<path d="M1676.83 358.494C1674.95 356.225 1675.56 352.448 1675.56 349.758C1676.28 350.473 1679.16 348.592 1680.88 349.083C1681.79 349.345 1681.28 353.775 1681.28 354.762C1681.28 358.897 1685.43 360.365 1686.31 364.332C1686.93 367.13 1690.04 367.661 1691.31 369.772C1692.94 372.491 1698.33 373.676 1698.33 377.277C1698.33 379.701 1697.69 382.29 1697.69 384.822C1697.69 387.37 1699.12 388.686 1699.12 391.215C1699.12 396.465 1707.77 397.109 1708.36 401.222C1708.9 405.004 1710.36 408.371 1713.36 410.872C1716.5 413.492 1716.25 417.877 1716.25 421.593C1716.25 423.458 1714.82 424.316 1714.82 426.636C1714.82 428.497 1714.01 422.67 1712.52 421.554C1710.92 420.351 1709.7 419.216 1708.56 417.503C1708.09 416.796 1708.46 415.453 1708.4 414.644C1708.31 413.444 1707.21 413.491 1706.81 412.5C1704.7 407.214 1698.34 404.248 1693.81 401.381C1691.87 400.154 1689.13 400.18 1689.13 397.648C1689.13 395.735 1688.77 393.481 1690.16 391.93C1690.92 391.076 1694.06 387.199 1694.12 386.371C1694.36 383.441 1692.7 383.578 1691.43 381.605C1690.69 380.466 1688.86 378.595 1687.7 377.793C1686.31 376.834 1685.56 374.57 1684.53 373.187C1683.55 371.884 1680.71 371.808 1680.56 369.931C1680.43 368.181 1680.56 366.367 1680.56 364.61C1680.56 361.993 1678.43 360.411 1676.83 358.494Z" fill="white" stroke="black" stroke-width="2" stroke-linecap="round"/>
<path d="M598.555 398.515C593.264 404.864 595 415.433 595 422.959C597 420.959 605.077 426.223 609.889 424.848C612.45 424.116 611 411.719 611 408.959C611 397.389 622.645 393.279 625.111 382.181C626.851 374.351 635.567 372.865 639.111 366.959C643.676 359.35 658.778 356.035 658.778 345.959C658.778 339.177 657 331.932 657 324.848C657 317.718 661 314.036 661 306.959C661 292.269 685.245 290.467 686.889 278.959C688.4 268.377 692.494 258.955 700.889 251.959C709.686 244.628 709 232.358 709 221.959C709 216.741 705 214.341 705 207.848C705 202.643 702.719 218.947 698.555 222.07C694.068 225.436 690.64 228.61 687.444 233.403C686.126 235.381 687.174 239.14 687 241.403C686.742 244.761 683.664 244.631 682.555 247.403C676.64 262.192 658.815 270.491 646.111 278.515C640.677 281.947 633 281.875 633 288.959C633 294.312 632.006 300.62 635.889 304.959C638.026 307.348 646.814 318.195 647 320.515C647.656 328.711 643.016 328.327 639.444 333.848C637.381 337.036 632.263 342.271 629 344.515C625.094 347.2 623.013 353.533 620.111 357.403C617.377 361.049 609.404 361.263 609 366.515C608.623 371.409 609 376.487 609 381.403C609 388.723 603.025 393.151 598.555 398.515Z" fill="white" stroke="black" stroke-width="2" stroke-linecap="round"/>
<path d="M643.646 406.579C639.989 410.972 641.188 418.284 641.188 423.491C642.571 422.108 648.154 425.749 651.48 424.798C653.251 424.292 652.248 415.715 652.248 413.805C652.248 405.8 660.298 402.957 662.003 395.279C663.206 389.861 669.231 388.833 671.68 384.747C674.836 379.482 685.275 377.189 685.275 370.218C685.275 365.525 684.046 360.513 684.046 355.611C684.046 350.678 686.811 348.131 686.811 343.235C686.811 333.071 703.571 331.824 704.707 323.862C705.752 316.541 708.582 310.022 714.385 305.182C720.466 300.11 719.991 291.62 719.991 284.426C719.991 280.816 717.226 279.155 717.226 274.663C717.226 271.062 715.65 282.342 712.772 284.503C709.669 286.831 707.3 289.027 705.091 292.344C704.18 293.712 704.904 296.313 704.784 297.879C704.605 300.202 702.478 300.112 701.712 302.03C697.622 312.262 685.301 318.004 676.519 323.555C672.763 325.929 667.456 325.88 667.456 330.781C667.456 334.485 666.769 338.849 669.453 341.851C670.931 343.504 677.005 351.009 677.134 352.613C677.587 358.284 674.38 358.019 671.911 361.838C670.485 364.044 666.947 367.666 664.691 369.218C661.991 371.076 660.553 375.458 658.546 378.136C656.656 380.658 651.145 380.806 650.866 384.439C650.606 387.826 650.866 391.339 650.866 394.74C650.866 399.805 646.736 402.868 643.646 406.579Z" fill="white" stroke="black" stroke-width="2" stroke-linecap="round"/>
<path d="M551.399 413.52C552.341 417.536 557.076 420.025 560.076 422.289C559.88 420.891 564.405 419.258 565.302 416.929C565.78 415.689 560.402 412.537 559.301 411.707C554.689 408.227 556.548 402.354 552.865 398.034C550.266 394.986 552.292 391.069 551.002 387.881C549.339 383.775 552.554 376.765 548.537 373.734C545.833 371.694 542.411 370.223 539.587 368.091C536.744 365.947 536.478 363.247 533.656 361.118C527.8 356.699 534.364 346.504 530.27 342.388C526.506 338.603 523.979 334.139 523.712 328.692C523.432 322.984 518.334 319.567 514.188 316.439C512.108 314.869 509.949 315.74 507.361 313.786C505.286 312.221 511.101 318.033 511.095 320.63C511.089 323.43 511.324 325.749 512.275 328.463C512.668 329.583 514.481 330.296 515.331 331.047C516.592 332.159 515.616 333.345 516.388 334.621C520.507 341.425 518.461 351.018 517.844 358.489C517.579 361.685 515.245 364.72 518.069 366.851C520.203 368.461 522.419 370.754 525.316 370.514C526.91 370.381 533.875 370.146 534.855 370.769C538.32 372.974 536.773 374.705 537.901 377.788C538.552 379.569 539.102 383.181 539.016 385.155C538.913 387.518 540.813 390.252 541.484 392.571C542.116 394.756 539.807 397.995 541.779 399.736C543.617 401.358 545.755 402.736 547.715 404.214C550.633 406.416 550.603 410.127 551.399 413.52Z" fill="white" stroke="black" stroke-width="2" stroke-linecap="round"/>
<path d="M305 413.959C309.161 401.216 315.625 375.656 298.555 370.404C287.088 366.875 287.554 361.703 287 349.515C286.492 338.351 279.466 334.663 271 329.959C256.299 321.792 245.097 303.317 227.444 301.959C224.651 301.744 211.348 296.184 209 293.959C197.532 283.095 191.301 274.932 174.111 272.181C160.647 270.027 135 255.318 135 240.181C135 233.288 133.495 227.454 138.889 222.959C143.234 219.338 147.855 230.343 148.974 233.009L149 233.07C151.559 239.165 159.599 240.274 165 243.515C171.696 247.532 174.469 247.485 183 247.959C185.888 248.12 186.055 252.612 187 254.737C188.215 257.471 193.213 256.922 195.222 259.181C201.45 266.188 208.421 271.959 217.889 271.959C226.825 271.959 233.196 275.435 242.111 275.959C247.799 276.294 254.959 285.199 260.555 287.515C269.95 291.402 279.81 292.3 288.111 298.404C306.95 312.256 304.86 337.143 318.889 355.848C325.871 365.158 321 390.157 321 401.959C321 403.879 319.993 419.421 326.555 413.515C329.609 410.767 327.226 393.297 325 390.848C316.034 380.986 335.152 360 325 349.848C321.103 345.952 323 336.171 323 330.848C323 321.475 320.537 314.607 313.889 307.959C292.477 286.548 304.848 251 315.889 226.848C323.61 209.958 321 190.475 321 171.959C321 163.843 318.882 157.575 327.444 154.404C334.324 151.856 343.931 144.86 346.889 137.959C349.281 132.376 350.249 124.349 354 119.848C356.166 117.248 355 117.041 355 121.515V142.404C355 164.928 352.056 183.766 343.222 203.959C339.039 213.52 337.212 220.537 331.111 229.181C325.981 236.449 327 248.399 327 256.959C327 262.17 324.768 273.702 329.111 276.959C334.27 280.828 337 291.917 337 298.404C337 312.473 339 326.542 339 340.959C339 352.162 348.929 355.728 353.157 363.506C355.58 360.017 358.726 357.002 362.111 354.848C368.862 350.552 374.431 339.526 378.111 332.626C378.247 332.37 379.059 309.241 386.555 318.404C392.883 326.137 382.672 339.157 381 345.848C379.065 353.585 374.404 359.824 371.111 366.959C369.326 370.827 364.833 372.792 363.444 376.404C362.149 379.771 363.547 383.444 362 386.848C359.54 392.26 361.011 423.603 356.555 423.959C343.843 424.976 330.644 423.959 317.889 423.959C315.503 423.959 301.865 425.489 301.111 422.848C300.003 418.972 303.414 417.131 305 413.959Z" fill="white"/>
<path d="M305 413.959C309.161 401.216 315.625 375.656 298.555 370.404C287.088 366.875 287.554 361.703 287 349.515C286.492 338.351 279.466 334.663 271 329.959C256.299 321.792 245.097 303.317 227.444 301.959C224.651 301.744 211.348 296.184 209 293.959C197.532 283.095 191.301 274.932 174.111 272.181C160.647 270.027 135 255.318 135 240.181C135 233.288 133.495 227.454 138.889 222.959C143.268 219.309 147.927 230.516 149 233.07C151.559 239.165 159.599 240.274 165 243.515C171.696 247.532 174.469 247.485 183 247.959C185.888 248.12 186.055 252.612 187 254.737C188.215 257.471 193.213 256.922 195.222 259.181C201.45 266.188 208.421 271.959 217.889 271.959C226.825 271.959 233.196 275.435 242.111 275.959C247.799 276.294 254.959 285.199 260.555 287.515C269.95 291.402 279.81 292.3 288.111 298.404C306.95 312.256 304.86 337.143 318.889 355.848C325.871 365.158 321 390.157 321 401.959C321 403.879 319.993 419.421 326.555 413.515C329.609 410.767 327.226 393.297 325 390.848C316.034 380.986 335.152 360 325 349.848C321.103 345.952 323 336.171 323 330.848C323 321.475 320.537 314.607 313.889 307.959C292.477 286.548 304.848 251 315.889 226.848C323.61 209.958 321 190.475 321 171.959C321 163.843 318.882 157.575 327.444 154.404C334.324 151.856 343.931 144.86 346.889 137.959C349.281 132.376 350.249 124.349 354 119.848C356.166 117.248 355 117.041 355 121.515C355 128.478 355 135.441 355 142.404C355 164.928 352.056 183.766 343.222 203.959C339.039 213.52 337.212 220.537 331.111 229.181C325.981 236.449 327 248.399 327 256.959C327 262.17 324.768 273.702 329.111 276.959C334.27 280.828 337 291.917 337 298.404C337 312.473 339 326.542 339 340.959C339 355.522 355.778 357.179 355 371.959C354.759 376.526 351.137 387.688 348.111 391.07C343.575 396.14 345 402.71 345 409.515C345 422.346 346.164 400.129 346.555 397.292C347.702 388.979 347.07 381.141 348.889 372.959C350.52 365.62 355.914 358.792 362.111 354.848C368.862 350.552 374.431 339.526 378.111 332.626C378.247 332.37 379.059 309.241 386.555 318.404C392.883 326.137 382.672 339.157 381 345.848C379.065 353.585 374.404 359.824 371.111 366.959C369.326 370.827 364.833 372.792 363.444 376.404C362.149 379.771 363.547 383.444 362 386.848C359.54 392.26 361.011 423.603 356.555 423.959C343.843 424.976 330.644 423.959 317.889 423.959C315.503 423.959 301.865 425.489 301.111 422.848C300.003 418.972 303.414 417.131 305 413.959Z" stroke="black" stroke-width="2" stroke-linecap="round"/>
<path d="M2028.09 417.517C2024.31 405.955 2018.42 382.765 2033.96 378C2044.4 374.799 2043.97 370.106 2044.48 359.048C2044.94 348.92 2051.33 345.573 2059.04 341.306C2072.42 333.896 2082.62 317.134 2098.68 315.902C2101.23 315.707 2113.33 310.662 2115.47 308.644C2125.91 298.787 2131.58 291.381 2147.23 288.885C2159.48 286.931 2182.82 273.585 2182.82 259.852C2182.82 253.599 2184.19 248.305 2179.28 244.227C2175.33 240.942 2171.12 250.926 2170.11 253.345L2170.08 253.401C2167.75 258.93 2160.43 259.937 2155.52 262.877C2149.42 266.522 2146.9 266.479 2139.14 266.909C2136.51 267.055 2136.35 271.13 2135.49 273.058C2134.39 275.539 2129.84 275.04 2128.01 277.091C2122.34 283.448 2116 288.684 2107.38 288.684C2099.25 288.684 2093.45 291.837 2085.33 292.313C2080.16 292.616 2073.64 300.696 2068.55 302.797C2059.99 306.324 2051.02 307.138 2043.47 312.676C2026.32 325.244 2028.22 347.823 2015.45 364.794C2009.1 373.241 2013.53 395.922 2013.53 406.63C2013.53 408.371 2014.45 422.472 2008.47 417.114C2005.69 414.621 2007.86 398.771 2009.89 396.549C2018.05 387.601 2000.65 368.562 2009.89 359.351C2013.44 355.815 2011.71 346.942 2011.71 342.112C2011.71 333.609 2013.95 327.378 2020 321.346C2039.49 301.92 2028.23 269.668 2018.18 247.755C2011.15 232.432 2013.53 214.755 2013.53 197.956C2013.53 190.592 2015.46 184.905 2007.66 182.028C2001.4 179.716 1992.66 173.369 1989.97 167.108C1987.79 162.043 1986.91 154.761 1983.49 150.677C1981.52 148.318 1982.58 148.13 1982.58 152.189V171.141C1982.58 191.577 1985.26 208.668 1993.3 226.989C1997.11 235.663 1998.77 242.03 2004.33 249.872C2009 256.466 2008.07 267.308 2008.07 275.075C2008.07 279.802 2010.1 290.265 2006.15 293.22C2001.45 296.731 1998.97 306.791 1998.97 312.676C1998.97 325.441 1997.15 338.206 1997.15 351.286C1997.15 361.45 1988.11 364.685 1984.26 371.742C1982.06 368.577 1979.19 365.841 1976.11 363.887C1969.97 359.989 1964.9 349.986 1961.55 343.725C1961.42 343.493 1960.69 322.509 1953.86 330.822C1948.1 337.838 1957.4 349.651 1958.92 355.721C1960.68 362.741 1964.92 368.401 1967.92 374.875C1969.55 378.385 1973.63 380.167 1974.9 383.444C1976.08 386.499 1974.8 389.832 1976.21 392.92C1978.45 397.83 1977.11 426.267 1981.17 426.59C1992.74 427.513 2004.75 426.59 2016.36 426.59C2018.53 426.59 2030.95 427.978 2031.63 425.582C2032.64 422.065 2029.54 420.395 2028.09 417.517Z" fill="white"/>
<path d="M2028.09 417.517C2024.31 405.955 2018.42 382.765 2033.96 378C2044.4 374.799 2043.97 370.106 2044.48 359.048C2044.94 348.92 2051.33 345.573 2059.04 341.306C2072.42 333.896 2082.62 317.134 2098.68 315.902C2101.23 315.707 2113.33 310.662 2115.47 308.644C2125.91 298.787 2131.58 291.381 2147.23 288.885C2159.48 286.931 2182.82 273.585 2182.82 259.852C2182.82 253.599 2184.19 248.305 2179.28 244.227C2175.3 240.916 2171.06 251.084 2170.08 253.401C2167.75 258.93 2160.43 259.937 2155.52 262.877C2149.42 266.522 2146.9 266.479 2139.14 266.909C2136.51 267.055 2136.35 271.13 2135.49 273.058C2134.39 275.539 2129.84 275.04 2128.01 277.091C2122.34 283.448 2116 288.684 2107.38 288.684C2099.25 288.684 2093.45 291.837 2085.33 292.313C2080.16 292.616 2073.64 300.696 2068.55 302.797C2059.99 306.324 2051.02 307.138 2043.47 312.676C2026.32 325.244 2028.22 347.823 2015.45 364.794C2009.1 373.241 2013.53 395.922 2013.53 406.63C2013.53 408.371 2014.45 422.472 2008.47 417.114C2005.69 414.621 2007.86 398.771 2009.89 396.549C2018.05 387.601 2000.65 368.562 2009.89 359.351C2013.44 355.815 2011.71 346.942 2011.71 342.112C2011.71 333.609 2013.95 327.378 2020 321.346C2039.49 301.92 2028.23 269.668 2018.18 247.755C2011.15 232.432 2013.53 214.755 2013.53 197.956C2013.53 190.592 2015.46 184.905 2007.66 182.028C2001.4 179.716 1992.66 173.369 1989.97 167.108C1987.79 162.043 1986.91 154.761 1983.49 150.677C1981.52 148.318 1982.58 148.13 1982.58 152.189C1982.58 158.506 1982.58 164.823 1982.58 171.141C1982.58 191.577 1985.26 208.668 1993.3 226.989C1997.11 235.663 1998.77 242.03 2004.33 249.872C2009 256.466 2008.07 267.308 2008.07 275.074C2008.07 279.802 2010.1 290.265 2006.15 293.22C2001.45 296.731 1998.97 306.791 1998.97 312.676C1998.97 325.441 1997.15 338.206 1997.15 351.286C1997.15 364.498 1981.88 366.002 1982.58 379.411C1982.8 383.555 1986.1 393.682 1988.85 396.751C1992.98 401.35 1991.69 407.311 1991.69 413.485C1991.69 425.127 1990.63 404.97 1990.27 402.396C1989.23 394.854 1989.8 387.742 1988.15 380.319C1986.66 373.66 1981.75 367.465 1976.11 363.887C1969.97 359.989 1964.9 349.986 1961.55 343.725C1961.42 343.493 1960.69 322.509 1953.86 330.822C1948.1 337.838 1957.4 349.651 1958.92 355.721C1960.68 362.741 1964.92 368.401 1967.92 374.875C1969.55 378.385 1973.63 380.167 1974.9 383.444C1976.08 386.499 1974.8 389.832 1976.21 392.92C1978.45 397.83 1977.11 426.267 1981.17 426.59C1992.74 427.513 2004.75 426.59 2016.36 426.59C2018.53 426.59 2030.95 427.978 2031.63 425.582C2032.64 422.065 2029.54 420.395 2028.09 417.517Z" stroke="black" stroke-width="2" stroke-linecap="round"/>
<path d="M3109.95 411.537C3104.18 393.903 3095.22 358.534 3118.89 351.266C3134.79 346.384 3134.15 339.227 3134.92 322.361C3135.62 306.913 3145.37 301.809 3157.11 295.301C3177.5 283.999 3193.03 258.435 3217.52 256.556C3221.39 256.258 3239.84 248.564 3243.1 245.485C3259 230.452 3267.65 219.156 3291.49 215.35C3310.16 212.369 3345.73 192.015 3345.73 171.07C3345.73 161.532 3347.82 153.458 3340.34 147.238C3334.31 142.227 3327.9 157.456 3326.35 161.145L3326.31 161.23C3322.76 169.663 3311.61 171.198 3304.12 175.682C3294.84 181.242 3290.99 181.177 3279.16 181.832C3275.15 182.054 3274.92 188.271 3273.61 191.211C3271.93 194.995 3264.99 194.234 3262.21 197.361C3253.57 207.057 3243.9 215.043 3230.77 215.043C3218.38 215.043 3209.54 219.852 3197.18 220.578C3189.29 221.041 3179.36 233.363 3171.59 236.568C3158.56 241.947 3144.89 243.189 3133.38 251.636C3107.25 270.804 3110.15 305.241 3090.69 331.125C3081 344.009 3087.76 378.6 3087.76 394.932C3087.76 397.588 3089.16 419.094 3080.06 410.922C3075.82 407.119 3079.12 382.946 3082.21 379.557C3094.65 365.91 3068.13 336.871 3082.21 322.822C3087.62 317.431 3084.99 303.897 3084.99 296.531C3084.99 283.561 3088.4 274.058 3097.62 264.858C3127.32 235.23 3110.16 186.04 3094.85 152.62C3084.14 129.248 3087.76 102.289 3087.76 76.6665C3087.76 65.4357 3090.7 56.7618 3078.82 52.3738C3069.28 48.848 3055.96 39.1679 3051.85 29.6186C3048.54 21.8934 3047.19 10.7859 3041.99 4.55713C3038.99 0.959319 3040.6 0.672518 3040.6 6.8634V35.7687C3040.6 66.9375 3044.69 93.0047 3056.94 120.947C3062.74 134.177 3065.27 143.887 3073.74 155.848C3080.85 165.905 3079.44 182.441 3079.44 194.286C3079.44 201.497 3082.53 217.455 3076.51 221.962C3069.36 227.316 3065.57 242.66 3065.57 251.636C3065.57 271.104 3062.8 290.573 3062.8 310.522C3062.8 326.025 3049.02 330.958 3043.16 341.722C3039.8 336.894 3035.44 332.722 3030.74 329.741C3021.38 323.796 3013.65 308.539 3008.55 298.991C3008.36 298.637 3007.24 266.632 2996.84 279.311C2988.06 290.012 3002.22 308.029 3004.54 317.287C3007.23 327.994 3013.69 336.626 3018.26 346.5C3020.74 351.853 3026.97 354.571 3028.89 359.569C3030.69 364.228 3028.75 369.312 3030.9 374.022C3034.31 381.51 3032.27 424.881 3038.45 425.375C3056.08 426.782 3074.38 425.375 3092.08 425.375C3095.38 425.375 3114.3 427.491 3115.35 423.837C3116.88 418.474 3112.15 415.926 3109.95 411.537Z" fill="white"/>
<path d="M3109.95 411.537C3104.18 393.903 3095.22 358.534 3118.89 351.266C3134.79 346.384 3134.15 339.227 3134.92 322.361C3135.62 306.913 3145.37 301.809 3157.11 295.301C3177.5 283.999 3193.03 258.435 3217.52 256.556C3221.39 256.258 3239.84 248.564 3243.1 245.485C3259 230.452 3267.65 219.156 3291.49 215.35C3310.16 212.369 3345.73 192.015 3345.73 171.07C3345.73 161.532 3347.82 153.458 3340.34 147.238C3334.26 142.188 3327.8 157.696 3326.31 161.23C3322.76 169.663 3311.61 171.198 3304.12 175.682C3294.84 181.242 3290.99 181.177 3279.16 181.832C3275.15 182.054 3274.92 188.271 3273.61 191.211C3271.93 194.995 3264.99 194.234 3262.21 197.361C3253.57 207.057 3243.9 215.043 3230.77 215.043C3218.38 215.043 3209.54 219.852 3197.18 220.578C3189.29 221.041 3179.36 233.363 3171.59 236.568C3158.56 241.947 3144.89 243.189 3133.38 251.636C3107.25 270.804 3110.15 305.241 3090.69 331.125C3081 344.009 3087.76 378.6 3087.76 394.932C3087.76 397.588 3089.16 419.094 3080.06 410.922C3075.82 407.119 3079.12 382.946 3082.21 379.557C3094.65 365.91 3068.13 336.871 3082.21 322.822C3087.62 317.431 3084.99 303.897 3084.99 296.531C3084.99 283.561 3088.4 274.058 3097.62 264.858C3127.32 235.23 3110.16 186.04 3094.85 152.62C3084.14 129.248 3087.76 102.289 3087.76 76.6665C3087.76 65.4357 3090.7 56.7618 3078.82 52.3738C3069.28 48.848 3055.96 39.1679 3051.85 29.6186C3048.54 21.8934 3047.19 10.7859 3041.99 4.55713C3038.99 0.959319 3040.6 0.672518 3040.6 6.8634C3040.6 16.4985 3040.6 26.1336 3040.6 35.7687C3040.6 66.9375 3044.69 93.0047 3056.94 120.947C3062.74 134.177 3065.27 143.887 3073.74 155.848C3080.85 165.905 3079.44 182.441 3079.44 194.286C3079.44 201.497 3082.53 217.455 3076.51 221.962C3069.36 227.316 3065.57 242.66 3065.57 251.636C3065.57 271.104 3062.8 290.573 3062.8 310.522C3062.8 330.674 3039.53 332.967 3040.6 353.419C3040.94 359.739 3045.96 375.183 3050.16 379.864C3056.45 386.879 3054.47 395.971 3054.47 405.387C3054.47 423.143 3052.86 392.4 3052.32 388.474C3050.73 376.971 3051.6 366.125 3049.08 354.803C3046.82 344.647 3039.34 335.198 3030.74 329.741C3021.38 323.796 3013.65 308.54 3008.55 298.991C3008.36 298.637 3007.24 266.632 2996.84 279.311C2988.06 290.012 3002.22 308.029 3004.54 317.287C3007.23 327.994 3013.69 336.626 3018.26 346.5C3020.74 351.853 3026.97 354.571 3028.89 359.569C3030.69 364.228 3028.75 369.312 3030.9 374.022C3034.31 381.51 3032.27 424.881 3038.45 425.375C3056.08 426.782 3074.38 425.375 3092.08 425.375C3095.38 425.375 3114.3 427.491 3115.35 423.837C3116.88 418.474 3112.15 415.926 3109.95 411.537Z" stroke="black" stroke-width="2" stroke-linecap="round"/>
</svg>
