<svg width="76" height="112" viewBox="0 0 76 112" fill="none" xmlns="http://www.w3.org/2000/svg">
<path d="M-10.0908 96.7324C-12.7298 99.9034 -11.8642 105.182 -11.8642 108.941C-10.8667 107.942 -6.83813 110.571 -4.43827 109.884C-3.1608 109.519 -3.8841 103.327 -3.8841 101.949C-3.8841 96.1702 1.92385 94.1177 3.15387 88.5751C4.02171 84.6645 8.3689 83.9225 10.1364 80.9727C12.4134 77.1726 19.9452 75.5168 19.9452 70.4847C19.9452 67.0974 19.0586 63.4794 19.0586 59.9412C19.0586 56.3802 21.0536 54.5417 21.0536 51.007C21.0536 43.6705 33.1458 42.7704 33.9658 37.023C34.7197 31.7381 36.7615 27.0322 40.9483 23.5384C45.3359 19.8771 44.9938 13.749 44.9938 8.55556C44.9938 5.94973 42.9988 4.75101 42.9988 1.50807C42.9988 -1.09132 41.8613 7.05142 39.7846 8.61105C37.5462 10.2921 35.8368 11.8771 34.2429 14.2712C33.5853 15.2589 34.108 17.1361 34.0212 18.2667C33.8924 19.9436 32.3576 19.8786 31.8045 21.2632C28.8541 28.6493 19.9637 32.7939 13.6277 36.801C10.9173 38.5151 7.08848 38.4792 7.08848 42.0173C7.08848 44.6906 6.59286 47.8409 8.52933 50.0081C9.5955 51.2013 13.9785 56.6187 14.071 57.777C14.3981 61.8704 12.0843 61.6789 10.3027 64.4361C9.27364 66.0285 6.72108 68.6428 5.09346 69.7633C3.14548 71.1043 2.10772 74.2676 0.660098 76.2004C-0.703562 78.021 -4.68013 78.1278 -4.88161 80.7507C-5.0694 83.1953 -4.88161 85.7312 -4.88161 88.1866C-4.88161 91.8424 -7.86152 94.0536 -10.0908 96.7324Z" fill="white" stroke="black" stroke-width="2" stroke-linecap="round"/>
<path d="M19.9092 96.7324C17.2702 99.9034 18.1358 105.182 18.1358 108.941C19.1333 107.942 23.1619 110.571 25.5617 109.884C26.8392 109.519 26.1159 103.327 26.1159 101.949C26.1159 96.1702 31.9238 94.1177 33.1539 88.5751C34.0217 84.6645 38.3689 83.9225 40.1364 80.9727C42.4134 77.1726 49.9452 75.5168 49.9452 70.4847C49.9452 67.0974 49.0586 63.4794 49.0586 59.9412C49.0586 56.3802 51.0536 54.5417 51.0536 51.007C51.0536 43.6705 63.1458 42.7704 63.9658 37.023C64.7197 31.7381 66.7615 27.0322 70.9483 23.5384C75.3359 19.8771 74.9938 13.749 74.9938 8.55556C74.9938 5.94973 72.9988 4.75101 72.9988 1.50807C72.9988 -1.09132 71.8613 7.05142 69.7846 8.61105C67.5462 10.2921 65.8368 11.8771 64.2429 14.2712C63.5853 15.2589 64.108 17.1361 64.0212 18.2667C63.8924 19.9436 62.3576 19.8786 61.8045 21.2632C58.8541 28.6493 49.9637 32.7939 43.6277 36.801C40.9173 38.5151 37.0885 38.4792 37.0885 42.0173C37.0885 44.6906 36.5929 47.8409 38.5293 50.0081C39.5955 51.2013 43.9785 56.6187 44.071 57.777C44.3981 61.8704 42.0843 61.6789 40.3027 64.4361C39.2736 66.0285 36.7211 68.6428 35.0935 69.7633C33.1455 71.1043 32.1077 74.2676 30.6601 76.2004C29.2964 78.021 25.3199 78.1278 25.1184 80.7507C24.9306 83.1953 25.1184 85.7312 25.1184 88.1866C25.1184 91.8424 22.1385 94.0536 19.9092 96.7324Z" fill="white" stroke="black" stroke-width="2" stroke-linecap="round"/>
</svg>
