<svg width="257" height="309" viewBox="0 0 257 309" fill="none" xmlns="http://www.w3.org/2000/svg">
<path d="M172 297C176.161 284.257 182.625 258.697 165.555 253.445C154.088 249.916 154.554 244.744 154 232.556C153.492 221.392 146.466 217.704 138 213C123.299 204.833 112.097 186.358 94.4442 185C91.6508 184.785 78.3479 179.225 75.9997 177C64.5317 166.136 58.3013 157.973 41.1108 155.222C27.6466 153.068 1.99973 138.359 1.99973 123.222C1.99973 116.33 0.494651 110.495 5.88862 106C10.2341 102.379 14.8546 113.384 15.974 116.05L15.9997 116.111C18.5594 122.206 26.5988 123.315 31.9997 126.556C38.6959 130.573 41.4694 130.526 49.9997 131C52.8878 131.161 53.0552 135.653 53.9997 137.778C55.2151 140.512 60.2133 139.963 62.222 142.222C68.4502 149.229 75.4208 155 84.8886 155C93.8252 155 100.196 158.476 109.111 159C114.799 159.335 121.959 168.24 127.555 170.556C136.95 174.443 146.81 175.341 155.111 181.445C173.95 195.297 171.86 220.184 185.889 238.889C192.871 248.199 188 273.198 188 285C188 286.92 186.993 302.462 193.555 296.556C196.609 293.808 194.226 276.338 192 273.889C183.034 264.027 202.152 243.041 192 232.889C188.103 228.993 190 219.212 190 213.889C190 204.516 187.537 197.648 180.889 191C159.477 169.589 171.848 134.041 182.889 109.889C190.61 92.9994 188 73.5164 188 55.0001C188 46.8839 185.882 40.6156 194.444 37.4445C201.324 34.8966 210.931 27.901 213.889 21.0001C216.281 15.4173 217.249 7.39028 221 2.88897C223.166 0.288949 222 0.0816872 222 4.55564V25.4445C222 47.9692 219.056 66.8072 210.222 87.0001C206.039 96.5608 204.212 103.578 198.111 112.222C192.981 119.49 194 131.44 194 140C194 145.211 191.768 156.743 196.111 160C201.27 163.869 204 174.958 204 181.445C204 195.514 206 209.583 206 224C206 235.203 215.929 238.769 220.157 246.547C222.58 243.058 225.726 240.043 229.111 237.889C235.862 233.593 241.431 222.567 245.111 215.667C245.247 215.411 246.059 192.282 253.555 201.445C259.883 209.178 249.672 222.198 248 228.889C246.065 236.626 241.404 242.865 238.111 250C236.326 253.868 231.833 255.833 230.444 259.445C229.149 262.812 230.547 266.485 229 269.889C226.54 275.301 228.011 306.644 223.555 307C210.843 308.017 197.644 307 184.889 307C182.503 307 168.865 308.53 168.111 305.889C167.003 302.013 170.414 300.172 172 297Z" fill="white" stroke="black" stroke-width="2" stroke-linecap="round"/>
</svg>
