<svg width="248" height="222" viewBox="0 0 248 222" fill="none" xmlns="http://www.w3.org/2000/svg">
<path d="M125.555 193.556C120.264 199.905 122 210.474 122 218C124 216 132.077 221.264 136.889 219.889C139.45 219.157 138 206.76 138 204C138 192.43 149.645 188.32 152.111 177.222C153.851 169.392 162.567 167.906 166.111 162C170.676 154.391 185.778 151.076 185.778 141C185.778 134.218 184 126.973 184 119.889C184 112.759 188 109.077 188 102C188 87.3103 212.245 85.5079 213.889 74C215.4 63.4182 219.494 53.9955 227.889 47C236.686 39.6691 236 27.3988 236 17C236 11.7824 232 9.38218 232 2.88889C232 -2.31584 229.719 13.9883 225.555 17.1111C221.068 20.477 217.64 23.6507 214.444 28.4444C213.126 30.422 214.174 34.1807 214 36.4444C213.742 39.802 210.664 39.672 209.555 42.4444C203.64 57.2334 185.815 65.5322 173.111 73.5556C167.677 76.9877 160 76.9157 160 84C160 89.3529 159.006 95.6606 162.889 100C165.026 102.389 173.814 113.236 174 115.556C174.656 123.752 170.016 123.368 166.444 128.889C164.381 132.077 159.263 137.312 156 139.556C152.094 142.241 150.013 148.574 147.111 152.444C144.377 156.09 136.404 156.304 136 161.556C135.623 166.45 136 171.528 136 176.444C136 183.764 130.025 188.192 125.555 193.556Z" fill="white" stroke="black" stroke-width="2" stroke-linecap="round"/>
<path d="M170.646 201.62C166.989 206.013 168.188 213.325 168.188 218.532C169.571 217.149 175.154 220.79 178.48 219.839C180.251 219.333 179.248 210.756 179.248 208.846C179.248 200.841 187.298 197.998 189.003 190.32C190.206 184.902 196.231 183.874 198.68 179.788C201.836 174.524 212.275 172.23 212.275 165.259C212.275 160.566 211.046 155.554 211.046 150.652C211.046 145.719 213.811 143.172 213.811 138.276C213.811 128.112 230.571 126.865 231.707 118.903C232.752 111.582 235.582 105.063 241.385 100.223C247.466 95.1509 246.991 86.6615 246.991 79.4669C246.991 75.857 244.226 74.1963 244.226 69.7038C244.226 66.1029 242.65 77.3832 239.772 79.5438C236.669 81.8725 234.3 84.0683 232.091 87.3849C231.18 88.7532 231.904 91.3537 231.784 92.9199C231.605 95.2429 229.478 95.1529 228.712 97.0711C224.622 107.303 212.301 113.045 203.519 118.596C199.763 120.971 194.456 120.921 194.456 125.822C194.456 129.526 193.769 133.89 196.453 136.892C197.931 138.545 204.005 146.05 204.134 147.654C204.587 153.325 201.38 153.06 198.911 156.879C197.485 159.085 193.947 162.707 191.691 164.259C188.991 166.117 187.553 170.499 185.546 173.177C183.656 175.699 178.145 175.847 177.866 179.48C177.606 182.867 177.866 186.38 177.866 189.781C177.866 194.846 173.736 197.909 170.646 201.62Z" fill="white" stroke="black" stroke-width="2" stroke-linecap="round"/>
<path d="M78.3991 208.561C79.3409 212.577 84.0758 215.066 87.0764 217.33C86.8799 215.932 91.4048 214.299 92.3021 211.97C92.7798 210.73 87.4017 207.578 86.3014 206.748C81.6886 203.268 83.5483 197.395 79.8647 193.075C77.2657 190.027 79.2917 186.11 78.0015 182.922C76.3395 178.816 79.5541 171.806 75.5372 168.775C72.8333 166.735 69.411 165.264 66.5866 163.132C63.744 160.988 63.478 158.288 60.6563 156.159C54.7999 151.74 61.3645 141.545 57.2704 137.429C53.5058 133.644 50.9789 129.18 50.7117 123.733C50.4317 118.025 45.3337 114.608 41.188 111.48C39.1078 109.91 36.9493 110.781 34.3606 108.827C32.2856 107.262 38.1006 113.074 38.0948 115.671C38.0885 118.471 38.3242 120.79 39.2753 123.504C39.6677 124.624 41.481 125.337 42.3312 126.088C43.5922 127.2 42.616 128.386 43.3882 129.662C47.5072 136.466 45.461 146.059 44.8435 153.53C44.5794 156.726 42.2446 159.761 45.0689 161.892C47.203 163.502 49.4192 165.795 52.3156 165.555C53.9102 165.422 60.8747 165.187 61.855 165.81C65.3196 168.015 63.7732 169.746 64.901 172.829C65.5524 174.61 66.1019 178.222 66.016 180.196C65.9133 182.559 67.8134 185.293 68.4843 187.612C69.1164 189.797 66.8065 193.036 68.7789 194.777C70.6173 196.399 72.7547 197.777 74.7148 199.255C77.6331 201.457 77.6034 205.168 78.3991 208.561Z" fill="white" stroke="black" stroke-width="2" stroke-linecap="round"/>
</svg>
