<svg width="81" height="153" viewBox="0 0 81 153" fill="none" xmlns="http://www.w3.org/2000/svg">
<path d="M77.3539 133.62C81.0114 138.013 79.8117 145.325 79.8117 150.532C78.4292 149.149 72.8458 152.79 69.5197 151.839C67.7492 151.333 68.7517 142.756 68.7517 140.846C68.7517 132.841 60.702 129.998 58.9973 122.32C57.7945 116.902 51.7694 115.874 49.3197 111.788C46.1639 106.524 35.725 104.23 35.725 97.2586C35.725 92.5662 36.9539 87.554 36.9539 82.6525C36.9539 77.7194 34.1889 75.1724 34.1889 70.2757C34.1889 60.1124 17.4295 58.8654 16.2931 50.9034C15.2481 43.5822 12.4183 37.0629 6.61549 32.2229C0.534431 27.1509 1.00863 18.6615 1.00863 11.4669C1.00863 7.85697 3.77365 6.19635 3.77365 1.70384C3.77365 -1.89714 5.35017 9.38316 8.22841 11.5438C11.3306 13.8725 13.6999 16.0683 15.909 19.3849C16.8204 20.7532 16.0959 23.3537 16.2162 24.9199C16.3948 27.2429 18.5219 27.1529 19.2885 29.0711C23.3777 39.3031 35.6994 45.0448 44.4809 50.5959C48.2374 52.9705 53.544 52.9207 53.544 57.8221C53.544 61.5255 54.231 65.8897 51.5471 68.892C50.0694 70.545 43.9947 78.0498 43.8665 79.6544C43.4132 85.3251 46.62 85.0598 49.0893 88.8793C50.5155 91.0854 54.0532 94.707 56.3091 96.2592C59.0089 98.117 60.4472 102.499 62.4535 105.177C64.3435 107.699 69.8549 107.847 70.1342 111.48C70.3944 114.867 70.1342 118.38 70.1342 121.781C70.1342 126.846 74.2642 129.909 77.3539 133.62Z" fill="white" stroke="black" stroke-width="2" stroke-linecap="round"/>
</svg>
