<svg width="247" height="275" viewBox="0 0 247 275" fill="none" xmlns="http://www.w3.org/2000/svg">
<path d="M183 212.889C208.487 219.537 208.099 242.369 208.008 263.87C208.202 273.839 211.85 273 221.556 273C226.49 273 236.782 275.102 241.111 272.556C245.355 270.06 242 238.479 242 233C242 207.863 254.001 179.685 235 159.222C230.799 154.698 224.955 149.799 219.889 146C213.812 141.442 210.783 137.978 206 132C202.14 127.175 195.863 127.493 191.111 124.778C187.674 122.814 188.783 112.579 187.111 109.444C181.839 99.5581 180.354 92.0155 172.889 84.1111C169.267 80.2757 163.982 75.3665 161 70C157.45 63.6102 154.358 57.1217 149 53C143.299 48.6147 137.142 50.2188 132 45.8889C129.133 43.4747 121.58 45 118.111 45C114.519 45 103.777 44.4919 107.334 45C116.108 46.2535 126.448 49.0752 134.889 51.8889C152.522 57.7666 156 69.401 156 86C156 90.3787 163.314 98.5082 166 102C170.366 107.676 169.737 115.043 172.445 121.444C173.361 123.611 182.665 130.759 185.556 131C192.606 131.587 192 138.538 192 143.889V161.889C192 162.521 197.973 173.909 198.889 174.556C211.098 183.174 228 182.3 228 201.111C228 219.634 234.943 236.888 229.556 255.444C228.45 259.252 222 276.487 222 263.444V245C222 237.24 220 229.753 220 222.111C220 215.225 214.986 210.901 214.111 204.778C213.368 199.574 213.18 190.219 208 187.111C203.251 184.261 197.857 184.647 192.889 182.556C179.053 176.73 192.993 161.394 185 155C176.857 148.485 168.402 137.887 168 127.444C167.549 115.703 163.86 101.111 151.111 95.4444C139.762 90.4002 136.93 88.005 130.111 77.7778C125.086 70.2401 118.26 66.0709 111.111 60.2222C105.717 55.8083 88.9267 58.7367 81.5559 55.8889C73.7774 52.8836 69.9425 45.9294 61.5559 43.4444C57.1253 42.1317 51.0932 40.7795 50.1114 34.8889C47.4538 18.9432 35.6394 14.2923 23.1114 7.77778C15.4602 3.79915 11.0143 1 2.0003 1C-0.814923 1 7.04231 2.79178 8.0003 3.11111C25.5597 8.96426 20.9718 27.5581 35.1114 38.5556C46.0379 47.0539 59.429 46.5263 70.4447 55C75.8372 59.148 76.287 67.3512 79.2225 73.2222C85.7747 86.3265 99.854 87.686 112 93C122.129 97.4312 130.289 108.303 140 111.444C153.626 115.853 155.032 136.114 146.111 145.778C131.34 161.78 167.361 163.931 168 172.556C168.607 180.751 168 189.23 168 197.444C168 208.502 172.19 210.069 183 212.889Z" fill="white"/>
<path d="M208 267C208 244.631 209.728 219.861 183 212.889C172.19 210.069 168 208.502 168 197.444C168 189.23 168.607 180.751 168 172.556C167.361 163.931 131.34 161.78 146.111 145.778C155.032 136.114 153.626 115.853 140 111.444C130.289 108.303 122.129 97.4312 112 93C99.854 87.686 85.7747 86.3265 79.2225 73.2222C76.287 67.3512 75.8372 59.148 70.4447 55C59.429 46.5263 46.0379 47.0539 35.1114 38.5556C20.9718 27.5581 25.5597 8.96426 8.0003 3.11111C7.04231 2.79178 -0.814923 1 2.0003 1C11.0143 1 15.4602 3.79915 23.1114 7.77778C35.6394 14.2923 47.4538 18.9432 50.1114 34.8889C51.0932 40.7795 57.1253 42.1317 61.5559 43.4444C69.9425 45.9294 73.7774 52.8836 81.5559 55.8889C88.9267 58.7367 105.717 55.8083 111.111 60.2222C118.26 66.0709 125.086 70.24 130.111 77.7778C136.93 88.005 139.762 90.4002 151.111 95.4444C163.86 101.111 167.549 115.703 168 127.444C168.402 137.887 176.857 148.485 185 155C192.993 161.394 179.053 176.73 192.889 182.556C197.857 184.647 203.251 184.261 208 187.111C213.18 190.219 213.368 199.574 214.111 204.778C214.986 210.901 220 215.225 220 222.111C220 229.753 222 237.24 222 245C222 251.148 222 257.296 222 263.444C222 276.487 228.45 259.252 229.556 255.444C234.943 236.888 228 219.634 228 201.111C228 182.3 211.098 183.174 198.889 174.556C197.973 173.909 192 162.521 192 161.889C192 155.889 192 149.889 192 143.889C192 138.538 192.606 131.587 185.556 131C182.665 130.759 173.361 123.611 172.445 121.444C169.737 115.043 170.366 107.676 166 102C163.314 98.5082 156 90.3787 156 86C156 69.401 152.522 57.7666 134.889 51.8889C126.448 49.0752 116.108 46.2535 107.334 45C103.777 44.4919 114.519 45 118.111 45C121.58 45 129.133 43.4747 132 45.8889C137.142 50.2188 143.299 48.6147 149 53C154.358 57.1217 157.45 63.6102 161 70C163.982 75.3665 169.267 80.2757 172.889 84.1111C180.354 92.0155 181.839 99.5581 187.111 109.444C188.783 112.579 187.674 122.814 191.111 124.778C195.863 127.493 202.14 127.175 206 132C210.783 137.978 213.812 141.442 219.889 146C224.955 149.799 230.799 154.698 235 159.222C254.001 179.685 242 207.863 242 233C242 238.479 245.355 270.06 241.111 272.556C236.782 275.102 226.49 273 221.556 273C211.576 273 208 273.887 208 263" stroke="black" stroke-width="2" stroke-linecap="round"/>
</svg>
