<svg width="1440" height="311" viewBox="0 0 1440 311" fill="none" xmlns="http://www.w3.org/2000/svg">
<path d="M-29.5795 35.8053C-25.4542 4.28977 22.7502 4.03787 45.8807 2.35978C69.5198 0.644793 93.3281 1.41048 116.885 3.88821C127.791 5.03523 140.09 5.73438 148.144 14.1681C166.075 32.9454 165.205 58.5921 163.232 82.423C161.422 104.303 154.212 123.718 137.391 138.706C129.679 145.577 118.944 155.387 107.799 155.433C90.39 155.505 66.655 122.41 81.7606 107.678C98.0326 91.8083 130.23 82.4625 151.724 78.6832C166.328 76.1155 191.301 73.9368 204.506 82.1597C217.037 89.9633 225.921 107.137 228.722 120.956C230.946 131.929 228.785 133.569 227.255 121.169C220.695 68.0304 311.037 56.4839 346.797 61.6038C365.711 64.3117 387.853 76.1577 398.792 92.1074C400.281 94.2788 408.934 113.715 407.869 103.673C406.5 90.7621 404.166 79.2893 409.822 66.597C419.328 45.2687 443.747 36.8754 464.725 33.6799C486.973 30.2907 507.598 28.1269 523.842 46.8229C529.429 53.2534 535.647 61.2767 538.24 69.5323C539.596 73.8489 538.131 78.3219 539.502 82.5698C541.531 88.8561 542.323 68.6481 547.363 64.3783C558.521 54.9261 567.089 54.0494 580.946 57.3466C598.873 61.612 614.863 68.8331 625.17 84.7542C637.12 103.216 623.065 132.388 611.41 147.277C610.017 149.057 591.05 168.53 586.67 160.615C579.921 148.418 596.065 127.045 605.564 120.927C622.56 109.979 631.951 127.536 636.634 141.56C644.512 165.147 634.066 195.865 618.839 213.783C609.508 224.763 599.48 235.623 586.587 242.443C585.858 242.828 562.497 251.666 563.836 247.918C567.89 236.574 594.775 224.717 603.866 219.568C633.187 202.96 664.807 191.63 697.568 183.953C730.673 176.194 793.274 163.672 816.59 199.378C832.532 223.792 832.359 258.359 809.041 278.469C800.262 286.04 785.879 293.283 774.14 289.294C757.019 283.476 728.281 269.065 719.576 252.111C707.957 229.48 705.663 191.06 715.82 168.182C732.38 130.879 778.069 122.23 814.34 120.144C847.474 118.239 884.17 118.258 915.034 132.046C926.409 137.127 963.662 160.159 938.254 172.098C914.854 183.093 884.146 183.896 858.759 184.249C822.051 184.759 784.125 183.332 747.733 178.628C709.515 173.687 670.303 165.122 633.688 152.911C613.689 146.242 596.987 134.443 584.929 116.989C578.981 108.379 574.427 97.3335 573.157 86.8045C571.451 72.6676 586.928 70.3238 597.792 67.9946C618.662 63.5204 639.173 64.3816 660.177 67.2487C675.601 69.3541 690.962 71.3545 697.098 87.251C698.844 91.7747 709.127 125.26 697.895 126.116C683.569 127.208 696.731 89.3145 699.735 85.0165C726.547 46.6687 780.961 30.8316 825.363 32.7559C844.104 33.568 866.669 34.1166 882.109 46.2602C893.408 55.1467 900.924 69.0562 906.462 82.0574C908.615 87.1122 919.02 119.864 901.663 113.101C883.176 105.897 860.613 85.0211 865.98 63.3213C874.133 30.3617 910.826 15.7693 940.46 9.39182C979.378 1.01637 1014.53 20.034 1042.86 45.1818C1064.99 64.8294 1071.69 91.9497 1060.3 119.987C1056.13 130.247 1049.75 141.902 1041.89 149.792C1031.86 159.865 1036.54 137.441 1038.18 133.988C1050.05 109.074 1092.14 102.058 1116.24 100.089C1137.01 98.3918 1156.12 104.476 1162.36 126.203C1167.5 144.096 1160.97 167.512 1155.43 184.385C1147.11 209.685 1134.29 238.91 1111.91 254.814C1110.67 255.697 1100.36 265.087 1100.13 261.086C1099.5 249.849 1107.12 240.757 1114.89 233.654C1132 218.021 1152.24 208.468 1175.88 210.718C1195.09 212.546 1223.45 217.351 1229.64 238.692C1236.75 263.156 1226.88 282.305 1212.02 300.783C1211.73 301.136 1203.98 311.795 1203.65 306.223C1202.95 294.402 1220.84 283.847 1228.9 278.656C1242.28 270.036 1268.64 258.681 1285.03 265.909C1299.36 272.225 1305.21 290.005 1312.55 302.525C1319.34 314.119 1307.67 310.141 1301.94 304.1C1287.9 289.285 1288.7 262.48 1295.16 244.56C1306.02 214.457 1341.92 194.393 1370.02 183.304C1387.17 176.54 1401.89 188.708 1408.99 204.145C1410.88 208.251 1412.82 214.674 1412.19 219.35C1411.87 221.754 1408.48 221.155 1408.68 218.724C1409.31 211.105 1434.34 198.818 1440.6 204.865C1446.31 210.385 1444.39 212.311 1438.6 215.515" stroke="black" stroke-width="2" stroke-linecap="round"/>
</svg>
