<svg width="1210" height="311" viewBox="0 0 1210 311" fill="none" xmlns="http://www.w3.org/2000/svg">
<path d="M1208.03 35.8053C1203.9 4.28977 1155.7 4.03787 1132.57 2.35978C1108.93 0.644793 1085.12 1.41048 1061.56 3.88821C1050.65 5.03523 1038.36 5.73438 1030.3 14.1681C1012.37 32.9454 1013.24 58.5921 1015.21 82.423C1017.02 104.303 1024.23 123.718 1041.05 138.706C1048.77 145.577 1059.5 155.387 1070.65 155.433C1088.06 155.505 1111.79 122.41 1096.69 107.678C1080.41 91.8083 1048.22 82.4625 1026.72 78.6832C1012.12 76.1155 987.144 73.9368 973.94 82.1597C961.409 89.9633 952.525 107.137 949.724 120.956C947.5 131.929 949.66 133.569 951.191 121.169C957.751 68.0304 867.409 56.4839 831.649 61.6038C812.735 64.3117 790.592 76.1577 779.654 92.1074C778.165 94.2788 769.512 113.715 770.577 103.673C771.946 90.7621 774.28 79.2893 768.623 66.597C759.118 45.2687 734.699 36.8754 713.721 33.6799C691.472 30.2907 670.847 28.1269 654.604 46.8229C649.017 53.2534 642.798 61.2767 640.206 69.5323C638.85 73.8489 640.315 78.3219 638.943 82.5698C636.914 88.8561 636.123 68.6481 631.083 64.3783C619.925 54.9261 611.357 54.0494 597.5 57.3466C579.573 61.612 563.582 68.8331 553.276 84.7542C541.326 103.216 555.381 132.388 567.036 147.277C568.429 149.057 587.395 168.53 591.776 160.615C598.525 148.418 582.38 127.045 572.882 120.927C555.886 109.979 546.495 127.536 541.811 141.56C533.934 165.147 544.38 195.865 559.607 213.783C568.938 224.763 578.966 235.623 591.858 242.443C592.588 242.828 615.949 251.666 614.61 247.918C610.556 236.574 583.671 224.717 574.579 219.568C545.259 202.96 513.639 191.63 480.878 183.953C447.773 176.194 385.171 163.672 361.856 199.378C345.914 223.792 346.087 258.359 369.405 278.469C378.184 286.04 392.567 293.283 404.306 289.294C421.426 283.476 450.165 269.065 458.869 252.111C470.489 229.48 472.783 191.06 462.626 168.182C446.066 130.879 400.377 122.23 364.106 120.144C330.972 118.239 294.275 118.258 263.411 132.046C252.037 137.127 214.784 160.159 240.191 172.098C263.591 183.093 294.3 183.896 319.687 184.249C356.395 184.759 394.321 183.332 430.712 178.628C468.931 173.687 508.143 165.122 544.758 152.911C564.757 146.242 581.459 134.443 593.517 116.989C599.465 108.379 604.019 97.3335 605.289 86.8045C606.995 72.6676 591.518 70.3238 580.654 67.9946C559.784 63.5204 539.272 64.3816 518.269 67.2487C502.845 69.3541 487.484 71.3545 481.348 87.251C479.602 91.7747 469.319 125.26 480.551 126.116C494.877 127.208 481.715 89.3145 478.71 85.0165C451.899 46.6687 397.485 30.8316 353.083 32.7559C334.342 33.568 311.777 34.1166 296.337 46.2602C285.038 55.1467 277.522 69.0562 271.984 82.0574C269.831 87.1122 259.426 119.864 276.783 113.101C295.27 105.897 317.833 85.0211 312.466 63.3213C304.313 30.3617 267.62 15.7693 237.986 9.39182C199.067 1.01637 163.913 20.034 135.589 45.1818C113.46 64.8294 106.752 91.9497 118.144 119.987C122.313 130.247 128.696 141.902 136.554 149.792C146.588 159.865 141.908 137.441 140.263 133.988C128.394 109.074 86.3013 102.058 62.2011 100.089C41.4374 98.3918 22.3291 104.476 16.0867 126.203C10.946 144.096 17.4739 167.512 23.0204 184.385C31.3369 209.685 44.1572 238.91 66.5333 254.814C67.7748 255.697 78.0866 265.087 78.3129 261.086C78.9487 249.849 71.328 240.757 63.5556 233.654C46.4483 218.021 26.2071 208.468 2.567 210.718C-16.6459 212.546 -45.0003 217.351 -51.1976 238.692C-58.3021 263.156 -48.4333 282.305 -33.5718 300.783C-33.2877 301.136 -25.5367 311.795 -25.2058 306.223C-24.5038 294.402 -42.3976 283.847 -50.4544 278.656C-63.8326 270.036 -90.1895 258.681 -106.586 265.909C-120.915 272.225 -126.768 290.005 -134.104 302.525C-140.896 314.119 -129.22 310.141 -123.494 304.1C-109.45 289.285 -110.252 262.48 -116.715 244.56C-127.572 214.457 -163.478 194.393 -191.578 183.304C-208.719 176.54 -223.448 188.708 -230.547 204.145C-232.435 208.251 -234.372 214.674 -233.748 219.35C-233.428 221.754 -230.031 221.155 -230.232 218.724C-230.863 211.105 -255.893 198.818 -262.151 204.865C-267.862 210.385 -265.945 212.311 -260.155 215.515" stroke="black" stroke-width="2" stroke-linecap="round"/>
</svg>
