<svg width="111" height="189" viewBox="0 0 111 189" fill="none" xmlns="http://www.w3.org/2000/svg">
<path d="M1.34787 25.7777C0.239474 20.7899 2.044 14.7169 3.07296 9.80756C13.9555 14.0023 30.9257 10.9999 42.3479 10.9999H82.3479C92.3585 10.9999 95.2368 9.36235 95.2368 20.111C95.2368 25.3306 93.8014 33.3318 96.7923 37.4443C97.8227 38.8611 99.2368 50.8822 99.2368 52.9999C99.2368 59.0958 101.237 64.1013 101.237 69.4443C101.237 77.6257 107.237 84.6492 107.237 93.4443C107.237 100.969 109.237 108.153 109.237 115.889C109.237 118.814 111.203 135.823 106.126 130.111C104.304 128.062 106.802 123.198 103.237 123C100.557 122.851 94.5306 121.896 93.459 125.111C91.3134 131.548 90.9164 158.599 94.7923 163.444C97.3991 166.703 95.5655 177.515 97.2368 182.111C99.9128 189.47 89.687 188.875 87.6812 184.111C86.2271 180.657 87.2368 175.166 87.2368 171.444C87.2368 166.981 83.6317 167.213 83.2368 163C82.6891 157.159 77.9636 150.433 72.0145 149.111C59.7244 146.38 47.2368 153.087 47.2368 166.111C47.2368 169.722 49.2902 182.557 46.2368 185C39.5161 190.376 37.2368 185.417 37.2368 179C37.2368 165.379 35.2368 151.727 35.2368 138.555C35.2368 131.36 31.0423 128.714 27.6812 123C23.4138 115.745 19.5797 121.193 16.0145 122.778C9.02005 125.886 11.2368 93.0076 11.2368 87.9999V46.9999C11.2368 43.7481 13.1046 28.5955 10.0145 27.2221C8.16651 26.4008 1.93701 28.4288 1.34787 25.7777Z" fill="white"/>
<path d="M3.23676 8.99988C2.25367 14.0382 0.177848 20.5126 1.34787 25.7777C1.93701 28.4288 8.16651 26.4008 10.0145 27.2221C13.1046 28.5955 11.2368 43.7481 11.2368 46.9999C11.2368 60.6665 11.2368 74.3332 11.2368 87.9999C11.2368 93.0076 9.02005 125.886 16.0145 122.778C19.5797 121.193 23.4138 115.745 27.6812 123C31.0423 128.714 35.2368 131.36 35.2368 138.555C35.2368 151.727 37.2368 165.379 37.2368 179C37.2368 185.417 39.5161 190.376 46.2368 185C49.2902 182.557 47.2368 169.722 47.2368 166.111C47.2368 153.087 59.7244 146.38 72.0145 149.111C77.9636 150.433 82.6891 157.159 83.2368 163C83.6317 167.213 87.2368 166.981 87.2368 171.444C87.2368 175.166 86.2271 180.657 87.6812 184.111C89.687 188.875 99.9128 189.47 97.2368 182.111C95.5655 177.515 97.3991 166.703 94.7923 163.444C90.9164 158.599 91.3134 131.548 93.459 125.111C94.5306 121.896 100.557 122.851 103.237 123C106.802 123.198 104.304 128.062 106.126 130.111C111.203 135.823 109.237 118.814 109.237 115.889C109.237 108.153 107.237 100.969 107.237 93.4443C107.237 84.6492 101.237 77.6257 101.237 69.4443C101.237 64.1013 99.2368 59.0958 99.2368 52.9999C99.2368 50.8822 97.8227 38.8611 96.7923 37.4443C93.8014 33.3318 95.2368 25.3306 95.2368 20.111C95.2368 9.36235 92.3585 10.9999 82.3479 10.9999C69.0145 10.9999 55.6812 10.9999 42.3479 10.9999C30.2608 10.9999 11.9611 14.3621 1.23676 8.99988" stroke="black" stroke-width="2" stroke-linecap="round"/>
<path d="M19 19.9999C19 13.8184 17 7.8773 17 0.999878C28.7622 0.999878 25.5455 13.1803 25 22.9999C24.7376 27.7235 19 24.1582 19 19.9999Z" stroke="black" stroke-width="2" stroke-linecap="round"/>
<path d="M67 0.999878C67 7.70353 66.4842 14.7386 67 21.4443C67.5304 28.3399 73 24.1754 73 18.9999C73 7.58047 76.173 0.999878 63 0.999878" stroke="black" stroke-width="2" stroke-linecap="round"/>
</svg>
