<svg width="68" height="33" viewBox="0 0 68 33" fill="none" xmlns="http://www.w3.org/2000/svg">
<path d="M61.4353 23.5128C45.0627 23.5128 28.2442 22.1058 11.485 22.1058C8.92542 22.1058 3.22819 24.6239 1.01029 23.3565C0.83078 23.2539 3.04269 16.8892 3.04269 15.0705C3.04269 9.83953 9.10043 6.98037 12.5794 3.50142C15.0472 1.03356 19.5045 1 22.7414 1C26.642 1 27.588 3.61399 30.0894 3.8141C33.2171 4.06432 36.029 3.18724 38.219 5.92468C39.5568 7.59696 42.0648 5.22115 43.8472 5.22115C51.2797 5.22115 56.3837 6.58989 62.8424 10.0677C68.1832 12.9435 69.052 23.5128 61.4353 23.5128Z" fill="white" stroke="black" stroke-width="2" stroke-linecap="round"/>
<path d="M50.8828 24.9199C50.8828 19.2334 45.7163 20.2616 40.7628 20.6117C40.0103 20.5964 39.295 20.6086 38.6462 20.6987C36.6477 20.9764 35.2807 21.9943 35.4052 25.2326C35.5895 30.0225 40.5277 31.9552 44.6293 31.9552C49.7001 31.9552 50.8828 29.5292 50.8828 24.9199Z" fill="white"/>
<path d="M38.6458 20.6987C44.1158 20.6987 50.8828 18.412 50.8828 24.9199C50.8828 29.5292 49.7001 31.9552 44.6293 31.9552C40.5277 31.9552 35.5895 30.0225 35.4052 25.2326C35.1872 19.5647 39.5387 20.6988 43.8476 20.6988" stroke="black" stroke-width="2" stroke-linecap="round"/>
<path d="M16.0186 30.2353C22.1282 35.734 34.506 25.6465 20.1514 19.3882C18.373 19.5828 16.6464 20.1081 15.8622 21.4804C15.2163 22.6108 15.1084 29.4162 16.0186 30.2353Z" fill="white"/>
<path d="M19.9271 19.2916C34.6339 25.542 22.1597 35.7623 16.0186 30.2353C15.1084 29.4162 15.2163 22.6108 15.8622 21.4804C17.2912 18.9797 21.85 19.2916 24.1482 19.2916" stroke="black" stroke-width="2" stroke-linecap="round"/>
</svg>
