<svg width="242" height="111" viewBox="0 0 242 111" fill="none" xmlns="http://www.w3.org/2000/svg">
<path d="M84.6352 108.981C65.1921 108.981 59.7042 100.891 61.7498 85.0856C54.5721 85.2051 47.3066 85.1934 40.413 83.4258C34.4712 81.9022 28.7176 76.2048 23.5241 72.9813C13.5887 66.8145 -6.26782 53.8023 3.74635 38.9813C9.89997 29.874 23.1833 22.6504 32.6352 18.3147C50.9501 9.91335 67.359 1.77943 87.9686 1.09244C108.007 0.424491 124.441 3.38642 143.524 9.648C151.864 12.3846 166.644 13.4392 171.969 21.4258C172.199 21.7716 172.416 22.1163 172.62 22.4596C178.573 22.1141 184.938 22.9813 190.191 22.9813C204.497 22.9813 215.767 25.1536 229.08 30.7591C243.656 36.8966 276.111 50.9536 262.413 72.8702C256.798 81.8546 257.712 98.5448 243.524 98.9813C228.617 99.44 208.413 104.293 208.413 85.2036C208.413 79.3873 207.157 92.6761 206.191 95.0924C203.387 102.103 196.783 104.063 190.191 105.87C177.525 109.343 146.044 114.929 138.857 98.7591C138.338 97.5895 138.011 96.489 137.839 95.4627C122.653 109.154 104.903 108.981 84.6352 108.981Z" fill="white"/>
<path d="M62.413 80.9813C58.8877 99.489 63.5748 108.981 84.6352 108.981C106.06 108.981 124.67 109.174 140.413 92.9813C151.961 81.103 132.949 85.4645 138.857 98.7591C146.044 114.929 177.525 109.343 190.191 105.87C196.783 104.063 203.387 102.103 206.191 95.0924C207.157 92.6761 208.413 79.3873 208.413 85.2036C208.413 104.293 228.617 99.44 243.524 98.9813C257.712 98.5448 256.798 81.8546 262.413 72.8702C276.111 50.9536 243.656 36.8966 229.08 30.7591C215.767 25.1536 204.497 22.9813 190.191 22.9813C181.69 22.9813 170.28 20.7107 162.413 24.9813C153.146 30.0121 150.191 40.9813 162.302 40.9813C173.789 40.9813 178.831 31.7197 171.969 21.4258C166.644 13.4392 151.864 12.3846 143.524 9.648C124.441 3.38642 108.007 0.424491 87.9686 1.09244C67.359 1.77943 50.9501 9.91335 32.6352 18.3147C23.1833 22.6504 9.89997 29.874 3.74635 38.9813C-6.26782 53.8023 13.5887 66.8145 23.5241 72.9813C28.7176 76.2048 34.4712 81.9022 40.413 83.4258C49.8137 85.8362 59.9057 84.9813 69.5241 84.9813C71.6459 84.9813 93.2465 82.3981 86.413 78.9813" stroke="black" stroke-width="2" stroke-linecap="round"/>
</svg>
