<svg width="63" height="43" viewBox="0 0 63 43" fill="none" xmlns="http://www.w3.org/2000/svg">
<path d="M6.89462 14.6183C2.70163 20.3837 -1.95848 28.2077 3.43233 34.5611C6.25604 37.8891 12.1303 38.3004 16.1736 38.3004C20.0767 38.3004 29.8382 30.8265 26.2142 32.276C22.5497 33.7419 27.6798 39.4848 29.3303 40.2393C33.1149 41.9694 39.7381 40.977 43.1102 38.7851C46.786 36.3959 51.766 28.883 51.766 28.883C51.766 28.883 52.5138 31.956 53.7741 32.553C56.0716 33.6413 58.7985 34.2752 61.1834 35.2536C73.7132 40.394 84.4735 28.6619 91.6516 20.8505C102.501 9.04361 80.9491 4.45269 73.0937 2.91577C58.7659 0.112512 37.9411 -0.157242 24.4831 5.8241C14.5353 10.2453 9.38748 8.27377 9.38748 20.8505" stroke="black" stroke-width="2" stroke-linecap="round"/>
</svg>
