<svg width="328" height="218" viewBox="0 0 328 218" fill="none" xmlns="http://www.w3.org/2000/svg">
<path d="M12.6271 162.7C-11.3944 169.417 -40.7785 172.27 -59.7357 158.621C-64.4626 155.217 -69.4145 140.395 -71.1801 134.509C-76.0976 118.118 -71.3936 105.807 -52.8468 102.954C-51.7585 102.786 -50.2388 102.835 -48.5498 103.019C-51.7983 99.3547 -51.5463 92.94 -51.1945 83.9871L-51.1801 83.6206C-49.8165 48.8474 -14.8466 -1.46482 25.8199 14.1761C33.6175 17.1752 38.4191 22.2633 41.2289 28.4366C41.4011 27.5768 41.5981 26.7458 41.8199 25.9539C45.6876 12.1406 65.2775 8.47999 76.7087 4.84278C92.8386 -0.28946 127.517 -1.50631 141.598 8.95389C153.607 17.8754 158.443 31.213 157.281 45.0792C167.711 31.3227 182.247 23.7841 200.042 20.6206C209.472 18.9442 220.285 15.3897 229.931 16.9539C239.366 18.4839 248.301 25.5321 256.264 30.5094C265.756 36.4416 274.511 51.3669 274.709 62.6206C274.996 78.9747 266.935 86.4017 259.82 99.5094C259.606 99.9041 259.357 100.275 259.083 100.623C265.499 97.7438 270.377 94.7749 278.709 94.6206C294.27 94.3324 299.656 94.9299 310.709 106.621C322.501 119.093 327.906 137.87 326.264 154.621C324.565 171.956 315.11 190.146 301.598 201.287C283.417 216.279 262.475 216.799 240.042 216.621C212.718 216.404 178.818 214.007 153.82 201.732C140.035 194.962 114.232 185.399 105.697 169.539C102.514 174.545 99.525 178.584 98.2643 180.176C89.223 191.597 83.3376 204.891 67.3754 204.621C52.644 204.371 39.5334 196.323 30.2643 185.509C27.4241 182.196 21.4035 182.848 19.1532 179.732C17.3394 177.22 15.776 174.23 14.2643 171.509C12.7148 168.72 12.5732 165.803 12.6271 162.7Z" fill="white"/>
<path d="M30.7087 156.621C5.34916 166.646 -35.6259 175.98 -59.7357 158.621C-64.4626 155.217 -69.4145 140.395 -71.1801 134.509C-76.0976 118.118 -71.3936 105.807 -52.8468 102.954C-47.4388 102.122 -31.3752 106.621 -36.8468 106.621C-52.2092 106.621 -51.7687 98.6286 -51.1801 83.6206C-49.8165 48.8474 -14.8466 -1.46482 25.8199 14.1761C40.7736 19.9276 44.7087 33.3616 44.7087 47.3983C44.7087 52.1202 41.3534 47.8271 40.931 45.3983C39.9047 39.4972 40.2116 31.6975 41.8199 25.9539C45.6876 12.1406 65.2775 8.47999 76.7087 4.84278C92.8386 -0.28946 127.517 -1.50631 141.598 8.95389C154.883 18.8227 159.389 34.0952 156.709 49.5094C155.999 53.5898 154.508 60.3825 150.931 63.065C147.769 65.4362 151.027 54.7982 153.042 51.3983C163.602 33.5789 179.691 24.2385 200.042 20.6206C209.472 18.9442 220.285 15.3897 229.931 16.9539C239.366 18.4839 248.3 25.5321 256.264 30.5094C265.756 36.4416 274.511 51.3669 274.709 62.6206C274.996 78.9747 266.935 86.4017 259.82 99.5094C256.556 105.523 245.351 106.032 255.375 102.176C263.829 98.9247 268.852 94.8031 278.709 94.6206C294.27 94.3324 299.656 94.9299 310.709 106.621C322.501 119.093 327.907 137.87 326.264 154.621C324.565 171.956 315.11 190.146 301.598 201.287C283.417 216.279 262.475 216.799 240.042 216.621C212.718 216.404 178.818 214.007 153.82 201.732C138.022 193.974 106.439 182.546 103.153 162.176C102.69 159.305 106.74 131.541 114.264 139.065C122.4 147.201 102.144 175.275 98.2643 180.176C89.223 191.597 83.3376 204.891 67.3754 204.621C52.644 204.371 39.5334 196.323 30.2643 185.509C27.4241 182.196 21.4035 182.848 19.1532 179.732C17.3394 177.22 15.776 174.23 14.2643 171.509C12.0536 167.53 12.7087 163.29 12.7087 158.621" stroke="black" stroke-width="2" stroke-linecap="round"/>
</svg>
