<svg width="633" height="166" viewBox="0 0 633 166" fill="none" xmlns="http://www.w3.org/2000/svg">
<path d="M1.11328 101.483C12.5591 113.656 23.4753 114.437 37.4961 120.622C50.1321 126.195 64.7267 125.984 76.6816 132.238C82.173 135.11 89.2281 133.376 95.0204 134.659C103.104 136.45 110.444 139.798 119.144 140.319C134.411 141.232 149.426 146.489 164.219 147.148C171.172 147.458 177.651 154.485 184.508 156.44C192.15 158.62 200.703 156.157 207.944 158.791C216.653 161.959 223.144 158.786 231.887 159.992C240.592 161.193 249.636 162.971 257.968 163.939C276.164 166.052 295.014 155.541 312.508 157.683C328.937 159.694 343.39 154.113 359.269 151.344C390.06 145.977 418.535 139.084 447.831 127.721C476.235 116.704 503.479 110.428 532.047 99.3475C559.084 88.861 584.032 75.2719 607.703 59.04C610.453 57.1536 610.084 54.3363 613.381 52.7857C617.991 50.617 621.417 48.5897 624.406 44.3385C629.057 37.7234 638.754 36.7562 644.352 31.2393C650.161 25.5135 657.042 17.3851 664.222 13.6411C669.809 10.7274 677.05 8.00059 674.422 1.22352" stroke="black" stroke-width="2" stroke-linecap="round"/>
</svg>
