<svg width="627" height="192" viewBox="0 0 627 192" fill="none" xmlns="http://www.w3.org/2000/svg">
<path d="M1.76953 0.999878C8.03874 16.4885 17.9338 21.1641 28.7695 31.9999C38.5351 41.7654 52.2184 46.8462 61.1029 56.9999C65.1839 61.6639 72.3887 62.5978 77.3251 65.8888C84.2145 70.4817 89.8467 76.2575 97.7695 79.8888C111.673 86.2612 123.771 96.5917 137.325 102.555C143.696 105.359 147.195 114.253 152.881 118.555C159.218 123.351 168.082 124.148 173.881 129.222C180.855 135.324 188.054 134.713 195.77 139C203.451 143.267 211.24 148.196 218.658 152.111C234.858 160.661 256.234 157.677 271.77 166C286.36 173.816 301.853 173.839 317.658 177C348.307 183.13 377.348 187 408.77 187C439.236 187 466.906 191 497.547 191C526.547 191 554.72 187.351 582.658 180.778C585.905 180.014 586.58 177.253 590.214 177C595.297 176.645 599.223 175.994 603.547 173.111C610.276 168.625 619.667 171.23 626.881 168.111C634.368 164.873 643.721 159.783 651.77 158.889C658.033 158.193 665.77 158.269 665.77 151" stroke="black" stroke-width="2" stroke-linecap="round"/>
</svg>
