<svg width="1440" height="47" viewBox="0 0 1440 47" fill="none" xmlns="http://www.w3.org/2000/svg">
<path d="M-11 24.9999C10.8638 24.9999 33.1699 26.1799 55 24.9999C60.8032 24.6862 65.2756 20.9999 71.4444 20.9999C78.037 20.9999 84.6296 20.9999 91.2222 20.9999C106.581 20.9999 127.89 18.5557 142.556 23.8888C167.695 33.0302 200.893 32.9999 227.889 32.9999C296.769 32.9999 365.611 28.9999 434.556 28.9999C491.796 28.9999 548.586 32.9999 605.667 32.9999C642.957 32.9999 680.215 34.3848 717 27.4443C724.384 26.0511 731.044 22.7797 738.556 21.4443C743.734 20.5237 748.973 16.9999 753.889 16.9999C768.197 16.9999 782.15 16.8814 796.111 20.5554C806.244 23.2219 810.843 26.4225 821.111 22.9999C831.418 19.5643 844.957 16.9999 855.667 16.9999C863.61 16.9999 871.206 17.0851 879 15.4443C886.151 13.9388 893.831 10.9999 901.111 10.9999C904.517 10.9999 912.753 12.5693 915.889 10.7777C920.088 8.37811 919.18 7.2236 925.444 6.99988C930.712 6.81174 935.628 4.99988 941 4.99988C946.482 4.99988 949.411 0.999878 954.889 0.999878C964.111 0.999878 973.333 0.999878 982.556 0.999878C996.834 0.999878 1015.44 10.6268 1028 17.111C1046.79 26.8076 1067.35 28.1257 1086.56 35.8888C1094 38.897 1099.16 43.4509 1107.44 44.5554C1115.85 45.6763 1124.64 44.9999 1133.11 44.9999C1138.7 44.9999 1144.3 44.9999 1149.89 44.9999C1157.87 44.9999 1164.55 41.2079 1172.56 40.9999C1184.47 40.6905 1198.32 43.033 1210.11 40.8888C1215.73 39.8678 1220.38 36.64 1224.78 33.2221C1229.89 29.2436 1236.8 33.1568 1241.44 29.4443C1254.22 19.2275 1283.76 24.9999 1299.44 24.9999C1323.3 24.9999 1429.15 20.9999 1453 20.9999" stroke="black" stroke-width="2" stroke-linecap="round"/>
</svg>
