<svg width="1398" height="340" viewBox="0 0 1398 340" fill="none" xmlns="http://www.w3.org/2000/svg">
<path d="M814.103 296.008C796.732 324.445 816.171 331.554 828.061 331.554H885.446C900.336 331.554 898.888 314.439 896.303 305.882C885.136 272.706 865.801 292.059 857.529 305.882C846.362 285.345 823.925 290.742 814.103 296.008Z" fill="white"/>
<path d="M842.02 323.655C833.403 325.745 814.66 333.621 808.588 319.706C804.676 310.74 812.224 299.236 817.205 294.253C825.326 286.128 832.02 283.594 842.02 287.232C847.444 289.205 850.197 293.027 854.255 297.764C855.962 299.756 856.842 308.181 857.702 305.443C873.566 254.945 922.825 311.741 885.447 327.605" stroke="black" stroke-width="2" stroke-linecap="round"/>
<path d="M908.025 315.554C919.225 329.954 906.691 333.554 899.025 333.554H862.025C852.425 333.554 853.358 324.888 855.025 320.554C862.225 303.754 874.691 313.554 880.025 320.554C887.225 310.154 901.691 312.888 908.025 315.554Z" fill="white"/>
<path d="M890.025 329.554C895.581 330.612 907.666 334.601 911.581 327.554C914.103 323.014 909.236 317.188 906.025 314.665C900.789 310.551 896.473 309.267 890.025 311.11C886.528 312.109 884.753 314.044 882.136 316.443C881.035 317.452 880.468 321.718 879.914 320.332C869.685 294.76 837.925 323.521 862.025 331.554" stroke="black" stroke-width="2" stroke-linecap="round"/>
<path d="M912.57 119.637C913.512 123.653 918.247 126.141 921.247 128.405C921.051 127.007 925.576 125.375 926.473 123.046C926.951 121.806 921.573 118.654 920.472 117.824C915.859 114.343 917.719 108.471 914.036 104.151C911.437 101.103 913.463 97.1854 912.172 93.9978C910.51 89.8913 913.725 82.8816 909.708 79.8507C907.004 77.8106 903.582 76.3392 900.758 74.2082C897.915 72.0634 897.649 69.3635 894.827 67.2345C888.971 62.8157 895.535 52.6207 891.441 48.5045C887.677 44.7196 885.15 40.2553 884.883 34.8088C884.603 29.1011 879.505 25.6832 875.359 22.5552C873.279 20.9857 871.12 21.8563 868.532 19.903C866.457 18.3374 872.271 24.1498 872.266 26.747C872.259 29.5462 872.495 31.8655 873.446 34.5799C873.839 35.6997 875.652 36.413 876.502 37.1633C877.763 38.2761 876.787 39.4621 877.559 40.7376C881.678 47.5415 879.632 57.1347 879.014 64.606C878.75 67.8021 876.415 70.8369 879.24 72.9679C881.374 74.578 883.59 76.8711 886.486 76.6306C888.081 76.4982 895.046 76.2623 896.026 76.8861C899.49 79.0905 897.944 80.8222 899.072 83.905C899.723 85.6856 900.273 89.2978 900.187 91.2719C900.084 93.6347 901.984 96.3683 902.655 98.688C903.287 100.873 900.977 104.112 902.95 105.852C904.788 107.475 906.926 108.852 908.886 110.331C911.804 112.533 911.774 116.244 912.57 119.637Z" fill="white" stroke="black" stroke-width="2" stroke-linecap="round"/>
<path d="M951.308 321.119C955.008 309.789 960.754 287.065 945.579 282.396C935.384 279.259 935.798 274.661 935.305 263.825C934.854 253.9 928.608 250.621 921.081 246.439C908.011 239.178 898.052 222.754 882.358 221.546C879.875 221.355 868.048 216.412 865.96 214.434C855.765 204.775 850.226 197.518 834.943 195.073C822.973 193.158 800.172 180.08 800.172 166.624C800.172 160.496 798.834 155.309 803.629 151.312C807.492 148.093 811.6 157.877 812.595 160.247L812.618 160.302C814.894 165.72 822.041 166.706 826.843 169.587C832.796 173.159 835.262 173.117 842.845 173.538C845.413 173.681 845.562 177.675 846.402 179.564C847.482 181.995 851.926 181.506 853.712 183.515C859.249 189.745 865.446 194.875 873.863 194.875C881.808 194.875 887.471 197.965 895.397 198.431C900.455 198.729 906.82 206.646 911.795 208.705C920.148 212.161 928.913 212.959 936.293 218.385C953.042 230.701 951.184 252.826 963.656 269.456C969.864 277.733 965.533 299.957 965.533 310.45C965.533 312.157 964.638 325.974 970.472 320.723C973.186 318.28 971.068 302.749 969.089 300.572C961.118 291.804 978.115 273.147 969.089 264.121C965.625 260.657 967.311 251.962 967.311 247.23C967.311 238.897 965.121 232.791 959.211 226.881C940.175 207.845 951.173 176.242 960.989 154.77C967.853 139.754 965.533 122.433 965.533 105.971C965.533 98.7559 963.65 93.1831 971.262 90.3639C977.378 88.0986 985.92 81.8793 988.549 75.7441C990.676 70.7809 991.536 63.6445 994.871 59.6427C996.797 57.3311 995.76 57.1469 995.76 61.1244V79.6954C995.76 99.7207 993.143 116.468 985.289 134.421C981.57 142.92 979.946 149.159 974.522 156.844C969.961 163.306 970.867 173.929 970.867 181.54C970.867 186.172 968.883 196.425 972.744 199.32C977.33 202.76 979.757 212.619 979.757 218.385C979.757 230.893 981.535 243.402 981.535 256.219C981.535 266.179 990.363 269.349 994.121 276.264C996.276 273.162 999.072 270.482 1002.08 268.567C1008.08 264.747 1013.03 254.945 1016.31 248.81C1016.43 248.583 1017.15 228.02 1023.81 236.166C1029.44 243.041 1020.36 254.617 1018.87 260.565C1017.16 267.444 1013.01 272.99 1010.08 279.334C1008.5 282.773 1004.5 284.519 1003.27 287.73C1002.12 290.724 1003.36 293.99 1001.98 297.016C999.796 301.827 1001.1 329.692 997.143 330.009C985.842 330.913 974.107 330.009 962.767 330.009C960.646 330.009 948.521 331.369 947.851 329.021C946.866 325.575 949.898 323.938 951.308 321.119Z" fill="white" stroke="black" stroke-width="1.77808" stroke-linecap="round"/>
<path d="M399.444 251.649C401.183 244.52 407.102 243.233 413.259 243.103C441.2 232.391 453.034 303.205 422 303.205C413.343 303.205 406.979 304.909 401.444 298.76C396.347 293.096 393 288.267 393 280.316C393 269.321 396.924 261.982 399.444 251.649Z" fill="white"/>
<path d="M421 243.205C412.949 243.205 401.929 241.462 399.444 251.649C396.924 261.982 393 269.321 393 280.316C393 288.267 396.347 293.096 401.444 298.76C406.979 304.909 413.343 303.205 422 303.205C453.129 303.205 441.127 231.954 413 243.205" stroke="black" stroke-width="2" stroke-linecap="round"/>
<path d="M414 320.205C414 313.821 413.708 307.498 414.655 301.205H417C419.712 301.205 418.076 302.22 419.444 303.76C421.581 306.164 419.986 308.964 421.778 311.427C422.592 312.547 423.01 328.987 422.444 329.149C421.254 329.489 414.362 329.722 414.056 328.649C413.368 326.243 414 322.734 414 320.205Z" fill="white"/>
<path d="M415 299.205C413.643 306.158 414 313.144 414 320.205C414 322.734 413.368 326.243 414.056 328.649C414.362 329.722 421.254 329.489 422.444 329.149C423.01 328.987 422.592 312.547 421.778 311.427C419.986 308.964 421.581 306.164 419.444 303.76C418.076 302.22 419.712 301.205 417 301.205C415.667 301.205 414.333 301.205 413 301.205" stroke="black" stroke-width="2" stroke-linecap="round"/>
<path d="M5.48652 275.718C6.69709 270.754 10.8179 269.859 15.1037 269.768C34.5561 262.31 42.7947 311.61 21.1893 311.61C15.1624 311.61 10.7318 312.797 6.87889 308.516C3.32986 304.572 1 301.21 1 295.675C1 288.021 3.73201 282.911 5.48652 275.718Z" fill="white"/>
<path d="M20.4932 269.839C14.8882 269.839 7.21633 268.625 5.48652 275.718C3.73201 282.911 1 288.021 1 295.675C1 301.21 3.32986 304.572 6.87889 308.516C10.7318 312.797 15.1624 311.61 21.1893 311.61C42.8612 311.61 34.5051 262.006 14.9237 269.839" stroke="black" stroke-width="2" stroke-linecap="round"/>
<path d="M15.62 323.445C15.62 319.001 15.4169 314.599 16.0762 310.218H17.7086C19.5968 310.218 18.4573 310.925 19.4103 311.997C20.898 313.67 19.7877 315.619 21.0348 317.334C21.6018 318.114 21.8926 329.56 21.4989 329.672C20.6704 329.909 15.872 330.071 15.6587 329.324C15.1801 327.649 15.62 325.206 15.62 323.445Z" fill="white"/>
<path d="M16.3162 308.825C15.3716 313.666 15.62 318.53 15.62 323.445C15.62 325.206 15.1801 327.649 15.6587 329.324C15.872 330.071 20.6704 329.909 21.4989 329.672C21.8926 329.56 21.6018 318.114 21.0348 317.334C19.7877 315.619 20.898 313.67 19.4103 311.997C18.4573 310.925 19.5968 310.218 17.7086 310.218C16.7803 310.218 15.8521 310.218 14.9238 310.218" stroke="black" stroke-width="2" stroke-linecap="round"/>
<path d="M118.104 310.939C118.104 297.596 118.433 284.38 117.365 271.227H114.72C111.662 271.227 113.507 273.349 111.964 276.568C109.554 281.593 111.352 287.444 109.332 292.592C108.414 294.933 107.943 329.296 108.58 329.634C109.923 330.345 117.695 330.831 118.041 328.589C118.816 323.56 118.104 316.227 118.104 310.939Z" fill="white"/>
<path d="M116.976 267.047C118.506 281.581 118.104 296.181 118.104 310.939C118.104 316.227 118.816 323.56 118.041 328.589C117.695 330.831 109.923 330.345 108.58 329.634C107.943 329.296 108.414 294.933 109.332 292.592C111.352 287.444 109.554 281.593 111.964 276.568C113.507 273.349 111.662 271.227 114.72 271.227C116.224 271.227 117.728 271.227 119.231 271.227" stroke="black" stroke-width="2" stroke-linecap="round"/>
<path d="M103.442 150C95.7065 150 90.6118 153.05 85.0006 157.602C86.4778 161.606 87.7189 167.075 87.6538 169.972C87.4557 178.783 79.853 189.588 75.875 194.125C69.4105 201.497 38.5622 208.555 38.0325 225.244C37.1772 252.194 53.3434 293.724 69.6097 296.308C76.6551 297.427 94.0245 304.845 99.6832 298.63C106.239 291.431 111.402 292.128 119.732 292.128C126.473 292.128 134.709 294.873 140.533 288.877C146.188 283.054 152.259 272.607 157.074 266.118C168.977 250.073 179.7 216.134 172.862 187.622C167.095 163.571 148.598 150 135.02 150H103.442Z" fill="white"/>
<path d="M74.1207 166.721C85.5973 157.605 91.2271 150 103.442 150C113.968 150 124.494 150 135.02 150C148.598 150 167.095 163.571 172.862 187.622C179.7 216.134 168.977 250.073 157.074 266.118C152.259 272.607 146.188 283.054 140.533 288.877C134.709 294.873 126.473 292.128 119.732 292.128C111.402 292.128 106.239 291.431 99.6832 298.63C94.0245 304.845 76.6551 297.427 69.6097 296.308C53.3434 293.724 37.1771 252.194 38.0325 225.244C38.5622 208.555 69.4105 201.497 75.875 194.125C79.853 189.588 87.4557 178.783 87.6538 169.972C87.7852 164.129 82.6024 147.823 80.8873 154.18" stroke="black" stroke-width="2" stroke-linecap="round"/>
<path d="M58.7647 124C72.2941 124 79.2887 126.689 86.5119 133.161C93.9347 135.472 93.9051 136.369 97.2647 141.384C99.9784 145.434 105.881 149.959 107.941 153.649C112.739 162.243 117 168.869 117 178.76C117 184.84 115.04 190.386 109.721 195.468C105.957 199.063 109.234 200.359 103.088 203.001C100.629 204.058 96.0223 206.676 94.3529 208.216C84.0075 217.762 60.6406 206.494 50.6765 204.353C41.5953 202.401 25.5947 188.774 23.9853 183.009C22.5693 177.937 18 175.594 18 169.198V155.291C18 144.318 21.5705 133.439 38.3824 127.863C42.9096 126.361 40.7583 124 47.1176 124H58.7647Z" fill="white"/>
<path d="M87.8824 134.43C80.1446 127.039 73.147 124 58.7647 124C54.8824 124 51 124 47.1176 124C40.7583 124 42.9096 126.361 38.3824 127.863C21.5705 133.439 18 144.318 18 155.291C18 159.927 18 164.563 18 169.198C18 175.594 22.5693 177.937 23.9853 183.009C25.5947 188.774 41.5953 202.401 50.6765 204.353C60.6406 206.494 84.0075 217.762 94.3529 208.216C96.0223 206.676 100.629 204.058 103.088 203.001C109.234 200.359 105.957 199.063 109.721 195.468C115.04 190.386 117 184.84 117 178.76C117 168.869 112.739 162.243 107.941 153.649C105.881 149.959 99.9784 145.434 97.2647 141.384C93.6872 136.044 93.9528 135.373 84.9706 132.692" stroke="black" stroke-width="2" stroke-linecap="round"/>
<path d="M736.46 330.581H764.906C779.806 330.834 794.607 331.29 800.089 331.29C820.35 331.29 812.222 329.422 806.064 327.427C800.138 325.507 789.773 324.904 777.109 324.904C744.723 324.904 716.669 324.547 686.105 322.933C653.66 321.221 622.329 325.614 590.045 325.614C561.116 325.614 565.226 321.858 565.226 318.164C565.226 314.802 564.23 311.758 554.425 308.782C540.834 304.658 513.238 302.588 486.632 305.077C472.218 306.425 459.29 306.556 447.105 308.506C441.417 309.417 427.176 310.212 419.528 310.556C396.284 311.6 249.144 327.838 243.495 326.008C241.118 325.238 245.668 323.554 238.44 323.485C229.716 323.402 219.786 323.768 211.322 323.328C201.768 322.831 200.435 319.676 192.019 318.676C185.839 317.942 172.568 322.093 170.417 322.697C157.424 326.344 146.465 318.229 139.622 316.469C138.657 316.22 137.351 317.576 136.635 317.848C133.446 319.064 128.655 320.151 124.915 321.317C118.709 323.253 116.098 323.744 108.139 322.106C99.9537 320.421 90.9587 317.736 84.9283 321.357C81.2281 323.578 60.0967 326.004 69.3013 328.767C71.7526 329.503 83.3629 329.162 87.686 329.162C96.5684 329.162 96.6835 330.581 104.232 330.581H161.454H262.34H736.46Z" fill="white"/>
<path d="M796.872 330.581C618.695 330.581 440.517 330.581 262.34 330.581C228.711 330.581 195.083 330.581 161.454 330.581C142.38 330.581 123.306 330.581 104.232 330.581C96.6835 330.581 96.5684 329.162 87.686 329.162C83.3629 329.162 71.7526 329.503 69.3014 328.767C60.0967 326.004 81.2282 323.578 84.9283 321.357C90.9587 317.736 99.9537 320.421 108.139 322.106C116.098 323.744 118.709 323.253 124.915 321.317C128.655 320.151 133.446 319.064 136.635 317.848C137.351 317.576 138.657 316.22 139.622 316.469C146.465 318.229 157.424 326.344 170.417 322.697C172.567 322.093 185.839 317.942 192.019 318.676C200.436 319.676 201.768 322.831 211.322 323.328C219.786 323.768 229.716 323.402 238.44 323.485C245.668 323.554 241.118 325.238 243.495 326.008C249.144 327.838 396.284 311.6 419.528 310.556C427.175 310.212 441.417 309.417 447.105 308.506C459.29 306.556 472.218 306.425 486.632 305.077C513.238 302.588 540.834 304.658 554.425 308.782C564.23 311.758 565.226 314.802 565.226 318.164C565.226 321.858 561.116 325.614 590.045 325.614C622.329 325.614 653.66 321.221 686.105 322.933C716.669 324.547 744.723 324.904 777.109 324.904C789.773 324.904 800.138 325.507 806.064 327.427C812.222 329.422 820.35 331.29 800.089 331.29C787.581 331.29 726.551 328.914 726.551 332" stroke="black" stroke-width="2" stroke-linecap="round"/>
<path d="M1200.9 277.935C1200.9 294.155 1202.61 307.949 1203 324.241C1206.47 318.425 1213.85 324.387 1216.65 324.387C1223.22 324.387 1229.22 336 1235.62 336H1251.69C1257.42 336 1262.28 324.387 1267.77 324.387H1285.17C1287.89 324.387 1290.07 328.58 1292.72 329.763C1294.76 330.673 1292.79 301.941 1292.76 297.29C1292.72 289.876 1292.87 282.32 1292.76 274.924C1292.64 266.194 1291.32 261.373 1291.32 251.698V185.891C1291.32 163.783 1290.62 137.789 1291.48 116.213C1292.12 100.172 1293.63 86.8564 1294.05 69.761C1294.33 58.5417 1294.62 47.397 1294.89 36.2124C1295.44 14.372 1293.84 22.4488 1290.96 22.4488C1289.8 22.4488 1287.76 24.5536 1286.7 22.0187C1285.4 18.9234 1285.5 14.7068 1283.68 14.7068H1266H1239.28H1221.96C1215.71 14.7068 1210.01 3.62516 1203.95 3.09381C1203.38 3.04381 1192.75 -3.19451 1195.43 6.10459C1197.51 13.2926 1197.28 30.4417 1197.28 42.664C1197.28 76.3754 1198.73 110.002 1198.73 144.17V191.052C1198.73 200.231 1200.18 204.844 1200.18 214.063V237.289C1200.18 251.941 1200.9 263.352 1200.9 277.935Z" fill="white"/>
<path d="M1203.07 328.258C1202.9 310.171 1200.9 295.471 1200.9 277.935C1200.9 263.352 1200.18 251.941 1200.18 237.289C1200.18 229.547 1200.18 221.805 1200.18 214.063C1200.18 204.844 1198.73 200.231 1198.73 191.052C1198.73 175.425 1198.73 159.798 1198.73 144.17C1198.73 110.002 1197.28 76.3753 1197.28 42.664C1197.28 30.4417 1197.51 13.2926 1195.43 6.10459C1192.75 -3.19451 1203.38 3.04381 1203.95 3.09381C1210.01 3.62516 1215.71 14.7068 1221.96 14.7068C1227.73 14.7068 1233.5 14.7068 1239.28 14.7068C1248.18 14.7068 1257.09 14.7068 1266 14.7068C1271.89 14.7068 1277.79 14.7068 1283.68 14.7068C1285.5 14.7068 1285.4 18.9234 1286.7 22.0187C1287.76 24.5536 1289.8 22.4488 1290.96 22.4488C1293.84 22.4488 1295.44 14.372 1294.89 36.2124C1294.62 47.397 1294.33 58.5417 1294.05 69.761C1293.63 86.8564 1292.12 100.172 1291.48 116.213C1290.62 137.789 1291.32 163.783 1291.32 185.891C1291.32 207.827 1291.32 229.762 1291.32 251.698C1291.32 261.373 1292.64 266.194 1292.76 274.924C1292.87 282.32 1292.72 289.876 1292.76 297.29C1292.79 301.941 1294.76 330.673 1292.72 329.763C1290.07 328.58 1287.89 324.387 1285.17 324.387C1279.37 324.387 1273.57 324.387 1267.77 324.387C1262.28 324.387 1257.42 336 1251.69 336C1246.34 336 1240.98 336 1235.62 336C1229.22 336 1223.22 324.387 1216.65 324.387C1213.37 324.387 1203.87 316.252 1201.62 328.258" stroke="black" stroke-width="2" stroke-linecap="round"/>
<path d="M1235 137C1235 144.135 1231.37 157.387 1241.44 157C1245.29 156.852 1253 154.991 1253 151C1253 148.489 1254.65 135.814 1250.11 137.111C1245.2 138.514 1240.76 139 1235 139" stroke="black" stroke-width="2" stroke-linecap="round"/>
<path d="M1235 177C1235 187.059 1231.32 195 1242.56 195C1251.62 195 1251 191.569 1251 183.444C1251 181.828 1250.92 166.326 1247.44 171.889C1245.16 175.547 1237.72 177 1233 177" stroke="black" stroke-width="2" stroke-linecap="round"/>
<path d="M1235 55.9998C1235 63.1354 1231.37 76.3873 1241.44 75.9998C1245.29 75.8519 1253 73.991 1253 69.9998C1253 67.4895 1254.65 54.8139 1250.11 56.1109C1245.2 57.5139 1240.76 57.9998 1235 57.9998" stroke="black" stroke-width="2" stroke-linecap="round"/>
<path d="M1235 95.9996C1235 106.059 1231.32 114 1242.56 114C1251.62 114 1251 110.569 1251 102.444C1251 100.827 1250.92 85.326 1247.44 90.8885C1245.16 94.5466 1237.72 95.9996 1233 95.9996" stroke="black" stroke-width="2" stroke-linecap="round"/>
<path d="M1235 221C1235 234.565 1234.17 235 1246.56 235C1252.84 235 1253.77 231.41 1250 226.889C1246.27 222.415 1252.45 217 1244 217C1239.25 217 1233 214.973 1233 221" stroke="black" stroke-width="2" stroke-linecap="round"/>
<path d="M1236.56 281C1229.89 281.256 1233 273.809 1233 267C1244.91 267 1247.75 266.244 1247 279C1246.79 282.597 1239.02 280.905 1236.56 281Z" stroke="black" stroke-width="2" stroke-linecap="round"/>
<path d="M737.154 304L726.288 309.948V323.631H754.703V309.948L737.154 304Z" fill="white"/>
<path d="M726.446 310.99C728.224 310.223 729.538 308.727 731.35 307.978C731.995 307.711 732.538 307.024 733.224 306.687C733.755 306.426 734.529 306.088 734.819 305.563C735.112 305.031 736.332 304.875 736.863 304.488C737.736 303.851 737.616 303.884 738.506 304.32C739.283 304.702 739.846 304.751 740.708 304.751C741.611 304.751 742.049 305.053 742.874 305.229C744.309 305.533 745.465 306.21 746.817 306.579C747.307 306.713 747.895 307.029 748.363 307.105C748.961 307.203 749.348 307.547 749.932 307.547C750.591 307.547 752.006 308.111 752.5 308.515C753.119 309.022 753.907 309.308 754.703 309.699" stroke="black" stroke-width="2" stroke-linecap="round"/>
<path d="M726 310.99C726 312.322 726.446 313.398 726.446 314.675C726.446 315.998 726.446 317.321 726.446 318.644C726.446 319.764 726.259 320.849 726.223 321.952C726.211 322.312 726.223 324.467 726.223 323.275" stroke="black" stroke-width="2" stroke-linecap="round"/>
<path d="M754.852 309.8C754.852 314.43 755 318.965 755 323.631" stroke="black" stroke-width="2" stroke-linecap="round"/>
<path d="M1380.47 335.857H1408.59C1406.85 332.337 1408.53 327.815 1404.83 324.857C1401.01 321.801 1396.43 317 1390.69 317H1379.77C1376.6 317 1377.52 321.021 1374.8 321.627C1367.33 323.287 1358.64 324.857 1350.7 324.857C1343.27 324.857 1337.5 321.714 1329.4 321.714H1307.31H1286.1H1271.26C1266.01 321.714 1264.1 320.068 1259.47 318.746C1251.09 316.35 1251.02 325.161 1246.55 328.698C1239.51 334.273 1255.54 331.143 1259.82 331.143H1309.41C1315.85 331.143 1321.39 332.714 1328.27 332.714C1335.93 332.714 1344.37 331.253 1350.96 335.158C1357.46 339.008 1373.07 335.857 1380.47 335.857Z" fill="white"/>
<path d="M1410.33 335.857C1400.38 335.857 1390.43 335.857 1380.47 335.857C1373.07 335.857 1357.46 339.008 1350.96 335.158C1344.37 331.253 1335.93 332.714 1328.27 332.714C1321.39 332.714 1315.85 331.143 1309.41 331.143C1292.88 331.143 1276.35 331.143 1259.82 331.143C1255.54 331.143 1239.51 334.273 1246.55 328.698C1251.02 325.161 1251.09 316.35 1259.47 318.746C1264.1 320.068 1266.01 321.714 1271.26 321.714C1276.21 321.714 1281.15 321.714 1286.1 321.714C1293.17 321.714 1300.24 321.714 1307.31 321.714C1314.68 321.714 1322.04 321.714 1329.4 321.714C1337.5 321.714 1343.27 324.857 1350.7 324.857C1358.64 324.857 1367.33 323.287 1374.8 321.627C1377.52 321.021 1376.6 317 1379.77 317C1383.41 317 1387.05 317 1390.69 317C1396.43 317 1401.01 321.801 1404.83 324.857C1409.78 328.821 1405.09 335.594 1411.9 339" stroke="black" stroke-width="1.57143" stroke-linecap="round"/>
<path d="M1136.18 324.929C1145.67 324.666 1155.4 323.581 1165.12 323.312C1166.6 323.271 1169.94 324.639 1171.21 323.869C1171.31 323.807 1169.93 320.152 1169.9 319.097C1169.81 316.064 1166.26 314.504 1164.18 312.542C1162.71 311.151 1160.13 311.203 1158.25 311.255C1155.99 311.318 1155.48 312.848 1154.04 313.004C1152.23 313.2 1150.58 312.736 1149.36 314.359C1148.61 315.35 1147.11 314.012 1146.08 314.041C1141.77 314.16 1138.83 315.036 1135.14 317.156C1132.09 318.909 1131.76 325.051 1136.18 324.929Z" fill="white" stroke="black" stroke-width="2" stroke-linecap="round"/>
<path d="M1142.32 325.575C1142.23 322.278 1145.24 322.791 1148.12 322.915C1148.55 322.894 1148.97 322.89 1149.35 322.932C1150.51 323.06 1151.32 323.629 1151.3 325.508C1151.27 328.289 1148.44 329.488 1146.06 329.554C1143.12 329.636 1142.39 328.248 1142.32 325.575Z" fill="white"/>
<path d="M1149.35 322.932C1146.17 323.019 1142.21 321.802 1142.32 325.575C1142.39 328.248 1143.12 329.636 1146.06 329.554C1148.44 329.488 1151.27 328.289 1151.3 325.508C1151.33 322.219 1148.83 322.946 1146.33 323.015" stroke="black" stroke-width="2" stroke-linecap="round"/>
<path d="M1162.62 328.098C1159.16 331.384 1151.82 325.734 1160.05 321.875C1161.08 321.96 1162.09 322.236 1162.57 323.019C1162.96 323.665 1163.13 327.609 1162.62 328.098Z" fill="white"/>
<path d="M1160.18 321.816C1151.75 325.676 1159.15 331.401 1162.62 328.098C1163.13 327.609 1162.96 323.665 1162.57 323.019C1161.7 321.592 1159.06 321.846 1157.73 321.883" stroke="black" stroke-width="2" stroke-linecap="round"/>
</svg>
