<svg width="90" height="50" viewBox="0 0 90 50" fill="none" xmlns="http://www.w3.org/2000/svg">
<path d="M78.7844 7.4442C85.9137 9.18307 87.2002 15.1021 87.3301 21.2584C98.0427 49.1998 27.2288 61.0337 27.2288 29.9998C27.2288 21.3426 25.5241 14.9785 31.6733 9.4442C37.3375 4.34637 42.1667 0.999754 50.1177 0.999754C61.1125 0.999755 68.4517 4.92402 78.7844 7.4442Z" fill="white"/>
<path d="M87.2288 28.9998C87.2288 20.9488 88.9717 9.9289 78.7844 7.4442C68.4517 4.92402 61.1125 0.999755 50.1177 0.999754C42.1667 0.999754 37.3375 4.34637 31.6733 9.4442C25.5241 14.9785 27.2288 21.3426 27.2288 29.9998C27.2288 61.1292 98.4795 49.1265 87.2288 20.9998" stroke="black" stroke-width="2" stroke-linecap="round"/>
<path d="M10.2285 21.9998C16.6126 21.9998 22.9352 21.708 29.2285 22.6551L29.2285 24.9998C29.2285 27.712 28.213 26.0753 26.673 27.4442C24.269 29.581 21.4693 27.9862 19.0063 29.7775C17.8864 30.592 1.44566 31.0098 1.28407 30.4442C0.944051 29.2541 0.711443 22.3618 1.78407 22.0553C4.19024 21.3678 7.69864 21.9998 10.2285 21.9998Z" fill="white"/>
<path d="M31.2285 22.9998C24.2748 21.6429 17.2892 21.9998 10.2285 21.9998C7.69864 21.9998 4.19024 21.3678 1.78407 22.0553C0.711443 22.3618 0.944051 29.2541 1.28407 30.4442C1.44566 31.0098 17.8864 30.592 19.0063 29.7775C21.4693 27.9862 24.269 29.581 26.673 27.4442C28.213 26.0753 29.2285 27.712 29.2285 24.9998C29.2285 23.6664 29.2285 22.3331 29.2285 20.9998" stroke="black" stroke-width="2" stroke-linecap="round"/>
</svg>
