<svg width="182" height="88" viewBox="0 0 182 88" fill="none" xmlns="http://www.w3.org/2000/svg">
<path d="M142 19C131.761 10.6805 123.853 1 108.889 1C102.919 1 96.8591 1.29598 91.1112 3.11111C85.5846 4.85634 85.0293 10.3392 80.889 13.4444C73.5302 18.9635 86.2112 21 88.889 21C104.234 21 82.2448 7.29961 79.5556 5.88889C51.2647 -8.95227 17.2055 14.6947 2.88897 38.5556C-1.47809 45.834 2.95374 58.2513 8.11119 63.6667C20.7266 76.9129 35.8279 84.8001 54.2223 85C61.5914 85.0801 91.3718 89.6914 95.7779 79.7778C97.0428 76.9317 96.0001 54.771 96.0001 67C96.0001 78.84 99.3124 81.3187 112.445 82.7778C123.934 84.0544 147.384 87.22 155.333 77C162.27 68.0819 158.955 57.7781 168.778 54C173.528 52.173 179.782 46.8944 180 41.4444C180.473 29.6293 173.728 23.622 163.111 17.5556C156.294 13.6599 140 13 140 13" stroke="black" stroke-width="2" stroke-linecap="round"/>
</svg>
