<svg width="96" height="43" viewBox="0 0 96 43" fill="none" xmlns="http://www.w3.org/2000/svg">
<path d="M6.89462 14.6186C2.70163 20.3839 -1.95848 28.2079 3.43233 34.5614C6.25604 37.8893 12.1303 38.3007 16.1736 38.3007C20.0767 38.3007 29.8382 30.8267 26.2142 32.2763C22.5497 33.7421 27.6798 39.4851 29.3303 40.2396C33.1149 41.9697 39.7381 40.9773 43.1102 38.7854C46.786 36.3962 51.766 28.8832 51.766 28.8832C51.766 28.8832 52.5138 31.9563 53.7741 32.5533C56.0716 33.6416 58.7985 34.2754 61.1834 35.2539C73.7132 40.3943 84.4735 28.6622 91.6516 20.8507C102.501 9.04386 80.9491 4.45294 73.0937 2.91601C58.7659 0.112757 37.9411 -0.156998 24.4831 5.82434C14.5353 10.2456 9.38748 8.27402 9.38748 20.8507" stroke="black" stroke-width="2" stroke-linecap="round"/>
</svg>
