<svg width="145" height="85" viewBox="0 0 145 85" fill="none" xmlns="http://www.w3.org/2000/svg">
<path d="M2.00013 69.3334C1.66456 61.9507 3.69066 57.4087 8.03843 54.1086C8.01238 53.6874 8.00013 53.3084 8.00013 53C8.00013 45.3363 6.82237 36.9769 16.7779 36.1112C21.6079 35.6912 26.183 38.1285 26.0001 33.5556C25.8433 29.6358 24.5219 21.9904 28.0001 19.5556C39.1694 11.7371 49.9288 2.71135 64.3335 2.11115C83.8767 1.29685 103.449 4.04125 121.778 11.1112C141.138 18.5786 146.167 24.8341 142 45.6667C140.191 54.7103 128.904 59.7719 121.222 62.7778C116.235 64.7293 104.226 59.8994 104 65.5556C103.769 71.3362 104.168 76.1107 98.0001 79.1112C89.9259 83.0392 57.4286 86.9715 48.1834 77.5568C43.316 82.3522 32.3627 80.094 26.4446 80C18.2467 79.8699 2.49663 80.2564 2.00013 69.3334Z" fill="white"/>
<path d="M16.0001 50C6.21213 53.6705 1.50177 58.3694 2.00013 69.3334C2.49663 80.2564 18.2467 79.8699 26.4446 80C32.7764 80.1005 44.8721 82.6785 49.1112 76.4445C51.6659 72.6876 47.8667 62.4671 46.2224 68.2223C40.3231 88.8695 87.9776 83.987 98.0001 79.1112C104.168 76.1107 103.769 71.3362 104 65.5556C104.226 59.8994 116.235 64.7293 121.222 62.7778C128.904 59.7719 140.191 54.7103 142 45.6667C146.167 24.8341 141.138 18.5786 121.778 11.1112C103.449 4.04125 83.8767 1.29685 64.3335 2.11115C49.9288 2.71135 39.1694 11.7371 28.0001 19.5556C24.5219 21.9904 25.8433 29.6358 26.0001 33.5556C26.183 38.1285 21.6079 35.6912 16.7779 36.1112C6.82237 36.9769 8.00013 45.3363 8.00013 53C8.00013 55.7412 8.96797 64.0644 12.0001 58" stroke="black" stroke-width="2" stroke-linecap="round"/>
</svg>
