<svg width="513" height="154" viewBox="0 0 513 154" fill="none" xmlns="http://www.w3.org/2000/svg">
<path d="M420.111 28.1111C432.865 27.601 446.107 28.3083 458.84 31.0272C459.451 30.9844 460.226 31.1018 460.989 31.5065C462.465 32.2894 463.896 34.1474 464 38C464.321 49.8912 461.038 63.2445 453.111 72.6667C448.7 77.91 433.144 86.7047 425.016 83.43C425.489 86.5775 425.625 89.5955 425.111 91.5556C416.889 122.901 372.93 123.91 346.731 113.739C339.574 120.576 328.666 123.303 319.556 126.222C311.98 128.649 303.374 128.375 296.233 124.483C292.758 129.723 287.043 133.355 279.778 137.333C249.567 153.877 217.894 152.25 184.444 152C172.814 151.913 159.851 150.808 157.885 140.638C153.396 144.49 147.082 146 140.889 146C117.748 146 91.5629 149.785 68.9999 144C44.5559 137.732 -12.7859 132.074 4.33327 93.5556C15.832 67.6834 44.2817 51.4985 68.3333 39.2222C99.0791 23.5291 132.459 20.3626 166.555 22.1111C167.798 22.1748 168.994 22.2788 170.141 22.4241C190.452 7.51759 222.581 3.03955 244.444 2.22224C284.099 0.739843 325.89 2.86976 364.111 14.1111C377.826 18.145 389.522 24.3141 402.444 30C402.864 30.1845 403.305 30.3651 403.764 30.5435C408.52 28.1157 416.563 28.253 420.111 28.1111Z" fill="white"/>
<path d="M512 66C502.461 55.865 496.109 45.6058 482.778 39.1111C463.552 29.7449 441.166 27.269 420.111 28.1111C415.113 28.311 401.195 27.9568 400.111 35C399.399 39.6278 401.339 39.5038 405.111 40.2222C406.439 40.4752 426.802 47.8439 423 41C419.431 34.5752 408.583 32.7012 402.444 30C389.522 24.3141 377.826 18.145 364.111 14.1111C325.89 2.86976 284.099 0.739843 244.444 2.22224C218.211 3.20291 177.197 9.454 159.555 32.6667C153.406 40.7582 155.877 50.9194 165.889 54C177.437 57.5533 184.229 58.2964 187 43.8889C189.773 29.4715 181.507 22.8779 166.555 22.1111C132.459 20.3626 99.0791 23.5291 68.3333 39.2222C44.2817 51.4985 15.832 67.6834 4.33327 93.5556C-12.7859 132.074 44.5559 137.732 68.9999 144C91.5629 149.785 117.748 146 140.889 146C151.088 146 161.613 141.904 163.778 130C166.535 114.836 161.13 121.527 158.444 132C153.767 150.241 170.116 151.893 184.444 152C217.894 152.25 249.567 153.877 279.778 137.333C292.128 130.57 300 124.81 300 110.444C300 105.692 293.096 92.1203 291.556 102.222C290.517 109.029 287.592 119.015 294.667 123.556C302.089 128.319 311.417 128.83 319.556 126.222C330.565 122.695 344.2 119.447 350.667 108.889C357.6 97.5691 363.117 79.9039 364 66.6667C364.908 53.0498 362.4 42.8055 348.444 38.4445C331.248 33.0707 322.74 49.027 317.333 62.4445C310.5 79.4023 325.33 102.795 340 110.667C364.55 123.84 416.134 125.782 425.111 91.5556C427.082 84.0425 419.503 60.9872 420 74.6667C420.681 93.4031 447.133 79.7731 453.111 72.6667C461.038 63.2445 464.321 49.8912 464 38C463.751 28.8039 455.945 30.9725 458 32" stroke="black" stroke-width="2" stroke-linecap="round"/>
</svg>
