<svg width="432" height="226" viewBox="0 0 432 226" fill="none" xmlns="http://www.w3.org/2000/svg">
<path d="M63.9908 197.779C55.1792 199.768 46.3603 200.361 37.9999 194.556C25.1279 185.617 12.6201 167.924 6.88877 153.444C1.15542 138.96 -0.154165 122.576 5.11099 107.889C9.73127 95.0008 35.3432 78.4906 48.8888 76.5556C64.8953 74.2689 83.7106 72.3963 98.8888 78.5556C110.357 83.2095 114.948 91.0142 122 100.556C124.502 103.94 127.535 115.85 128 111.667C128.924 103.349 125.066 90.6453 128.889 83C130.986 78.8055 137.299 74.6122 140.889 71.6667C145.591 67.8087 149.441 62.9789 154.222 59.2222C158.93 55.5235 165.102 55.7099 169.889 51.7778C184.021 40.1692 216.361 32.2816 234.889 37.2222C239.723 38.5113 246.642 45.1721 247.778 50C247.868 50.3842 247.926 51.0809 247.954 51.9984C250.273 45.4096 252.723 39.6459 253.222 39C263.494 25.7068 278.505 16.0335 292.222 6.88889C297.287 3.51249 319.093 -1.18638 324.111 4.33333C331.751 12.737 336 27.7183 336 38.7778C336 54.4542 330.057 67.9588 320.176 79.1141C335.137 69.2908 352.371 61 370 61C387.114 61 398.759 71.8935 408.889 84.5556C418.562 96.6465 429.338 104.133 430 121C430.797 141.335 420.087 165.451 405.111 178.556C387.675 193.812 360.273 201.092 338 206.111C313.514 211.629 283.15 202.3 262.444 189.222C258.595 186.791 256.597 183.341 254.172 180.078C235.439 204.407 191.075 220.601 168.222 222.778C155.866 223.955 135.937 215.81 126.014 203.751C126.006 204.501 126 205.251 126 206C126 223.247 109.261 225 96.2221 225C83.5059 225 75.9447 220.748 67.111 211.111C62.6311 206.224 62.2984 201.536 63.9908 197.779Z" fill="white"/>
<path d="M83.9999 193C68.9456 195.113 52.7585 204.805 37.9999 194.556C25.1279 185.617 12.6201 167.924 6.88877 153.444C1.15542 138.96 -0.154165 122.576 5.11099 107.889C9.73127 95.0008 35.3432 78.4906 48.8888 76.5556C64.8953 74.2689 83.7107 72.3963 98.8888 78.5556C110.357 83.2095 114.948 91.0142 122 100.556C124.502 103.941 127.535 115.85 128 111.667C128.924 103.349 125.066 90.6453 128.889 83C130.986 78.8055 137.299 74.6122 140.889 71.6667C145.591 67.8087 149.441 62.9789 154.222 59.2222C158.93 55.5235 165.102 55.7099 169.889 51.7778C184.021 40.1692 216.361 32.2816 234.889 37.2222C239.723 38.5113 246.642 45.1721 247.778 50C248.446 52.8421 247.359 72.7778 245 72.7778C239.111 72.7778 252.001 40.5797 253.222 39C263.494 25.7068 278.505 16.0335 292.222 6.88889C297.287 3.51249 319.093 -1.18638 324.111 4.33333C331.751 12.737 336 27.7183 336 38.7778C336 61.0877 323.964 78.999 305.667 92C300.565 95.6248 294.775 97.7032 289.555 101C288.203 101.854 285.827 106.073 286.333 104.556C289.45 95.2067 302.535 91.7556 309.555 86.5556C326.666 73.8813 348.026 61 370 61C387.114 61 398.759 71.8935 408.889 84.5556C418.562 96.6465 429.338 104.133 430 121C430.797 141.335 420.087 165.451 405.111 178.556C387.675 193.812 360.273 201.092 338 206.111C313.514 211.629 283.15 202.3 262.444 189.222C256.005 185.155 254.746 178.234 248 174.111C241.638 170.223 238.237 159.665 238 152.556C237.88 148.947 236.555 141.334 239.333 138.556C241.88 136.009 253.12 132.07 255.889 136.222C287.547 183.71 202.99 219.467 168.222 222.778C151.253 224.394 120 208.429 120 188.889C120 181.595 123.32 181.054 125 188.111C126.399 193.985 126 200.003 126 206C126 223.247 109.261 225 96.2221 225C83.5059 225 75.9447 220.748 67.111 211.111C52.5008 195.173 81.9999 181.358 81.9999 195" stroke="black" stroke-width="2" stroke-linecap="round"/>
</svg>
