<svg width="195" height="91" viewBox="0 0 195 91" fill="none" xmlns="http://www.w3.org/2000/svg">
<path d="M87 19C73.6461 15.9954 62.0664 7.32272 48.1111 4.00002C32.3363 0.244109 22.1828 4.11958 10.2222 14C1.66311 21.0706 -0.755751 30.8979 11.4444 35.8889C17.0853 38.1965 20.9962 39 27 39C33.0986 39 34.379 35.3226 27.4444 35C15.5293 34.4458 1 37.9201 1 53C1 59.8006 1.56664 65.4118 6.22222 70.8889C10.5251 75.9511 21.5114 85.7836 28.2222 86.7778C38.6446 88.3219 75.5119 85.8815 77 71C77.7287 63.7127 69.3086 53.8899 69 65C68.328 89.1908 86.6375 89.7382 107.444 88.8889C122.282 88.2833 149.306 74.1236 152.889 58C153.557 54.9916 149.322 54.1051 149 57C148.366 62.7028 152.78 64.8656 157.889 65C170.082 65.3209 185.777 57.3916 190.556 45.4445C195.777 32.391 196.068 26.335 182.222 19.1111C171.078 13.2969 155.064 4.67713 142.333 3.22224C129.978 1.81024 109.426 -0.242116 97.4444 3.44446C89.2546 5.96441 90.0853 10.8294 87 17" stroke="black" stroke-width="2" stroke-linecap="round"/>
</svg>
