<svg width="148" height="79" viewBox="0 0 148 79" fill="none" xmlns="http://www.w3.org/2000/svg">
<path d="M112 42C109.477 30.7623 100.266 22.1966 89.5555 17.5555C79.3289 13.124 73.2413 3.96206 61.5555 2.44442C40.666 -0.268503 12.5001 1.48581 2.88888 23.1111C0.336215 28.8546 2.54758 36.4307 8.44444 39.1111C10.0373 39.8351 31.2753 45.298 27.1111 40.8889C8.74783 21.4454 -2.82349 55.2615 4.44444 68.8889C11.9338 82.9314 59.3369 78.4555 67.7778 67C75.23 56.8863 65.7551 62.9863 75.4444 66.7778C83.8758 70.077 99.4509 68.8107 108.222 67.6666C121.211 65.9724 150.576 45.5144 145.889 29.1111C143.003 19.0105 112.078 25.5689 106 28" stroke="black" stroke-width="2" stroke-linecap="round"/>
</svg>
