<svg width="130" height="60" viewBox="0 0 130 60" fill="none" xmlns="http://www.w3.org/2000/svg">
<path d="M62.0001 48C48.6099 48 27.709 51.8025 15.2223 47C4.50094 42.8764 -6.70174 20 12.0001 20C17.1504 20 27.4736 17.5074 30.1112 23.2222C34.9095 33.6186 32.8246 20.1776 40.0001 16.8889C49.3184 12.6179 55.1532 9.99997 66.0001 9.99997C69.7966 9.99997 86.4173 10.5475 81.7778 18.6666C81.7413 18.7306 76.2791 10.2299 82.0001 5.11108C89.1401 -1.27737 103.865 1.79434 111.556 6.44441C118.108 10.4063 118.324 18.7608 118 25.5555C117.582 34.3403 105.087 31.1986 119.111 32C125.862 32.3857 128.201 40.1327 128 45.5555C127.723 53.0411 115.546 57.6522 109.111 58C95.7029 58.7247 71.944 59.9439 62.0001 50" stroke="black" stroke-width="2" stroke-linecap="round"/>
</svg>
