<svg width="423" height="237" viewBox="0 0 423 237" fill="none" xmlns="http://www.w3.org/2000/svg">
<path d="M177.864 160.101C178.108 158.059 178.384 156.027 178.688 154.007C124.484 154.359 42.3846 167.791 8.33335 114.444C-22.3163 66.4266 52.4147 25.7352 89.7778 14.1111C130.292 1.50663 173.059 -0.947288 215.111 4.00001C216.323 4.14262 217.584 4.29207 218.882 4.45341C238.45 5.40908 257.936 7.79633 277.222 11.2222C336.172 21.6936 458.667 28.2638 466.556 109.778C467.826 122.904 467.362 136.734 459 147.556C454.189 153.782 445.824 159.259 441.889 165.556C441.703 165.852 449.415 180.167 448.111 185.556C445.254 197.365 440.623 201.548 430.778 208.111C413.54 219.603 392.631 228 371.778 228C363.259 228 345.661 227.343 340.276 217.891C333.667 230.65 317.965 233.975 304.333 235.111C276.896 237.398 245.119 232.072 218.667 225.111C203.125 221.021 179 209.001 177.222 190.778C176.408 182.434 176.546 173.917 177.298 165.497C177.147 163.892 177.319 162.096 177.864 160.101Z" fill="white"/>
<path d="M179 152C176.971 164.683 175.969 177.935 177.222 190.778C179 209.001 203.125 221.021 218.667 225.111C245.119 232.072 276.896 237.398 304.333 235.111C319.463 233.85 337.143 229.893 342.111 213.333C342.801 211.032 345.02 195.541 342 194.333C340.076 193.564 338.518 213.33 339.333 215.778C343.157 227.248 362.664 228 371.778 228C392.631 228 413.54 219.603 430.778 208.111C440.623 201.548 445.254 197.365 448.111 185.556C449.415 180.167 441.703 165.852 441.889 165.556C445.824 159.259 454.189 153.782 459 147.556C467.362 136.734 467.826 122.904 466.556 109.778C458.667 28.2638 336.172 21.6936 277.222 11.2222C252.723 6.87041 227.902 4.19456 203 4.00001C198.068 3.96148 192.398 3.79618 189.222 8.33334C181.446 19.4416 192.389 29.2058 201.444 34C209.187 38.0992 270.838 48.9007 266.556 31.1111C261.402 9.70231 233.013 6.10608 215.111 4.00001C173.059 -0.947288 130.292 1.50663 89.7778 14.1111C52.4147 25.7352 -22.3163 66.4266 8.33335 114.444C42.8251 168.482 126.616 154 180.778 154C193.945 154 206.241 155.429 215.778 144.889C220.217 139.983 220.319 136 213.889 136C201.977 136 187.004 142.409 180.889 153.111C169.592 172.881 186.496 178.904 205.222 175.111C226.796 170.742 243 160.536 243 138" stroke="black" stroke-width="2" stroke-linecap="round"/>
</svg>
