<svg width="296" height="145" viewBox="0 0 296 145" fill="none" xmlns="http://www.w3.org/2000/svg">
<path d="M50.7475 114.188C32.2372 115.652 14.0128 113.887 7.11104 98.1111C5.03359 93.3626 -2.92824 71.8446 5.22215 68.2222C11.1045 65.6078 22.5721 68 28.8888 68C39.6011 68 57.0206 64.496 67.111 68.4444C70.5305 69.7825 75.9999 78.0315 75.9999 71.7778C75.9999 61.3362 78.8564 59.289 87.5555 53.5555C95.5164 48.3086 97.3619 45.144 108 46.1111C111.336 46.4144 115.317 47.1702 118.444 48.4444C120.915 49.4512 121.129 52.9182 123 53.6666C123.985 54.0606 125.314 48.9174 125.444 48.6666C128.051 43.6537 132.37 38.945 136.889 35.5555C145.704 28.9445 158.528 25.361 169.222 23.2222C178.918 21.283 189.66 21.6335 199.555 22C201.079 22.0564 201.776 23.5032 202.062 24.9596C204.134 1.97492 251.195 0.427149 267.333 2.44442C275.621 3.48034 291.533 5.8999 293.778 16C296.494 28.2251 287.28 37.8263 278.333 44.3333C265.09 53.965 249.781 62.6336 234.667 69.1111C232.026 70.2426 215.129 72 224.667 72C239.724 72 257.506 64.6525 272.222 68.8889C284.782 72.5045 274.462 94.1162 269.111 99.7778C256.264 113.37 245.697 127.757 228.667 136.111C212.584 144.001 199.197 144 181.708 144H181.333C174.874 144 124.26 135.037 150.333 122C151.078 121.628 152.015 121.117 153.091 120.527C143.039 123.183 132.946 125.306 122.444 125.778C98.7993 126.84 74.8197 128.404 53.7777 116.222C52.9884 115.765 51.9181 115.047 50.7475 114.188Z" fill="white"/>
<path d="M87.9999 110C65.6338 110.52 19.1492 125.627 7.11104 98.1111C5.03359 93.3626 -2.92824 71.8446 5.22215 68.2222C11.1045 65.6078 22.5721 68 28.8888 68C39.6011 68 57.0206 64.496 67.111 68.4444C70.5305 69.7825 75.9999 78.0315 75.9999 71.7778C75.9999 61.3362 78.8564 59.289 87.5555 53.5555C95.5164 48.3086 97.3619 45.144 108 46.1111C111.336 46.4144 115.317 47.1702 118.444 48.4444C120.915 49.4512 121.129 52.9182 123 53.6666C123.985 54.0606 125.314 48.9174 125.444 48.6666C128.051 43.6537 132.37 38.9449 136.889 35.5555C145.704 28.9445 158.528 25.361 169.222 23.2222C178.918 21.283 189.66 21.6335 199.555 22C203.603 22.1499 201.815 32.1111 202 26C202.727 2.02178 250.955 0.397131 267.333 2.44442C275.621 3.48034 291.533 5.8999 293.778 16C296.494 28.2251 287.28 37.8263 278.333 44.3333C265.09 53.965 249.781 62.6336 234.667 69.1111C232.026 70.2426 215.129 72 224.667 72C239.724 72 257.506 64.6525 272.222 68.8889C284.782 72.5045 274.462 94.1162 269.111 99.7778C256.264 113.37 245.697 127.757 228.667 136.111C212.469 144.057 199.006 144 181.333 144C174.874 144 124.26 135.037 150.333 122C155.259 119.537 168.639 110.986 174.667 114C178.564 115.949 166.412 116.803 162.222 118C149.114 121.745 136.126 125.163 122.444 125.778C98.7993 126.84 74.8197 128.404 53.7777 116.222C49.0666 113.495 34.347 101.449 47.9999 106" stroke="black" stroke-width="2" stroke-linecap="round"/>
</svg>
