<svg width="330" height="218" viewBox="0 0 330 218" fill="none" xmlns="http://www.w3.org/2000/svg">
<path d="M14.6271 162.7C-9.39436 169.417 -38.7785 172.27 -57.7357 158.621C-62.4626 155.217 -67.4145 140.395 -69.1801 134.509C-74.0976 118.118 -69.3936 105.807 -50.8468 102.954C-49.7585 102.786 -48.2388 102.835 -46.5498 103.019C-49.7983 99.3547 -49.5463 92.94 -49.1945 83.9871L-49.1801 83.6206C-47.8165 48.8474 -12.8466 -1.46482 27.8199 14.1761C35.6175 17.1752 40.4191 22.2633 43.2289 28.4366C43.4011 27.5768 43.5981 26.7458 43.8199 25.9539C47.6876 12.1406 67.2775 8.47999 78.7087 4.84278C94.8386 -0.28946 129.517 -1.50631 143.598 8.95389C155.607 17.8754 160.443 31.213 159.281 45.0792C169.711 31.3227 184.247 23.7841 202.042 20.6206C211.472 18.9442 222.285 15.3897 231.931 16.9539C241.366 18.4839 250.301 25.5321 258.264 30.5094C267.756 36.4416 276.511 51.3669 276.709 62.6206C276.996 78.9747 268.935 86.4017 261.82 99.5094C261.606 99.9041 261.357 100.275 261.083 100.623C267.499 97.7438 272.377 94.7749 280.709 94.6206C296.27 94.3324 301.656 94.9299 312.709 106.621C324.501 119.093 329.906 137.87 328.264 154.621C326.565 171.956 317.11 190.146 303.598 201.287C285.417 216.279 264.475 216.799 242.042 216.621C214.718 216.404 180.818 214.007 155.82 201.732C142.035 194.962 116.232 185.399 107.697 169.539C104.514 174.545 101.525 178.584 100.264 180.176C91.223 191.597 85.3376 204.891 69.3754 204.621C54.644 204.371 41.5334 196.323 32.2643 185.509C29.4241 182.196 23.4035 182.848 21.1532 179.732C19.3394 177.22 17.776 174.23 16.2643 171.509C14.7148 168.72 14.5732 165.803 14.6271 162.7Z" fill="white"/>
<path d="M32.7087 156.621C7.34916 166.646 -33.6259 175.98 -57.7357 158.621C-62.4626 155.217 -67.4145 140.395 -69.1801 134.509C-74.0976 118.118 -69.3936 105.807 -50.8468 102.954C-45.4388 102.122 -29.3752 106.621 -34.8468 106.621C-50.2092 106.621 -49.7687 98.6286 -49.1801 83.6206C-47.8165 48.8474 -12.8466 -1.46482 27.8199 14.1761C42.7736 19.9276 46.7087 33.3616 46.7087 47.3983C46.7087 52.1202 43.3534 47.8271 42.931 45.3983C41.9047 39.4972 42.2116 31.6975 43.8199 25.9539C47.6876 12.1406 67.2775 8.47999 78.7087 4.84278C94.8386 -0.28946 129.517 -1.50631 143.598 8.95389C156.883 18.8227 161.389 34.0952 158.709 49.5094C157.999 53.5898 156.508 60.3825 152.931 63.065C149.769 65.4362 153.027 54.7982 155.042 51.3983C165.602 33.5789 181.691 24.2385 202.042 20.6206C211.472 18.9442 222.285 15.3897 231.931 16.9539C241.366 18.4839 250.3 25.5321 258.264 30.5094C267.756 36.4416 276.511 51.3669 276.709 62.6206C276.996 78.9747 268.935 86.4017 261.82 99.5094C258.556 105.523 247.351 106.032 257.375 102.176C265.829 98.9247 270.852 94.8031 280.709 94.6206C296.27 94.3324 301.656 94.9299 312.709 106.621C324.501 119.093 329.907 137.87 328.264 154.621C326.565 171.956 317.11 190.146 303.598 201.287C285.417 216.279 264.475 216.799 242.042 216.621C214.718 216.404 180.818 214.007 155.82 201.732C140.022 193.974 108.439 182.546 105.153 162.176C104.69 159.305 108.74 131.541 116.264 139.065C124.4 147.201 104.144 175.275 100.264 180.176C91.223 191.597 85.3376 204.891 69.3754 204.621C54.644 204.371 41.5334 196.323 32.2643 185.509C29.4241 182.196 23.4035 182.848 21.1532 179.732C19.3394 177.22 17.776 174.23 16.2643 171.509C14.0536 167.53 14.7087 163.29 14.7087 158.621" stroke="black" stroke-width="2" stroke-linecap="round"/>
</svg>
