<svg width="268" height="99" viewBox="0 0 268 99" fill="none" xmlns="http://www.w3.org/2000/svg">
<path d="M85.2222 97C65.7791 97 60.2911 88.9097 62.3367 73.1043C55.159 73.2237 47.8935 73.212 40.9999 71.4445C35.0581 69.9209 29.3045 64.2235 24.111 61C14.1756 54.8332 -5.6809 41.821 4.33326 27C10.4869 17.8926 23.7702 10.6691 33.2222 6.33334C51.537 -2.06797 67.9459 -10.2019 88.5555 -10.8889C108.594 -11.5568 125.028 -8.59491 144.111 -2.33332C152.451 0.403303 167.231 1.45784 172.555 9.44445C172.786 9.79032 173.003 10.135 173.207 10.4782C179.16 10.1328 185.525 11 190.778 11C205.084 11 216.353 13.1723 229.667 18.7778C244.243 24.9153 276.698 38.9722 263 60.8889C257.385 69.8733 258.299 86.5635 244.111 87C229.203 87.4587 209 92.3119 209 73.2222C209 67.4059 207.744 80.6948 206.778 83.1111C203.974 90.1213 197.37 92.0813 190.778 93.8889C178.112 97.3618 146.631 102.948 139.444 86.7778C138.925 85.6082 138.598 84.5077 138.426 83.4813C123.24 97.1724 105.49 97 85.2222 97Z" fill="white"/>
<path d="M62.9999 69C59.4747 87.5077 64.1617 97 85.2222 97C106.647 97 125.257 97.1927 141 81C152.548 69.1217 133.536 73.4832 139.444 86.7778C146.631 102.948 178.112 97.3618 190.778 93.8889C197.37 92.0813 203.974 90.1213 206.778 83.1111C207.744 80.6948 209 67.4059 209 73.2222C209 92.3119 229.203 87.4587 244.111 87C258.299 86.5635 257.385 69.8733 263 60.8889C276.698 38.9722 244.243 24.9153 229.667 18.7778C216.353 13.1723 205.084 11 190.778 11C182.277 11 170.867 8.72939 163 13C153.733 18.0308 150.778 29 162.889 29C174.376 29 179.418 19.7384 172.555 9.44445C167.231 1.45784 152.451 0.403303 144.111 -2.33332C125.028 -8.59491 108.594 -11.5568 88.5555 -10.8889C67.9459 -10.2019 51.537 -2.06797 33.2222 6.33334C23.7702 10.6691 10.4869 17.8926 4.33326 27C-5.6809 41.821 14.1756 54.8332 24.111 61C29.3045 64.2235 35.0581 69.9209 40.9999 71.4445C50.4006 73.8549 60.4927 73 70.111 73C72.2328 73 93.8334 70.4167 86.9999 67" stroke="black" stroke-width="2" stroke-linecap="round"/>
</svg>
