<svg width="454" height="256" viewBox="0 0 454 256" fill="none" xmlns="http://www.w3.org/2000/svg">
<path d="M144.222 249.889C107.259 246.231 74.201 230.587 65.9638 196.364C52.5043 197.388 24.9162 197.632 15.2224 190.889C-12.7185 171.452 5.52613 142.841 30.0026 128.297C30.0016 128.235 30.0008 128.173 30.0002 128.111C29.7543 102.536 36.6512 79.2023 42.8891 54.6667C59.0516 -8.9057 139.267 -14.2694 192.334 -6.99997C223.419 -2.74174 285.059 10.4386 281.778 51.4445C281.482 55.1385 280.781 59.152 279.703 63.308C303.215 61.7111 327.096 64.9602 350.222 69.1111C379.428 74.3532 412.793 82.8552 433.556 105.889C447.446 121.299 452 135.543 452 155.889C452 168.331 452.83 189.817 438.445 196.111C426.346 201.404 404.923 196.83 392.111 195C389.836 194.675 387.823 194.281 386.047 193.787C385.769 194.187 385.527 194.52 385.334 194.778C371.615 212.981 352.338 220.678 332.222 229.778C321.629 234.57 307.553 235.664 298.445 227.889C297.664 227.223 296.962 226.256 296.348 225.076C287.376 235.49 272.468 240.359 259.445 245.889C226.338 259.948 178.889 253.319 144.222 249.889Z" fill="white"/>
<path d="M64.0002 179C64.0002 225.423 101.503 245.661 144.222 249.889C178.889 253.319 226.338 259.948 259.445 245.889C277.39 238.268 298.915 231.904 303.556 210.556C304.014 208.45 300.866 196.115 297.111 199.333C291.379 204.247 293.034 223.27 298.445 227.889C307.553 235.664 321.629 234.57 332.222 229.778C352.338 220.678 371.615 212.981 385.334 194.778C388.136 191.06 400.87 171.347 390.778 169.222C385.933 168.202 374 166.662 374 173.889C374 188.325 378.029 192.988 392.111 195C404.923 196.83 426.346 201.404 438.445 196.111C452.83 189.817 452 168.331 452 155.889C452 135.543 447.446 121.299 433.556 105.889C412.793 82.8552 379.428 74.3532 350.222 69.1111C316.18 63.001 280.504 58.845 246.778 69.2223C234.839 72.8958 216.784 81.6139 216 96.1111C215.672 102.192 215.449 113.118 223.334 114.778C256.184 121.694 279.638 78.1947 281.778 51.4445C285.058 10.4386 223.419 -2.74174 192.334 -6.99997C139.267 -14.2694 59.0516 -8.9057 42.8891 54.6667C36.6512 79.2023 29.7543 102.536 30.0002 128.111C30.166 145.353 44.6214 152.879 60.3336 155.667C71.7599 157.694 91.4405 162.142 95.1113 147C98.9361 131.223 72.6347 119.643 60.6669 119.111C28.4344 117.679 -24.2433 163.435 15.2224 190.889C30.2537 201.345 88.3108 195 70.0002 195" stroke="black" stroke-width="2" stroke-linecap="round"/>
</svg>
