<svg width="5577" height="287" viewBox="0 0 5577 287" fill="none" xmlns="http://www.w3.org/2000/svg">
<path d="M700.556 47.0001C713.562 29.9912 741.144 16.4924 757.82 35.5716C759.806 40.7783 764.022 47.0088 769 49.0001C773.655 50.862 775.42 60.7682 781 63.0001C787.073 65.4294 783 104.332 783 111.889C783 116.784 783.234 134.348 779 136.889C776.905 138.146 771 158.866 771 161.889C771 169.039 755.952 180.009 749.889 181.111C741.078 182.713 735.159 182.49 726.889 181.111C719.396 179.862 713.231 176.86 707.889 172.111C699.218 164.404 696.162 162.621 695 151C694.525 146.252 691 143.546 691 138.111V125V98.1112C691 83.8335 691.779 58.4765 700.556 47.0001Z" fill="white"/>
<path d="M759 37.0001C742.474 15.8473 713.874 29.5835 700.556 47.0001C691.779 58.4765 691 83.8335 691 98.1112C691 107.074 691 116.037 691 125C691 129.37 691 133.741 691 138.111C691 143.546 694.525 146.252 695 151C696.162 162.621 699.218 164.404 707.889 172.111C713.231 176.86 719.396 179.862 726.889 181.111C735.159 182.49 741.078 182.713 749.889 181.111C755.952 180.009 771 169.039 771 161.889C771 158.866 776.905 138.146 779 136.889C783.234 134.348 783 116.784 783 111.889C783 104.332 787.073 65.4294 781 63.0001C775.42 60.7682 773.655 50.862 769 49.0001C763.165 46.666 758.377 38.5073 757 33.0001" stroke="black" stroke-width="2" stroke-linecap="round"/>
<path d="M735 227.556C735 210.938 731.822 196.213 731.131 180.001C744.442 180.11 745 196.852 745 208.444C745 224.822 748.27 239.937 747 256.444C746.643 261.081 739.71 260.664 736.222 259.889C733.913 259.376 735 252.877 735 251V227.556Z" fill="white"/>
<path d="M731 174C731 192.652 735 208.913 735 227.556C735 235.37 735 243.185 735 251C735 252.877 733.913 259.376 736.222 259.889C739.71 260.664 746.643 261.081 747 256.444C748.27 239.937 745 224.822 745 208.444C745 196.814 744.438 180 731 180" stroke="black" stroke-width="2" stroke-linecap="round"/>
<path d="M289.444 180.444C291.183 173.315 297.102 172.029 303.259 171.899C331.2 161.186 343.034 232 312 232C303.343 232 296.979 233.705 291.444 227.555C286.347 221.891 283 217.062 283 209.111C283 198.116 286.924 190.777 289.444 180.444Z" fill="white"/>
<path d="M311 172C302.949 172 291.929 170.257 289.444 180.444C286.924 190.777 283 198.116 283 209.111C283 217.062 286.347 221.891 291.444 227.555C296.979 233.705 303.343 232 312 232C343.129 232 331.127 160.749 303 172" stroke="black" stroke-width="2" stroke-linecap="round"/>
<path d="M304 249C304 242.616 303.708 236.293 304.655 230H307C309.712 230 308.076 231.016 309.444 232.556C311.581 234.959 309.986 237.759 311.778 240.222C312.592 241.342 313.01 257.783 312.444 257.944C311.254 258.284 304.362 258.517 304.056 257.444C303.368 255.038 304 251.53 304 249Z" fill="white"/>
<path d="M305 228C303.643 234.954 304 241.939 304 249C304 251.53 303.368 255.038 304.056 257.444C304.362 258.517 311.254 258.284 312.444 257.944C313.01 257.783 312.592 241.342 311.778 240.222C309.986 237.759 311.581 234.959 309.444 232.556C308.076 231.016 309.712 230 307 230C305.667 230 304.333 230 303 230" stroke="black" stroke-width="2" stroke-linecap="round"/>
<path d="M631.487 204.718C632.697 199.754 636.818 198.859 641.104 198.768C660.556 191.31 668.795 240.61 647.189 240.61C641.162 240.61 636.732 241.797 632.879 237.516C629.33 233.572 627 230.21 627 224.675C627 217.021 629.732 211.911 631.487 204.718Z" fill="white"/>
<path d="M646.493 198.839C640.888 198.839 633.216 197.625 631.487 204.718C629.732 211.911 627 217.021 627 224.675C627 230.21 629.33 233.572 632.879 237.516C636.732 241.797 641.162 240.61 647.189 240.61C668.861 240.61 660.505 191.006 640.924 198.839" stroke="black" stroke-width="1.39237" stroke-linecap="round"/>
<path d="M641.62 252.445C641.62 248.001 641.417 243.599 642.076 239.218H643.708C645.597 239.218 644.457 239.925 645.41 240.997C646.898 242.67 645.788 244.619 647.035 246.334C647.602 247.114 647.893 258.56 647.499 258.672C646.67 258.909 641.872 259.071 641.659 258.324C641.18 256.649 641.62 254.206 641.62 252.445Z" fill="white"/>
<path d="M642.316 237.825C641.371 242.666 641.62 247.53 641.62 252.445C641.62 254.206 641.18 256.649 641.659 258.324C641.872 259.071 646.67 258.909 647.499 258.672C647.893 258.56 647.602 247.114 647.035 246.334C645.788 244.619 646.898 242.67 645.41 240.997C644.457 239.925 645.597 239.218 643.708 239.218C642.78 239.218 641.852 239.218 640.924 239.218" stroke="black" stroke-width="1.39237" stroke-linecap="round"/>
<path d="M3.40741 232.407C4.02135 229.89 6.11118 229.435 8.28475 229.39C18.15 225.607 22.3281 250.609 11.3711 250.609C8.3145 250.609 6.06752 251.211 4.11354 249.04C2.31366 247.04 1.13208 245.335 1.13208 242.528C1.13208 238.646 2.51761 236.055 3.40741 232.407Z" fill="white"/>
<path d="M11.018 229.425C8.17546 229.425 4.28468 228.81 3.40741 232.407C2.51761 236.055 1.13208 238.646 1.13208 242.528C1.13208 245.335 2.31366 247.04 4.11354 249.04C6.06752 251.211 8.3145 250.609 11.3711 250.609C22.3619 250.609 18.1241 225.453 8.19344 229.425" stroke="black" stroke-width="1.39237" stroke-linecap="round"/>
<path d="M8.54643 256.612C8.54643 254.358 8.44343 252.125 8.7778 249.903H9.60563C10.5632 249.903 9.98537 250.262 10.4687 250.806C11.2231 251.654 10.6601 252.643 11.2925 253.513C11.5801 253.908 11.7276 259.713 11.5279 259.77C11.1077 259.89 8.67425 259.972 8.56604 259.593C8.32332 258.744 8.54643 257.505 8.54643 256.612Z" fill="white"/>
<path d="M8.8995 249.197C8.42044 251.652 8.54643 254.119 8.54643 256.612C8.54643 257.505 8.32332 258.744 8.56604 259.593C8.67425 259.972 11.1077 259.89 11.5279 259.77C11.7276 259.713 11.5801 253.908 11.2925 253.513C10.6601 252.643 11.2231 251.654 10.4687 250.806C9.98537 250.262 10.5632 249.903 9.60563 249.903C9.13487 249.903 8.66412 249.903 8.19336 249.903" stroke="black" stroke-width="1.39237" stroke-linecap="round"/>
<path d="M1233 240C1233 225.6 1231.03 211.195 1231 196.311C1238.1 198.743 1235 214.761 1235 221C1235 232.056 1245 240.405 1245 252.444C1245 269.577 1233 246.209 1233 240Z" fill="white"/>
<path d="M1231 196C1231 210.994 1233 225.499 1233 240C1233 246.209 1245 269.577 1245 252.444C1245 240.405 1235 232.056 1235 221C1235 214.24 1238.64 196 1229 196" stroke="black" stroke-width="2" stroke-linecap="round"/>
<path d="M1221 122C1230.29 122 1235.1 125.094 1240.06 132.54C1245.16 135.199 1245.14 136.231 1247.44 142C1249.31 146.66 1253.36 151.865 1254.78 156.111C1258.07 165.998 1261 173.621 1261 185C1261 191.995 1259.65 198.376 1256 204.222C1253.41 208.358 1255.67 209.85 1251.44 212.889C1249.76 214.105 1246.59 217.117 1245.44 218.889C1238.34 229.871 1222.29 216.908 1215.44 214.444C1209.21 212.199 1198.22 196.521 1197.11 189.889C1196.14 184.053 1193 181.358 1193 174V158C1193 145.376 1195.45 132.86 1207 126.444C1210.11 124.717 1208.63 122 1213 122H1221Z" fill="white"/>
<path d="M1241 134C1235.69 125.496 1230.88 122 1221 122C1218.33 122 1215.67 122 1213 122C1208.63 122 1210.11 124.717 1207 126.444C1195.45 132.86 1193 145.376 1193 158C1193 163.333 1193 168.667 1193 174C1193 181.358 1196.14 184.053 1197.11 189.889C1198.22 196.521 1209.21 212.199 1215.44 214.444C1222.29 216.908 1238.34 229.871 1245.44 218.889C1246.59 217.117 1249.76 214.105 1251.44 212.889C1255.67 209.85 1253.41 208.358 1256 204.222C1259.65 198.376 1261 191.995 1261 185C1261 173.621 1258.07 165.998 1254.78 156.111C1253.36 151.865 1249.31 146.66 1247.44 142C1244.99 135.857 1245.17 135.085 1239 132" stroke="black" stroke-width="2" stroke-linecap="round"/>
<path d="M801 251C801 244.616 800.708 238.293 801.655 232H804C806.712 232 805.076 233.016 806.444 234.556C808.581 236.959 806.986 239.759 808.778 242.222C809.592 243.342 810.01 259.783 809.444 259.944C808.254 260.284 801.362 260.517 801.056 259.444C800.368 257.038 801 253.53 801 251Z" fill="white"/>
<path d="M802 230C800.643 236.954 801 243.939 801 251C801 253.53 800.368 257.038 801.056 259.444C801.362 260.517 808.254 260.284 809.444 259.944C810.01 259.783 809.592 243.342 808.778 242.222C806.986 239.759 808.581 236.959 806.444 234.556C805.076 233.016 806.712 232 804 232C802.667 232 801.333 232 800 232" stroke="black" stroke-width="2" stroke-linecap="round"/>
<path d="M814 174C820.86 174 825.377 175.459 830.353 177.637C829.043 179.553 827.942 182.17 828 183.556C828.176 187.771 834.917 192.94 838.445 195.111C844.177 198.639 871.53 202.015 872 210C872.759 222.894 858.424 242.764 844 244C837.753 244.535 822.351 248.085 817.333 245.111C811.521 241.667 806.942 242 799.556 242C793.579 242 786.276 243.314 781.111 240.444C776.097 237.659 770.714 232.661 766.445 229.556C755.89 221.879 746.382 205.641 752.445 192C757.559 180.493 773.96 174 786 174H814Z" fill="white"/>
<path d="M840 182C829.824 177.639 824.832 174 814 174C804.667 174 795.333 174 786 174C773.96 174 757.559 180.493 752.445 192C746.382 205.641 755.89 221.879 766.445 229.556C770.714 232.661 776.097 237.659 781.111 240.444C786.276 243.314 793.579 242 799.556 242C806.942 242 811.521 241.667 817.333 245.111C822.351 248.085 837.753 244.535 844 244C858.424 242.764 872.759 222.894 872 210C871.53 202.015 844.177 198.639 838.445 195.111C834.917 192.94 828.176 187.771 828 183.556C827.884 180.76 832.479 172.958 834 176" stroke="black" stroke-width="2" stroke-linecap="round"/>
<path d="M235.756 233.197C241.112 217.44 244.085 200.568 249.588 184.267C257.273 190.926 247.562 206.706 245.241 213.533C241.129 225.631 250.114 240.395 245.635 253.569C239.263 272.316 233.446 239.992 235.756 233.197Z" fill="white"/>
<path d="M249.704 183.926C244.127 200.333 241.149 217.331 235.756 233.197C233.446 239.992 239.263 272.316 245.635 253.569C250.114 240.395 241.129 225.631 245.241 213.533C247.755 206.136 258.946 188.229 247.286 182.8" stroke="black" stroke-width="2" stroke-linecap="round"/>
<path d="M207.284 116H248.278C253.185 124.346 247.975 136.635 255.161 143.97C260.055 148.964 275.328 160.122 275.812 167.517C276.359 175.902 276.496 199.022 264.645 202.382C251.921 205.989 238.049 207.147 225.028 210.838C209.102 215.353 193.958 212.878 183.728 202.642C177.651 196.561 175.974 169.083 180.821 161.663C187.7 151.132 187.196 138.016 194.741 127.188C198.344 122.017 197.638 116 207.284 116Z" fill="white" stroke="black" stroke-width="2" stroke-linecap="round"/>
<path d="M308.039 260.162H294.273C287.063 260.668 279.9 261.581 277.248 261.581C267.443 261.581 271.377 257.845 274.356 253.855C277.224 250.015 282.24 248.809 288.368 248.809C304.04 248.809 317.616 248.094 332.406 244.867C348.107 241.443 363.268 250.228 378.891 250.228C392.89 250.228 390.901 242.717 390.901 235.328C390.901 228.604 391.383 222.516 396.128 216.565C402.705 208.316 416.059 204.176 428.934 209.154C435.909 211.851 442.165 212.111 448.062 216.013C450.814 217.834 457.706 219.425 461.407 220.113C472.655 222.201 543.858 254.677 546.591 251.017C547.742 249.476 545.54 246.109 549.038 245.971C553.259 245.805 558.065 246.536 562.16 245.656C566.784 244.663 567.429 238.352 571.502 236.353C574.492 234.885 580.914 243.187 581.955 244.394C588.242 251.688 593.546 235.459 596.857 231.938C597.324 231.441 597.956 234.152 598.303 234.697C599.846 237.129 602.164 239.302 603.974 241.635C606.977 245.506 608.241 246.488 612.092 243.212C616.053 239.842 620.406 234.473 623.324 241.714C625.115 246.157 635.341 251.009 630.886 256.535C629.7 258.007 624.082 257.324 621.99 257.324C617.691 257.324 617.636 260.162 613.983 260.162H586.292H537.472H308.039Z" fill="white"/>
<path d="M278.805 260.162C365.027 260.162 451.25 260.162 537.472 260.162C553.746 260.162 570.019 260.162 586.292 260.162C595.522 260.162 604.753 260.162 613.983 260.162C617.636 260.162 617.691 257.324 621.99 257.324C624.082 257.324 629.7 258.007 630.886 256.535C635.341 251.009 625.115 246.157 623.324 241.714C620.406 234.473 616.053 239.842 612.092 243.212C608.241 246.488 606.977 245.506 603.974 241.635C602.164 239.302 599.846 237.129 598.303 234.697C597.956 234.152 597.324 231.441 596.857 231.938C593.546 235.459 588.242 251.688 581.955 244.394C580.914 243.187 574.492 234.885 571.502 236.353C567.429 238.352 566.784 244.663 562.16 245.656C558.065 246.536 553.259 245.805 549.038 245.971C545.54 246.109 547.742 249.476 546.591 251.017C543.858 254.677 472.655 222.201 461.407 220.113C457.706 219.425 450.814 217.834 448.062 216.013C442.165 212.111 435.909 211.851 428.934 209.154C416.059 204.176 402.705 208.316 396.128 216.565C391.383 222.516 390.901 228.604 390.901 235.328C390.901 242.717 392.89 250.228 378.891 250.228C363.268 250.228 348.107 241.443 332.406 244.867C317.616 248.094 304.04 248.809 288.368 248.809C282.24 248.809 277.224 250.015 274.356 253.855C271.377 257.845 267.443 261.581 277.248 261.581C283.301 261.581 312.834 256.828 312.834 263" stroke="black" stroke-width="2" stroke-linecap="round"/>
<path d="M1666.38 183.668C1670.98 177.655 1680.73 172.882 1686.62 179.628C1687.33 181.468 1688.82 183.671 1690.58 184.375C1692.22 185.034 1692.85 188.536 1694.82 189.325C1696.97 190.184 1695.53 203.938 1695.53 206.61C1695.53 208.341 1695.61 214.551 1694.11 215.449C1693.37 215.894 1691.28 223.219 1691.28 224.288C1691.28 226.816 1685.96 230.695 1683.82 231.084C1680.71 231.651 1678.61 231.572 1675.69 231.084C1673.04 230.643 1670.86 229.581 1668.97 227.902C1665.91 225.177 1664.83 224.547 1664.41 220.438C1664.25 218.76 1663 217.803 1663 215.881V211.246V201.739C1663 196.691 1663.28 187.726 1666.38 183.668Z" fill="white"/>
<path d="M1687.04 180.133C1681.2 172.654 1671.09 177.51 1666.38 183.668C1663.28 187.726 1663 196.691 1663 201.739C1663 204.908 1663 208.077 1663 211.246C1663 212.791 1663 214.336 1663 215.881C1663 217.803 1664.25 218.76 1664.41 220.438C1664.83 224.547 1665.91 225.177 1668.97 227.902C1670.86 229.581 1673.04 230.643 1675.69 231.084C1678.61 231.572 1680.71 231.651 1683.82 231.084C1685.96 230.695 1691.28 226.816 1691.28 224.288C1691.28 223.219 1693.37 215.894 1694.11 215.449C1695.61 214.551 1695.53 208.341 1695.53 206.61C1695.53 203.938 1696.97 190.184 1694.82 189.325C1692.85 188.536 1692.22 185.034 1690.58 184.375C1688.51 183.55 1686.82 180.665 1686.33 178.718" stroke="black" stroke-width="2" stroke-linecap="round"/>
<path d="M1678.56 247.505C1678.56 241.63 1677.43 236.424 1677.19 230.692C1681.89 230.73 1682.09 236.649 1682.09 240.748C1682.09 246.539 1683.25 251.882 1682.8 257.719C1682.67 259.358 1680.22 259.211 1678.99 258.937C1678.17 258.755 1678.56 256.458 1678.56 255.794V247.505Z" fill="white"/>
<path d="M1677.14 228.57C1677.14 235.165 1678.56 240.914 1678.56 247.505C1678.56 250.268 1678.56 253.031 1678.56 255.794C1678.56 256.458 1678.17 258.755 1678.99 258.937C1680.22 259.211 1682.67 259.358 1682.8 257.719C1683.25 251.882 1682.09 246.539 1682.09 240.748C1682.09 236.636 1681.89 230.691 1677.14 230.691" stroke="black" stroke-width="2" stroke-linecap="round"/>
<path d="M4100.33 206.117C4102.14 201.92 4105.98 198.589 4108.31 203.297C4108.58 204.582 4109.17 206.119 4109.86 206.611C4110.51 207.07 4110.76 209.515 4111.54 210.065C4112.38 210.665 4111.81 220.265 4111.81 222.13C4111.81 223.338 4111.85 227.672 4111.26 228.299C4110.97 228.609 4110.14 233.722 4110.14 234.468C4110.14 236.232 4108.05 238.94 4107.2 239.212C4105.98 239.607 4105.15 239.552 4104 239.212C4102.96 238.903 4102.1 238.162 4101.35 236.991C4100.14 235.089 4099.72 234.649 4099.56 231.781C4099.49 230.609 4099 229.942 4099 228.601V225.365V218.73C4099 215.206 4099.11 208.949 4100.33 206.117Z" fill="white"/>
<path d="M4108.47 203.649C4106.17 198.43 4102.19 201.819 4100.33 206.117C4099.11 208.949 4099 215.206 4099 218.73C4099 220.942 4099 223.153 4099 225.365C4099 226.444 4099 227.522 4099 228.601C4099 229.942 4099.49 230.609 4099.56 231.781C4099.72 234.649 4100.14 235.089 4101.35 236.991C4102.1 238.162 4102.96 238.903 4104 239.212C4105.15 239.552 4105.98 239.607 4107.2 239.212C4108.05 238.94 4110.14 236.232 4110.14 234.468C4110.14 233.722 4110.97 228.609 4111.26 228.299C4111.85 227.672 4111.81 223.338 4111.81 222.13C4111.81 220.265 4112.38 210.665 4111.54 210.065C4110.76 209.515 4110.51 207.07 4109.86 206.611C4109.05 206.035 4108.38 204.021 4108.19 202.662" stroke="black" stroke-width="2" stroke-linecap="round"/>
<path d="M4105.13 250.673C4105.13 246.572 4104.69 242.938 4104.59 238.938C4106.44 238.965 4106.52 243.096 4106.52 245.957C4106.52 249.998 4106.98 253.728 4106.8 257.802C4106.75 258.946 4105.78 258.843 4105.3 258.652C4104.98 258.525 4105.13 256.921 4105.13 256.458V250.673Z" fill="white"/>
<path d="M4104.57 237.457C4104.57 242.06 4105.13 246.072 4105.13 250.673C4105.13 252.601 4105.13 254.53 4105.13 256.458C4105.13 256.921 4104.98 258.525 4105.3 258.652C4105.78 258.843 4106.75 258.946 4106.8 257.802C4106.98 253.728 4106.52 249.998 4106.52 245.957C4106.52 243.087 4106.44 238.937 4104.57 238.937" stroke="black" stroke-width="2" stroke-linecap="round"/>
<path d="M5564.33 206.117C5566.14 201.92 5569.98 198.589 5572.31 203.297C5572.58 204.582 5573.17 206.119 5573.86 206.611C5574.51 207.07 5574.76 209.515 5575.54 210.065C5576.38 210.665 5575.81 220.265 5575.81 222.13C5575.81 223.338 5575.85 227.672 5575.26 228.299C5574.97 228.609 5574.14 233.722 5574.14 234.468C5574.14 236.232 5572.05 238.94 5571.2 239.212C5569.98 239.607 5569.15 239.552 5568 239.212C5566.96 238.903 5566.1 238.162 5565.35 236.991C5564.14 235.089 5563.72 234.649 5563.56 231.781C5563.49 230.609 5563 229.942 5563 228.601V225.365V218.73C5563 215.206 5563.11 208.949 5564.33 206.117Z" fill="white"/>
<path d="M5572.47 203.649C5570.17 198.43 5566.19 201.819 5564.33 206.117C5563.11 208.949 5563 215.206 5563 218.73C5563 220.942 5563 223.153 5563 225.365C5563 226.444 5563 227.522 5563 228.601C5563 229.942 5563.49 230.609 5563.56 231.781C5563.72 234.649 5564.14 235.089 5565.35 236.991C5566.1 238.162 5566.96 238.903 5568 239.212C5569.15 239.552 5569.98 239.607 5571.2 239.212C5572.05 238.94 5574.14 236.232 5574.14 234.468C5574.14 233.722 5574.97 228.609 5575.26 228.299C5575.85 227.672 5575.81 223.338 5575.81 222.13C5575.81 220.265 5576.38 210.665 5575.54 210.065C5574.76 209.515 5574.51 207.07 5573.86 206.611C5573.05 206.035 5572.38 204.021 5572.19 202.662" stroke="black" stroke-width="2" stroke-linecap="round"/>
<path d="M5569.13 250.673C5569.13 246.572 5568.69 242.938 5568.59 238.938C5570.44 238.965 5570.52 243.096 5570.52 245.957C5570.52 249.998 5570.98 253.728 5570.8 257.802C5570.75 258.946 5569.78 258.843 5569.3 258.652C5568.98 258.525 5569.13 256.921 5569.13 256.458V250.673Z" fill="white"/>
<path d="M5568.57 237.457C5568.57 242.06 5569.13 246.072 5569.13 250.673C5569.13 252.601 5569.13 254.53 5569.13 256.458C5569.13 256.921 5568.98 258.525 5569.3 258.652C5569.78 258.843 5570.75 258.946 5570.8 257.802C5570.98 253.728 5570.52 249.998 5570.52 245.957C5570.52 243.087 5570.44 238.937 5568.57 238.937" stroke="black" stroke-width="2" stroke-linecap="round"/>
<path d="M2329.44 181.444C2331.18 174.315 2337.1 173.029 2343.26 172.899C2371.2 162.186 2383.03 233 2352 233C2343.34 233 2336.98 234.705 2331.44 228.555C2326.35 222.891 2323 218.062 2323 210.111C2323 199.116 2326.92 191.777 2329.44 181.444Z" fill="white"/>
<path d="M2351 173C2342.95 173 2331.93 171.257 2329.44 181.444C2326.92 191.777 2323 199.116 2323 210.111C2323 218.062 2326.35 222.891 2331.44 228.555C2336.98 234.705 2343.34 233 2352 233C2383.13 233 2371.13 161.749 2343 173" stroke="black" stroke-width="2" stroke-linecap="round"/>
<path d="M2344 250C2344 243.616 2343.71 237.293 2344.66 231H2347C2349.71 231 2348.08 232.016 2349.44 233.556C2351.58 235.959 2349.99 238.759 2351.78 241.222C2352.59 242.342 2353.01 258.783 2352.44 258.944C2351.25 259.284 2344.36 259.517 2344.06 258.444C2343.37 256.038 2344 252.53 2344 250Z" fill="white"/>
<path d="M2345 229C2343.64 235.954 2344 242.939 2344 250C2344 252.53 2343.37 256.038 2344.06 258.444C2344.36 259.517 2351.25 259.284 2352.44 258.944C2353.01 258.783 2352.59 242.342 2351.78 241.222C2349.99 238.759 2351.58 235.959 2349.44 233.556C2348.08 232.016 2349.71 231 2347 231C2345.67 231 2344.33 231 2343 231" stroke="black" stroke-width="2" stroke-linecap="round"/>
<path d="M3804.44 173.649C3806.18 166.52 3812.1 165.233 3818.26 165.103C3846.2 154.391 3858.03 225.205 3827 225.205C3818.34 225.205 3811.98 226.91 3806.44 220.76C3801.35 215.096 3798 210.267 3798 202.316C3798 191.321 3801.92 183.982 3804.44 173.649Z" fill="white"/>
<path d="M3826 165.205C3817.95 165.205 3806.93 163.462 3804.44 173.649C3801.92 183.982 3798 191.321 3798 202.316C3798 210.267 3801.35 215.096 3806.44 220.76C3811.98 226.91 3818.34 225.205 3827 225.205C3858.13 225.205 3846.13 153.954 3818 165.205" stroke="black" stroke-width="2" stroke-linecap="round"/>
<path d="M3819 242.205C3819 235.821 3818.71 229.498 3819.66 223.205H3822C3824.71 223.205 3823.08 224.22 3824.44 225.76C3826.58 228.164 3824.99 230.964 3826.78 233.427C3827.59 234.547 3828.01 250.988 3827.44 251.149C3826.25 251.489 3819.36 251.722 3819.06 250.649C3818.37 248.243 3819 244.735 3819 242.205Z" fill="white"/>
<path d="M3820 221.205C3818.64 228.159 3819 235.144 3819 242.205C3819 244.735 3818.37 248.243 3819.06 250.649C3819.36 251.722 3826.25 251.489 3827.44 251.149C3828.01 250.988 3827.59 234.547 3826.78 233.427C3824.99 230.964 3826.58 228.164 3824.44 225.76C3823.08 224.22 3824.71 223.205 3822 223.205C3820.67 223.205 3819.33 223.205 3818 223.205" stroke="black" stroke-width="2" stroke-linecap="round"/>
<path d="M2671.49 205.718C2672.7 200.754 2676.82 199.859 2681.1 199.768C2700.56 192.31 2708.79 241.61 2687.19 241.61C2681.16 241.61 2676.73 242.797 2672.88 238.516C2669.33 234.572 2667 231.21 2667 225.675C2667 218.021 2669.73 212.911 2671.49 205.718Z" fill="white"/>
<path d="M2686.49 199.839C2680.89 199.839 2673.22 198.625 2671.49 205.718C2669.73 212.911 2667 218.021 2667 225.675C2667 231.21 2669.33 234.572 2672.88 238.516C2676.73 242.797 2681.16 241.61 2687.19 241.61C2708.86 241.61 2700.51 192.006 2680.92 199.839" stroke="black" stroke-width="2" stroke-linecap="round"/>
<path d="M2681.62 253.445C2681.62 249.001 2681.42 244.599 2682.08 240.218H2683.71C2685.6 240.218 2684.46 240.925 2685.41 241.997C2686.9 243.67 2685.79 245.619 2687.03 247.334C2687.6 248.114 2687.89 259.56 2687.5 259.672C2686.67 259.909 2681.87 260.071 2681.66 259.324C2681.18 257.649 2681.62 255.206 2681.62 253.445Z" fill="white"/>
<path d="M2682.32 238.825C2681.37 243.666 2681.62 248.53 2681.62 253.445C2681.62 255.206 2681.18 257.649 2681.66 259.324C2681.87 260.071 2686.67 259.909 2687.5 259.672C2687.89 259.56 2687.6 248.114 2687.03 247.334C2685.79 245.619 2686.9 243.67 2685.41 241.997C2684.46 240.925 2685.6 240.218 2683.71 240.218C2682.78 240.218 2681.85 240.218 2680.92 240.218" stroke="black" stroke-width="2" stroke-linecap="round"/>
<path d="M4825.49 184.718C4826.7 179.754 4830.82 178.859 4835.1 178.768C4854.56 171.31 4862.79 220.61 4841.19 220.61C4835.16 220.61 4830.73 221.797 4826.88 217.516C4823.33 213.572 4821 210.21 4821 204.675C4821 197.021 4823.73 191.911 4825.49 184.718Z" fill="white"/>
<path d="M4840.49 178.839C4834.89 178.839 4827.22 177.625 4825.49 184.718C4823.73 191.911 4821 197.021 4821 204.675C4821 210.21 4823.33 213.572 4826.88 217.516C4830.73 221.797 4835.16 220.61 4841.19 220.61C4862.86 220.61 4854.51 171.006 4834.92 178.839" stroke="black" stroke-width="2" stroke-linecap="round"/>
<path d="M4835.62 232.445C4835.62 228.001 4835.42 223.599 4836.08 219.218H4837.71C4839.6 219.218 4838.46 219.925 4839.41 220.997C4840.9 222.67 4839.79 224.619 4841.03 226.334C4841.6 227.114 4841.89 238.56 4841.5 238.672C4840.67 238.909 4835.87 239.071 4835.66 238.324C4835.18 236.649 4835.62 234.206 4835.62 232.445Z" fill="white"/>
<path d="M4836.32 217.825C4835.37 222.666 4835.62 227.53 4835.62 232.445C4835.62 234.206 4835.18 236.649 4835.66 238.324C4835.87 239.071 4840.67 238.909 4841.5 238.672C4841.89 238.56 4841.6 227.114 4841.03 226.334C4839.79 224.619 4840.9 222.67 4839.41 220.997C4838.46 219.925 4839.6 219.218 4837.71 219.218C4836.78 219.218 4835.85 219.218 4834.92 219.218" stroke="black" stroke-width="2" stroke-linecap="round"/>
<path d="M5047.49 204.718C5048.7 199.754 5052.82 198.859 5057.1 198.768C5076.56 191.31 5084.79 240.61 5063.19 240.61C5057.16 240.61 5052.73 241.797 5048.88 237.516C5045.33 233.572 5043 230.21 5043 224.675C5043 217.021 5045.73 211.911 5047.49 204.718Z" fill="white"/>
<path d="M5062.49 198.839C5056.89 198.839 5049.22 197.625 5047.49 204.718C5045.73 211.911 5043 217.021 5043 224.675C5043 230.21 5045.33 233.572 5048.88 237.516C5052.73 241.797 5057.16 240.61 5063.19 240.61C5084.86 240.61 5076.51 191.006 5056.92 198.839" stroke="black" stroke-width="2" stroke-linecap="round"/>
<path d="M5057.62 252.445C5057.62 248.001 5057.42 243.599 5058.08 239.218H5059.71C5061.6 239.218 5060.46 239.925 5061.41 240.997C5062.9 242.67 5061.79 244.619 5063.03 246.334C5063.6 247.114 5063.89 258.56 5063.5 258.672C5062.67 258.909 5057.87 259.071 5057.66 258.324C5057.18 256.649 5057.62 254.206 5057.62 252.445Z" fill="white"/>
<path d="M5058.32 237.825C5057.37 242.666 5057.62 247.53 5057.62 252.445C5057.62 254.206 5057.18 256.649 5057.66 258.324C5057.87 259.071 5062.67 258.909 5063.5 258.672C5063.89 258.56 5063.6 247.114 5063.03 246.334C5061.79 244.619 5062.9 242.67 5061.41 240.997C5060.46 239.925 5061.6 239.218 5059.71 239.218C5058.78 239.218 5057.85 239.218 5056.92 239.218" stroke="black" stroke-width="2" stroke-linecap="round"/>
<path d="M3410.49 205.718C3411.7 200.754 3415.82 199.859 3420.1 199.768C3439.56 192.31 3447.79 241.61 3426.19 241.61C3420.16 241.61 3415.73 242.797 3411.88 238.516C3408.33 234.572 3406 231.21 3406 225.675C3406 218.021 3408.73 212.911 3410.49 205.718Z" fill="white"/>
<path d="M3425.49 199.839C3419.89 199.839 3412.22 198.625 3410.49 205.718C3408.73 212.911 3406 218.021 3406 225.675C3406 231.21 3408.33 234.572 3411.88 238.516C3415.73 242.797 3420.16 241.61 3426.19 241.61C3447.86 241.61 3439.51 192.006 3419.92 199.839" stroke="black" stroke-width="2" stroke-linecap="round"/>
<path d="M3420.62 253.445C3420.62 249.001 3420.42 244.599 3421.08 240.218H3422.71C3424.6 240.218 3423.46 240.925 3424.41 241.997C3425.9 243.67 3424.79 245.619 3426.03 247.334C3426.6 248.114 3426.89 259.56 3426.5 259.672C3425.67 259.909 3420.87 260.071 3420.66 259.324C3420.18 257.649 3420.62 255.206 3420.62 253.445Z" fill="white"/>
<path d="M3421.32 238.825C3420.37 243.666 3420.62 248.53 3420.62 253.445C3420.62 255.206 3420.18 257.649 3420.66 259.324C3420.87 260.071 3425.67 259.909 3426.5 259.672C3426.89 259.56 3426.6 248.114 3426.03 247.334C3424.79 245.619 3425.9 243.67 3424.41 241.997C3423.46 240.925 3424.6 240.218 3422.71 240.218C3421.78 240.218 3420.85 240.218 3419.92 240.218" stroke="black" stroke-width="2" stroke-linecap="round"/>
<path d="M3273 241C3273 226.6 3271.03 212.195 3271 197.311C3278.1 199.743 3275 215.761 3275 222C3275 233.056 3285 241.405 3285 253.444C3285 270.577 3273 247.209 3273 241Z" fill="white"/>
<path d="M3271 197C3271 211.994 3273 226.499 3273 241C3273 247.209 3285 270.577 3285 253.444C3285 241.405 3275 233.056 3275 222C3275 215.24 3278.64 197 3269 197" stroke="black" stroke-width="2" stroke-linecap="round"/>
<path d="M3261 123C3270.29 123 3275.1 126.094 3280.06 133.54C3285.16 136.199 3285.14 137.231 3287.44 143C3289.31 147.66 3293.36 152.865 3294.78 157.111C3298.07 166.998 3301 174.621 3301 186C3301 192.995 3299.65 199.376 3296 205.222C3293.41 209.358 3295.67 210.85 3291.44 213.889C3289.76 215.105 3286.59 218.117 3285.44 219.889C3278.34 230.871 3262.29 217.908 3255.44 215.444C3249.21 213.199 3238.22 197.521 3237.11 190.889C3236.14 185.053 3233 182.358 3233 175V159C3233 146.376 3235.45 133.86 3247 127.444C3250.11 125.717 3248.63 123 3253 123H3261Z" fill="white"/>
<path d="M3281 135C3275.69 126.496 3270.88 123 3261 123C3258.33 123 3255.67 123 3253 123C3248.63 123 3250.11 125.717 3247 127.444C3235.45 133.86 3233 146.376 3233 159C3233 164.333 3233 169.667 3233 175C3233 182.358 3236.14 185.053 3237.11 190.889C3238.22 197.521 3249.21 213.199 3255.44 215.444C3262.29 217.908 3278.34 230.871 3285.44 219.889C3286.59 218.117 3289.76 215.105 3291.44 213.889C3295.67 210.85 3293.41 209.358 3296 205.222C3299.65 199.376 3301 192.995 3301 186C3301 174.621 3298.07 166.998 3294.78 157.111C3293.36 152.865 3289.31 147.66 3287.44 143C3284.99 136.857 3285.17 136.085 3279 133" stroke="black" stroke-width="2" stroke-linecap="round"/>
<path d="M2740.56 47.0001C2753.56 29.9912 2781.14 16.4924 2797.82 35.5716C2799.81 40.7783 2804.02 47.0088 2809 49.0001C2813.65 50.862 2815.42 60.7682 2821 63.0001C2827.07 65.4294 2823 104.332 2823 111.889C2823 116.784 2823.23 134.348 2819 136.889C2816.91 138.146 2811 158.866 2811 161.889C2811 169.039 2795.95 180.009 2789.89 181.111C2781.08 182.713 2775.16 182.49 2766.89 181.111C2759.4 179.862 2753.23 176.86 2747.89 172.111C2739.22 164.404 2736.16 162.621 2735 151C2734.53 146.252 2731 143.546 2731 138.111V125V98.1112C2731 83.8335 2731.78 58.4765 2740.56 47.0001Z" fill="white"/>
<path d="M2799 37.0001C2782.47 15.8473 2753.87 29.5835 2740.56 47.0001C2731.78 58.4765 2731 83.8335 2731 98.1112C2731 107.074 2731 116.037 2731 125C2731 129.37 2731 133.741 2731 138.111C2731 143.546 2734.53 146.252 2735 151C2736.16 162.621 2739.22 164.404 2747.89 172.111C2753.23 176.86 2759.4 179.862 2766.89 181.111C2775.16 182.49 2781.08 182.713 2789.89 181.111C2795.95 180.009 2811 169.039 2811 161.889C2811 158.866 2816.91 138.146 2819 136.889C2823.23 134.348 2823 116.784 2823 111.889C2823 104.332 2827.07 65.4294 2821 63.0001C2815.42 60.7682 2813.65 50.862 2809 49.0001C2803.16 46.666 2798.38 38.5073 2797 33.0001" stroke="black" stroke-width="2" stroke-linecap="round"/>
<path d="M2775 227.556C2775 210.938 2771.82 196.213 2771.13 180.001C2784.44 180.11 2785 196.852 2785 208.444C2785 224.822 2788.27 239.937 2787 256.444C2786.64 261.081 2779.71 260.664 2776.22 259.889C2773.91 259.376 2775 252.877 2775 251V227.556Z" fill="white"/>
<path d="M2771 174C2771 192.652 2775 208.913 2775 227.556C2775 235.37 2775 243.185 2775 251C2775 252.877 2773.91 259.376 2776.22 259.889C2779.71 260.664 2786.64 261.081 2787 256.444C2788.27 239.937 2785 224.822 2785 208.444C2785 196.814 2784.44 180 2771 180" stroke="black" stroke-width="2" stroke-linecap="round"/>
<path d="M2729.24 114C2736.61 114 2740.43 115.62 2744.37 119.517C2748.42 120.91 2748.4 121.45 2750.24 124.47C2751.72 126.909 2754.93 129.634 2756.06 131.857C2758.68 137.033 2761 141.023 2761 146.98C2761 150.642 2759.93 153.983 2757.03 157.043C2754.98 159.208 2756.76 159.989 2753.41 161.58C2752.07 162.217 2749.56 163.793 2748.65 164.721C2743 170.47 2730.26 163.684 2724.82 162.394C2719.87 161.219 2711.14 153.012 2710.26 149.54C2709.49 146.485 2707 145.074 2707 141.222V132.846C2707 126.237 2708.95 119.685 2718.12 116.327C2720.59 115.422 2719.41 114 2722.88 114H2729.24Z" fill="white"/>
<path d="M2745.12 120.282C2740.9 115.83 2737.08 114 2729.24 114C2727.12 114 2725 114 2722.88 114C2719.41 114 2720.59 115.422 2718.12 116.327C2708.95 119.685 2707 126.237 2707 132.846C2707 135.638 2707 138.43 2707 141.222C2707 145.074 2709.49 146.485 2710.26 149.54C2711.14 153.012 2719.87 161.219 2724.82 162.394C2730.26 163.684 2743 170.47 2748.65 164.721C2749.56 163.793 2752.07 162.217 2753.41 161.58C2756.76 159.989 2754.98 159.208 2757.03 157.043C2759.93 153.983 2761 150.642 2761 146.98C2761 141.023 2758.68 137.033 2756.06 131.857C2754.93 129.634 2751.72 126.909 2750.24 124.47C2748.28 121.254 2748.43 120.85 2743.53 119.235" stroke="black" stroke-width="2" stroke-linecap="round"/>
<path d="M2835.17 91.9113C2834.75 95.4052 2833.67 97.1081 2831.36 98.7246C2830.38 100.553 2830.09 100.51 2828.37 101.185C2826.99 101.73 2825.34 103.081 2824.09 103.471C2821.17 104.379 2818.91 105.225 2815.72 104.844C2813.76 104.611 2812.03 103.891 2810.55 102.322C2809.51 101.212 2808.99 102.008 2808.33 100.32C2808.06 99.644 2807.36 98.3536 2806.92 97.8633C2804.16 94.8246 2808.51 89.2235 2809.51 86.7326C2810.42 84.4625 2815.3 80.8545 2817.21 80.6605C2818.89 80.4899 2819.79 79.4 2821.85 79.646L2826.33 80.1808C2829.87 80.6027 2833.27 81.9431 2834.55 86.4991C2834.89 87.726 2835.72 87.2612 2835.52 88.9035L2835.17 91.9113Z" fill="white"/>
<path d="M2830.91 99.0297C2833.53 97.3157 2834.72 95.6254 2835.17 91.9113C2835.28 90.9087 2835.4 89.9061 2835.52 88.9035C2835.72 87.2612 2834.89 87.726 2834.55 86.4991C2833.27 81.9431 2829.87 80.6027 2826.33 80.1808C2824.84 80.0025 2823.34 79.8242 2821.85 79.646C2819.79 79.4 2818.89 80.4899 2817.21 80.6605C2815.3 80.8545 2810.42 84.4625 2809.51 86.7326C2808.51 89.2235 2804.16 94.8246 2806.92 97.8633C2807.36 98.3536 2808.06 99.644 2808.33 100.32C2808.99 102.008 2809.51 101.212 2810.55 102.322C2812.03 103.891 2813.76 104.611 2815.72 104.844C2818.91 105.225 2821.17 104.379 2824.09 103.471C2825.34 103.081 2826.99 101.73 2828.37 101.185C2830.21 100.467 2830.41 100.561 2831.56 98.3446" stroke="black" stroke-width="2" stroke-linecap="round"/>
<path d="M5216.08 24.9318C5197.12 5.30195 5156.94 -10.2769 5132.64 11.7422C5129.74 17.7513 5123.6 24.9418 5116.35 27.2399C5109.57 29.3887 5106.99 40.8214 5098.86 43.3972C5090.01 46.2008 5095.95 91.0979 5095.95 99.8195C5095.95 105.469 5095.61 125.74 5101.78 128.672C5104.83 130.122 5113.43 154.036 5113.43 157.524C5113.43 165.775 5135.36 178.436 5144.19 179.708C5157.03 181.557 5165.66 181.299 5177.71 179.708C5188.62 178.267 5197.61 174.802 5205.39 169.322C5218.03 160.427 5222.48 158.369 5224.17 144.957C5224.86 139.478 5230 136.355 5230 130.082V114.951V83.9187C5230 67.4409 5228.86 38.1766 5216.08 24.9318Z" fill="white"/>
<path d="M5130.92 13.3908C5155 -11.0215 5196.67 4.83143 5216.08 24.9318C5228.86 38.1766 5230 67.4409 5230 83.9187C5230 94.2628 5230 104.607 5230 114.951C5230 119.995 5230 125.039 5230 130.082C5230 136.355 5224.86 139.478 5224.17 144.957C5222.48 158.369 5218.03 160.427 5205.39 169.322C5197.61 174.802 5188.62 178.267 5177.71 179.708C5165.66 181.299 5157.03 181.557 5144.19 179.708C5135.36 178.436 5113.43 165.775 5113.43 157.524C5113.43 154.036 5104.83 130.122 5101.78 128.672C5095.61 125.74 5095.95 105.469 5095.95 99.8195C5095.95 91.0979 5090.01 46.2008 5098.86 43.3972C5106.99 40.8214 5109.57 29.3887 5116.35 27.2399C5124.85 24.5461 5131.83 15.1302 5133.83 8.77447" stroke="black" stroke-width="2" stroke-linecap="round"/>
<path d="M5163 226.292C5163 209.674 5159.82 194.95 5159.13 178.737C5172.44 178.846 5173 195.588 5173 207.181C5173 223.558 5176.27 238.673 5175 255.181C5174.64 259.817 5167.71 259.4 5164.22 258.625C5161.91 258.112 5163 251.614 5163 249.736V226.292Z" fill="white"/>
<path d="M5159 172.736C5159 191.388 5163 207.649 5163 226.292C5163 234.107 5163 241.922 5163 249.736C5163 251.614 5161.91 258.112 5164.22 258.625C5167.71 259.4 5174.64 259.817 5175 255.181C5176.27 238.673 5173 223.558 5173 207.181C5173 195.55 5172.44 178.736 5159 178.736" stroke="black" stroke-width="2" stroke-linecap="round"/>
<path d="M5232.47 103C5221.67 103 5216.09 104.864 5210.33 109.35C5204.41 110.952 5204.43 111.574 5201.75 115.05C5199.58 117.858 5194.87 120.994 5193.23 123.553C5189.4 129.51 5186 134.102 5186 140.959C5186 145.173 5187.56 149.018 5191.81 152.54C5194.81 155.032 5192.2 155.931 5197.1 157.762C5199.06 158.495 5202.74 160.309 5204.07 161.377C5212.33 167.994 5230.97 160.184 5238.93 158.699C5246.17 157.346 5258.94 147.9 5260.22 143.904C5261.35 140.388 5265 138.764 5265 134.331V124.691C5265 117.085 5262.15 109.543 5248.74 105.678C5245.12 104.637 5246.84 103 5241.76 103H5232.47Z" fill="white"/>
<path d="M5209.24 110.23C5215.41 105.107 5220.99 103 5232.47 103C5235.57 103 5238.67 103 5241.76 103C5246.84 103 5245.12 104.637 5248.74 105.678C5262.15 109.543 5265 117.085 5265 124.691C5265 127.904 5265 131.117 5265 134.331C5265 138.764 5261.35 140.388 5260.22 143.904C5258.94 147.9 5246.17 157.346 5238.93 158.699C5230.97 160.184 5212.33 167.994 5204.07 161.377C5202.74 160.309 5199.06 158.495 5197.1 157.762C5192.2 155.931 5194.81 155.032 5191.81 152.54C5187.56 149.018 5186 145.173 5186 140.959C5186 134.102 5189.4 129.51 5193.23 123.553C5194.87 120.994 5199.58 117.858 5201.75 115.05C5204.6 111.349 5204.39 110.884 5211.56 109.025" stroke="black" stroke-width="2" stroke-linecap="round"/>
<path d="M5078.83 76.7472C5079.43 80.7786 5081.01 82.7435 5084.37 84.6086C5085.79 86.7179 5086.21 86.6693 5088.71 87.4478C5090.74 88.0767 5093.13 89.6347 5094.95 90.0849C5099.2 91.1334 5102.5 92.1089 5107.14 91.6701C5110 91.4003 5112.51 90.5703 5114.66 88.7597C5116.18 87.4787 5116.93 88.3976 5117.9 86.4492C5118.28 85.6695 5119.31 84.1806 5119.95 83.6149C5123.97 80.1087 5117.63 73.6458 5116.18 70.7718C5114.86 68.1524 5107.74 63.9893 5104.97 63.7656C5102.52 63.5687 5101.22 62.3111 5098.22 62.5949L5091.69 63.2119C5086.54 63.6988 5081.59 65.2454 5079.73 70.5023C5079.23 71.918 5078.02 71.3817 5078.31 73.2766L5078.83 76.7472Z" fill="white"/>
<path d="M5085.03 84.9607C5081.21 82.983 5079.47 81.0327 5078.83 76.7472C5078.65 75.5903 5078.48 74.4335 5078.31 73.2766C5078.02 71.3817 5079.23 71.918 5079.73 70.5023C5081.59 65.2454 5086.54 63.6988 5091.69 63.2119C5093.86 63.0063 5096.04 62.8006 5098.22 62.5949C5101.22 62.3111 5102.52 63.5687 5104.97 63.7656C5107.74 63.9893 5114.86 68.1524 5116.18 70.7718C5117.63 73.6458 5123.97 80.1087 5119.95 83.6149C5119.31 84.1806 5118.28 85.6695 5117.9 86.4492C5116.93 88.3976 5116.18 87.4787 5114.66 88.7597C5112.51 90.5703 5110 91.4003 5107.14 91.6701C5102.5 92.1089 5099.2 91.1334 5094.95 90.0849C5093.13 89.6347 5090.74 88.0767 5088.71 87.4478C5086.05 86.6188 5085.74 86.7277 5084.08 84.1702" stroke="black" stroke-width="2" stroke-linecap="round"/>
<path d="M2841 251C2841 244.616 2840.71 238.293 2841.66 232H2844C2846.71 232 2845.08 233.016 2846.44 234.556C2848.58 236.959 2846.99 239.759 2848.78 242.222C2849.59 243.342 2850.01 259.783 2849.44 259.944C2848.25 260.284 2841.36 260.517 2841.06 259.444C2840.37 257.038 2841 253.53 2841 251Z" fill="white"/>
<path d="M2842 230C2840.64 236.954 2841 243.939 2841 251C2841 253.53 2840.37 257.038 2841.06 259.444C2841.36 260.517 2848.25 260.284 2849.44 259.944C2850.01 259.783 2849.59 243.342 2848.78 242.222C2846.99 239.759 2848.58 236.959 2846.44 234.556C2845.08 233.016 2846.71 232 2844 232C2842.67 232 2841.33 232 2840 232" stroke="black" stroke-width="2" stroke-linecap="round"/>
<path d="M2854 174C2860.86 174 2865.38 175.459 2870.35 177.637C2869.04 179.553 2867.94 182.17 2868 183.556C2868.18 187.771 2874.92 192.94 2878.44 195.111C2884.18 198.639 2911.53 202.015 2912 210C2912.76 222.894 2898.42 242.764 2884 244C2877.75 244.535 2862.35 248.085 2857.33 245.111C2851.52 241.667 2846.94 242 2839.56 242C2833.58 242 2826.28 243.314 2821.11 240.444C2816.1 237.659 2810.71 232.661 2806.44 229.556C2795.89 221.879 2786.38 205.641 2792.44 192C2797.56 180.493 2813.96 174 2826 174H2854Z" fill="white"/>
<path d="M2880 182C2869.82 177.639 2864.83 174 2854 174C2844.67 174 2835.33 174 2826 174C2813.96 174 2797.56 180.493 2792.44 192C2786.38 205.641 2795.89 221.879 2806.44 229.556C2810.71 232.661 2816.1 237.659 2821.11 240.444C2826.28 243.314 2833.58 242 2839.56 242C2846.94 242 2851.52 241.667 2857.33 245.111C2862.35 248.085 2877.75 244.535 2884 244C2898.42 242.764 2912.76 222.894 2912 210C2911.53 202.015 2884.18 198.639 2878.44 195.111C2874.92 192.94 2868.18 187.771 2868 183.556C2867.88 180.76 2872.48 172.958 2874 176" stroke="black" stroke-width="2" stroke-linecap="round"/>
<path d="M5315.45 250C5315.45 243.616 5315.16 237.293 5316.11 231H5318.45C5321.16 231 5319.53 232.016 5320.9 233.556C5323.03 235.959 5321.44 238.759 5323.23 241.222C5324.04 242.342 5324.46 258.783 5323.9 258.944C5322.71 259.284 5315.81 259.517 5315.51 258.444C5314.82 256.038 5315.45 252.53 5315.45 250Z" fill="white"/>
<path d="M5316.45 229C5315.09 235.954 5315.45 242.939 5315.45 250C5315.45 252.53 5314.82 256.038 5315.51 258.444C5315.81 259.517 5322.71 259.284 5323.9 258.944C5324.46 258.783 5324.04 242.342 5323.23 241.222C5321.44 238.759 5323.03 235.959 5320.9 233.556C5319.53 232.016 5321.16 231 5318.45 231C5317.12 231 5315.78 231 5314.45 231" stroke="black" stroke-width="2" stroke-linecap="round"/>
<path d="M5328.45 173C5335.31 173 5339.83 174.459 5344.8 176.637C5343.49 178.553 5342.39 181.17 5342.45 182.556C5342.63 186.771 5349.37 191.94 5352.9 194.111C5358.63 197.639 5385.98 201.015 5386.45 209C5387.21 221.894 5372.88 241.764 5358.45 243C5352.2 243.535 5336.8 247.085 5331.78 244.111C5325.97 240.667 5321.39 241 5314.01 241C5308.03 241 5300.73 242.314 5295.56 239.444C5290.55 236.659 5285.17 231.661 5280.9 228.556C5270.34 220.879 5260.83 204.641 5266.9 191C5272.01 179.493 5288.41 173 5300.45 173H5328.45Z" fill="white"/>
<path d="M5354.45 181C5344.28 176.639 5339.28 173 5328.45 173C5319.12 173 5309.78 173 5300.45 173C5288.41 173 5272.01 179.493 5266.9 191C5260.83 204.641 5270.34 220.879 5280.9 228.556C5285.17 231.661 5290.55 236.659 5295.56 239.444C5300.73 242.314 5308.03 241 5314.01 241C5321.39 241 5325.97 240.667 5331.78 244.111C5336.8 247.085 5352.2 243.535 5358.45 243C5372.88 241.764 5387.21 221.894 5386.45 209C5385.98 201.015 5358.63 197.639 5352.9 194.111C5349.37 191.94 5342.63 186.771 5342.45 182.556C5342.34 179.76 5346.93 171.958 5348.45 175" stroke="black" stroke-width="2" stroke-linecap="round"/>
<path d="M2348.04 260.162H2334.27C2327.06 260.668 2319.9 261.581 2317.25 261.581C2307.44 261.581 2311.38 257.845 2314.36 253.855C2317.22 250.015 2322.24 248.809 2328.37 248.809C2344.04 248.809 2357.62 248.094 2372.41 244.867C2388.11 241.443 2403.27 250.228 2418.89 250.228C2432.89 250.228 2430.9 242.717 2430.9 235.328C2430.9 228.604 2431.38 222.516 2436.13 216.565C2442.71 208.316 2456.06 204.176 2468.93 209.154C2475.91 211.851 2482.17 212.111 2488.06 216.013C2490.81 217.834 2497.71 219.425 2501.41 220.113C2512.65 222.201 2583.86 254.677 2586.59 251.017C2587.74 249.476 2585.54 246.109 2589.04 245.971C2593.26 245.805 2598.06 246.536 2602.16 245.656C2606.78 244.663 2607.43 238.352 2611.5 236.353C2614.49 234.885 2620.91 243.187 2621.96 244.394C2628.24 251.688 2633.55 235.459 2636.86 231.938C2637.32 231.441 2637.96 234.152 2638.3 234.697C2639.85 237.129 2642.16 239.302 2643.97 241.635C2646.98 245.506 2648.24 246.488 2652.09 243.212C2656.05 239.842 2660.41 234.473 2663.32 241.714C2665.11 246.157 2675.34 251.009 2670.89 256.535C2669.7 258.007 2664.08 257.324 2661.99 257.324C2657.69 257.324 2657.64 260.162 2653.98 260.162H2626.29H2577.47H2348.04Z" fill="white"/>
<path d="M2318.8 260.162C2405.03 260.162 2491.25 260.162 2577.47 260.162C2593.75 260.162 2610.02 260.162 2626.29 260.162C2635.52 260.162 2644.75 260.162 2653.98 260.162C2657.64 260.162 2657.69 257.324 2661.99 257.324C2664.08 257.324 2669.7 258.007 2670.89 256.535C2675.34 251.009 2665.11 246.157 2663.32 241.714C2660.41 234.473 2656.05 239.842 2652.09 243.212C2648.24 246.488 2646.98 245.506 2643.97 241.635C2642.16 239.302 2639.85 237.129 2638.3 234.697C2637.96 234.152 2637.32 231.441 2636.86 231.938C2633.55 235.459 2628.24 251.688 2621.96 244.394C2620.91 243.187 2614.49 234.885 2611.5 236.353C2607.43 238.352 2606.78 244.663 2602.16 245.656C2598.06 246.536 2593.26 245.805 2589.04 245.971C2585.54 246.109 2587.74 249.476 2586.59 251.017C2583.86 254.677 2512.65 222.201 2501.41 220.113C2497.71 219.425 2490.81 217.834 2488.06 216.013C2482.17 212.111 2475.91 211.851 2468.93 209.154C2456.06 204.176 2442.71 208.316 2436.13 216.565C2431.38 222.516 2430.9 228.604 2430.9 235.328C2430.9 242.717 2432.89 250.228 2418.89 250.228C2403.27 250.228 2388.11 241.443 2372.41 244.867C2357.62 248.094 2344.04 248.809 2328.37 248.809C2322.24 248.809 2317.22 250.015 2314.36 253.855C2311.38 257.845 2307.44 261.581 2317.25 261.581C2323.3 261.581 2352.83 256.828 2352.83 263" stroke="black" stroke-width="2" stroke-linecap="round"/>
<path d="M2009.1 143.78C2020.46 143.78 2027.46 147.809 2037.74 149.264C2036.95 153.218 2037.16 156.634 2040.99 160.78C2045.34 165.49 2044.86 171.788 2049.1 176.558C2056.84 185.259 2061.47 196.756 2052.66 207.336C2046.65 214.548 2036.05 220.307 2026.1 214.78C2020.66 211.758 2014.66 208.616 2009.21 205.891C2002.8 202.683 1992.18 202.015 1987.1 197.78C1981.83 193.388 1972.1 197.165 1968.66 190.669C1966.6 186.78 1959.28 185.75 1959.1 181.336C1958.59 168.666 1959.66 156.745 1969.99 147.891C1978.79 140.345 1998.1 143.78 2009.1 143.78Z" fill="white"/>
<path d="M2045.1 149.78C2030.33 149.78 2022.97 143.78 2009.1 143.78C1998.1 143.78 1978.79 140.345 1969.99 147.891C1959.66 156.745 1958.59 168.666 1959.1 181.336C1959.28 185.75 1966.6 186.78 1968.66 190.669C1972.1 197.165 1981.83 193.388 1987.1 197.78C1992.18 202.015 2002.8 202.683 2009.21 205.891C2014.66 208.616 2020.66 211.758 2026.1 214.78C2036.05 220.307 2046.65 214.548 2052.66 207.336C2061.47 196.756 2056.84 185.259 2049.1 176.558C2044.86 171.788 2045.34 165.49 2040.99 160.78C2035.52 154.857 2037.44 150.423 2039.1 143.78" stroke="black" stroke-width="2" stroke-linecap="round"/>
<path d="M1998 244V209C1998 203.739 2002 197.34 2002 206C2002 211.431 2001.22 217.522 2002.11 222.889C2003.08 228.682 2008 231.337 2008 237V251.444C2008 254.992 2003.47 261.271 1999.11 258.778C1996.42 257.238 1998 246.941 1998 244Z" fill="white"/>
<path d="M1998 201C1998 215.333 1998 229.667 1998 244C1998 246.941 1996.42 257.238 1999.11 258.778C2003.47 261.271 2008 254.992 2008 251.444C2008 246.63 2008 241.815 2008 237C2008 231.337 2003.08 228.682 2002.11 222.889C2001.22 217.522 2002 211.431 2002 206C2002 197.34 1998 203.739 1998 209" stroke="black" stroke-width="2" stroke-linecap="round"/>
<path d="M1860 266H1824.21C1826.43 261.52 1824.29 255.764 1829 252C1833.86 248.11 1839.7 242 1847 242H1860.89C1864.93 242 1863.75 247.118 1867.22 247.889C1876.73 250.002 1887.78 252 1897.89 252C1907.35 252 1914.7 248 1925 248H1953.11H1980.11H1999C2005.68 248 2008.11 245.905 2014 244.222C2024.67 241.173 2024.76 252.386 2030.44 256.889C2039.41 263.984 2019.01 260 2013.56 260H1950.44C1942.24 260 1935.19 262 1926.44 262C1916.69 262 1905.94 260.14 1897.56 265.111C1889.29 270.01 1869.42 266 1860 266Z" fill="white"/>
<path d="M1822 266C1834.67 266 1847.33 266 1860 266C1869.42 266 1889.29 270.01 1897.56 265.111C1905.94 260.14 1916.69 262 1926.44 262C1935.19 262 1942.24 260 1950.44 260C1971.48 260 1992.52 260 2013.56 260C2019.01 260 2039.41 263.984 2030.44 256.889C2024.76 252.386 2024.67 241.173 2014 244.222C2008.11 245.905 2005.68 248 1999 248C1992.7 248 1986.41 248 1980.11 248C1971.11 248 1962.11 248 1953.11 248C1943.74 248 1934.37 248 1925 248C1914.7 248 1907.35 252 1897.89 252C1887.78 252 1876.73 250.002 1867.22 247.889C1863.75 247.118 1864.93 242 1860.89 242C1856.26 242 1851.63 242 1847 242C1839.7 242 1833.86 248.11 1829 252C1822.69 257.045 1828.67 265.665 1820 270" stroke="black" stroke-width="2" stroke-linecap="round"/>
<path d="M4900.67 275.429H4960.91C4957.18 263.588 4960.77 248.377 4952.85 238.429C4944.67 228.148 4934.85 212 4922.55 212H4899.18C4892.38 212 4894.36 225.526 4888.52 227.563C4872.51 233.147 4853.91 238.429 4836.9 238.429C4820.98 238.429 4808.6 227.857 4791.26 227.857H4743.95H4698.5H4666.71C4655.47 227.857 4651.37 222.319 4641.46 217.873C4623.49 209.814 4623.35 239.45 4613.78 251.349C4598.69 270.1 4633.03 259.571 4642.21 259.571H4748.44C4762.24 259.571 4774.1 264.857 4788.83 264.857C4805.26 264.857 4823.34 259.942 4837.46 273.079C4851.37 286.027 4884.81 275.429 4900.67 275.429Z" fill="white"/>
<path d="M4964.63 275.429C4943.31 275.429 4921.99 275.429 4900.67 275.429C4884.81 275.429 4851.37 286.027 4837.46 273.079C4823.34 259.942 4805.26 264.857 4788.83 264.857C4774.1 264.857 4762.24 259.571 4748.44 259.571C4713.03 259.571 4677.62 259.571 4642.21 259.571C4633.03 259.571 4598.69 270.1 4613.78 251.349C4623.35 239.45 4623.49 209.814 4641.46 217.873C4651.37 222.319 4655.47 227.857 4666.71 227.857C4677.3 227.857 4687.9 227.857 4698.5 227.857C4713.65 227.857 4728.8 227.857 4743.95 227.857C4759.72 227.857 4775.49 227.857 4791.26 227.857C4808.6 227.857 4820.98 238.429 4836.9 238.429C4853.91 238.429 4872.51 233.147 4888.52 227.563C4894.36 225.526 4892.38 212 4899.18 212C4906.97 212 4914.76 212 4922.55 212C4934.85 212 4944.67 228.148 4952.85 238.429C4963.47 251.761 4953.41 274.544 4968 286" stroke="black" stroke-width="2" stroke-linecap="round"/>
<path d="M2275.76 233.197C2281.11 217.44 2284.09 200.568 2289.59 184.267C2297.27 190.926 2287.56 206.706 2285.24 213.533C2281.13 225.631 2290.11 240.395 2285.64 253.569C2279.26 272.316 2273.45 239.992 2275.76 233.197Z" fill="white"/>
<path d="M2289.7 183.926C2284.13 200.333 2281.15 217.331 2275.76 233.197C2273.45 239.992 2279.26 272.316 2285.64 253.569C2290.11 240.395 2281.13 225.631 2285.24 213.533C2287.76 206.136 2298.95 188.229 2287.29 182.8" stroke="black" stroke-width="2" stroke-linecap="round"/>
<path d="M2247.28 116H2288.28C2293.18 124.346 2287.97 136.635 2295.16 143.97C2300.06 148.964 2315.33 160.122 2315.81 167.517C2316.36 175.902 2316.5 199.022 2304.65 202.382C2291.92 205.989 2278.05 207.147 2265.03 210.838C2249.1 215.353 2233.96 212.878 2223.73 202.642C2217.65 196.561 2215.97 169.083 2220.82 161.663C2227.7 151.132 2227.2 138.016 2234.74 127.188C2238.34 122.017 2237.64 116 2247.28 116Z" fill="white" stroke="black" stroke-width="2" stroke-linecap="round"/>
<path d="M2239.17 149.911C2238.75 153.405 2237.67 155.108 2235.36 156.724C2234.38 158.552 2234.09 158.51 2232.37 159.185C2230.99 159.73 2229.34 161.08 2228.09 161.47C2225.17 162.379 2222.91 163.225 2219.72 162.844C2217.76 162.61 2216.03 161.891 2214.55 160.322C2213.51 159.212 2212.99 160.008 2212.33 158.319C2212.06 157.644 2211.36 156.353 2210.92 155.863C2208.16 152.824 2212.51 147.223 2213.51 144.732C2214.42 142.462 2219.3 138.854 2221.21 138.66C2222.89 138.49 2223.79 137.4 2225.85 137.646L2230.33 138.181C2233.87 138.602 2237.27 139.943 2238.55 144.499C2238.89 145.726 2239.72 145.261 2239.52 146.903L2239.17 149.911Z" fill="white"/>
<path d="M2234.91 157.029C2237.53 155.315 2238.72 153.625 2239.17 149.911C2239.28 148.908 2239.4 147.906 2239.52 146.903C2239.72 145.261 2238.89 145.726 2238.55 144.499C2237.27 139.943 2233.87 138.602 2230.33 138.181C2228.84 138.002 2227.34 137.824 2225.85 137.646C2223.79 137.4 2222.89 138.49 2221.21 138.66C2219.3 138.854 2214.42 142.462 2213.51 144.732C2212.51 147.223 2208.16 152.824 2210.92 155.863C2211.36 156.353 2212.06 157.644 2212.33 158.319C2212.99 160.008 2213.51 159.212 2214.55 160.322C2216.03 161.891 2217.76 162.61 2219.72 162.844C2222.91 163.225 2225.17 162.379 2228.09 161.47C2229.34 161.08 2230.99 159.73 2232.37 159.185C2234.21 158.466 2234.41 158.561 2235.56 156.344" stroke="black" stroke-width="2" stroke-linecap="round"/>
<path d="M4268.45 245.077C4268.45 235.287 4268.16 225.591 4269.11 215.941H4271.45C4274.16 215.941 4272.53 217.498 4273.9 219.86C4276.03 223.546 4274.44 227.839 4276.23 231.616C4277.04 233.334 4277.46 258.545 4276.9 258.793C4275.71 259.314 4268.81 259.671 4268.51 258.026C4267.82 254.336 4268.45 248.956 4268.45 245.077Z" fill="white"/>
<path d="M4269.45 212.874C4268.09 223.537 4268.45 234.249 4268.45 245.077C4268.45 248.956 4267.82 254.336 4268.51 258.026C4268.81 259.671 4275.71 259.314 4276.9 258.793C4277.46 258.545 4277.04 233.334 4276.23 231.616C4274.44 227.839 4276.03 223.546 4273.9 219.86C4272.53 217.498 4274.16 215.941 4271.45 215.941C4270.12 215.941 4268.78 215.941 4267.45 215.941" stroke="black" stroke-width="2" stroke-linecap="round"/>
<path d="M4281.45 127C4288.31 127 4292.83 129.238 4297.8 132.578C4296.49 135.515 4295.39 139.528 4295.45 141.653C4295.63 148.118 4302.37 156.044 4305.9 159.373C4311.63 164.782 4338.98 169.96 4339.45 182.205C4340.21 201.977 4325.88 232.447 4311.45 234.342C4305.2 235.164 4289.8 240.606 4284.78 236.046C4278.97 230.764 4274.39 231.275 4267.01 231.275C4261.03 231.275 4253.73 233.29 4248.56 228.89C4243.55 224.618 4238.17 216.954 4233.9 212.192C4223.34 200.421 4213.83 175.521 4219.9 154.602C4225.01 136.957 4241.41 127 4253.45 127H4281.45Z" fill="white"/>
<path d="M4307.45 139.268C4297.28 132.58 4292.28 127 4281.45 127C4272.12 127 4262.78 127 4253.45 127C4241.41 127 4225.01 136.957 4219.9 154.602C4213.83 175.521 4223.34 200.421 4233.9 212.192C4238.17 216.954 4243.55 224.618 4248.56 228.89C4253.73 233.29 4261.03 231.275 4267.01 231.275C4274.39 231.275 4278.97 230.764 4284.78 236.046C4289.8 240.606 4305.2 235.164 4311.45 234.342C4325.88 232.447 4340.21 201.977 4339.45 182.205C4338.98 169.96 4311.63 164.782 4305.9 159.373C4302.37 156.044 4295.63 148.118 4295.45 141.653C4295.34 137.366 4299.93 125.403 4301.45 130.067" stroke="black" stroke-width="2" stroke-linecap="round"/>
<path d="M4248.17 205.911C4247.75 209.405 4246.67 211.108 4244.36 212.724C4243.38 214.552 4243.1 214.51 4241.37 215.185C4239.99 215.73 4238.34 217.08 4237.09 217.47C4234.17 218.379 4231.91 219.225 4228.72 218.844C4226.76 218.61 4225.03 217.891 4223.55 216.322C4222.51 215.212 4221.99 216.008 4221.33 214.319C4221.06 213.644 4220.36 212.353 4219.92 211.863C4217.16 208.824 4221.51 203.223 4222.51 200.732C4223.42 198.462 4228.3 194.854 4230.21 194.66C4231.89 194.49 4232.79 193.4 4234.85 193.646L4239.33 194.181C4242.87 194.602 4246.27 195.943 4247.55 200.499C4247.89 201.726 4248.72 201.261 4248.52 202.903L4248.17 205.911Z" fill="white"/>
<path d="M4243.91 213.029C4246.53 211.315 4247.72 209.625 4248.17 205.911C4248.29 204.908 4248.4 203.906 4248.52 202.903C4248.72 201.261 4247.89 201.726 4247.55 200.499C4246.27 195.943 4242.87 194.602 4239.33 194.181C4237.84 194.002 4236.34 193.824 4234.85 193.646C4232.79 193.4 4231.89 194.49 4230.21 194.66C4228.3 194.854 4223.42 198.462 4222.51 200.732C4221.51 203.223 4217.16 208.824 4219.92 211.863C4220.36 212.353 4221.06 213.644 4221.33 214.319C4221.99 216.008 4222.51 215.212 4223.55 216.322C4225.03 217.891 4226.76 218.61 4228.72 218.844C4231.91 219.225 4234.17 218.379 4237.09 217.47C4238.34 217.08 4239.99 215.73 4241.37 215.185C4243.21 214.466 4243.41 214.561 4244.56 212.344" stroke="black" stroke-width="2" stroke-linecap="round"/>
<path d="M3523.1 239.939C3523.1 226.596 3523.43 213.381 3522.36 200.227H3519.72C3516.66 200.227 3518.51 202.35 3516.96 205.569C3514.55 210.593 3516.35 216.445 3514.33 221.593C3513.41 223.934 3512.94 258.297 3513.58 258.634C3514.92 259.345 3522.7 259.831 3523.04 257.589C3523.82 252.56 3523.1 245.227 3523.1 239.939Z" fill="white"/>
<path d="M3521.98 196.047C3523.51 210.581 3523.1 225.182 3523.1 239.939C3523.1 245.227 3523.82 252.56 3523.04 257.589C3522.7 259.831 3514.92 259.345 3513.58 258.634C3512.94 258.297 3513.41 223.934 3514.33 221.593C3516.35 216.445 3514.55 210.593 3516.96 205.569C3518.51 202.35 3516.66 200.227 3519.72 200.227C3521.22 200.227 3522.73 200.227 3524.23 200.227" stroke="black" stroke-width="2" stroke-linecap="round"/>
<path d="M3508.44 79C3500.71 79 3495.61 82.0502 3490 86.6026C3491.48 90.6063 3492.72 96.0753 3492.65 98.9723C3492.46 107.783 3484.85 118.588 3480.88 123.125C3474.41 130.498 3443.56 137.555 3443.03 154.244C3442.18 181.194 3458.34 222.724 3474.61 225.308C3481.66 226.428 3499.02 233.846 3504.68 227.631C3511.24 220.431 3516.4 221.128 3524.73 221.128C3531.47 221.128 3539.71 223.874 3545.53 217.877C3551.19 212.054 3557.26 201.607 3562.07 195.118C3573.98 179.073 3584.7 145.134 3577.86 116.622C3572.09 92.5712 3553.6 79 3540.02 79H3508.44Z" fill="white"/>
<path d="M3479.12 95.721C3490.6 86.6053 3496.23 79 3508.44 79C3518.97 79 3529.49 79 3540.02 79C3553.6 79 3572.09 92.5712 3577.86 116.622C3584.7 145.134 3573.98 179.073 3562.07 195.118C3557.26 201.607 3551.19 212.054 3545.53 217.877C3539.71 223.874 3531.47 221.128 3524.73 221.128C3516.4 221.128 3511.24 220.431 3504.68 227.631C3499.02 233.846 3481.66 226.428 3474.61 225.308C3458.34 222.724 3442.18 181.194 3443.03 154.244C3443.56 137.555 3474.41 130.498 3480.88 123.125C3484.85 118.588 3492.46 107.783 3492.65 98.9723C3492.79 93.1292 3487.6 76.8228 3485.89 83.1802" stroke="black" stroke-width="2" stroke-linecap="round"/>
<path d="M3463.76 53C3477.29 53 3484.29 55.6893 3491.51 62.1611C3498.93 64.4724 3498.91 65.3696 3502.26 70.3841C3504.98 74.4344 3510.88 78.9591 3512.94 82.6495C3517.74 91.2434 3522 97.869 3522 107.76C3522 113.84 3520.04 119.386 3514.72 124.468C3510.96 128.063 3514.23 129.359 3508.09 132.001C3505.63 133.058 3501.02 135.676 3499.35 137.216C3489.01 146.762 3465.64 135.495 3455.68 133.353C3446.6 131.401 3430.59 117.774 3428.99 112.009C3427.57 106.937 3423 104.595 3423 98.1986V84.2914C3423 73.3187 3426.57 62.4393 3443.38 56.8631C3447.91 55.3615 3445.76 53 3452.12 53H3463.76Z" fill="white"/>
<path d="M3492.88 63.4305C3485.14 56.039 3478.15 53 3463.76 53C3459.88 53 3456 53 3452.12 53C3445.76 53 3447.91 55.3615 3443.38 56.8631C3426.57 62.4393 3423 73.3187 3423 84.2914C3423 88.9271 3423 93.5629 3423 98.1986C3423 104.595 3427.57 106.937 3428.99 112.009C3430.59 117.774 3446.6 131.401 3455.68 133.353C3465.64 135.495 3489.01 146.762 3499.35 137.216C3501.02 135.676 3505.63 133.058 3508.09 132.001C3514.23 129.359 3510.96 128.063 3514.72 124.468C3520.04 119.386 3522 113.84 3522 107.76C3522 97.869 3517.74 91.2434 3512.94 82.6495C3510.88 78.9591 3504.98 74.4344 3502.26 70.3841C3498.69 65.0444 3498.95 64.3734 3489.97 61.692" stroke="black" stroke-width="2" stroke-linecap="round"/>
<path d="M4141.46 259.581H4169.91C4184.81 259.834 4199.61 260.29 4205.09 260.29C4225.35 260.29 4217.22 258.422 4211.06 256.427C4205.14 254.507 4194.77 253.905 4182.11 253.905C4149.72 253.905 4121.67 253.547 4091.11 251.934C4058.66 250.221 4027.33 254.614 3995.05 254.614C3966.12 254.614 3970.23 250.858 3970.23 247.164C3970.23 243.802 3969.23 240.758 3959.43 237.782C3945.83 233.658 3918.24 231.588 3891.63 234.077C3877.22 235.426 3864.29 235.556 3852.11 237.506C3846.42 238.417 3832.18 239.213 3824.53 239.556C3801.28 240.6 3654.14 256.839 3648.5 255.008C3646.12 254.238 3650.67 252.554 3643.44 252.486C3634.72 252.402 3624.79 252.768 3616.32 252.328C3606.77 251.831 3605.44 248.676 3597.02 247.676C3590.84 246.943 3577.57 251.094 3575.42 251.697C3562.42 255.344 3551.47 247.23 3544.62 245.469C3543.66 245.221 3542.35 246.576 3541.64 246.849C3538.45 248.064 3533.65 249.151 3529.92 250.318C3523.71 252.253 3521.1 252.744 3513.14 251.106C3504.95 249.421 3495.96 246.737 3489.93 250.357C3486.23 252.578 3465.1 255.005 3474.3 257.768C3476.75 258.503 3488.36 258.162 3492.69 258.162C3501.57 258.162 3501.68 259.581 3509.23 259.581H3566.45H3667.34H4141.46Z" fill="white"/>
<path d="M4201.87 259.581C4023.69 259.581 3845.52 259.581 3667.34 259.581C3633.71 259.581 3600.08 259.581 3566.45 259.581C3547.38 259.581 3528.31 259.581 3509.23 259.581C3501.68 259.581 3501.57 258.162 3492.69 258.162C3488.36 258.162 3476.75 258.503 3474.3 257.768C3465.1 255.005 3486.23 252.578 3489.93 250.357C3495.96 246.737 3504.95 249.421 3513.14 251.106C3521.1 252.744 3523.71 252.253 3529.92 250.318C3533.65 249.151 3538.45 248.064 3541.64 246.849C3542.35 246.576 3543.66 245.221 3544.62 245.469C3551.47 247.23 3562.42 255.344 3575.42 251.697C3577.57 251.094 3590.84 246.943 3597.02 247.676C3605.44 248.676 3606.77 251.831 3616.32 252.328C3624.79 252.768 3634.72 252.402 3643.44 252.486C3650.67 252.554 3646.12 254.238 3648.5 255.008C3654.14 256.839 3801.28 240.6 3824.53 239.556C3832.18 239.213 3846.42 238.417 3852.11 237.506C3864.29 235.556 3877.22 235.426 3891.63 234.077C3918.24 231.588 3945.83 233.658 3959.43 237.782C3969.23 240.758 3970.23 243.802 3970.23 247.164C3970.23 250.858 3966.12 254.614 3995.05 254.614C4027.33 254.614 4058.66 250.221 4091.11 251.934C4121.67 253.547 4149.72 253.905 4182.11 253.905C4194.77 253.905 4205.14 254.507 4211.06 256.427C4217.22 258.422 4225.35 260.29 4205.09 260.29C4192.58 260.29 4131.55 257.914 4131.55 261" stroke="black" stroke-width="2" stroke-linecap="round"/>
</svg>
