<svg width="5400" height="267" viewBox="0 0 5400 267" fill="none" xmlns="http://www.w3.org/2000/svg">
<path d="M523.556 21.7364C536.562 4.72756 564.144 -8.77126 580.82 10.3079C582.806 15.5147 587.022 21.7451 592 23.7364C596.655 25.5983 598.42 35.5046 604 37.7364C610.073 40.1657 606 79.0681 606 86.6253C606 91.5204 606.234 109.085 602 111.625C599.905 112.882 594 133.603 594 136.625C594 143.775 578.952 154.745 572.889 155.848C564.078 157.449 558.159 157.226 549.889 155.848C542.396 154.599 536.231 151.596 530.889 146.848C522.218 139.14 519.162 137.358 518 125.736C517.525 120.989 514 118.283 514 112.848V99.7364V72.8475C514 58.5698 514.779 33.2128 523.556 21.7364Z" fill="white"/>
<path d="M582 11.7364C565.474 -9.41637 536.874 4.31986 523.556 21.7364C514.779 33.2128 514 58.5698 514 72.8475C514 81.8105 514 90.7735 514 99.7364C514 104.107 514 108.477 514 112.848C514 118.283 517.525 120.989 518 125.736C519.162 137.358 522.218 139.14 530.889 146.848C536.231 151.596 542.396 154.599 549.889 155.848C558.159 157.226 564.078 157.449 572.889 155.848C578.952 154.745 594 143.775 594 136.625C594 133.603 599.905 112.882 602 111.625C606.234 109.085 606 91.5204 606 86.6253C606 79.0681 610.073 40.1657 604 37.7364C598.42 35.5046 596.655 25.5983 592 23.7364C586.165 21.4023 581.377 13.2436 580 7.73644" stroke="black" stroke-width="2" stroke-linecap="round"/>
<path d="M558 202.292C558 185.674 554.822 170.95 554.131 154.737C567.442 154.846 568 171.588 568 183.181C568 199.558 571.27 214.673 570 231.181C569.643 235.817 562.71 235.4 559.222 234.625C556.913 234.112 558 227.614 558 225.736V202.292Z" fill="white"/>
<path d="M554 148.736C554 167.388 558 183.649 558 202.292C558 210.107 558 217.922 558 225.736C558 227.614 556.913 234.112 559.222 234.625C562.71 235.4 569.643 235.817 570 231.181C571.27 214.673 568 199.558 568 183.181C568 171.55 567.438 154.736 554 154.736" stroke="black" stroke-width="2" stroke-linecap="round"/>
<path d="M112.444 157.181C114.183 150.052 120.102 148.765 126.259 148.635C154.2 137.923 166.034 208.737 135 208.737C126.343 208.737 119.979 210.441 114.444 204.292C109.347 198.628 106 193.799 106 185.848C106 174.853 109.924 167.514 112.444 157.181Z" fill="white"/>
<path d="M134 148.737C125.949 148.737 114.929 146.994 112.444 157.181C109.924 167.514 106 174.853 106 185.848C106 193.799 109.347 198.628 114.444 204.292C119.979 210.441 126.343 208.737 135 208.737C166.129 208.737 154.127 137.486 126 148.737" stroke="black" stroke-width="2" stroke-linecap="round"/>
<path d="M127 225.737C127 219.353 126.708 213.03 127.655 206.737H130C132.712 206.737 131.076 207.752 132.444 209.292C134.581 211.696 132.986 214.496 134.778 216.959C135.592 218.079 136.01 234.519 135.444 234.681C134.254 235.021 127.362 235.254 127.056 234.181C126.368 231.775 127 228.266 127 225.737Z" fill="white"/>
<path d="M128 204.737C126.643 211.69 127 218.676 127 225.737C127 228.266 126.368 231.775 127.056 234.181C127.362 235.254 134.254 235.021 135.444 234.681C136.01 234.519 135.592 218.079 134.778 216.959C132.986 214.496 134.581 211.696 132.444 209.292C131.076 207.752 132.712 206.737 130 206.737C128.667 206.737 127.333 206.737 126 206.737" stroke="black" stroke-width="2" stroke-linecap="round"/>
<path d="M454.487 179.454C455.697 174.491 459.818 173.595 464.104 173.505C483.556 166.047 491.795 215.346 470.189 215.346C464.162 215.346 459.732 216.533 455.879 212.252C452.33 208.309 450 204.947 450 199.411C450 191.757 452.732 186.647 454.487 179.454Z" fill="white"/>
<path d="M469.493 173.575C463.888 173.575 456.216 172.362 454.487 179.454C452.732 186.647 450 191.757 450 199.411C450 204.947 452.33 208.309 455.879 212.252C459.732 216.533 464.162 215.346 470.189 215.346C491.861 215.346 483.505 165.743 463.924 173.575" stroke="black" stroke-width="1.39237" stroke-linecap="round"/>
<path d="M464.62 227.181C464.62 222.737 464.417 218.335 465.076 213.954H466.709C468.597 213.954 467.457 214.661 468.41 215.733C469.898 217.407 468.788 219.356 470.035 221.07C470.602 221.85 470.893 233.296 470.499 233.408C469.67 233.645 464.872 233.807 464.659 233.06C464.18 231.385 464.62 228.943 464.62 227.181Z" fill="white"/>
<path d="M465.316 212.562C464.372 217.403 464.62 222.266 464.62 227.181C464.62 228.943 464.18 231.385 464.659 233.06C464.872 233.807 469.67 233.645 470.499 233.408C470.893 233.296 470.602 221.85 470.035 221.07C468.788 219.356 469.898 217.407 468.41 215.733C467.457 214.661 468.597 213.954 466.709 213.954C465.78 213.954 464.852 213.954 463.924 213.954" stroke="black" stroke-width="1.39237" stroke-linecap="round"/>
<path d="M1056 214.736C1056 200.336 1054.03 185.931 1054 171.048C1061.1 173.479 1058 189.497 1058 195.736C1058 206.792 1068 215.141 1068 227.181C1068 244.314 1056 220.945 1056 214.736Z" fill="white"/>
<path d="M1054 170.736C1054 185.73 1056 200.236 1056 214.736C1056 220.945 1068 244.314 1068 227.181C1068 215.141 1058 206.792 1058 195.736C1058 188.976 1061.64 170.736 1052 170.736" stroke="black" stroke-width="2" stroke-linecap="round"/>
<path d="M1044 96.7363C1053.29 96.7363 1058.1 99.8303 1063.06 107.276C1068.16 109.935 1068.14 110.967 1070.44 116.736C1072.31 121.396 1076.36 126.602 1077.78 130.847C1081.07 140.735 1084 148.357 1084 159.736C1084 166.731 1082.65 173.112 1079 178.959C1076.41 183.095 1078.67 184.586 1074.44 187.625C1072.76 188.841 1069.59 191.853 1068.44 193.625C1061.34 204.607 1045.29 191.645 1038.44 189.181C1032.21 186.935 1021.22 171.258 1020.11 164.625C1019.14 158.79 1016 156.095 1016 148.736V132.736C1016 120.113 1018.45 107.596 1030 101.181C1033.11 99.4532 1031.63 96.7363 1036 96.7363H1044Z" fill="white"/>
<path d="M1064 108.736C1058.69 100.233 1053.88 96.7363 1044 96.7363C1041.33 96.7363 1038.67 96.7363 1036 96.7363C1031.63 96.7363 1033.11 99.4532 1030 101.181C1018.45 107.596 1016 120.113 1016 132.736C1016 138.07 1016 143.403 1016 148.736C1016 156.095 1019.14 158.79 1020.11 164.625C1021.22 171.258 1032.21 186.935 1038.44 189.181C1045.29 191.645 1061.34 204.607 1068.44 193.625C1069.59 191.853 1072.76 188.841 1074.44 187.625C1078.67 184.586 1076.41 183.095 1079 178.959C1082.65 173.112 1084 166.731 1084 159.736C1084 148.357 1081.07 140.735 1077.78 130.847C1076.36 126.602 1072.31 121.396 1070.44 116.736C1067.99 110.593 1068.17 109.821 1062 106.736" stroke="black" stroke-width="2" stroke-linecap="round"/>
<path d="M624 225.736C624 219.352 623.708 213.03 624.655 206.736H627C629.712 206.736 628.076 207.752 629.444 209.292C631.581 211.696 629.986 214.496 631.778 216.959C632.592 218.078 633.01 234.519 632.444 234.681C631.254 235.021 624.362 235.253 624.056 234.181C623.368 231.775 624 228.266 624 225.736Z" fill="white"/>
<path d="M625 204.736C623.643 211.69 624 218.676 624 225.736C624 228.266 623.368 231.775 624.056 234.181C624.362 235.253 631.254 235.021 632.444 234.681C633.01 234.519 632.592 218.078 631.778 216.959C629.986 214.496 631.581 211.696 629.444 209.292C628.076 207.752 629.712 206.736 627 206.736C625.667 206.736 624.333 206.736 623 206.736" stroke="black" stroke-width="2" stroke-linecap="round"/>
<path d="M637 148.736C643.86 148.736 648.377 150.196 653.353 152.374C652.043 154.289 650.942 156.906 651 158.292C651.176 162.508 657.917 167.677 661.445 169.847C667.177 173.375 694.53 176.752 695 184.736C695.759 197.63 681.424 217.5 667 218.736C660.753 219.272 645.351 222.821 640.333 219.847C634.521 216.403 629.942 216.736 622.556 216.736C616.579 216.736 609.276 218.05 604.111 215.181C599.097 212.395 593.714 207.397 589.445 204.292C578.89 196.616 569.382 180.378 575.445 166.736C580.559 155.229 596.96 148.736 609 148.736H637Z" fill="white"/>
<path d="M663 156.736C652.824 152.375 647.832 148.736 637 148.736C627.667 148.736 618.333 148.736 609 148.736C596.96 148.736 580.559 155.229 575.445 166.736C569.382 180.378 578.89 196.616 589.445 204.292C593.714 207.397 599.097 212.395 604.111 215.181C609.276 218.05 616.579 216.736 622.556 216.736C629.942 216.736 634.521 216.403 640.333 219.847C645.351 222.821 660.753 219.272 667 218.736C681.424 217.5 695.759 197.63 695 184.736C694.53 176.752 667.177 173.375 661.445 169.847C657.917 167.677 651.176 162.508 651 158.292C650.884 155.496 655.479 147.695 657 150.736" stroke="black" stroke-width="2" stroke-linecap="round"/>
<path d="M58.7555 207.934C64.1119 192.177 67.0852 175.304 72.5883 159.003C80.2727 165.662 70.5617 181.443 68.2409 188.269C64.1286 200.367 73.1137 215.132 68.6354 228.306C62.2626 247.053 56.4459 214.728 58.7555 207.934Z" fill="white"/>
<path d="M72.7038 158.662C67.1265 175.069 64.1492 192.067 58.7555 207.934C56.4459 214.728 62.2626 247.053 68.6354 228.306C73.1137 215.132 64.1286 200.367 68.2409 188.269C70.7554 180.873 81.9456 162.965 70.2856 157.537" stroke="black" stroke-width="2" stroke-linecap="round"/>
<path d="M30.284 90.7363H71.2781C76.1848 99.0824 70.9747 111.372 78.1615 118.706C83.055 123.701 98.3285 134.859 98.8115 142.253C99.3593 150.639 99.4958 173.759 87.6452 177.118C74.9213 180.725 61.0487 181.883 48.0277 185.574C32.1016 190.089 16.9581 187.615 6.72766 177.378C0.650534 171.298 -1.02593 143.82 3.82136 136.399C10.7002 125.868 10.1963 112.752 17.741 101.924C21.3443 96.7529 20.6382 90.7363 30.284 90.7363Z" fill="white" stroke="black" stroke-width="2" stroke-linecap="round"/>
<path d="M131.039 235.898H117.273C110.063 236.404 102.9 237.317 100.248 237.317C90.4431 237.317 94.3765 233.581 97.3562 229.591C100.224 225.751 105.24 224.546 111.368 224.546C127.04 224.546 140.616 223.83 155.406 220.604C171.107 217.179 186.268 225.965 201.891 225.965C215.89 225.965 213.901 218.453 213.901 211.064C213.901 204.341 214.383 198.252 219.128 192.301C225.705 184.052 239.059 179.912 251.934 184.89C258.909 187.588 265.165 187.848 271.062 191.749C273.814 193.57 280.706 195.162 284.407 195.849C295.655 197.937 366.858 230.413 369.591 226.753C370.742 225.213 368.54 221.845 372.038 221.707C376.259 221.541 381.065 222.272 385.16 221.392C389.784 220.399 390.429 214.088 394.502 212.089C397.492 210.622 403.914 218.923 404.955 220.131C411.242 227.424 416.546 211.195 419.857 207.674C420.324 207.178 420.956 209.888 421.303 210.434C422.846 212.865 425.164 215.039 426.974 217.371C429.977 221.242 431.241 222.225 435.092 218.948C439.053 215.579 443.406 210.21 446.324 217.45C448.115 221.893 458.341 226.746 453.886 232.272C452.7 233.743 447.082 233.06 444.99 233.06C440.691 233.06 440.636 235.898 436.983 235.898H409.292H360.472H131.039Z" fill="white"/>
<path d="M101.805 235.898C188.027 235.898 274.25 235.898 360.472 235.898C376.746 235.898 393.019 235.898 409.292 235.898C418.522 235.898 427.753 235.898 436.983 235.898C440.636 235.898 440.691 233.06 444.99 233.06C447.082 233.06 452.7 233.743 453.886 232.272C458.341 226.746 448.115 221.893 446.324 217.45C443.406 210.21 439.053 215.579 435.092 218.948C431.241 222.225 429.977 221.242 426.974 217.371C425.164 215.039 422.846 212.865 421.303 210.434C420.956 209.888 420.324 207.178 419.857 207.674C416.546 211.195 411.242 227.424 404.955 220.131C403.914 218.923 397.492 210.622 394.502 212.089C390.429 214.088 389.784 220.399 385.16 221.392C381.065 222.272 376.259 221.541 372.038 221.707C368.54 221.845 370.742 225.213 369.591 226.753C366.858 230.413 295.655 197.937 284.407 195.849C280.706 195.162 273.814 193.57 271.062 191.749C265.165 187.848 258.909 187.588 251.934 184.89C239.059 179.912 225.705 184.052 219.128 192.301C214.383 198.252 213.901 204.341 213.901 211.064C213.901 218.453 215.89 225.965 201.891 225.965C186.268 225.965 171.107 217.179 155.406 220.604C140.616 223.83 127.04 224.546 111.368 224.546C105.24 224.546 100.224 225.751 97.3562 229.591C94.3765 233.581 90.4431 237.317 100.248 237.317C106.301 237.317 135.834 232.564 135.834 238.736" stroke="black" stroke-width="2" stroke-linecap="round"/>
<path d="M1489.38 158.668C1493.98 152.655 1503.73 147.882 1509.62 154.628C1510.33 156.468 1511.82 158.671 1513.58 159.375C1515.22 160.034 1515.85 163.536 1517.82 164.325C1519.97 165.184 1518.53 178.938 1518.53 181.61C1518.53 183.341 1518.61 189.551 1517.11 190.449C1516.37 190.894 1514.28 198.219 1514.28 199.288C1514.28 201.816 1508.96 205.695 1506.82 206.084C1503.71 206.651 1501.61 206.572 1498.69 206.084C1496.04 205.643 1493.86 204.581 1491.97 202.902C1488.91 200.177 1487.83 199.547 1487.41 195.438C1487.25 193.76 1486 192.803 1486 190.881V186.246V176.739C1486 171.691 1486.28 162.726 1489.38 158.668Z" fill="white"/>
<path d="M1510.04 155.133C1504.2 147.654 1494.09 152.51 1489.38 158.668C1486.28 162.726 1486 171.691 1486 176.739C1486 179.908 1486 183.077 1486 186.246C1486 187.791 1486 189.336 1486 190.881C1486 192.803 1487.25 193.76 1487.41 195.438C1487.83 199.547 1488.91 200.177 1491.97 202.902C1493.86 204.581 1496.04 205.643 1498.69 206.084C1501.61 206.572 1503.71 206.651 1506.82 206.084C1508.96 205.695 1514.28 201.816 1514.28 199.288C1514.28 198.219 1516.37 190.894 1517.11 190.449C1518.61 189.551 1518.53 183.341 1518.53 181.61C1518.53 178.938 1519.97 165.184 1517.82 164.325C1515.85 163.536 1515.22 160.034 1513.58 159.375C1511.51 158.55 1509.82 155.665 1509.33 153.718" stroke="black" stroke-width="2" stroke-linecap="round"/>
<path d="M1501.56 222.505C1501.56 216.63 1500.43 211.424 1500.19 205.692C1504.9 205.73 1505.09 211.649 1505.09 215.748C1505.09 221.539 1506.25 226.882 1505.8 232.719C1505.67 234.358 1503.22 234.211 1501.99 233.937C1501.17 233.755 1501.56 231.458 1501.56 230.794V222.505Z" fill="white"/>
<path d="M1500.14 203.57C1500.14 210.165 1501.56 215.914 1501.56 222.505C1501.56 225.268 1501.56 228.031 1501.56 230.794C1501.56 231.458 1501.17 233.755 1501.99 233.937C1503.22 234.211 1505.67 234.358 1505.8 232.719C1506.25 226.882 1505.09 221.539 1505.09 215.748C1505.09 211.636 1504.89 205.691 1500.14 205.691" stroke="black" stroke-width="2" stroke-linecap="round"/>
<path d="M3923.33 181.117C3925.14 176.92 3928.98 173.589 3931.31 178.297C3931.58 179.582 3932.17 181.119 3932.86 181.611C3933.51 182.07 3933.76 184.515 3934.54 185.065C3935.38 185.665 3934.81 195.265 3934.81 197.13C3934.81 198.338 3934.85 202.672 3934.26 203.299C3933.96 203.609 3933.14 208.722 3933.14 209.468C3933.14 211.232 3931.05 213.94 3930.2 214.212C3928.97 214.607 3928.15 214.552 3927 214.212C3925.96 213.903 3925.1 213.162 3924.35 211.991C3923.14 210.089 3922.72 209.649 3922.56 206.781C3922.49 205.609 3922 204.942 3922 203.601V200.365V193.73C3922 190.206 3922.11 183.949 3923.33 181.117Z" fill="white"/>
<path d="M3931.47 178.649C3929.17 173.43 3925.19 176.819 3923.33 181.117C3922.11 183.949 3922 190.206 3922 193.73C3922 195.942 3922 198.153 3922 200.365C3922 201.444 3922 202.522 3922 203.601C3922 204.942 3922.49 205.609 3922.56 206.781C3922.72 209.649 3923.14 210.089 3924.35 211.991C3925.1 213.162 3925.96 213.903 3927 214.212C3928.15 214.552 3928.97 214.607 3930.2 214.212C3931.05 213.94 3933.14 211.232 3933.14 209.468C3933.14 208.722 3933.96 203.609 3934.26 203.299C3934.85 202.672 3934.81 198.338 3934.81 197.13C3934.81 195.265 3935.38 185.665 3934.54 185.065C3933.76 184.515 3933.51 182.07 3932.86 181.611C3932.05 181.035 3931.38 179.021 3931.19 177.662" stroke="black" stroke-width="2" stroke-linecap="round"/>
<path d="M3928.13 225.673C3928.13 221.572 3927.69 217.938 3927.59 213.938C3929.44 213.965 3929.52 218.096 3929.52 220.957C3929.52 224.998 3929.98 228.728 3929.8 232.802C3929.75 233.946 3928.78 233.843 3928.3 233.652C3927.98 233.525 3928.13 231.921 3928.13 231.458V225.673Z" fill="white"/>
<path d="M3927.57 212.457C3927.57 217.06 3928.13 221.072 3928.13 225.673C3928.13 227.601 3928.13 229.53 3928.13 231.458C3928.13 231.921 3927.98 233.525 3928.3 233.652C3928.78 233.843 3929.75 233.946 3929.8 232.802C3929.98 228.728 3929.52 224.998 3929.52 220.957C3929.52 218.087 3929.44 213.937 3927.57 213.937" stroke="black" stroke-width="2" stroke-linecap="round"/>
<path d="M5387.33 181.117C5389.14 176.92 5392.98 173.589 5395.31 178.297C5395.58 179.582 5396.17 181.119 5396.86 181.611C5397.51 182.07 5397.76 184.515 5398.54 185.065C5399.38 185.665 5398.81 195.265 5398.81 197.13C5398.81 198.338 5398.85 202.672 5398.26 203.299C5397.96 203.609 5397.14 208.722 5397.14 209.468C5397.14 211.232 5395.05 213.94 5394.2 214.212C5392.97 214.607 5392.15 214.552 5391 214.212C5389.96 213.903 5389.1 213.162 5388.35 211.991C5387.14 210.089 5386.72 209.649 5386.56 206.781C5386.49 205.609 5386 204.942 5386 203.601V200.365V193.73C5386 190.206 5386.11 183.949 5387.33 181.117Z" fill="white"/>
<path d="M5395.47 178.649C5393.17 173.43 5389.19 176.819 5387.33 181.117C5386.11 183.949 5386 190.206 5386 193.73C5386 195.942 5386 198.153 5386 200.365C5386 201.444 5386 202.522 5386 203.601C5386 204.942 5386.49 205.609 5386.56 206.781C5386.72 209.649 5387.14 210.089 5388.35 211.991C5389.1 213.162 5389.96 213.903 5391 214.212C5392.15 214.552 5392.97 214.607 5394.2 214.212C5395.05 213.94 5397.14 211.232 5397.14 209.468C5397.14 208.722 5397.96 203.609 5398.26 203.299C5398.85 202.672 5398.81 198.338 5398.81 197.13C5398.81 195.265 5399.38 185.665 5398.54 185.065C5397.76 184.515 5397.51 182.07 5396.86 181.611C5396.05 181.035 5395.38 179.021 5395.19 177.662" stroke="black" stroke-width="2" stroke-linecap="round"/>
<path d="M5392.13 225.673C5392.13 221.572 5391.69 217.938 5391.59 213.938C5393.44 213.965 5393.52 218.096 5393.52 220.957C5393.52 224.998 5393.98 228.728 5393.8 232.802C5393.75 233.946 5392.78 233.843 5392.3 233.652C5391.98 233.525 5392.13 231.921 5392.13 231.458V225.673Z" fill="white"/>
<path d="M5391.57 212.457C5391.57 217.06 5392.13 221.072 5392.13 225.673C5392.13 227.601 5392.13 229.53 5392.13 231.458C5392.13 231.921 5391.98 233.525 5392.3 233.652C5392.78 233.843 5393.75 233.946 5393.8 232.802C5393.98 228.728 5393.52 224.998 5393.52 220.957C5393.52 218.087 5393.44 213.937 5391.57 213.937" stroke="black" stroke-width="2" stroke-linecap="round"/>
<path d="M2152.44 160.444C2154.18 153.315 2160.1 152.029 2166.26 151.899C2194.2 141.186 2206.03 212 2175 212C2166.34 212 2159.98 213.705 2154.44 207.555C2149.35 201.891 2146 197.062 2146 189.111C2146 178.116 2149.92 170.777 2152.44 160.444Z" fill="white"/>
<path d="M2174 152C2165.95 152 2154.93 150.257 2152.44 160.444C2149.92 170.777 2146 178.116 2146 189.111C2146 197.062 2149.35 201.891 2154.44 207.555C2159.98 213.705 2166.34 212 2175 212C2206.13 212 2194.13 140.749 2166 152" stroke="black" stroke-width="2" stroke-linecap="round"/>
<path d="M2167 229C2167 222.616 2166.71 216.293 2167.66 210H2170C2172.71 210 2171.08 211.016 2172.44 212.556C2174.58 214.959 2172.99 217.759 2174.78 220.222C2175.59 221.342 2176.01 237.783 2175.44 237.944C2174.25 238.284 2167.36 238.517 2167.06 237.444C2166.37 235.038 2167 231.53 2167 229Z" fill="white"/>
<path d="M2168 208C2166.64 214.954 2167 221.939 2167 229C2167 231.53 2166.37 235.038 2167.06 237.444C2167.36 238.517 2174.25 238.284 2175.44 237.944C2176.01 237.783 2175.59 221.342 2174.78 220.222C2172.99 217.759 2174.58 214.959 2172.44 212.556C2171.08 211.016 2172.71 210 2170 210C2168.67 210 2167.33 210 2166 210" stroke="black" stroke-width="2" stroke-linecap="round"/>
<path d="M3627.44 148.649C3629.18 141.52 3635.1 140.233 3641.26 140.103C3669.2 129.391 3681.03 200.205 3650 200.205C3641.34 200.205 3634.98 201.91 3629.44 195.76C3624.35 190.096 3621 185.267 3621 177.316C3621 166.321 3624.92 158.982 3627.44 148.649Z" fill="white"/>
<path d="M3649 140.205C3640.95 140.205 3629.93 138.462 3627.44 148.649C3624.92 158.982 3621 166.321 3621 177.316C3621 185.267 3624.35 190.096 3629.44 195.76C3634.98 201.91 3641.34 200.205 3650 200.205C3681.13 200.205 3669.13 128.954 3641 140.205" stroke="black" stroke-width="2" stroke-linecap="round"/>
<path d="M3642 217.205C3642 210.821 3641.71 204.498 3642.66 198.205H3645C3647.71 198.205 3646.08 199.22 3647.44 200.76C3649.58 203.164 3647.99 205.964 3649.78 208.427C3650.59 209.547 3651.01 225.988 3650.44 226.149C3649.25 226.489 3642.36 226.722 3642.06 225.649C3641.37 223.243 3642 219.735 3642 217.205Z" fill="white"/>
<path d="M3643 196.205C3641.64 203.159 3642 210.144 3642 217.205C3642 219.735 3641.37 223.243 3642.06 225.649C3642.36 226.722 3649.25 226.489 3650.44 226.149C3651.01 225.988 3650.59 209.547 3649.78 208.427C3647.99 205.964 3649.58 203.164 3647.44 200.76C3646.08 199.22 3647.71 198.205 3645 198.205C3643.67 198.205 3642.33 198.205 3641 198.205" stroke="black" stroke-width="2" stroke-linecap="round"/>
<path d="M2494.49 182.718C2495.7 177.754 2499.82 176.859 2504.1 176.768C2523.56 169.31 2531.79 218.61 2510.19 218.61C2504.16 218.61 2499.73 219.797 2495.88 215.516C2492.33 211.572 2490 208.21 2490 202.675C2490 195.021 2492.73 189.911 2494.49 182.718Z" fill="white"/>
<path d="M2509.49 176.839C2503.89 176.839 2496.22 175.625 2494.49 182.718C2492.73 189.911 2490 195.021 2490 202.675C2490 208.21 2492.33 211.572 2495.88 215.516C2499.73 219.797 2504.16 218.61 2510.19 218.61C2531.86 218.61 2523.51 169.006 2503.92 176.839" stroke="black" stroke-width="2" stroke-linecap="round"/>
<path d="M2504.62 230.445C2504.62 226.001 2504.42 221.599 2505.08 217.218H2506.71C2508.6 217.218 2507.46 217.925 2508.41 218.997C2509.9 220.67 2508.79 222.619 2510.03 224.334C2510.6 225.114 2510.89 236.56 2510.5 236.672C2509.67 236.909 2504.87 237.071 2504.66 236.324C2504.18 234.649 2504.62 232.206 2504.62 230.445Z" fill="white"/>
<path d="M2505.32 215.825C2504.37 220.666 2504.62 225.53 2504.62 230.445C2504.62 232.206 2504.18 234.649 2504.66 236.324C2504.87 237.071 2509.67 236.909 2510.5 236.672C2510.89 236.56 2510.6 225.114 2510.03 224.334C2508.79 222.619 2509.9 220.67 2508.41 218.997C2507.46 217.925 2508.6 217.218 2506.71 217.218C2505.78 217.218 2504.85 217.218 2503.92 217.218" stroke="black" stroke-width="2" stroke-linecap="round"/>
<path d="M4648.49 179.718C4649.7 174.754 4653.82 173.859 4658.1 173.768C4677.56 166.31 4685.79 215.61 4664.19 215.61C4658.16 215.61 4653.73 216.797 4649.88 212.516C4646.33 208.572 4644 205.21 4644 199.675C4644 192.021 4646.73 186.911 4648.49 179.718Z" fill="white"/>
<path d="M4663.49 173.839C4657.89 173.839 4650.22 172.625 4648.49 179.718C4646.73 186.911 4644 192.021 4644 199.675C4644 205.21 4646.33 208.572 4649.88 212.516C4653.73 216.797 4658.16 215.61 4664.19 215.61C4685.86 215.61 4677.51 166.006 4657.92 173.839" stroke="black" stroke-width="2" stroke-linecap="round"/>
<path d="M4658.62 227.445C4658.62 223.001 4658.42 218.599 4659.08 214.218H4660.71C4662.6 214.218 4661.46 214.925 4662.41 215.997C4663.9 217.67 4662.79 219.619 4664.03 221.334C4664.6 222.114 4664.89 233.56 4664.5 233.672C4663.67 233.909 4658.87 234.071 4658.66 233.324C4658.18 231.649 4658.62 229.206 4658.62 227.445Z" fill="white"/>
<path d="M4659.32 212.825C4658.37 217.666 4658.62 222.53 4658.62 227.445C4658.62 229.206 4658.18 231.649 4658.66 233.324C4658.87 234.071 4663.67 233.909 4664.5 233.672C4664.89 233.56 4664.6 222.114 4664.03 221.334C4662.79 219.619 4663.9 217.67 4662.41 215.997C4661.46 214.925 4662.6 214.218 4660.71 214.218C4659.78 214.218 4658.85 214.218 4657.92 214.218" stroke="black" stroke-width="2" stroke-linecap="round"/>
<path d="M4870.49 179.718C4871.7 174.754 4875.82 173.859 4880.1 173.768C4899.56 166.31 4907.79 215.61 4886.19 215.61C4880.16 215.61 4875.73 216.797 4871.88 212.516C4868.33 208.572 4866 205.21 4866 199.675C4866 192.021 4868.73 186.911 4870.49 179.718Z" fill="white"/>
<path d="M4885.49 173.839C4879.89 173.839 4872.22 172.625 4870.49 179.718C4868.73 186.911 4866 192.021 4866 199.675C4866 205.21 4868.33 208.572 4871.88 212.516C4875.73 216.797 4880.16 215.61 4886.19 215.61C4907.86 215.61 4899.51 166.006 4879.92 173.839" stroke="black" stroke-width="2" stroke-linecap="round"/>
<path d="M4880.62 227.445C4880.62 223.001 4880.42 218.599 4881.08 214.218H4882.71C4884.6 214.218 4883.46 214.925 4884.41 215.997C4885.9 217.67 4884.79 219.619 4886.03 221.334C4886.6 222.114 4886.89 233.56 4886.5 233.672C4885.67 233.909 4880.87 234.071 4880.66 233.324C4880.18 231.649 4880.62 229.206 4880.62 227.445Z" fill="white"/>
<path d="M4881.32 212.825C4880.37 217.666 4880.62 222.53 4880.62 227.445C4880.62 229.206 4880.18 231.649 4880.66 233.324C4880.87 234.071 4885.67 233.909 4886.5 233.672C4886.89 233.56 4886.6 222.114 4886.03 221.334C4884.79 219.619 4885.9 217.67 4884.41 215.997C4883.46 214.925 4884.6 214.218 4882.71 214.218C4881.78 214.218 4880.85 214.218 4879.92 214.218" stroke="black" stroke-width="2" stroke-linecap="round"/>
<path d="M3233.49 174.718C3234.7 169.754 3238.82 168.859 3243.1 168.768C3262.56 161.31 3270.79 210.61 3249.19 210.61C3243.16 210.61 3238.73 211.797 3234.88 207.516C3231.33 203.572 3229 200.21 3229 194.675C3229 187.021 3231.73 181.911 3233.49 174.718Z" fill="white"/>
<path d="M3248.49 168.839C3242.89 168.839 3235.22 167.625 3233.49 174.718C3231.73 181.911 3229 187.021 3229 194.675C3229 200.21 3231.33 203.572 3234.88 207.516C3238.73 211.797 3243.16 210.61 3249.19 210.61C3270.86 210.61 3262.51 161.006 3242.92 168.839" stroke="black" stroke-width="2" stroke-linecap="round"/>
<path d="M3243.62 222.445C3243.62 218.001 3243.42 213.599 3244.08 209.218H3245.71C3247.6 209.218 3246.46 209.925 3247.41 210.997C3248.9 212.67 3247.79 214.619 3249.03 216.334C3249.6 217.114 3249.89 228.56 3249.5 228.672C3248.67 228.909 3243.87 229.071 3243.66 228.324C3243.18 226.649 3243.62 224.206 3243.62 222.445Z" fill="white"/>
<path d="M3244.32 207.825C3243.37 212.666 3243.62 217.53 3243.62 222.445C3243.62 224.206 3243.18 226.649 3243.66 228.324C3243.87 229.071 3248.67 228.909 3249.5 228.672C3249.89 228.56 3249.6 217.114 3249.03 216.334C3247.79 214.619 3248.9 212.67 3247.41 210.997C3246.46 209.925 3247.6 209.218 3245.71 209.218C3244.78 209.218 3243.85 209.218 3242.92 209.218" stroke="black" stroke-width="2" stroke-linecap="round"/>
<path d="M3096 218C3096 203.6 3094.03 189.195 3094 174.311C3101.1 176.743 3098 192.761 3098 199C3098 210.056 3108 218.405 3108 230.444C3108 247.577 3096 224.209 3096 218Z" fill="white"/>
<path d="M3094 174C3094 188.994 3096 203.499 3096 218C3096 224.209 3108 247.577 3108 230.444C3108 218.405 3098 210.056 3098 199C3098 192.24 3101.64 174 3092 174" stroke="black" stroke-width="2" stroke-linecap="round"/>
<path d="M3084 100C3093.29 100 3098.1 103.094 3103.06 110.54C3108.16 113.199 3108.14 114.231 3110.44 120C3112.31 124.66 3116.36 129.865 3117.78 134.111C3121.07 143.998 3124 151.621 3124 163C3124 169.995 3122.65 176.376 3119 182.222C3116.41 186.358 3118.67 187.85 3114.44 190.889C3112.76 192.105 3109.59 195.117 3108.44 196.889C3101.34 207.871 3085.29 194.908 3078.44 192.444C3072.21 190.199 3061.22 174.521 3060.11 167.889C3059.14 162.053 3056 159.358 3056 152V136C3056 123.376 3058.45 110.86 3070 104.444C3073.11 102.717 3071.63 100 3076 100H3084Z" fill="white"/>
<path d="M3104 112C3098.69 103.496 3093.88 100 3084 100C3081.33 100 3078.67 100 3076 100C3071.63 100 3073.11 102.717 3070 104.444C3058.45 110.86 3056 123.376 3056 136C3056 141.333 3056 146.667 3056 152C3056 159.358 3059.14 162.053 3060.11 167.889C3061.22 174.521 3072.21 190.199 3078.44 192.444C3085.29 194.908 3101.34 207.871 3108.44 196.889C3109.59 195.117 3112.76 192.105 3114.44 190.889C3118.67 187.85 3116.41 186.358 3119 182.222C3122.65 176.376 3124 169.995 3124 163C3124 151.621 3121.07 143.998 3117.78 134.111C3116.36 129.865 3112.31 124.66 3110.44 120C3107.99 113.857 3108.17 113.085 3102 110" stroke="black" stroke-width="2" stroke-linecap="round"/>
<path d="M2563.56 25.0001C2576.56 7.99124 2604.14 -5.50759 2620.82 13.5716C2622.81 18.7783 2627.02 25.0088 2632 27.0001C2636.65 28.862 2638.42 38.7682 2644 41.0001C2650.07 43.4294 2646 82.3318 2646 89.889C2646 94.784 2646.23 112.348 2642 114.889C2639.91 116.146 2634 136.866 2634 139.889C2634 147.039 2618.95 158.009 2612.89 159.111C2604.08 160.713 2598.16 160.49 2589.89 159.111C2582.4 157.862 2576.23 154.86 2570.89 150.111C2562.22 142.404 2559.16 140.621 2558 129C2557.53 124.252 2554 121.546 2554 116.111V103V76.1112C2554 61.8335 2554.78 36.4765 2563.56 25.0001Z" fill="white"/>
<path d="M2622 15.0001C2605.47 -6.1527 2576.87 7.58353 2563.56 25.0001C2554.78 36.4765 2554 61.8335 2554 76.1112C2554 85.0742 2554 94.0371 2554 103C2554 107.37 2554 111.741 2554 116.111C2554 121.546 2557.53 124.252 2558 129C2559.16 140.621 2562.22 142.404 2570.89 150.111C2576.23 154.86 2582.4 157.862 2589.89 159.111C2598.16 160.49 2604.08 160.713 2612.89 159.111C2618.95 158.009 2634 147.039 2634 139.889C2634 136.866 2639.91 116.146 2642 114.889C2646.23 112.348 2646 94.784 2646 89.889C2646 82.3318 2650.07 43.4294 2644 41.0001C2638.42 38.7682 2636.65 28.862 2632 27.0001C2626.16 24.666 2621.38 16.5073 2620 11.0001" stroke="black" stroke-width="2" stroke-linecap="round"/>
<path d="M2598 205.556C2598 188.938 2594.82 174.213 2594.13 158.001C2607.44 158.11 2608 174.852 2608 186.444C2608 202.822 2611.27 217.937 2610 234.444C2609.64 239.081 2602.71 238.664 2599.22 237.889C2596.91 237.376 2598 230.877 2598 229V205.556Z" fill="white"/>
<path d="M2594 152C2594 170.652 2598 186.913 2598 205.556C2598 213.37 2598 221.185 2598 229C2598 230.877 2596.91 237.376 2599.22 237.889C2602.71 238.664 2609.64 239.081 2610 234.444C2611.27 217.937 2608 202.822 2608 186.444C2608 174.814 2607.44 158 2594 158" stroke="black" stroke-width="2" stroke-linecap="round"/>
<path d="M2552.24 92C2559.61 92 2563.43 93.6197 2567.37 97.5175C2571.42 98.9095 2571.4 99.4499 2573.24 102.47C2574.72 104.909 2577.93 107.634 2579.06 109.857C2581.68 115.033 2584 119.023 2584 124.98C2584 128.642 2582.93 131.983 2580.03 135.043C2577.98 137.208 2579.76 137.989 2576.41 139.58C2575.07 140.217 2572.56 141.793 2571.65 142.721C2566 148.47 2553.26 141.684 2547.82 140.394C2542.87 139.219 2534.14 131.012 2533.26 127.54C2532.49 124.485 2530 123.074 2530 119.222V110.846C2530 104.237 2531.95 97.6851 2541.12 94.3267C2543.59 93.4223 2542.41 92 2545.88 92H2552.24Z" fill="white"/>
<path d="M2568.12 98.282C2563.9 93.8303 2560.08 92 2552.24 92C2550.12 92 2548 92 2545.88 92C2542.41 92 2543.59 93.4223 2541.12 94.3267C2531.95 97.685 2530 104.237 2530 110.846C2530 113.638 2530 116.43 2530 119.222C2530 123.074 2532.49 124.485 2533.26 127.54C2534.14 131.012 2542.87 139.219 2547.82 140.394C2553.26 141.684 2566 148.47 2571.65 142.721C2572.56 141.793 2575.07 140.217 2576.41 139.58C2579.76 137.989 2577.98 137.208 2580.03 135.043C2582.93 131.983 2584 128.642 2584 124.98C2584 119.023 2581.68 115.033 2579.06 109.857C2577.93 107.634 2574.72 104.909 2573.24 102.47C2571.28 99.254 2571.43 98.8499 2566.53 97.235" stroke="black" stroke-width="2" stroke-linecap="round"/>
<path d="M2658.17 69.9113C2657.75 73.4052 2656.67 75.1081 2654.36 76.7246C2653.38 78.5526 2653.09 78.5104 2651.37 79.1852C2649.99 79.7302 2648.34 81.0805 2647.09 81.4707C2644.17 82.3793 2641.91 83.2248 2638.72 82.8445C2636.76 82.6107 2635.03 81.8913 2633.55 80.3221C2632.51 79.2119 2631.99 80.0083 2631.33 78.3197C2631.06 77.644 2630.36 76.3536 2629.92 75.8633C2627.16 72.8246 2631.51 67.2235 2632.51 64.7326C2633.42 62.4625 2638.3 58.8545 2640.21 58.6605C2641.89 58.4899 2642.79 57.4 2644.85 57.646L2649.33 58.1808C2652.87 58.6027 2656.27 59.9431 2657.55 64.4991C2657.89 65.726 2658.72 65.2612 2658.52 66.9035L2658.17 69.9113Z" fill="white"/>
<path d="M2653.91 77.0297C2656.53 75.3157 2657.72 73.6254 2658.17 69.9113C2658.28 68.9087 2658.4 67.9061 2658.52 66.9035C2658.72 65.2612 2657.89 65.726 2657.55 64.4991C2656.27 59.9431 2652.87 58.6027 2649.33 58.1808C2647.84 58.0025 2646.34 57.8242 2644.85 57.646C2642.79 57.4 2641.89 58.4899 2640.21 58.6605C2638.3 58.8545 2633.42 62.4625 2632.51 64.7326C2631.51 67.2235 2627.16 72.8246 2629.92 75.8633C2630.36 76.3536 2631.06 77.644 2631.33 78.3197C2631.99 80.0083 2632.51 79.2119 2633.55 80.3221C2635.03 81.8913 2636.76 82.6107 2638.72 82.8445C2641.91 83.2248 2644.17 82.3793 2647.09 81.4707C2648.34 81.0805 2649.99 79.7302 2651.37 79.1852C2653.21 78.4667 2653.41 78.5611 2654.56 76.3446" stroke="black" stroke-width="2" stroke-linecap="round"/>
<path d="M5039.08 27.9318C5020.12 8.30195 4979.94 -7.27693 4955.64 14.7422C4952.74 20.7513 4946.6 27.9418 4939.35 30.2399C4932.56 32.3887 4929.99 43.8214 4921.86 46.3972C4913.01 49.2008 4918.95 94.0979 4918.95 102.82C4918.95 108.469 4918.61 128.74 4924.78 131.672C4927.83 133.122 4936.43 157.036 4936.43 160.524C4936.43 168.775 4958.36 181.436 4967.19 182.708C4980.03 184.557 4988.66 184.299 5000.71 182.708C5011.62 181.267 5020.61 177.802 5028.39 172.322C5041.03 163.427 5045.48 161.369 5047.17 147.957C5047.86 142.478 5053 139.355 5053 133.082V117.951V86.9187C5053 70.4409 5051.86 41.1766 5039.08 27.9318Z" fill="white"/>
<path d="M4953.92 16.3908C4978 -8.02146 5019.67 7.83143 5039.08 27.9318C5051.86 41.1766 5053 70.4409 5053 86.9187C5053 97.2628 5053 107.607 5053 117.951C5053 122.995 5053 128.039 5053 133.082C5053 139.355 5047.86 142.478 5047.17 147.957C5045.48 161.369 5041.03 163.427 5028.39 172.322C5020.61 177.802 5011.62 181.267 5000.71 182.708C4988.66 184.299 4980.03 184.557 4967.19 182.708C4958.36 181.436 4936.43 168.775 4936.43 160.524C4936.43 157.036 4927.83 133.122 4924.78 131.672C4918.61 128.74 4918.95 108.469 4918.95 102.82C4918.95 94.0979 4913.01 49.2008 4921.86 46.3972C4929.99 43.8214 4932.56 32.3887 4939.35 30.2399C4947.85 27.5461 4954.83 18.1302 4956.83 11.7745" stroke="black" stroke-width="2" stroke-linecap="round"/>
<path d="M4986 229.292C4986 212.674 4982.82 197.95 4982.13 181.737C4995.44 181.846 4996 198.588 4996 210.181C4996 226.558 4999.27 241.673 4998 258.181C4997.64 262.817 4990.71 262.4 4987.22 261.625C4984.91 261.112 4986 254.614 4986 252.736V229.292Z" fill="white"/>
<path d="M4982 175.736C4982 194.388 4986 210.649 4986 229.292C4986 237.107 4986 244.922 4986 252.736C4986 254.614 4984.91 261.112 4987.22 261.625C4990.71 262.4 4997.64 262.817 4998 258.181C4999.27 241.673 4996 226.558 4996 210.181C4996 198.55 4995.44 181.736 4982 181.736" stroke="black" stroke-width="2" stroke-linecap="round"/>
<path d="M5055.47 106C5044.67 106 5039.09 107.864 5033.33 112.35C5027.41 113.952 5027.43 114.574 5024.75 118.05C5022.58 120.858 5017.87 123.994 5016.23 126.553C5012.4 132.51 5009 137.102 5009 143.959C5009 148.173 5010.56 152.018 5014.81 155.54C5017.81 158.032 5015.2 158.931 5020.1 160.762C5022.06 161.495 5025.74 163.309 5027.07 164.377C5035.33 170.994 5053.97 163.184 5061.92 161.699C5069.17 160.346 5081.94 150.9 5083.22 146.904C5084.35 143.388 5088 141.764 5088 137.331V127.691C5088 120.085 5085.15 112.543 5071.74 108.678C5068.12 107.637 5069.84 106 5064.76 106H5055.47Z" fill="white"/>
<path d="M5032.24 113.23C5038.41 108.107 5043.99 106 5055.47 106C5058.57 106 5061.67 106 5064.76 106C5069.84 106 5068.12 107.637 5071.74 108.678C5085.15 112.543 5088 120.085 5088 127.691C5088 130.904 5088 134.117 5088 137.331C5088 141.764 5084.35 143.388 5083.22 146.904C5081.94 150.9 5069.17 160.346 5061.92 161.699C5053.97 163.184 5035.33 170.994 5027.07 164.377C5025.74 163.309 5022.06 161.495 5020.1 160.762C5015.2 158.931 5017.81 158.032 5014.81 155.54C5010.56 152.018 5009 148.173 5009 143.959C5009 137.102 5012.4 132.51 5016.23 126.553C5017.87 123.994 5022.58 120.858 5024.75 118.05C5027.6 114.349 5027.39 113.884 5034.56 112.025" stroke="black" stroke-width="2" stroke-linecap="round"/>
<path d="M4901.83 79.7472C4902.43 83.7786 4904.01 85.7435 4907.37 87.6086C4908.79 89.7179 4909.21 89.6693 4911.71 90.4478C4913.74 91.0767 4916.13 92.6347 4917.95 93.0849C4922.2 94.1334 4925.5 95.1089 4930.14 94.6701C4933 94.4003 4935.51 93.5703 4937.66 91.7597C4939.18 90.4787 4939.93 91.3976 4940.9 89.4492C4941.28 88.6695 4942.31 87.1806 4942.95 86.6149C4946.97 83.1087 4940.63 76.6458 4939.18 73.7718C4937.86 71.1524 4930.74 66.9893 4927.97 66.7656C4925.52 66.5687 4924.22 65.3111 4921.22 65.5949L4914.69 66.2119C4909.54 66.6988 4904.59 68.2454 4902.73 73.5023C4902.23 74.918 4901.02 74.3817 4901.31 76.2766L4901.83 79.7472Z" fill="white"/>
<path d="M4908.03 87.9607C4904.21 85.983 4902.47 84.0327 4901.83 79.7472C4901.65 78.5903 4901.48 77.4335 4901.31 76.2766C4901.02 74.3817 4902.23 74.918 4902.73 73.5023C4904.59 68.2454 4909.54 66.6988 4914.69 66.2119C4916.86 66.0063 4919.04 65.8006 4921.22 65.5949C4924.22 65.3111 4925.52 66.5687 4927.97 66.7656C4930.74 66.9893 4937.86 71.1524 4939.18 73.7718C4940.63 76.6458 4946.97 83.1087 4942.95 86.6149C4942.31 87.1806 4941.28 88.6695 4940.9 89.4492C4939.93 91.3976 4939.18 90.4787 4937.66 91.7597C4935.51 93.5703 4933 94.4003 4930.14 94.6701C4925.5 95.1089 4922.2 94.1334 4917.95 93.0849C4916.13 92.6347 4913.74 91.0767 4911.71 90.4478C4909.05 89.6188 4908.74 89.7277 4907.08 87.1702" stroke="black" stroke-width="2" stroke-linecap="round"/>
<path d="M2664 229C2664 222.616 2663.71 216.293 2664.66 210H2667C2669.71 210 2668.08 211.016 2669.44 212.556C2671.58 214.959 2669.99 217.759 2671.78 220.222C2672.59 221.342 2673.01 237.783 2672.44 237.944C2671.25 238.284 2664.36 238.517 2664.06 237.444C2663.37 235.038 2664 231.53 2664 229Z" fill="white"/>
<path d="M2665 208C2663.64 214.954 2664 221.939 2664 229C2664 231.53 2663.37 235.038 2664.06 237.444C2664.36 238.517 2671.25 238.284 2672.44 237.944C2673.01 237.783 2672.59 221.342 2671.78 220.222C2669.99 217.759 2671.58 214.959 2669.44 212.556C2668.08 211.016 2669.71 210 2667 210C2665.67 210 2664.33 210 2663 210" stroke="black" stroke-width="2" stroke-linecap="round"/>
<path d="M2677 152C2683.86 152 2688.38 153.459 2693.35 155.637C2692.04 157.553 2690.94 160.17 2691 161.556C2691.18 165.771 2697.92 170.94 2701.44 173.111C2707.18 176.639 2734.53 180.015 2735 188C2735.76 200.894 2721.42 220.764 2707 222C2700.75 222.535 2685.35 226.085 2680.33 223.111C2674.52 219.667 2669.94 220 2662.56 220C2656.58 220 2649.28 221.314 2644.11 218.444C2639.1 215.659 2633.71 210.661 2629.44 207.556C2618.89 199.879 2609.38 183.641 2615.44 170C2620.56 158.493 2636.96 152 2649 152H2677Z" fill="white"/>
<path d="M2703 160C2692.82 155.639 2687.83 152 2677 152C2667.67 152 2658.33 152 2649 152C2636.96 152 2620.56 158.493 2615.44 170C2609.38 183.641 2618.89 199.879 2629.44 207.556C2633.71 210.661 2639.1 215.659 2644.11 218.444C2649.28 221.314 2656.58 220 2662.56 220C2669.94 220 2674.52 219.667 2680.33 223.111C2685.35 226.085 2700.75 222.535 2707 222C2721.42 220.764 2735.76 200.894 2735 188C2734.53 180.015 2707.18 176.639 2701.44 173.111C2697.92 170.94 2691.18 165.771 2691 161.556C2690.88 158.76 2695.48 150.958 2697 154" stroke="black" stroke-width="2" stroke-linecap="round"/>
<path d="M5138.45 229C5138.45 222.616 5138.16 216.293 5139.11 210H5141.45C5144.16 210 5142.53 211.016 5143.9 212.556C5146.03 214.959 5144.44 217.759 5146.23 220.222C5147.04 221.342 5147.46 237.783 5146.9 237.944C5145.71 238.284 5138.81 238.517 5138.51 237.444C5137.82 235.038 5138.45 231.53 5138.45 229Z" fill="white"/>
<path d="M5139.45 208C5138.09 214.954 5138.45 221.939 5138.45 229C5138.45 231.53 5137.82 235.038 5138.51 237.444C5138.81 238.517 5145.71 238.284 5146.9 237.944C5147.46 237.783 5147.04 221.342 5146.23 220.222C5144.44 217.759 5146.03 214.959 5143.9 212.556C5142.53 211.016 5144.16 210 5141.45 210C5140.12 210 5138.78 210 5137.45 210" stroke="black" stroke-width="2" stroke-linecap="round"/>
<path d="M5151.45 152C5158.31 152 5162.83 153.459 5167.8 155.637C5166.49 157.553 5165.39 160.17 5165.45 161.556C5165.63 165.771 5172.37 170.94 5175.9 173.111C5181.63 176.639 5208.98 180.015 5209.45 188C5210.21 200.894 5195.87 220.764 5181.45 222C5175.2 222.535 5159.8 226.085 5154.78 223.111C5148.97 219.667 5144.39 220 5137.01 220C5131.03 220 5123.73 221.314 5118.56 218.444C5113.55 215.659 5108.17 210.661 5103.9 207.556C5093.34 199.879 5083.83 183.641 5089.9 170C5095.01 158.493 5111.41 152 5123.45 152H5151.45Z" fill="white"/>
<path d="M5177.45 160C5167.27 155.639 5162.28 152 5151.45 152C5142.12 152 5132.78 152 5123.45 152C5111.41 152 5095.01 158.493 5089.9 170C5083.83 183.641 5093.34 199.879 5103.9 207.556C5108.17 210.661 5113.55 215.659 5118.56 218.444C5123.73 221.314 5131.03 220 5137.01 220C5144.39 220 5148.97 219.667 5154.78 223.111C5159.8 226.085 5175.2 222.535 5181.45 222C5195.87 220.764 5210.21 200.894 5209.45 188C5208.98 180.015 5181.63 176.639 5175.9 173.111C5172.37 170.94 5165.63 165.771 5165.45 161.556C5165.33 158.76 5169.93 150.958 5171.45 154" stroke="black" stroke-width="2" stroke-linecap="round"/>
<path d="M2171.04 239.162H2157.27C2150.06 239.668 2142.9 240.581 2140.25 240.581C2130.44 240.581 2134.38 236.845 2137.36 232.855C2140.22 229.015 2145.24 227.809 2151.37 227.809C2167.04 227.809 2180.62 227.094 2195.41 223.867C2211.11 220.443 2226.27 229.228 2241.89 229.228C2255.89 229.228 2253.9 221.717 2253.9 214.328C2253.9 207.604 2254.38 201.516 2259.13 195.565C2265.71 187.316 2279.06 183.176 2291.93 188.154C2298.91 190.851 2305.17 191.111 2311.06 195.013C2313.81 196.834 2320.71 198.425 2324.41 199.113C2335.65 201.201 2406.86 233.677 2409.59 230.017C2410.74 228.476 2408.54 225.109 2412.04 224.971C2416.26 224.805 2421.06 225.536 2425.16 224.656C2429.78 223.663 2430.43 217.352 2434.5 215.353C2437.49 213.885 2443.91 222.187 2444.96 223.394C2451.24 230.688 2456.55 214.459 2459.86 210.938C2460.32 210.441 2460.96 213.152 2461.3 213.697C2462.85 216.129 2465.16 218.302 2466.97 220.635C2469.98 224.506 2471.24 225.488 2475.09 222.212C2479.05 218.842 2483.41 213.473 2486.32 220.714C2488.11 225.157 2498.34 230.009 2493.89 235.535C2492.7 237.007 2487.08 236.324 2484.99 236.324C2480.69 236.324 2480.64 239.162 2476.98 239.162H2449.29H2400.47H2171.04Z" fill="white"/>
<path d="M2141.8 239.162C2228.03 239.162 2314.25 239.162 2400.47 239.162C2416.75 239.162 2433.02 239.162 2449.29 239.162C2458.52 239.162 2467.75 239.162 2476.98 239.162C2480.64 239.162 2480.69 236.324 2484.99 236.324C2487.08 236.324 2492.7 237.007 2493.89 235.535C2498.34 230.009 2488.11 225.157 2486.32 220.714C2483.41 213.473 2479.05 218.842 2475.09 222.212C2471.24 225.488 2469.98 224.506 2466.97 220.635C2465.16 218.302 2462.85 216.129 2461.3 213.697C2460.96 213.152 2460.32 210.441 2459.86 210.938C2456.55 214.459 2451.24 230.688 2444.96 223.394C2443.91 222.187 2437.49 213.885 2434.5 215.353C2430.43 217.352 2429.78 223.663 2425.16 224.656C2421.06 225.536 2416.26 224.805 2412.04 224.971C2408.54 225.109 2410.74 228.476 2409.59 230.017C2406.86 233.677 2335.65 201.201 2324.41 199.113C2320.71 198.425 2313.81 196.834 2311.06 195.013C2305.17 191.111 2298.91 190.851 2291.93 188.154C2279.06 183.176 2265.71 187.316 2259.13 195.565C2254.38 201.516 2253.9 207.604 2253.9 214.328C2253.9 221.717 2255.89 229.228 2241.89 229.228C2226.27 229.228 2211.11 220.443 2195.41 223.867C2180.62 227.094 2167.04 227.809 2151.37 227.809C2145.24 227.809 2140.22 229.015 2137.36 232.855C2134.38 236.845 2130.44 240.581 2140.25 240.581C2146.3 240.581 2175.83 235.828 2175.83 242" stroke="black" stroke-width="2" stroke-linecap="round"/>
<path d="M1832.1 121.78C1843.46 121.78 1850.46 125.809 1860.74 127.264C1859.95 131.218 1860.16 134.634 1863.99 138.78C1868.34 143.49 1867.86 149.788 1872.1 154.558C1879.84 163.259 1884.47 174.756 1875.66 185.336C1869.65 192.548 1859.05 198.307 1849.1 192.78C1843.66 189.758 1837.66 186.616 1832.21 183.891C1825.8 180.683 1815.18 180.015 1810.1 175.78C1804.83 171.388 1795.1 175.165 1791.66 168.669C1789.6 164.78 1782.28 163.75 1782.1 159.336C1781.59 146.666 1782.66 134.745 1792.99 125.891C1801.79 118.345 1821.1 121.78 1832.1 121.78Z" fill="white"/>
<path d="M1868.1 127.78C1853.33 127.78 1845.97 121.78 1832.1 121.78C1821.1 121.78 1801.79 118.345 1792.99 125.891C1782.66 134.745 1781.59 146.666 1782.1 159.336C1782.28 163.75 1789.6 164.78 1791.66 168.669C1795.1 175.165 1804.83 171.388 1810.1 175.78C1815.18 180.015 1825.8 180.683 1832.21 183.891C1837.66 186.616 1843.66 189.758 1849.1 192.78C1859.05 198.307 1869.65 192.548 1875.66 185.336C1884.47 174.756 1879.84 163.259 1872.1 154.558C1867.86 149.788 1868.34 143.49 1863.99 138.78C1858.52 132.857 1860.44 128.423 1862.1 121.78" stroke="black" stroke-width="2" stroke-linecap="round"/>
<path d="M1821 222V187C1821 181.739 1825 175.34 1825 184C1825 189.431 1824.22 195.522 1825.11 200.889C1826.08 206.682 1831 209.337 1831 215V229.444C1831 232.992 1826.47 239.271 1822.11 236.778C1819.42 235.238 1821 224.941 1821 222Z" fill="white"/>
<path d="M1821 179C1821 193.333 1821 207.667 1821 222C1821 224.941 1819.42 235.238 1822.11 236.778C1826.47 239.271 1831 232.992 1831 229.444C1831 224.63 1831 219.815 1831 215C1831 209.337 1826.08 206.682 1825.11 200.889C1824.22 195.522 1825 189.431 1825 184C1825 175.34 1821 181.739 1821 187" stroke="black" stroke-width="2" stroke-linecap="round"/>
<path d="M1683 238H1647.21C1649.43 233.52 1647.29 227.764 1652 224C1656.86 220.11 1662.7 214 1670 214H1683.89C1687.93 214 1686.75 219.118 1690.22 219.889C1699.73 222.002 1710.78 224 1720.89 224C1730.35 224 1737.7 220 1748 220H1776.11H1803.11H1822C1828.68 220 1831.11 217.905 1837 216.222C1847.67 213.173 1847.76 224.386 1853.44 228.889C1862.41 235.984 1842.01 232 1836.56 232H1773.44C1765.24 232 1758.19 234 1749.44 234C1739.69 234 1728.94 232.14 1720.56 237.111C1712.29 242.01 1692.42 238 1683 238Z" fill="white"/>
<path d="M1645 238C1657.67 238 1670.33 238 1683 238C1692.42 238 1712.29 242.01 1720.56 237.111C1728.94 232.14 1739.69 234 1749.44 234C1758.19 234 1765.24 232 1773.44 232C1794.48 232 1815.52 232 1836.56 232C1842.01 232 1862.41 235.984 1853.44 228.889C1847.76 224.386 1847.67 213.173 1837 216.222C1831.11 217.905 1828.68 220 1822 220C1815.7 220 1809.41 220 1803.11 220C1794.11 220 1785.11 220 1776.11 220C1766.74 220 1757.37 220 1748 220C1737.7 220 1730.35 224 1720.89 224C1710.78 224 1699.73 222.002 1690.22 219.889C1686.75 219.118 1687.93 214 1683.89 214C1679.26 214 1674.63 214 1670 214C1662.7 214 1656.86 220.11 1652 224C1645.69 229.045 1651.67 237.665 1643 242" stroke="black" stroke-width="2" stroke-linecap="round"/>
<path d="M4723.67 255.429H4783.91C4780.18 243.588 4783.77 228.377 4775.85 218.429C4767.67 208.148 4757.85 192 4745.55 192H4722.18C4715.38 192 4717.36 205.526 4711.52 207.563C4695.51 213.147 4676.91 218.429 4659.9 218.429C4643.98 218.429 4631.6 207.857 4614.26 207.857H4566.95H4521.5H4489.71C4478.47 207.857 4474.37 202.319 4464.46 197.873C4446.49 189.814 4446.35 219.45 4436.78 231.349C4421.69 250.1 4456.03 239.571 4465.21 239.571H4571.44C4585.24 239.571 4597.1 244.857 4611.83 244.857C4628.26 244.857 4646.34 239.942 4660.46 253.079C4674.37 266.027 4707.81 255.429 4723.67 255.429Z" fill="white"/>
<path d="M4787.63 255.429C4766.31 255.429 4744.99 255.429 4723.67 255.429C4707.81 255.429 4674.37 266.027 4660.46 253.079C4646.34 239.942 4628.26 244.857 4611.83 244.857C4597.1 244.857 4585.24 239.571 4571.44 239.571C4536.03 239.571 4500.62 239.571 4465.21 239.571C4456.03 239.571 4421.69 250.1 4436.78 231.349C4446.35 219.45 4446.49 189.814 4464.46 197.873C4474.37 202.319 4478.47 207.857 4489.71 207.857C4500.3 207.857 4510.9 207.857 4521.5 207.857C4536.65 207.857 4551.8 207.857 4566.95 207.857C4582.72 207.857 4598.49 207.857 4614.26 207.857C4631.6 207.857 4643.98 218.429 4659.9 218.429C4676.91 218.429 4695.51 213.147 4711.52 207.563C4717.36 205.526 4715.38 192 4722.18 192C4729.97 192 4737.76 192 4745.55 192C4757.85 192 4767.67 208.148 4775.85 218.429C4786.47 231.761 4776.41 254.544 4791 266" stroke="black" stroke-width="2" stroke-linecap="round"/>
<path d="M2098.76 211.197C2104.11 195.44 2107.09 178.568 2112.59 162.267C2120.27 168.926 2110.56 184.706 2108.24 191.533C2104.13 203.631 2113.11 218.395 2108.64 231.569C2102.26 250.316 2096.45 217.992 2098.76 211.197Z" fill="white"/>
<path d="M2112.7 161.926C2107.13 178.333 2104.15 195.331 2098.76 211.197C2096.45 217.992 2102.26 250.316 2108.64 231.569C2113.11 218.395 2104.13 203.631 2108.24 191.533C2110.76 184.136 2121.95 166.229 2110.29 160.8" stroke="black" stroke-width="2" stroke-linecap="round"/>
<path d="M2070.28 94H2111.28C2116.18 102.346 2110.97 114.635 2118.16 121.97C2123.06 126.964 2138.33 138.122 2138.81 145.517C2139.36 153.902 2139.5 177.022 2127.65 180.382C2114.92 183.989 2101.05 185.147 2088.03 188.838C2072.1 193.353 2056.96 190.878 2046.73 180.642C2040.65 174.561 2038.97 147.083 2043.82 139.663C2050.7 129.132 2050.2 116.016 2057.74 105.188C2061.34 100.017 2060.64 94 2070.28 94Z" fill="white" stroke="black" stroke-width="2" stroke-linecap="round"/>
<path d="M2062.17 127.911C2061.75 131.405 2060.67 133.108 2058.36 134.724C2057.38 136.552 2057.09 136.51 2055.37 137.185C2053.99 137.73 2052.34 139.08 2051.09 139.47C2048.17 140.379 2045.91 141.225 2042.72 140.844C2040.76 140.61 2039.03 139.891 2037.55 138.322C2036.51 137.212 2035.99 138.008 2035.33 136.319C2035.06 135.644 2034.36 134.353 2033.92 133.863C2031.16 130.824 2035.51 125.223 2036.51 122.732C2037.42 120.462 2042.3 116.854 2044.21 116.66C2045.89 116.49 2046.79 115.4 2048.85 115.646L2053.33 116.181C2056.87 116.602 2060.27 117.943 2061.55 122.499C2061.89 123.726 2062.72 123.261 2062.52 124.903L2062.17 127.911Z" fill="white"/>
<path d="M2057.91 135.029C2060.53 133.315 2061.72 131.625 2062.17 127.911C2062.28 126.908 2062.4 125.906 2062.52 124.903C2062.72 123.261 2061.89 123.726 2061.55 122.499C2060.27 117.943 2056.87 116.602 2053.33 116.181C2051.84 116.002 2050.34 115.824 2048.85 115.646C2046.79 115.4 2045.89 116.49 2044.21 116.66C2042.3 116.854 2037.42 120.462 2036.51 122.732C2035.51 125.223 2031.16 130.824 2033.92 133.863C2034.36 134.353 2035.06 135.644 2035.33 136.319C2035.99 138.008 2036.51 137.212 2037.55 138.322C2039.03 139.891 2040.76 140.61 2042.72 140.844C2045.91 141.225 2048.17 140.379 2051.09 139.47C2052.34 139.08 2053.99 137.73 2055.37 137.185C2057.21 136.466 2057.41 136.561 2058.56 134.344" stroke="black" stroke-width="2" stroke-linecap="round"/>
<path d="M4091.45 223.077C4091.45 213.287 4091.16 203.591 4092.11 193.941H4094.45C4097.16 193.941 4095.53 195.498 4096.9 197.86C4099.03 201.546 4097.44 205.839 4099.23 209.616C4100.04 211.334 4100.46 236.545 4099.9 236.793C4098.71 237.314 4091.81 237.671 4091.51 236.026C4090.82 232.336 4091.45 226.956 4091.45 223.077Z" fill="white"/>
<path d="M4092.45 190.874C4091.09 201.537 4091.45 212.249 4091.45 223.077C4091.45 226.956 4090.82 232.336 4091.51 236.026C4091.81 237.671 4098.71 237.314 4099.9 236.793C4100.46 236.545 4100.04 211.334 4099.23 209.616C4097.44 205.839 4099.03 201.546 4096.9 197.86C4095.53 195.498 4097.16 193.941 4094.45 193.941C4093.12 193.941 4091.78 193.941 4090.45 193.941" stroke="black" stroke-width="2" stroke-linecap="round"/>
<path d="M4104.45 105C4111.31 105 4115.83 107.238 4120.8 110.578C4119.49 113.515 4118.39 117.528 4118.45 119.653C4118.63 126.118 4125.37 134.044 4128.9 137.373C4134.63 142.782 4161.98 147.96 4162.45 160.205C4163.21 179.977 4148.87 210.447 4134.45 212.342C4128.2 213.164 4112.8 218.606 4107.78 214.046C4101.97 208.764 4097.39 209.275 4090.01 209.275C4084.03 209.275 4076.73 211.29 4071.56 206.89C4066.55 202.618 4061.17 194.954 4056.9 190.192C4046.34 178.421 4036.83 153.521 4042.9 132.602C4048.01 114.957 4064.41 105 4076.45 105H4104.45Z" fill="white"/>
<path d="M4130.45 117.268C4120.27 110.58 4115.28 105 4104.45 105C4095.12 105 4085.78 105 4076.45 105C4064.41 105 4048.01 114.957 4042.9 132.602C4036.83 153.521 4046.34 178.421 4056.9 190.192C4061.17 194.954 4066.55 202.618 4071.56 206.89C4076.73 211.29 4084.03 209.275 4090.01 209.275C4097.39 209.275 4101.97 208.764 4107.78 214.046C4112.8 218.606 4128.2 213.164 4134.45 212.342C4148.87 210.447 4163.21 179.977 4162.45 160.205C4161.98 147.96 4134.63 142.782 4128.9 137.373C4125.37 134.044 4118.63 126.118 4118.45 119.653C4118.33 115.366 4122.93 103.403 4124.45 108.067" stroke="black" stroke-width="2" stroke-linecap="round"/>
<path d="M4071.17 183.911C4070.75 187.405 4069.67 189.108 4067.36 190.724C4066.38 192.552 4066.09 192.51 4064.37 193.185C4062.99 193.73 4061.34 195.08 4060.09 195.47C4057.17 196.379 4054.91 197.225 4051.72 196.844C4049.76 196.61 4048.03 195.891 4046.55 194.322C4045.51 193.212 4044.99 194.008 4044.33 192.319C4044.06 191.644 4043.36 190.353 4042.92 189.863C4040.16 186.824 4044.51 181.223 4045.51 178.732C4046.42 176.462 4051.3 172.854 4053.21 172.66C4054.89 172.49 4055.79 171.4 4057.85 171.646L4062.33 172.181C4065.87 172.602 4069.27 173.943 4070.55 178.499C4070.89 179.726 4071.72 179.261 4071.52 180.903L4071.17 183.911Z" fill="white"/>
<path d="M4066.91 191.029C4069.53 189.315 4070.72 187.625 4071.17 183.911C4071.28 182.908 4071.4 181.906 4071.52 180.903C4071.72 179.261 4070.89 179.726 4070.55 178.499C4069.27 173.943 4065.87 172.602 4062.33 172.181C4060.84 172.002 4059.34 171.824 4057.85 171.646C4055.79 171.4 4054.89 172.49 4053.21 172.66C4051.3 172.854 4046.42 176.462 4045.51 178.732C4044.51 181.223 4040.16 186.824 4042.92 189.863C4043.36 190.353 4044.06 191.644 4044.33 192.319C4044.99 194.008 4045.51 193.212 4046.55 194.322C4048.03 195.891 4049.76 196.61 4051.72 196.844C4054.91 197.225 4057.17 196.379 4060.09 195.47C4061.34 195.08 4062.99 193.73 4064.37 193.185C4066.21 192.466 4066.41 192.561 4067.56 190.344" stroke="black" stroke-width="2" stroke-linecap="round"/>
<path d="M3346.1 216.939C3346.1 203.596 3346.43 190.381 3345.36 177.227H3342.72C3339.66 177.227 3341.51 179.35 3339.96 182.569C3337.55 187.593 3339.35 193.445 3337.33 198.593C3336.41 200.934 3335.94 235.297 3336.58 235.634C3337.92 236.345 3345.7 236.831 3346.04 234.589C3346.82 229.56 3346.1 222.227 3346.1 216.939Z" fill="white"/>
<path d="M3344.98 173.047C3346.51 187.581 3346.1 202.182 3346.1 216.939C3346.1 222.227 3346.82 229.56 3346.04 234.589C3345.7 236.831 3337.92 236.345 3336.58 235.634C3335.94 235.297 3336.41 200.934 3337.33 198.593C3339.35 193.445 3337.55 187.593 3339.96 182.569C3341.51 179.35 3339.66 177.227 3342.72 177.227C3344.22 177.227 3345.73 177.227 3347.23 177.227" stroke="black" stroke-width="2" stroke-linecap="round"/>
<path d="M3331.44 56C3323.71 56 3318.61 59.0502 3313 63.6026C3314.48 67.6063 3315.72 73.0753 3315.65 75.9723C3315.46 84.7835 3307.85 95.5878 3303.88 100.125C3297.41 107.498 3266.56 114.555 3266.03 131.244C3265.18 158.194 3281.34 199.724 3297.61 202.308C3304.66 203.428 3322.02 210.846 3327.68 204.631C3334.24 197.431 3339.4 198.128 3347.73 198.128C3354.47 198.128 3362.71 200.874 3368.53 194.877C3374.19 189.054 3380.26 178.607 3385.07 172.118C3396.98 156.073 3407.7 122.134 3400.86 93.6222C3395.09 69.5712 3376.6 56 3363.02 56H3331.44Z" fill="white"/>
<path d="M3302.12 72.721C3313.6 63.6053 3319.23 56 3331.44 56C3341.97 56 3352.49 56 3363.02 56C3376.6 56 3395.09 69.5712 3400.86 93.6222C3407.7 122.134 3396.98 156.073 3385.07 172.118C3380.26 178.607 3374.19 189.054 3368.53 194.877C3362.71 200.874 3354.47 198.128 3347.73 198.128C3339.4 198.128 3334.24 197.431 3327.68 204.631C3322.02 210.846 3304.66 203.428 3297.61 202.308C3281.34 199.724 3265.18 158.194 3266.03 131.244C3266.56 114.555 3297.41 107.498 3303.88 100.125C3307.85 95.5878 3315.46 84.7835 3315.65 75.9723C3315.79 70.1292 3310.6 53.8228 3308.89 60.1802" stroke="black" stroke-width="2" stroke-linecap="round"/>
<path d="M3286.76 30C3300.29 30 3307.29 32.6893 3314.51 39.1611C3321.93 41.4724 3321.91 42.3696 3325.26 47.3841C3327.98 51.4344 3333.88 55.9591 3335.94 59.6495C3340.74 68.2434 3345 74.869 3345 84.7599C3345 90.8398 3343.04 96.3864 3337.72 101.468C3333.96 105.063 3337.23 106.359 3331.09 109.001C3328.63 110.058 3324.02 112.676 3322.35 114.216C3312.01 123.762 3288.64 112.495 3278.68 110.353C3269.6 108.401 3253.59 94.7744 3251.99 89.0093C3250.57 83.937 3246 81.5946 3246 75.1986V61.2914C3246 50.3187 3249.57 39.4393 3266.38 33.8631C3270.91 32.3615 3268.76 30 3275.12 30H3286.76Z" fill="white"/>
<path d="M3315.88 40.4305C3308.14 33.039 3301.15 30 3286.76 30C3282.88 30 3279 30 3275.12 30C3268.76 30 3270.91 32.3615 3266.38 33.8631C3249.57 39.4393 3246 50.3187 3246 61.2914C3246 65.9271 3246 70.5629 3246 75.1986C3246 81.5946 3250.57 83.937 3251.99 89.0093C3253.59 94.7744 3269.6 108.401 3278.68 110.353C3288.64 112.495 3312.01 123.762 3322.35 114.216C3324.02 112.676 3328.63 110.058 3331.09 109.001C3337.23 106.359 3333.96 105.063 3337.72 101.468C3343.04 96.3863 3345 90.8398 3345 84.7599C3345 74.869 3340.74 68.2434 3335.94 59.6495C3333.88 55.9591 3327.98 51.4344 3325.26 47.3841C3321.69 42.0444 3321.95 41.3734 3312.97 38.692" stroke="black" stroke-width="2" stroke-linecap="round"/>
<path d="M3964.46 232.581H3992.91C4007.81 232.834 4022.61 233.29 4028.09 233.29C4048.35 233.29 4040.22 231.422 4034.06 229.427C4028.14 227.507 4017.77 226.905 4005.11 226.905C3972.72 226.905 3944.67 226.547 3914.1 224.934C3881.66 223.221 3850.33 227.614 3818.05 227.614C3789.12 227.614 3793.23 223.858 3793.23 220.164C3793.23 216.802 3792.23 213.758 3782.43 210.782C3768.83 206.658 3741.24 204.588 3714.63 207.077C3700.22 208.426 3687.29 208.556 3675.11 210.506C3669.42 211.417 3655.18 212.213 3647.53 212.556C3624.28 213.6 3477.14 229.839 3471.5 228.008C3469.12 227.238 3473.67 225.554 3466.44 225.486C3457.72 225.402 3447.79 225.768 3439.32 225.328C3429.77 224.831 3428.44 221.676 3420.02 220.676C3413.84 219.943 3400.57 224.094 3398.42 224.697C3385.42 228.344 3374.46 220.23 3367.62 218.469C3366.66 218.221 3365.35 219.576 3364.64 219.849C3361.45 221.064 3356.65 222.151 3352.91 223.318C3346.71 225.253 3344.1 225.744 3336.14 224.106C3327.95 222.421 3318.96 219.737 3312.93 223.357C3309.23 225.578 3288.1 228.005 3297.3 230.768C3299.75 231.503 3311.36 231.162 3315.69 231.162C3324.57 231.162 3324.68 232.581 3332.23 232.581H3389.45H3490.34H3964.46Z" fill="white"/>
<path d="M4024.87 232.581C3846.69 232.581 3668.52 232.581 3490.34 232.581C3456.71 232.581 3423.08 232.581 3389.45 232.581C3370.38 232.581 3351.31 232.581 3332.23 232.581C3324.68 232.581 3324.57 231.162 3315.69 231.162C3311.36 231.162 3299.75 231.503 3297.3 230.768C3288.1 228.005 3309.23 225.578 3312.93 223.357C3318.96 219.737 3327.95 222.421 3336.14 224.106C3344.1 225.744 3346.71 225.253 3352.91 223.318C3356.65 222.151 3361.45 221.064 3364.64 219.849C3365.35 219.576 3366.66 218.221 3367.62 218.469C3374.46 220.23 3385.42 228.344 3398.42 224.697C3400.57 224.094 3413.84 219.943 3420.02 220.676C3428.44 221.676 3429.77 224.831 3439.32 225.328C3447.79 225.768 3457.72 225.402 3466.44 225.486C3473.67 225.554 3469.12 227.238 3471.5 228.008C3477.14 229.839 3624.28 213.6 3647.53 212.556C3655.18 212.213 3669.42 211.417 3675.11 210.506C3687.29 208.556 3700.22 208.426 3714.63 207.077C3741.24 204.588 3768.83 206.658 3782.43 210.782C3792.23 213.758 3793.23 216.802 3793.23 220.164C3793.23 223.858 3789.12 227.614 3818.05 227.614C3850.33 227.614 3881.66 223.221 3914.1 224.934C3944.67 226.547 3972.72 226.905 4005.11 226.905C4017.77 226.905 4028.14 227.507 4034.06 229.427C4040.22 231.422 4048.35 233.29 4028.09 233.29C4015.58 233.29 3954.55 230.914 3954.55 234" stroke="black" stroke-width="2" stroke-linecap="round"/>
</svg>
