<svg width="58" height="58" viewBox="0 0 58 58" fill="none" xmlns="http://www.w3.org/2000/svg">
<circle cx="29" cy="29" r="28" fill="white" stroke="black" stroke-width="2"/>
<path fill-rule="evenodd" clip-rule="evenodd" d="M25.8883 33.4848L14.3926 44.2176L14.6142 33.1888L25.8896 33.4154L25.8883 33.4848Z" fill="black"/>
<path fill-rule="evenodd" clip-rule="evenodd" d="M37.9704 28.6778C37.9704 33.3947 34.1466 37.2185 29.4297 37.2185C27.0836 37.2185 24.9584 36.2726 23.4148 34.7413V36.1963H14.6925C17.4303 41.552 23.0018 45.2185 29.4297 45.2185C38.5649 45.2185 45.9704 37.813 45.9704 28.6778C45.9704 19.5426 38.5649 12.137 29.4297 12.137C20.2945 12.137 12.8889 19.5426 12.8889 28.6778H20.8889C20.8889 23.9608 24.7127 20.137 29.4297 20.137C34.1466 20.137 37.9704 23.9608 37.9704 28.6778Z" fill="black"/>
</svg>
