<svg width="36" height="65" viewBox="0 0 36 65" fill="none" xmlns="http://www.w3.org/2000/svg">
<path d="M5.62248 8.15655C6.86973 3.04281 11.1154 2.12005 15.5311 2.02685C35.573 -5.65706 44.0612 45.1364 21.8011 45.1364C15.5916 45.1364 11.0267 46.3591 7.05704 41.9484C3.40047 37.8856 1 34.4217 1 28.7186C1 20.8323 3.8148 15.568 5.62248 8.15655Z" fill="white"/>
<path d="M21.0839 2.09951C15.3091 2.09951 7.40471 0.849409 5.62248 8.15655C3.8148 15.568 1 20.8323 1 28.7186C1 34.4217 3.40047 37.8856 7.05704 41.9484C11.0267 46.3591 15.5916 45.1364 21.8011 45.1364C44.1297 45.1364 35.5204 -5.9704 15.3456 2.09951" stroke="black" stroke-width="2" stroke-linecap="round"/>
<path d="M16.063 57.33C16.063 52.7508 15.8537 48.2157 16.533 43.7017H18.2148C20.1602 43.7017 18.9863 44.4301 19.9682 45.5347C21.5009 47.259 20.357 49.2672 21.6418 51.0339C22.226 51.8371 22.5257 63.6298 22.12 63.7457C21.2664 63.9896 16.3227 64.1564 16.1028 63.387C15.6097 61.6611 16.063 59.1446 16.063 57.33Z" fill="white"/>
<path d="M16.7803 42.2671C15.807 47.2549 16.063 52.2655 16.063 57.33C16.063 59.1446 15.6097 61.6611 16.1028 63.387C16.3227 64.1564 21.2664 63.9896 22.12 63.7457C22.5257 63.6298 22.226 51.8371 21.6418 51.0339C20.357 49.2672 21.5009 47.259 19.9682 45.5347C18.9863 44.4301 20.1602 43.7017 18.2148 43.7017C17.2585 43.7017 16.3021 43.7017 15.3457 43.7017" stroke="black" stroke-width="2" stroke-linecap="round"/>
</svg>
