<svg width="24" height="62" viewBox="0 0 24 62" fill="none" xmlns="http://www.w3.org/2000/svg">
<path d="M2.22192 25C1.0394 20.8612 1.99969 15.1957 1.99969 11C7.59929 11 9.99969 10.0404 9.99969 16.1111C9.99969 22.2753 13.6333 23.9758 13.9997 28.5556C14.5998 36.0567 16.1397 47.9857 21.1108 53.8889C26.0718 59.78 15.554 59.0176 12.9997 60C7.47031 62.1267 8.04011 55.7021 6.44414 52.1111C4.49076 47.716 5.99969 39.7396 5.99969 35C5.99969 30.3519 3.36747 29.0095 2.22192 25Z" fill="white" stroke="black" stroke-width="2" stroke-linecap="round"/>
<path d="M2 3C2 35.6091 7.92255 3.96127 2 1" stroke="black" stroke-width="2" stroke-linecap="round"/>
</svg>
