<svg width="294" height="194" viewBox="0 0 294 194" fill="none" xmlns="http://www.w3.org/2000/svg">
<path d="M14.0122 110.235C23.0591 90.5209 18.9184 62.5459 17.8296 39.8388C13.275 37.3475 15.2066 32.2399 15.2066 26.0364C15.2066 19.7479 12.8178 14.2366 12.8178 8.01768C12.8178 -4.0682 30.2976 3.1237 40.4218 3.1237C77.146 3.1237 111.123 10.9747 147.122 15.1362C173.68 18.2064 198.427 30.4186 225.422 32.9325C247.382 34.9775 269.784 39.0815 291.114 43.0541C298.03 44.3421 283.885 75.3626 281.426 78.7579C270.425 93.9442 275.587 117.71 275.587 135.261V173.301C275.587 175.187 279.497 193.543 276.516 192.988C266.087 191.045 245.51 185.779 238.56 179.307C232.356 173.529 214.732 173.758 205.78 170.854C185.215 164.182 162.939 164.825 141.813 160.398C110.275 153.79 83.7274 147.004 50.5078 149.72C46.2716 150.067 1.76298 154.91 1.00644 152.056C0.795193 151.26 5.84294 140.385 6.84575 139.376C13.2484 132.937 10.3826 118.144 14.0122 110.235Z" fill="white"/>
<path d="M17.5954 31.1528C17.5954 55.0161 24.2534 87.9185 14.0122 110.235C10.3826 118.144 13.2484 132.937 6.84575 139.376C5.84293 140.385 0.795193 151.26 1.00644 152.056C1.76298 154.91 46.2716 150.067 50.5078 149.72C83.7274 147.004 110.275 153.79 141.813 160.398C162.939 164.825 185.215 164.182 205.78 170.854C214.732 173.758 232.356 173.529 238.56 179.307C245.51 185.779 266.087 191.045 276.515 192.988C279.497 193.543 275.587 175.187 275.587 173.301C275.587 160.621 275.587 147.941 275.587 135.261C275.587 117.71 270.425 93.9442 281.426 78.7579C283.885 75.3626 298.03 44.3421 291.114 43.0541C269.784 39.0815 247.382 34.9775 225.422 32.9325C198.427 30.4186 173.68 18.2064 147.122 15.1362C111.123 10.9747 77.146 3.1237 40.4218 3.1237C30.2976 3.1237 12.8178 -4.0682 12.8178 8.01768C12.8178 14.2366 15.2066 19.7479 15.2066 26.0364C15.2066 33.7355 12.2314 39.7466 22.373 41.1632" stroke="black" stroke-width="2" stroke-linecap="round"/>
<path d="M49 1.99999C49 9.40189 47.4625 19.3592 49.1111 26.7778C49.689 29.3784 54.1574 27.75 54.7778 25.8889C55.6266 23.3425 55 19.7677 55 17.1111C55 2.49463 57.221 -1.68843 43 3.99999" stroke="black" stroke-width="2" stroke-linecap="round"/>
<path d="M223 30C222.041 35.8738 221 41.6029 221 47.5556C221 49.1271 223.781 54.765 224.667 50.7778C225.632 46.4341 223 37.0938 223 32" stroke="black" stroke-width="2" stroke-linecap="round"/>
</svg>
