<svg width="111" height="189" viewBox="0 0 111 189" fill="none" xmlns="http://www.w3.org/2000/svg">
<path d="M1.34787 25.7778C0.239474 20.79 2.044 14.717 3.07296 9.80768C13.9555 14.0025 30.9257 11 42.3479 11H82.3479C92.3585 11 95.2368 9.36247 95.2368 20.1111C95.2368 25.3307 93.8014 33.3319 96.7923 37.4444C97.8227 38.8613 99.2368 50.8823 99.2368 53C99.2368 59.0959 101.237 64.1014 101.237 69.4444C101.237 77.6259 107.237 84.6494 107.237 93.4444C107.237 100.969 109.237 108.153 109.237 115.889C109.237 118.814 111.203 135.823 106.126 130.111C104.304 128.062 106.802 123.198 103.237 123C100.557 122.851 94.5306 121.896 93.459 125.111C91.3134 131.548 90.9164 158.599 94.7923 163.444C97.3991 166.703 95.5655 177.515 97.2368 182.111C99.9128 189.47 89.687 188.875 87.6812 184.111C86.2271 180.658 87.2368 175.166 87.2368 171.444C87.2368 166.981 83.6317 167.213 83.2368 163C82.6891 157.159 77.9636 150.433 72.0145 149.111C59.7244 146.38 47.2368 153.087 47.2368 166.111C47.2368 169.722 49.2902 182.557 46.2368 185C39.5161 190.377 37.2368 185.417 37.2368 179C37.2368 165.379 35.2368 151.727 35.2368 138.556C35.2368 131.36 31.0423 128.714 27.6812 123C23.4138 115.745 19.5797 121.193 16.0145 122.778C9.02005 125.886 11.2368 93.0077 11.2368 88V47C11.2368 43.7482 13.1046 28.5956 10.0145 27.2222C8.16651 26.4009 1.93701 28.4289 1.34787 25.7778Z" fill="white"/>
<path d="M3.23676 9C2.25367 14.0383 0.177848 20.5127 1.34787 25.7778C1.93701 28.4289 8.16651 26.4009 10.0145 27.2222C13.1046 28.5956 11.2368 43.7482 11.2368 47C11.2368 60.6667 11.2368 74.3333 11.2368 88C11.2368 93.0077 9.02005 125.886 16.0145 122.778C19.5797 121.193 23.4138 115.745 27.6812 123C31.0423 128.714 35.2368 131.36 35.2368 138.556C35.2368 151.727 37.2368 165.379 37.2368 179C37.2368 185.417 39.5161 190.377 46.2368 185C49.2902 182.557 47.2368 169.722 47.2368 166.111C47.2368 153.087 59.7244 146.38 72.0145 149.111C77.9636 150.433 82.6891 157.159 83.2368 163C83.6317 167.213 87.2368 166.981 87.2368 171.444C87.2368 175.166 86.2271 180.658 87.6812 184.111C89.687 188.875 99.9128 189.47 97.2368 182.111C95.5655 177.515 97.3991 166.703 94.7923 163.444C90.9164 158.599 91.3134 131.548 93.459 125.111C94.5306 121.896 100.557 122.851 103.237 123C106.802 123.198 104.304 128.062 106.126 130.111C111.203 135.823 109.237 118.814 109.237 115.889C109.237 108.153 107.237 100.969 107.237 93.4444C107.237 84.6494 101.237 77.6259 101.237 69.4444C101.237 64.1014 99.2368 59.0959 99.2368 53C99.2368 50.8823 97.8227 38.8613 96.7923 37.4444C93.8014 33.3319 95.2368 25.3307 95.2368 20.1111C95.2368 9.36247 92.3585 11 82.3479 11C69.0145 11 55.6812 11 42.3479 11C30.2608 11 11.9611 14.3622 1.23676 9" stroke="black" stroke-width="2" stroke-linecap="round"/>
<path d="M19 20C19 13.8185 17 7.87742 17 1C28.7622 1 25.5455 13.1804 25 23C24.7376 27.7236 19 24.1584 19 20Z" stroke="black" stroke-width="2" stroke-linecap="round"/>
<path d="M67 1C67 7.70365 66.4842 14.7388 67 21.4444C67.5304 28.34 73 24.1755 73 19C73 7.58059 76.173 1 63 1" stroke="black" stroke-width="2" stroke-linecap="round"/>
</svg>
