<svg width="38" height="67" viewBox="0 0 38 67" fill="none" xmlns="http://www.w3.org/2000/svg">
<path d="M21 32.8889C21 28.2167 18.1924 16.8093 16.3342 8.94446C20.5832 8.68844 30.6196 7.767 31 11C31.5668 15.8175 31 21.0369 31 25.8889C31 34.4453 44.1812 65 31.1111 65C24.9122 65 25 67.6031 25 59C25 54.4294 25.5332 49.5324 25 45C24.6923 42.3847 21.2332 43.471 21 40.5555C20.7987 38.0391 21 35.4147 21 32.8889Z" fill="white"/>
<path d="M15 3C16.204 9.17051 21 26.7823 21 32.8889C21 35.4147 20.7987 38.0391 21 40.5555C21.2332 43.471 24.6923 42.3847 25 45C25.5332 49.5324 25 54.4294 25 59C25 67.6031 24.9122 65 31.1111 65C44.1812 65 31 34.4453 31 25.8889C31 21.0369 31.5668 15.8175 31 11C30.57 7.34476 17.7969 8.99998 15 8.99998" stroke="black" stroke-width="2" stroke-linecap="round"/>
<path d="M25 3C25 34.0666 34.5125 1 25 1" stroke="black" stroke-width="2" stroke-linecap="round"/>
<path d="M3 35C3 26.0778 1.26696 17.9182 1.02735 9.00002C8.7907 9.01214 13 14.1836 13 22C13 26.1058 15.4397 43.6715 12.5556 46.5556C4.56163 54.5495 3 37.8034 3 35Z" fill="white"/>
<path d="M1 7C1 16.7105 3 25.4152 3 35C3 37.8034 4.56163 54.5495 12.5556 46.5556C15.4397 43.6715 13 26.1058 13 22C13 14.1744 8.78082 9 1 9" stroke="black" stroke-width="2" stroke-linecap="round"/>
<path d="M3 4.99999C7.1493 26.2652 12.8472 10.5389 9 8.99999C5.39867 7.55946 7.2074 -3.41481 3 4.99999Z" stroke="black" stroke-width="2" stroke-linecap="round"/>
</svg>
