<svg width="120" height="270" viewBox="0 0 120 270" fill="none" xmlns="http://www.w3.org/2000/svg">
<path d="M23.0792 42.1801V8.235C31.8501 7.39066 54.7358 5.27398 67.5119 4.8953C83.5031 4.42133 113.515 -1.56098 102.663 25.1766C99.7522 32.3485 101.281 42.1417 101.281 49.9649V69.017C101.281 78.1415 104.473 85.9939 104.835 94.8296C105.898 120.723 104.339 145.93 110.365 170.936C113.707 184.806 113.34 198.586 115.894 212.83C117.722 223.021 121.176 243.318 117.079 252.88C112.273 264.098 106.472 263.021 95.5539 263.021H80.9405C76.1797 263.021 75.0551 266.709 71.0665 266.709C62.4283 266.709 58.6254 272.136 58.6254 258.924V215.903V167.146C58.6254 158.583 56.6761 146.446 60.0077 138.67C62.0916 133.806 59.8732 126.368 60.5014 121.154C61.392 113.763 62.18 107.056 62.18 99.3366C62.18 95.3083 64.2799 86.2388 59.0203 86.0206C53.8914 85.8077 55.1144 91.5976 52.306 95.2393C49.1107 99.3828 50.9943 107.759 48.8502 112.653C46.8901 117.126 44.4069 122.677 44.4069 127.607C44.4069 141.441 37.9846 153.605 37.2977 167.146C36.7297 178.34 33.743 186.249 33.743 197.465V216.517C33.743 223.732 30.1884 229.508 30.1884 236.799C30.1884 246.267 31.5975 257.221 30.0897 266.606C29.4811 270.394 11.7158 268.552 7.97208 268.552C-2.18787 268.552 1.7515 254.619 1.7515 246.018V214.162C1.7515 202.068 5.58125 192.149 7.08343 180.462C8.57057 168.891 15.97 160.25 15.97 147.684C15.97 128.476 13.9085 107.835 16.0687 88.7862C17.8447 73.1256 23.0792 58.0762 23.0792 42.1801Z" fill="white"/>
<path d="M23.0792 6.73906C23.0792 18.5528 23.0792 30.3664 23.0792 42.1801C23.0792 58.0762 17.8447 73.1256 16.0687 88.7862C13.9085 107.835 15.97 128.476 15.97 147.684C15.97 160.25 8.57057 168.891 7.08343 180.462C5.58125 192.149 1.7515 202.068 1.7515 214.162C1.7515 224.78 1.7515 235.399 1.7515 246.018C1.7515 254.619 -2.18787 268.552 7.97208 268.552C11.7158 268.552 29.4811 270.394 30.0897 266.606C31.5975 257.221 30.1884 246.267 30.1884 236.799C30.1884 229.508 33.743 223.732 33.743 216.517C33.743 210.167 33.743 203.816 33.743 197.465C33.743 186.249 36.7297 178.34 37.2977 167.146C37.9846 153.605 44.4069 141.441 44.4069 127.607C44.4069 122.677 46.8901 117.126 48.8502 112.653C50.9943 107.759 49.1107 99.3828 52.306 95.2393C55.1144 91.5976 53.8914 85.8077 59.0203 86.0206C64.2799 86.2388 62.18 95.3083 62.18 99.3366C62.18 107.056 61.392 113.763 60.5014 121.154C59.8732 126.368 62.0916 133.806 60.0077 138.67C56.6761 146.446 58.6254 158.583 58.6254 167.146C58.6254 183.398 58.6254 199.651 58.6254 215.903C58.6254 230.243 58.6254 244.584 58.6254 258.924C58.6254 272.136 62.4283 266.709 71.0665 266.709C75.0551 266.709 76.1797 263.021 80.9405 263.021C85.8116 263.021 90.6827 263.021 95.5539 263.021C106.472 263.021 112.273 264.098 117.079 252.88C121.176 243.318 117.722 223.021 115.894 212.83C113.34 198.586 113.707 184.806 110.365 170.936C104.339 145.93 105.898 120.723 104.835 94.8296C104.473 85.9939 101.281 78.1415 101.281 69.017C101.281 62.6663 101.281 56.3156 101.281 49.9649C101.281 42.1417 99.7522 32.3485 102.663 25.1766C113.515 -1.56098 83.5031 4.42133 67.5119 4.8953C51.4788 5.37052 19.5246 8.58282 19.5246 8.58282" stroke="black" stroke-width="2" stroke-linecap="round"/>
<path d="M36.0001 1C36.0001 3.9193 33.7485 17.8596 36.4445 20.5556C39.3414 23.4525 44.0001 20.2917 44.0001 17C44.0001 9.32228 45.3327 3 36.0001 3" stroke="black" stroke-width="2" stroke-linecap="round"/>
<path d="M80 1C80 7.06271 76.4604 19 84.8889 19C88.5833 19 91.9302 20.3743 89.5556 15.8889C87.6489 12.2875 84 11.6122 84 7C84 1.63371 80.4669 3 76 3" stroke="black" stroke-width="2" stroke-linecap="round"/>
</svg>
