<svg width="5467" height="187" viewBox="0 0 5467 187" fill="none" xmlns="http://www.w3.org/2000/svg">
<path d="M3.81433 169.951C-3.26122 179.048 4.65666 181.322 9.50005 181.322H32.8746C38.9394 181.322 38.3498 175.847 37.2969 173.109C32.7483 162.496 24.8725 168.687 21.5032 173.109C16.9546 166.539 7.81539 168.266 3.81433 169.951Z" fill="white"/>
<path d="M15.1857 178.795C11.6758 179.464 4.04124 181.983 1.56805 177.532C-0.0254265 174.663 3.04904 170.983 5.07775 169.389C8.38583 166.79 11.1124 165.979 15.1857 167.143C17.395 167.774 18.5163 168.997 20.1695 170.512C20.8648 171.15 21.223 173.845 21.5733 172.969C28.0353 156.814 48.0997 174.984 32.8746 180.059" stroke="black" stroke-width="2" stroke-linecap="round"/>
<path d="M507.812 81.9807L515.393 182.152H693.546V68.9714L583.622 6.52686L507.812 81.9807Z" fill="white"/>
<path d="M509.076 83.1594C512.095 76.4764 517.546 69.9761 523.834 66.827C525.023 66.2317 524.627 65.2892 525.279 64.3462C526.679 62.3202 528.767 62.3515 530.646 61.1417C532.723 59.8044 532.826 57.461 534.567 55.9732C536.869 54.007 539.089 51.8704 541.172 49.6677C544.277 46.3847 546.444 41.0269 550.822 39.3825C552.869 38.6136 552.915 36.5333 553.763 34.8342C554.783 32.79 557.577 33.1782 559.233 31.8882C561.942 29.7775 562.411 24.0072 565.373 22.6883C568.287 21.391 569.675 16.7837 571.772 14.2637C573.213 12.5317 574.904 12.6771 576.468 11.1109C577.65 9.92639 578.34 7.28049 579.873 6.66603C582.408 5.65042 583.211 3.1568 586.375 4.28853C590.875 5.8984 593.517 9.34365 597.108 12.0412C602.731 16.2653 607.322 21.4297 614.033 23.6703C618.69 25.2249 622.458 29.0184 627.037 30.4927C629.385 31.2486 631.714 31.3346 633.951 32.5084C636.208 33.6924 637.435 35.8242 639.989 36.5915C641.859 37.1536 641.915 37.8929 643.24 39.0207C644.668 40.2369 647.38 39.9467 649.122 41.2948C653.504 44.6861 656.864 47.0166 662.023 49.1509C667.787 51.5356 672.264 55.4339 678.122 57.1103C681.092 57.9602 683.15 58.8385 685.346 61.0384C686.139 61.8326 688.568 63.8508 689.681 64.3462C692.799 65.7344 692.223 67.5702 692.055 71.2719C691.954 73.484 690.306 74.9836 690.197 77.0606C690.06 79.6636 690.197 82.309 690.197 84.9167C690.197 97.2312 688.719 110.57 691.59 122.647C693.658 131.343 690.13 141.044 692.158 149.678C693.838 156.829 693.912 163.292 693.912 170.817C693.912 173.608 693.912 176.399 693.912 179.19C693.912 181.736 694.929 185.671 692.983 181.774" stroke="black" stroke-width="2" stroke-linecap="round"/>
<path d="M515.077 182.784C516.078 178.004 516.025 173.496 516.025 168.651C516.025 165.683 514.13 162.144 514.13 159.327C514.13 150.648 513.182 142.051 513.182 133.514C513.182 124.373 508.444 117.169 508.444 108.094C508.444 99.7187 508.444 91.3435 508.444 82.9683" stroke="black" stroke-width="2" stroke-linecap="round"/>
<path d="M583.622 182.153C569.441 181.863 560.613 168.88 577.585 161.937C583.632 159.463 594.033 158.959 597.239 165.727C598.864 169.158 595.941 162.165 600.047 160.112C603.434 158.418 611.672 158.54 614.507 161.375C615.689 162.557 614.572 165.096 617.034 163.902C619.722 162.599 621.879 161.12 624.685 160.041C630.182 157.927 635.808 160.593 635.214 167.131C634.857 171.063 632.184 176.811 629.107 179.345C627.33 180.808 625.028 181.467 624.053 183.416" stroke="black" stroke-width="2" stroke-linecap="round"/>
<path d="M128.791 106.343V182.153H401.705V124.032L327.159 98.7621L296.835 116.451V98.7621L212.181 63.3843L128.791 106.343Z" fill="white"/>
<path d="M128.159 104.448C132.679 103.736 137.012 102.498 141.195 100.71C145.355 98.9314 148.011 94.3796 152.692 93.4901C162.982 91.5348 172.258 83.5469 181.947 79.1531C191.154 74.9778 198.817 68.2082 208.071 64.4065C211.115 63.156 213.15 62.1487 216.129 63.1776C219.645 64.3918 222.856 65.6244 226.497 66.4546C229.979 67.2487 233.249 67.2941 236.3 69.4244C240.749 72.5317 244.571 74.7181 249.593 76.3881C253.225 77.5961 257.234 79.2709 260.679 80.894C262.955 81.9664 265.796 83.6385 268.275 84.0687C271.471 84.6232 273.47 83.8378 276.179 85.6048C278.425 87.0697 281.42 87.666 283.313 89.2402C284.649 90.3507 284.954 92.6133 286.701 93.3877C291.411 95.4764 294.947 100.424 299.994 101.683" stroke="black" stroke-width="2" stroke-linecap="round"/>
<path d="M241.873 46.9587V82.3365H251.981V46.9587H241.873Z" fill="white"/>
<path d="M245.144 75.097C243.173 69.9356 242.406 62.4955 243.502 57.4561C243.789 56.1369 242.71 50.6181 243.901 49.9735C245.902 48.8915 250.726 49.7009 252.957 49.7921C254.842 49.8691 254.058 55.6476 253.135 56.6852C251.498 58.5247 252.336 63.2862 252.336 65.755C252.336 68.3853 252.336 71.0155 252.336 73.6458C252.336 74.8515 252.225 82.0818 253.135 78.3621" stroke="black" stroke-width="2" stroke-linecap="round"/>
<path d="M281.673 128.454C289.222 125.199 294.806 118.844 302.505 115.66C305.243 114.528 307.551 111.608 310.466 110.176C312.721 109.069 316.008 107.633 317.238 105.404C318.486 103.141 323.665 102.481 325.922 100.835C329.631 98.1286 329.123 98.2684 332.901 100.124C336.204 101.746 338.594 101.952 342.257 101.952C346.09 101.952 347.952 103.238 351.459 103.982C357.552 105.276 362.462 108.152 368.207 109.72C370.286 110.287 372.785 111.628 374.772 111.953C377.316 112.37 378.958 113.832 381.441 113.832C384.237 113.832 390.248 116.226 392.348 117.944C394.976 120.095 398.324 121.311 401.705 122.971" stroke="black" stroke-width="2" stroke-linecap="round"/>
<path d="M126.769 105.711C126.941 110.042 129.34 113.565 129.422 117.757C129.485 121.014 129.422 124.28 129.422 127.538C129.422 135.379 129.422 143.221 129.422 151.063C129.422 156.038 131.32 166.491 128.538 170.573C127.444 172.176 127.068 175.605 126.818 177.574C126.697 178.524 125 183.776 125 182.619" stroke="black" stroke-width="2" stroke-linecap="round"/>
<path d="M298.099 100.025C297.678 103.679 297.467 107.094 297.467 110.765" stroke="black" stroke-width="2" stroke-linecap="round"/>
<path d="M279.778 128.454C279.778 134.114 281.673 138.684 281.673 144.11C281.673 149.73 281.673 155.35 281.673 160.97C281.673 165.729 280.879 170.338 280.725 175.02C280.675 176.55 280.725 185.705 280.725 180.64" stroke="black" stroke-width="2" stroke-linecap="round"/>
<path d="M402.336 123.4C402.336 143.069 402.968 162.333 402.968 182.152" stroke="black" stroke-width="2" stroke-linecap="round"/>
<path d="M181.857 163.2C187.088 154.952 198.476 147.135 202.143 159.971C202.24 160.31 208.021 156.185 209.373 155.619C215.01 153.26 219.145 152.749 224.816 155.9C227.564 157.427 224.334 161.687 228.747 159.971C234.196 157.852 240.346 156.365 246.225 156.953C261.84 158.514 250.187 179.575 242.505 183.416" stroke="black" stroke-width="2" stroke-linecap="round"/>
<path d="M308.206 179.625C299.258 172.846 300.32 163.948 313.26 165.797C314.881 166.029 319.639 170.641 318.946 170.641C316.431 170.641 319.407 165.608 320.841 165.095C325.793 163.327 332.213 166.427 332.213 172.044C332.213 177.55 322.769 178.297 320.841 182.152" stroke="black" stroke-width="2" stroke-linecap="round"/>
<path d="M149.006 179.625C146.441 172.892 146.797 165.168 156.306 164.464C160.205 164.175 166.393 165.942 166.695 170.781C166.779 172.121 167.78 169.606 168.66 168.886C170.759 167.169 173.293 166.289 175.82 165.446C180.064 164.032 181.494 167.453 184.384 166.008C189.353 163.523 200.775 159.576 203.055 167.271C205.737 176.322 198.904 177.118 195.755 183.416" stroke="black" stroke-width="2" stroke-linecap="round"/>
<path d="M783.378 106.747C787.977 100.734 797.729 95.9611 803.625 102.707C804.327 104.548 805.817 106.75 807.578 107.454C809.223 108.113 809.847 111.615 811.82 112.404C813.967 113.263 812.527 127.017 812.527 129.689C812.527 131.42 812.61 137.63 811.113 138.528C810.373 138.973 808.285 146.299 808.285 147.367C808.285 149.895 802.964 153.774 800.821 154.163C797.706 154.73 795.613 154.651 792.689 154.163C790.04 153.722 787.86 152.66 785.971 150.981C782.906 148.256 781.825 147.626 781.414 143.517C781.246 141.839 780 140.882 780 138.96V134.325V124.818C780 119.77 780.276 110.805 783.378 106.747Z" fill="white"/>
<path d="M804.042 103.212C798.199 95.733 788.087 100.59 783.378 106.747C780.276 110.805 780 119.77 780 124.818C780 127.987 780 131.156 780 134.325C780 135.87 780 137.415 780 138.96C780 140.882 781.246 141.839 781.414 143.517C781.825 147.626 782.906 148.256 785.971 150.981C787.86 152.66 790.04 153.722 792.689 154.163C795.613 154.651 797.706 154.73 800.821 154.163C802.964 153.774 808.285 149.895 808.285 147.367C808.285 146.299 810.373 138.973 811.113 138.528C812.61 137.63 812.527 131.42 812.527 129.689C812.527 127.017 813.967 113.263 811.82 112.404C809.847 111.615 809.223 108.113 807.578 107.454C805.514 106.629 803.822 103.745 803.335 101.797" stroke="black" stroke-width="2" stroke-linecap="round"/>
<path d="M795.557 170.584C795.557 164.709 794.433 159.503 794.189 153.771C798.895 153.809 799.092 159.729 799.092 163.827C799.092 169.618 800.248 174.962 799.8 180.798C799.673 182.437 797.222 182.29 795.989 182.016C795.172 181.834 795.557 179.537 795.557 178.873V170.584Z" fill="white"/>
<path d="M794.143 151.649C794.143 158.244 795.557 163.993 795.557 170.584C795.557 173.347 795.557 176.11 795.557 178.873C795.557 179.537 795.172 181.834 795.989 182.016C797.222 182.29 799.673 182.437 799.8 180.798C800.248 174.962 799.092 169.618 799.092 163.827C799.092 159.715 798.894 153.771 794.143 153.771" stroke="black" stroke-width="2" stroke-linecap="round"/>
<path d="M1245 182.346C1223 182.346 1215 184.346 1193 184.346C1187.61 184.346 1168.03 187.206 1165.11 182.346C1162 177.164 1161 166.011 1161 159.901C1161 142.014 1159 124.793 1159 106.79C1159 93.7785 1167.55 93.6445 1177 87.5679C1182.04 84.3285 1189.66 73.4581 1195.44 72.3457C1201.65 71.153 1208.16 55.4343 1215 54.4568C1221.61 53.5121 1229.25 69.1516 1233 73.679C1237.26 78.8109 1239.87 84.5933 1245 88.7901C1247.81 91.0881 1253.39 96.1072 1254.89 99.3457C1258.52 107.212 1265.62 112.89 1273.44 115.901C1281.39 118.955 1277 155.458 1277 163.901C1277 172.348 1280.24 180.346 1270 180.346C1261.4 180.346 1253.91 182.346 1245 182.346Z" fill="white" stroke="black" stroke-width="2" stroke-linecap="round"/>
<path d="M1098.14 173.153C1103.46 178.472 1103.2 179.887 1111.71 180.222C1119.06 184.19 1131.96 182.255 1134.81 172.265C1137.36 163.334 1131.2 150.701 1120.92 159.265C1118.98 160.882 1111.26 169.405 1111.03 163.82C1110.79 157.665 1105.33 156.457 1099.48 158.709C1092.71 161.313 1094.76 169.774 1098.14 173.153Z" fill="white"/>
<path d="M1113.03 180.265C1103.17 180.018 1103.73 178.736 1098.14 173.153C1094.76 169.774 1092.71 161.313 1099.48 158.709C1105.33 156.457 1110.79 157.665 1111.03 163.82C1111.26 169.405 1118.98 160.882 1120.92 159.265C1131.2 150.701 1137.36 163.334 1134.81 172.265C1131.57 183.624 1115.34 184.569 1109.03 178.265" stroke="black" stroke-width="2" stroke-linecap="round"/>
<path d="M1285.64 168.951C1292.71 178.048 1284.8 180.322 1279.95 180.322H1256.58C1250.51 180.322 1251.1 174.847 1252.16 172.109C1256.71 161.496 1264.58 167.687 1267.95 172.109C1272.5 165.539 1281.64 167.266 1285.64 168.951Z" fill="white"/>
<path d="M1274.27 177.795C1277.78 178.464 1285.41 180.983 1287.89 176.532C1289.48 173.663 1286.4 169.983 1284.38 168.389C1281.07 165.79 1278.34 164.979 1274.27 166.143C1272.06 166.774 1270.94 167.997 1269.28 169.512C1268.59 170.15 1268.23 172.845 1267.88 171.969C1261.42 155.814 1241.35 173.984 1256.58 179.059" stroke="black" stroke-width="2" stroke-linecap="round"/>
<path d="M911.453 168.473C911.453 153.721 920.195 136.947 925.453 123.473C927.844 123.473 940.618 120.023 939.008 124.584C937.616 128.531 934.811 132.176 933.675 135.584C932.313 139.671 932.664 148.904 929.453 151.473C926.62 153.74 921.585 162.621 921.453 165.917C921.309 169.524 919.722 181.179 915.897 181.473C905.717 182.256 911.453 174.87 911.453 168.473Z" fill="white" stroke="black" stroke-width="2" stroke-linecap="round"/>
<path d="M933.453 165.917C934.095 149.212 945.453 138.528 945.453 121.473C945.453 119.302 947.029 106.285 951.342 113.473C953.974 117.861 957.848 113.578 955.897 119.917C954.426 124.699 955.846 127.312 952.342 131.473C950.336 133.855 951.453 139.592 951.453 142.473C951.453 146.742 948.334 146.889 947.342 150.362C945.553 156.624 941.453 162.301 941.453 169.473C941.453 184.007 937.229 173.253 931.453 180.473C928.869 183.702 933.409 167.06 933.453 165.917Z" fill="white" stroke="black" stroke-width="2" stroke-linecap="round"/>
<path d="M893.452 151.473V183.473C893.452 183.473 901.366 183.186 901.452 181.028C901.653 176.01 901.452 170.941 901.452 165.917C901.452 161.613 903.946 139.708 900.564 137.917C890.315 132.492 893.452 145.073 893.452 151.473Z" fill="white" stroke="black" stroke-width="2" stroke-linecap="round"/>
<path d="M955.008 142.584C950.521 152.68 951.453 170.467 951.453 181.473C962.089 192.109 959.453 164.359 959.453 159.028C959.453 153.974 962.625 151.219 963.564 145.584C964.028 142.802 965.199 141.087 965.453 137.917C965.686 135.002 969.145 136.088 969.453 133.473C970.205 127.078 965.483 125.722 959.564 127.695C955.48 129.056 956.496 139.236 955.008 142.584Z" fill="white" stroke="black" stroke-width="2" stroke-linecap="round"/>
<path d="M967.453 141.028C967.453 154.896 974.027 167.493 975.298 181.285C976.286 182.048 977.756 182.534 979.897 183.028C984.746 184.147 983.453 176.685 983.453 173.917C983.453 168.189 981.453 162.452 981.453 155.917C981.453 151.61 977.79 152.512 977.453 149.473C977.076 146.082 977.453 142.447 977.453 139.028V117.917C977.453 109.434 967.453 108.437 967.453 117.028V141.028Z" fill="white"/>
<path d="M975.453 183.473C974.738 168.815 967.453 155.626 967.453 141.028C967.453 133.028 967.453 125.028 967.453 117.028C967.453 108.437 977.453 109.434 977.453 117.917C977.453 124.954 977.453 131.991 977.453 139.028C977.453 142.447 977.076 146.082 977.453 149.473C977.79 152.512 981.453 151.61 981.453 155.917C981.453 162.452 983.453 168.189 983.453 173.917C983.453 176.685 984.746 184.147 979.897 183.028C974.688 181.826 973.453 180.669 973.453 175.473" stroke="black" stroke-width="2" stroke-linecap="round"/>
<path d="M985.453 141.028C985.453 154.399 990.551 166.578 993.453 179.473C983.571 181.943 995.241 185.589 997.008 182.584C999.225 178.816 997.433 171.122 995.897 167.473C992.569 159.569 995.453 144.53 995.453 135.917C995.453 127.578 988.64 134.349 983.897 131.028C981.134 129.094 985.453 137.655 985.453 141.028Z" fill="white" stroke="black" stroke-width="2" stroke-linecap="round"/>
<path d="M999.453 157.028C999.739 164.763 1000.7 174.421 1003.45 181.473C1001.98 182.209 1009.45 186.374 1009.45 177.028V159.473C1009.45 154.876 1011.55 125.714 1007.45 125.473C1005.34 125.348 990.203 123.612 989.897 123.917C989.783 124.031 993.305 137.029 993.897 139.028C996.107 146.487 999.156 149.024 999.453 157.028Z" fill="white" stroke="black" stroke-width="2" stroke-linecap="round"/>
<path d="M1014.52 129.63C1015.85 146.188 1015.58 162.916 1015.58 179.856C1017.21 185.626 1024.61 184.532 1024.61 176.284V158.203C1024.61 145.567 1030.94 136.751 1032.45 124.608C1032.54 123.896 1013.19 113.061 1014.52 129.63Z" fill="white" stroke="black" stroke-width="2" stroke-linecap="round"/>
<path d="M1039.45 138.473C1045.63 146.498 1043.64 169.551 1043.46 180.16C1043.7 186.63 1047.45 178.576 1047.45 175.473V160.473V123.028C1047.45 119.383 1038.07 120.559 1037.56 123.584C1036.83 128.013 1036.72 134.917 1039.45 138.473Z" fill="white"/>
<path d="M1043.45 181.473C1043.45 171.588 1045.89 146.847 1039.45 138.473C1036.72 134.917 1036.83 128.013 1037.56 123.584C1038.07 120.559 1047.45 119.383 1047.45 123.028C1047.45 135.51 1047.45 147.991 1047.45 160.473C1047.45 165.473 1047.45 170.473 1047.45 175.473C1047.45 178.678 1043.45 187.165 1043.45 179.473" stroke="black" stroke-width="2" stroke-linecap="round"/>
<path d="M1049.5 178.14C1050.02 167.661 1053.45 157.688 1053.45 147.028V123.028C1053.45 118.172 1050.79 101.951 1057.01 101.473C1066.51 100.742 1065.45 107.136 1065.45 114.473V134.584C1065.45 142.215 1061.45 147.495 1061.45 155.473V176.362C1061.45 180.413 1051.92 180.486 1049.46 179.357C1048.74 179.029 1048.62 178.601 1049.5 178.14Z" fill="white"/>
<path d="M1049.45 179.473C1049.73 168.504 1053.45 158.139 1053.45 147.028C1053.45 139.028 1053.45 131.028 1053.45 123.028C1053.45 118.172 1050.79 101.951 1057.01 101.473C1066.51 100.742 1065.45 107.136 1065.45 114.473C1065.45 121.177 1065.45 127.88 1065.45 134.584C1065.45 142.215 1061.45 147.495 1061.45 155.473C1061.45 162.436 1061.45 169.399 1061.45 176.362C1061.45 182.141 1042.05 179.823 1051.45 177.473" stroke="black" stroke-width="2" stroke-linecap="round"/>
<path d="M1066.45 145.362C1062.47 150.145 1065.45 174.11 1065.45 179.473C1074.7 188.716 1077.45 181.229 1077.45 171.917C1077.45 164.448 1079.45 157.518 1079.45 150.362C1079.45 140.66 1072.77 137.778 1066.45 145.362Z" fill="white" stroke="black" stroke-width="2" stroke-linecap="round"/>
<path d="M432.138 150.791C432.138 160.383 436.536 169.12 439.038 178.371C430.515 180.143 440.58 182.758 442.104 180.603C444.016 177.9 442.471 172.38 441.146 169.762C438.276 164.092 440.763 153.303 440.763 147.125C440.763 141.143 434.887 145.999 430.797 143.617C428.413 142.23 432.138 148.371 432.138 150.791Z" fill="white" stroke="black" stroke-width="2" stroke-linecap="round"/>
<path d="M490.862 151.791C490.862 161.383 486.464 170.12 483.962 179.371C492.485 181.143 482.42 183.758 480.896 181.603C478.984 178.9 480.529 173.38 481.854 170.762C484.724 165.092 482.237 154.303 482.237 148.125C482.237 142.143 488.113 146.999 492.203 144.617C494.587 143.23 490.862 149.371 490.862 151.791Z" fill="white" stroke="black" stroke-width="2" stroke-linecap="round"/>
<path d="M444.085 162.512C444.328 168.135 445.141 175.156 447.469 180.282C446.223 180.818 452.545 183.845 452.545 177.051V164.289C452.545 160.948 454.322 139.748 450.853 139.573C449.063 139.482 436.261 138.22 436.002 138.442C435.906 138.525 438.885 147.974 439.386 149.427C441.255 154.849 443.835 156.693 444.085 162.512Z" fill="white" stroke="black" stroke-width="2" stroke-linecap="round"/>
<path d="M457.055 142.957C458.162 154.784 457.943 166.732 457.943 178.832C459.294 182.954 465.468 182.173 465.468 176.281V163.366C465.468 154.34 470.736 148.043 472 139.369C472.074 138.861 455.946 131.121 457.055 142.957Z" fill="white" stroke="black" stroke-width="2" stroke-linecap="round"/>
<path d="M2050.81 166.951C2043.74 176.048 2051.66 178.322 2056.5 178.322H2079.87C2085.94 178.322 2085.35 172.847 2084.3 170.109C2079.75 159.496 2071.87 165.687 2068.5 170.109C2063.95 163.539 2054.82 165.266 2050.81 166.951Z" fill="white"/>
<path d="M2062.19 175.795C2058.68 176.464 2051.04 178.983 2048.57 174.532C2046.97 171.663 2050.05 167.983 2052.08 166.389C2055.39 163.79 2058.11 162.979 2062.19 164.143C2064.4 164.774 2065.52 165.997 2067.17 167.512C2067.86 168.15 2068.22 170.845 2068.57 169.969C2075.04 153.814 2095.1 171.984 2079.87 177.059" stroke="black" stroke-width="2" stroke-linecap="round"/>
<path d="M5036 182.93C5014 182.93 5006 184.93 4984 184.93C4978.61 184.93 4959.03 187.79 4956.11 182.93C4953 177.748 4952 166.595 4952 160.485C4952 142.599 4950 125.377 4950 107.374C4950 94.3628 4958.55 94.2287 4968 88.1521C4973.04 84.9128 4980.66 74.0423 4986.44 72.9299C4992.65 71.7372 4999.16 56.0185 5006 55.041C5012.61 54.0963 5020.25 69.7358 5024 74.2632C5028.26 79.3951 5030.87 85.1776 5036 89.3744C5038.81 91.6723 5044.39 96.6914 5045.89 99.9299C5049.52 107.796 5056.62 113.475 5064.44 116.485C5072.39 119.54 5068 156.043 5068 164.485C5068 172.932 5071.24 180.93 5061 180.93C5052.4 180.93 5044.91 182.93 5036 182.93Z" fill="white" stroke="black" stroke-width="2" stroke-linecap="round"/>
<path d="M5036.81 168.535C5029.74 177.632 5037.66 179.906 5042.5 179.906H5065.87C5071.94 179.906 5071.35 174.431 5070.3 171.694C5065.75 161.08 5057.87 167.271 5054.5 171.694C5049.95 165.123 5040.82 166.85 5036.81 168.535Z" fill="white"/>
<path d="M5048.19 177.379C5044.68 178.048 5037.04 180.568 5034.57 176.116C5032.97 173.248 5036.05 169.567 5038.08 167.973C5041.39 165.374 5044.11 164.563 5048.19 165.727C5050.4 166.358 5051.52 167.581 5053.17 169.096C5053.86 169.734 5054.22 172.429 5054.57 171.553C5061.04 155.398 5081.1 173.568 5065.87 178.643" stroke="black" stroke-width="2" stroke-linecap="round"/>
<path d="M2554.81 78.9807L2562.39 179.152H2740.55V65.9714L2630.62 3.52686L2554.81 78.9807Z" fill="white"/>
<path d="M2556.08 80.1594C2559.09 73.4764 2564.55 66.9761 2570.83 63.827C2572.02 63.2317 2571.63 62.2892 2572.28 61.3462C2573.68 59.3202 2575.77 59.3515 2577.65 58.1417C2579.72 56.8044 2579.83 54.461 2581.57 52.9732C2583.87 51.007 2586.09 48.8704 2588.17 46.6677C2591.28 43.3847 2593.44 38.0269 2597.82 36.3825C2599.87 35.6136 2599.91 33.5333 2600.76 31.8342C2601.78 29.79 2604.58 30.1782 2606.23 28.8882C2608.94 26.7775 2609.41 21.0072 2612.37 19.6883C2615.29 18.391 2616.68 13.7837 2618.77 11.2637C2620.21 9.53171 2621.9 9.67707 2623.47 8.11091C2624.65 6.92639 2625.34 4.28049 2626.87 3.66603C2629.41 2.65042 2630.21 0.1568 2633.37 1.28853C2637.88 2.8984 2640.52 6.34365 2644.11 9.04124C2649.73 13.2653 2654.32 18.4297 2661.03 20.6703C2665.69 22.2249 2669.46 26.0184 2674.04 27.4927C2676.38 28.2486 2678.71 28.3346 2680.95 29.5084C2683.21 30.6924 2684.44 32.8242 2686.99 33.5915C2688.86 34.1536 2688.91 34.8929 2690.24 36.0207C2691.67 37.2369 2694.38 36.9467 2696.12 38.2948C2700.5 41.6861 2703.86 44.0166 2709.02 46.1509C2714.79 48.5356 2719.26 52.4339 2725.12 54.1103C2728.09 54.9602 2730.15 55.8385 2732.35 58.0384C2733.14 58.8326 2735.57 60.8508 2736.68 61.3462C2739.8 62.7344 2739.22 64.5702 2739.05 68.2719C2738.95 70.484 2737.31 71.9836 2737.2 74.0606C2737.06 76.6636 2737.2 79.309 2737.2 81.9167C2737.2 94.2312 2735.72 107.57 2738.59 119.647C2740.66 128.343 2737.13 138.044 2739.16 146.678C2740.84 153.829 2740.91 160.292 2740.91 167.817C2740.91 170.608 2740.91 173.399 2740.91 176.19C2740.91 178.736 2741.93 182.671 2739.98 178.774" stroke="black" stroke-width="2" stroke-linecap="round"/>
<path d="M2562.08 179.784C2563.08 175.004 2563.02 170.496 2563.02 165.651C2563.02 162.683 2561.13 159.144 2561.13 156.327C2561.13 147.648 2560.18 139.051 2560.18 130.514C2560.18 121.373 2555.44 114.169 2555.44 105.094C2555.44 96.7187 2555.44 88.3435 2555.44 79.9683" stroke="black" stroke-width="2" stroke-linecap="round"/>
<path d="M2630.62 179.153C2616.44 178.863 2607.61 165.88 2624.58 158.937C2630.63 156.463 2641.03 155.959 2644.24 162.727C2645.86 166.158 2642.94 159.165 2647.05 157.112C2650.43 155.418 2658.67 155.54 2661.51 158.375C2662.69 159.557 2661.57 162.096 2664.03 160.902C2666.72 159.599 2668.88 158.12 2671.69 157.041C2677.18 154.927 2682.81 157.593 2682.21 164.131C2681.86 168.063 2679.18 173.811 2676.11 176.345C2674.33 177.808 2672.03 178.467 2671.05 180.416" stroke="black" stroke-width="2" stroke-linecap="round"/>
<path d="M2175.79 103.343V179.153H2448.7V121.032L2374.16 95.7621L2343.83 113.451V95.7621L2259.18 60.3843L2175.79 103.343Z" fill="white"/>
<path d="M2175.16 101.448C2179.68 100.736 2184.01 99.4984 2188.2 97.7098C2192.35 95.9314 2195.01 91.3796 2199.69 90.4901C2209.98 88.5348 2219.26 80.5469 2228.95 76.1531C2238.15 71.9778 2245.82 65.2082 2255.07 61.4065C2258.12 60.156 2260.15 59.1487 2263.13 60.1776C2266.65 61.3918 2269.86 62.6244 2273.5 63.4546C2276.98 64.2487 2280.25 64.2941 2283.3 66.4244C2287.75 69.5317 2291.57 71.7181 2296.59 73.3881C2300.23 74.5961 2304.23 76.2709 2307.68 77.894C2309.96 78.9664 2312.8 80.6385 2315.27 81.0687C2318.47 81.6232 2320.47 80.8378 2323.18 82.6048C2325.42 84.0697 2328.42 84.666 2330.31 86.2402C2331.65 87.3507 2331.95 89.6133 2333.7 90.3877C2338.41 92.4764 2341.95 97.4239 2346.99 98.6827" stroke="black" stroke-width="2" stroke-linecap="round"/>
<path d="M2288.87 43.9587V79.3365H2298.98V43.9587H2288.87Z" fill="white"/>
<path d="M2292.14 72.097C2290.17 66.9356 2289.41 59.4955 2290.5 54.4561C2290.79 53.1369 2289.71 47.6181 2290.9 46.9735C2292.9 45.8915 2297.73 46.7009 2299.96 46.7921C2301.84 46.8691 2301.06 52.6476 2300.13 53.6852C2298.5 55.5247 2299.34 60.2862 2299.34 62.755C2299.34 65.3853 2299.34 68.0155 2299.34 70.6458C2299.34 71.8515 2299.22 79.0818 2300.13 75.3621" stroke="black" stroke-width="2" stroke-linecap="round"/>
<path d="M2328.67 125.454C2336.22 122.199 2341.81 115.844 2349.51 112.66C2352.24 111.528 2354.55 108.608 2357.47 107.176C2359.72 106.069 2363.01 104.633 2364.24 102.404C2365.49 100.141 2370.67 99.4813 2372.92 97.8346C2376.63 95.1286 2376.12 95.2684 2379.9 97.1238C2383.2 98.7457 2385.59 98.9515 2389.26 98.9515C2393.09 98.9515 2394.95 100.238 2398.46 100.982C2404.55 102.276 2409.46 105.152 2415.21 106.72C2417.29 107.287 2419.79 108.628 2421.77 108.953C2424.32 109.37 2425.96 110.832 2428.44 110.832C2431.24 110.832 2437.25 113.226 2439.35 114.944C2441.98 117.095 2445.32 118.311 2448.7 119.971" stroke="black" stroke-width="2" stroke-linecap="round"/>
<path d="M2173.77 102.711C2173.94 107.042 2176.34 110.565 2176.42 114.757C2176.49 118.014 2176.42 121.28 2176.42 124.538C2176.42 132.379 2176.42 140.221 2176.42 148.063C2176.42 153.038 2178.32 163.491 2175.54 167.573C2174.44 169.176 2174.07 172.605 2173.82 174.574C2173.7 175.524 2172 180.776 2172 179.619" stroke="black" stroke-width="2" stroke-linecap="round"/>
<path d="M2345.1 97.0254C2344.68 100.679 2344.47 104.094 2344.47 107.765" stroke="black" stroke-width="2" stroke-linecap="round"/>
<path d="M2326.78 125.454C2326.78 131.114 2328.67 135.684 2328.67 141.11C2328.67 146.73 2328.67 152.35 2328.67 157.97C2328.67 162.729 2327.88 167.338 2327.73 172.02C2327.68 173.55 2327.73 182.705 2327.73 177.64" stroke="black" stroke-width="2" stroke-linecap="round"/>
<path d="M2449.34 120.4C2449.34 140.069 2449.97 159.333 2449.97 179.152" stroke="black" stroke-width="2" stroke-linecap="round"/>
<path d="M2228.86 160.2C2234.09 151.952 2245.48 144.135 2249.14 156.971C2249.24 157.31 2255.02 153.185 2256.37 152.619C2262.01 150.26 2266.14 149.749 2271.82 152.9C2274.56 154.427 2271.33 158.687 2275.75 156.971C2281.2 154.852 2287.35 153.365 2293.23 153.953C2308.84 155.514 2297.19 176.575 2289.51 180.416" stroke="black" stroke-width="2" stroke-linecap="round"/>
<path d="M2355.21 176.625C2346.26 169.846 2347.32 160.948 2360.26 162.797C2361.88 163.029 2366.64 167.641 2365.95 167.641C2363.43 167.641 2366.41 162.608 2367.84 162.095C2372.79 160.327 2379.21 163.427 2379.21 169.044C2379.21 174.55 2369.77 175.297 2367.84 179.152" stroke="black" stroke-width="2" stroke-linecap="round"/>
<path d="M2196.01 176.625C2193.44 169.892 2193.8 162.168 2203.31 161.464C2207.21 161.175 2213.39 162.942 2213.69 167.781C2213.78 169.121 2214.78 166.606 2215.66 165.886C2217.76 164.169 2220.29 163.289 2222.82 162.446C2227.06 161.032 2228.49 164.453 2231.38 163.008C2236.35 160.523 2247.78 156.576 2250.06 164.271C2252.74 173.322 2245.9 174.118 2242.76 180.416" stroke="black" stroke-width="2" stroke-linecap="round"/>
<path d="M4476.18 102.384V178.194H4203.26V120.073L4277.81 94.8031L4308.13 112.492V94.8031L4392.79 59.4253L4476.18 102.384Z" fill="white"/>
<path d="M4476.81 100.489C4472.29 99.7769 4467.96 98.5396 4463.77 96.7511C4459.61 94.9727 4456.96 90.4209 4452.28 89.5314C4441.99 87.576 4432.71 79.5882 4423.02 75.1944C4413.81 71.019 4406.15 64.2494 4396.9 60.4478C4393.85 59.1972 4391.82 58.1899 4388.84 59.2189C4385.32 60.4331 4382.11 61.6657 4378.47 62.4959C4374.99 63.29 4371.72 63.3353 4368.67 65.4657C4364.22 68.5729 4360.4 70.7593 4355.38 72.4294C4351.74 73.6374 4347.73 75.3122 4344.29 76.9353C4342.01 78.0076 4339.17 79.6798 4336.69 80.1099C4333.5 80.6644 4331.5 79.879 4328.79 81.646C4326.54 83.111 4323.55 83.7072 4321.66 85.2815C4320.32 86.3919 4320.01 88.6546 4318.27 89.429C4313.56 91.5176 4310.02 96.4652 4304.97 97.7239" stroke="black" stroke-width="2" stroke-linecap="round"/>
<path d="M4363.1 43V78.3778H4352.99V43H4363.1Z" fill="white"/>
<path d="M4359.82 71.1382C4361.8 65.9769 4362.56 58.5368 4361.47 53.4974C4361.18 52.1781 4362.26 46.6594 4361.07 46.0147C4359.07 44.9327 4354.24 45.7422 4352.01 45.8333C4350.13 45.9103 4350.91 51.6888 4351.83 52.7264C4353.47 54.566 4352.63 59.3275 4352.63 61.7963C4352.63 64.4265 4352.63 67.0568 4352.63 69.6871C4352.63 70.8928 4352.74 78.1231 4351.83 74.4034" stroke="black" stroke-width="2" stroke-linecap="round"/>
<path d="M4323.3 124.495C4315.75 121.24 4310.16 114.885 4302.46 111.701C4299.73 110.569 4297.42 107.649 4294.5 106.218C4292.25 105.11 4288.96 103.675 4287.73 101.445C4286.48 99.1822 4281.3 98.5226 4279.05 96.8758C4275.34 94.1699 4275.85 94.3097 4272.07 96.165C4268.76 97.787 4266.37 97.9928 4262.71 97.9928C4258.88 97.9928 4257.02 99.279 4253.51 100.024C4247.42 101.318 4242.51 104.193 4236.76 105.761C4234.68 106.328 4232.18 107.669 4230.2 107.995C4227.65 108.411 4226.01 109.873 4223.53 109.873C4220.73 109.873 4214.72 112.267 4212.62 113.986C4209.99 116.136 4206.64 117.352 4203.26 119.012" stroke="black" stroke-width="2" stroke-linecap="round"/>
<path d="M4478.2 101.752C4478.03 106.083 4475.63 109.606 4475.55 113.798C4475.48 117.055 4475.55 120.322 4475.55 123.579C4475.55 131.421 4475.55 139.262 4475.55 147.104C4475.55 152.079 4473.65 162.533 4476.43 166.614C4477.52 168.217 4477.9 171.647 4478.15 173.615C4478.27 174.566 4479.97 179.817 4479.97 178.66" stroke="black" stroke-width="2" stroke-linecap="round"/>
<path d="M4306.87 96.0667C4307.29 99.72 4307.5 103.135 4307.5 106.806" stroke="black" stroke-width="2" stroke-linecap="round"/>
<path d="M4325.19 124.495C4325.19 130.155 4323.3 134.725 4323.3 140.151C4323.3 145.771 4323.3 151.391 4323.3 157.011C4323.3 161.77 4324.09 166.379 4324.24 171.061C4324.29 172.591 4324.24 181.746 4324.24 176.681" stroke="black" stroke-width="2" stroke-linecap="round"/>
<path d="M4202.63 119.441C4202.63 139.111 4202 158.375 4202 178.194" stroke="black" stroke-width="2" stroke-linecap="round"/>
<path d="M4423.11 159.241C4417.88 150.993 4406.49 143.177 4402.83 156.012C4402.73 156.352 4396.95 152.226 4395.6 151.66C4389.96 149.301 4385.82 148.791 4380.15 151.941C4377.4 153.468 4380.63 157.729 4376.22 156.012C4370.77 153.893 4364.62 152.406 4358.74 152.994C4343.13 154.556 4354.78 175.616 4362.46 179.457" stroke="black" stroke-width="2" stroke-linecap="round"/>
<path d="M4296.76 175.667C4305.71 168.888 4304.65 159.99 4291.71 161.838C4290.09 162.07 4285.33 166.682 4286.02 166.682C4288.54 166.682 4285.56 161.649 4284.13 161.136C4279.18 159.368 4272.76 162.468 4272.76 168.086C4272.76 173.591 4282.2 174.338 4284.13 178.194" stroke="black" stroke-width="2" stroke-linecap="round"/>
<path d="M4455.96 175.667C4458.53 168.933 4458.17 161.209 4448.66 160.505C4444.76 160.216 4438.58 161.983 4438.27 166.822C4438.19 168.162 4437.19 165.647 4436.31 164.927C4434.21 163.21 4431.68 162.33 4429.15 161.487C4424.9 160.073 4423.47 163.494 4420.58 162.049C4415.62 159.564 4404.19 155.617 4401.91 163.313C4399.23 172.363 4406.06 173.159 4409.21 179.457" stroke="black" stroke-width="2" stroke-linecap="round"/>
<path d="M1508.38 96L1462.22 121.27V179.39H1582.93V121.27L1508.38 96Z" fill="white"/>
<path d="M1462.9 125.692C1470.45 122.437 1476.03 116.082 1483.73 112.898C1486.47 111.766 1488.77 108.846 1491.69 107.414C1493.94 106.307 1497.23 104.871 1498.46 102.642C1499.71 100.379 1504.89 99.7194 1507.14 98.0726C1510.85 95.3667 1510.35 95.5065 1514.12 97.3618C1517.43 98.9838 1519.82 99.1896 1523.48 99.1896C1527.31 99.1896 1529.17 100.476 1532.68 101.22C1538.77 102.514 1543.68 105.39 1549.43 106.958C1551.51 107.525 1554.01 108.866 1556 109.191C1558.54 109.608 1560.18 111.07 1562.66 111.07C1565.46 111.07 1571.47 113.464 1573.57 115.182C1576.2 117.333 1579.55 118.549 1582.93 120.209" stroke="black" stroke-width="2" stroke-linecap="round"/>
<path d="M1461 125.692C1461 131.352 1462.9 135.922 1462.9 141.348C1462.9 146.968 1462.9 152.588 1462.9 158.208C1462.9 162.967 1462.1 167.576 1461.95 172.258C1461.9 173.788 1461.95 182.943 1461.95 177.878" stroke="black" stroke-width="2" stroke-linecap="round"/>
<path d="M1583.56 120.638C1583.56 140.308 1584.19 159.572 1584.19 179.391" stroke="black" stroke-width="2" stroke-linecap="round"/>
<path d="M1954.69 139.452L1932.59 151.554V179.39H1990.4V151.554L1954.69 139.452Z" fill="white"/>
<path d="M1932.91 153.672C1936.52 152.113 1939.2 149.07 1942.89 147.545C1944.2 147.003 1945.3 145.604 1946.7 144.919C1947.78 144.388 1949.35 143.701 1949.94 142.633C1950.54 141.549 1953.02 141.233 1954.1 140.445C1955.88 139.149 1955.63 139.216 1957.44 140.104C1959.02 140.881 1960.17 140.979 1961.92 140.979C1963.76 140.979 1964.65 141.595 1966.33 141.952C1969.25 142.572 1971.6 143.949 1974.35 144.7C1975.35 144.971 1976.54 145.614 1977.5 145.77C1978.71 145.969 1979.5 146.669 1980.69 146.669C1982.03 146.669 1984.91 147.816 1985.91 148.639C1987.17 149.669 1988.78 150.251 1990.39 151.046" stroke="black" stroke-width="2" stroke-linecap="round"/>
<path d="M1932 153.672C1932 156.383 1932.91 158.572 1932.91 161.17C1932.91 163.862 1932.91 166.554 1932.91 169.245C1932.91 171.524 1932.53 173.732 1932.45 175.974C1932.43 176.707 1932.45 181.092 1932.45 178.666" stroke="black" stroke-width="2" stroke-linecap="round"/>
<path d="M1990.7 151.252C1990.7 160.672 1991 169.898 1991 179.39" stroke="black" stroke-width="2" stroke-linecap="round"/>
<path d="M3664.69 139L3642.59 151.103V178.939H3700.4V151.103L3664.69 139Z" fill="white"/>
<path d="M3642.91 153.221C3646.52 151.661 3649.2 148.618 3652.89 147.093C3654.2 146.551 3655.3 145.152 3656.7 144.467C3657.78 143.936 3659.35 143.249 3659.94 142.181C3660.54 141.097 3663.02 140.781 3664.1 139.993C3665.88 138.697 3665.63 138.764 3667.44 139.652C3669.02 140.429 3670.17 140.528 3671.92 140.528C3673.76 140.528 3674.65 141.144 3676.33 141.5C3679.25 142.12 3681.6 143.497 3684.35 144.248C3685.35 144.52 3686.54 145.162 3687.5 145.318C3688.71 145.517 3689.5 146.218 3690.69 146.218C3692.03 146.218 3694.91 147.364 3695.91 148.187C3697.17 149.217 3698.78 149.799 3700.39 150.594" stroke="black" stroke-width="2" stroke-linecap="round"/>
<path d="M3642 153.22C3642 155.931 3642.91 158.12 3642.91 160.719C3642.91 163.41 3642.91 166.102 3642.91 168.793C3642.91 171.073 3642.53 173.28 3642.45 175.523C3642.43 176.255 3642.45 180.64 3642.45 178.214" stroke="black" stroke-width="2" stroke-linecap="round"/>
<path d="M3700.7 150.8C3700.7 160.22 3701 169.447 3701 178.939" stroke="black" stroke-width="2" stroke-linecap="round"/>
<path d="M4588.69 139L4566.59 151.103V178.939H4624.4V151.103L4588.69 139Z" fill="white"/>
<path d="M4566.91 153.221C4570.52 151.661 4573.2 148.618 4576.89 147.093C4578.2 146.551 4579.3 145.152 4580.7 144.467C4581.78 143.936 4583.35 143.249 4583.94 142.181C4584.54 141.097 4587.02 140.781 4588.1 139.993C4589.88 138.697 4589.63 138.764 4591.44 139.652C4593.02 140.429 4594.17 140.528 4595.92 140.528C4597.76 140.528 4598.65 141.144 4600.33 141.5C4603.25 142.12 4605.6 143.497 4608.35 144.248C4609.35 144.52 4610.54 145.162 4611.5 145.318C4612.71 145.517 4613.5 146.218 4614.69 146.218C4616.03 146.218 4618.91 147.364 4619.91 148.187C4621.17 149.217 4622.78 149.799 4624.39 150.594" stroke="black" stroke-width="2" stroke-linecap="round"/>
<path d="M4566 153.22C4566 155.931 4566.91 158.12 4566.91 160.719C4566.91 163.41 4566.91 166.102 4566.91 168.793C4566.91 171.073 4566.53 173.28 4566.45 175.523C4566.43 176.255 4566.45 180.64 4566.45 178.214" stroke="black" stroke-width="2" stroke-linecap="round"/>
<path d="M4624.7 150.8C4624.7 160.22 4625 169.447 4625 178.939" stroke="black" stroke-width="2" stroke-linecap="round"/>
<path d="M2830.38 103.747C2834.98 97.7337 2844.73 92.9611 2850.62 99.7067C2851.33 101.548 2852.82 103.75 2854.58 104.454C2856.22 105.113 2856.85 108.615 2858.82 109.404C2860.97 110.263 2859.53 124.017 2859.53 126.689C2859.53 128.42 2859.61 134.63 2858.11 135.528C2857.37 135.973 2855.28 143.299 2855.28 144.367C2855.28 146.895 2849.96 150.774 2847.82 151.163C2844.71 151.73 2842.61 151.651 2839.69 151.163C2837.04 150.722 2834.86 149.66 2832.97 147.981C2829.91 145.256 2828.83 144.626 2828.41 140.517C2828.25 138.839 2827 137.882 2827 135.96V131.325V121.818C2827 116.77 2827.28 107.805 2830.38 103.747Z" fill="white"/>
<path d="M2851.04 100.212C2845.2 92.733 2835.09 97.5895 2830.38 103.747C2827.28 107.805 2827 116.77 2827 121.818C2827 124.987 2827 128.156 2827 131.325C2827 132.87 2827 134.415 2827 135.96C2827 137.882 2828.25 138.839 2828.41 140.517C2828.83 144.626 2829.91 145.256 2832.97 147.981C2834.86 149.66 2837.04 150.722 2839.69 151.163C2842.61 151.651 2844.71 151.73 2847.82 151.163C2849.96 150.774 2855.28 146.895 2855.28 144.367C2855.28 143.299 2857.37 135.973 2858.11 135.528C2859.61 134.63 2859.53 128.42 2859.53 126.689C2859.53 124.017 2860.97 110.263 2858.82 109.404C2856.85 108.615 2856.22 105.113 2854.58 104.454C2852.51 103.629 2850.82 100.745 2850.33 98.7975" stroke="black" stroke-width="2" stroke-linecap="round"/>
<path d="M2842.56 167.584C2842.56 161.709 2841.43 156.503 2841.19 150.771C2845.9 150.809 2846.09 156.729 2846.09 160.827C2846.09 166.618 2847.25 171.962 2846.8 177.798C2846.67 179.437 2844.22 179.29 2842.99 179.016C2842.17 178.834 2842.56 176.537 2842.56 175.873V167.584Z" fill="white"/>
<path d="M2841.14 148.649C2841.14 155.244 2842.56 160.993 2842.56 167.584C2842.56 170.347 2842.56 173.11 2842.56 175.873C2842.56 176.537 2842.17 178.834 2842.99 179.016C2844.22 179.29 2846.67 179.437 2846.8 177.798C2847.25 171.962 2846.09 166.618 2846.09 160.827C2846.09 156.715 2845.89 150.771 2841.14 150.771" stroke="black" stroke-width="2" stroke-linecap="round"/>
<path d="M3579.38 107.332C3583.98 101.318 3593.73 96.5453 3599.62 103.291C3600.33 105.132 3601.82 107.335 3603.58 108.039C3605.22 108.697 3605.85 112.199 3607.82 112.988C3609.97 113.847 3608.53 127.602 3608.53 130.274C3608.53 132.004 3608.61 138.214 3607.11 139.112C3606.37 139.557 3604.28 146.883 3604.28 147.951C3604.28 150.479 3598.96 154.358 3596.82 154.748C3593.71 155.314 3591.61 155.235 3588.69 154.748C3586.04 154.306 3583.86 153.244 3581.97 151.566C3578.91 148.841 3577.83 148.21 3577.41 144.102C3577.25 142.423 3576 141.466 3576 139.545V134.909V125.402C3576 120.354 3576.28 111.389 3579.38 107.332Z" fill="white"/>
<path d="M3600.04 103.796C3594.2 96.3172 3584.09 101.174 3579.38 107.332C3576.28 111.389 3576 120.354 3576 125.402C3576 128.571 3576 131.74 3576 134.909C3576 136.454 3576 137.999 3576 139.545C3576 141.466 3577.25 142.423 3577.41 144.102C3577.83 148.21 3578.91 148.841 3581.97 151.566C3583.86 153.244 3586.04 154.306 3588.69 154.748C3591.61 155.235 3593.71 155.314 3596.82 154.748C3598.96 154.358 3604.28 150.479 3604.28 147.951C3604.28 146.883 3606.37 139.557 3607.11 139.112C3608.61 138.214 3608.53 132.004 3608.53 130.274C3608.53 127.602 3609.97 113.847 3607.82 112.988C3605.85 112.199 3605.22 108.697 3603.58 108.039C3601.51 107.213 3599.82 104.329 3599.33 102.382" stroke="black" stroke-width="2" stroke-linecap="round"/>
<path d="M3591.56 171.168C3591.56 165.293 3590.43 160.087 3590.19 154.355C3594.89 154.394 3595.09 160.313 3595.09 164.412C3595.09 170.202 3596.25 175.546 3595.8 181.382C3595.67 183.021 3593.22 182.874 3591.99 182.6C3591.17 182.419 3591.56 180.121 3591.56 179.457V171.168Z" fill="white"/>
<path d="M3590.14 152.233C3590.14 158.828 3591.56 164.577 3591.56 171.168C3591.56 173.931 3591.56 176.694 3591.56 179.457C3591.56 180.121 3591.17 182.419 3591.99 182.6C3593.22 182.874 3595.67 183.021 3595.8 181.382C3596.25 175.546 3595.09 170.202 3595.09 164.412C3595.09 160.299 3594.89 154.355 3590.14 154.355" stroke="black" stroke-width="2" stroke-linecap="round"/>
<path d="M4122.38 103.332C4126.98 97.3179 4136.73 92.5453 4142.62 99.2909C4143.33 101.132 4144.82 103.335 4146.58 104.039C4148.22 104.697 4148.85 108.199 4150.82 108.988C4152.97 109.847 4151.53 123.602 4151.53 126.274C4151.53 128.004 4151.61 134.214 4150.11 135.112C4149.37 135.557 4147.28 142.883 4147.28 143.951C4147.28 146.479 4141.96 150.358 4139.82 150.748C4136.71 151.314 4134.61 151.235 4131.69 150.748C4129.04 150.306 4126.86 149.244 4124.97 147.566C4121.91 144.841 4120.83 144.21 4120.41 140.102C4120.25 138.423 4119 137.466 4119 135.545V130.909V121.402C4119 116.354 4119.28 107.389 4122.38 103.332Z" fill="white"/>
<path d="M4143.04 99.796C4137.2 92.3172 4127.09 97.1738 4122.38 103.332C4119.28 107.389 4119 116.354 4119 121.402C4119 124.571 4119 127.74 4119 130.909C4119 132.454 4119 133.999 4119 135.545C4119 137.466 4120.25 138.423 4120.41 140.102C4120.83 144.21 4121.91 144.841 4124.97 147.566C4126.86 149.244 4129.04 150.306 4131.69 150.748C4134.61 151.235 4136.71 151.314 4139.82 150.748C4141.96 150.358 4147.28 146.479 4147.28 143.951C4147.28 142.883 4149.37 135.557 4150.11 135.112C4151.61 134.214 4151.53 128.004 4151.53 126.274C4151.53 123.602 4152.97 109.847 4150.82 108.988C4148.85 108.199 4148.22 104.697 4146.58 104.039C4144.51 103.213 4142.82 100.329 4142.33 98.3817" stroke="black" stroke-width="2" stroke-linecap="round"/>
<path d="M4134.56 167.168C4134.56 161.293 4133.43 156.087 4133.19 150.355C4137.89 150.394 4138.09 156.313 4138.09 160.412C4138.09 166.202 4139.25 171.546 4138.8 177.382C4138.67 179.021 4136.22 178.874 4134.99 178.6C4134.17 178.419 4134.56 176.121 4134.56 175.457V167.168Z" fill="white"/>
<path d="M4133.14 148.233C4133.14 154.828 4134.56 160.577 4134.56 167.168C4134.56 169.931 4134.56 172.694 4134.56 175.457C4134.56 176.121 4134.17 178.419 4134.99 178.6C4136.22 178.874 4138.67 179.021 4138.8 177.382C4139.25 171.546 4138.09 166.202 4138.09 160.412C4138.09 156.299 4137.89 150.355 4133.14 150.355" stroke="black" stroke-width="2" stroke-linecap="round"/>
<path d="M5436.38 108.332C5440.98 102.318 5450.73 97.5453 5456.62 104.291C5457.33 106.132 5458.82 108.335 5460.58 109.039C5462.22 109.697 5462.85 113.199 5464.82 113.988C5466.97 114.847 5465.53 128.602 5465.53 131.274C5465.53 133.004 5465.61 139.214 5464.11 140.112C5463.37 140.557 5461.28 147.883 5461.28 148.951C5461.28 151.479 5455.96 155.358 5453.82 155.748C5450.71 156.314 5448.61 156.235 5445.69 155.748C5443.04 155.306 5440.86 154.244 5438.97 152.566C5435.91 149.841 5434.83 149.21 5434.41 145.102C5434.25 143.423 5433 142.466 5433 140.545V135.909V126.402C5433 121.354 5433.28 112.389 5436.38 108.332Z" fill="white"/>
<path d="M5457.04 104.796C5451.2 97.3172 5441.09 102.174 5436.38 108.332C5433.28 112.389 5433 121.354 5433 126.402C5433 129.571 5433 132.74 5433 135.909C5433 137.454 5433 138.999 5433 140.545C5433 142.466 5434.25 143.423 5434.41 145.102C5434.83 149.21 5435.91 149.841 5438.97 152.566C5440.86 154.244 5443.04 155.306 5445.69 155.748C5448.61 156.235 5450.71 156.314 5453.82 155.748C5455.96 155.358 5461.28 151.479 5461.28 148.951C5461.28 147.883 5463.37 140.557 5464.11 140.112C5465.61 139.214 5465.53 133.004 5465.53 131.274C5465.53 128.602 5466.97 114.847 5464.82 113.988C5462.85 113.199 5462.22 109.697 5460.58 109.039C5458.51 108.213 5456.82 105.329 5456.33 103.382" stroke="black" stroke-width="2" stroke-linecap="round"/>
<path d="M5448.56 172.168C5448.56 166.293 5447.43 161.087 5447.19 155.355C5451.89 155.394 5452.09 161.313 5452.09 165.412C5452.09 171.202 5453.25 176.546 5452.8 182.382C5452.67 184.021 5450.22 183.874 5448.99 183.6C5448.17 183.419 5448.56 181.121 5448.56 180.457V172.168Z" fill="white"/>
<path d="M5447.14 153.233C5447.14 159.828 5448.56 165.577 5448.56 172.168C5448.56 174.931 5448.56 177.694 5448.56 180.457C5448.56 181.121 5448.17 183.419 5448.99 183.6C5450.22 183.874 5452.67 184.021 5452.8 182.382C5453.25 176.546 5452.09 171.202 5452.09 165.412C5452.09 161.299 5451.89 155.355 5447.14 155.355" stroke="black" stroke-width="2" stroke-linecap="round"/>
<path d="M1778.38 105.332C1782.98 99.3179 1792.73 94.5453 1798.62 101.291C1799.33 103.132 1800.82 105.335 1802.58 106.039C1804.22 106.697 1804.85 110.199 1806.82 110.988C1808.97 111.847 1807.53 125.602 1807.53 128.274C1807.53 130.004 1807.61 136.214 1806.11 137.112C1805.37 137.557 1803.28 144.883 1803.28 145.951C1803.28 148.479 1797.96 152.358 1795.82 152.748C1792.71 153.314 1790.61 153.235 1787.69 152.748C1785.04 152.306 1782.86 151.244 1780.97 149.566C1777.91 146.841 1776.83 146.21 1776.41 142.102C1776.25 140.423 1775 139.466 1775 137.545V132.909V123.402C1775 118.354 1775.28 109.389 1778.38 105.332Z" fill="white"/>
<path d="M1799.04 101.796C1793.2 94.3172 1783.09 99.1738 1778.38 105.332C1775.28 109.389 1775 118.354 1775 123.402C1775 126.571 1775 129.74 1775 132.909C1775 134.454 1775 135.999 1775 137.545C1775 139.466 1776.25 140.423 1776.41 142.102C1776.83 146.21 1777.91 146.841 1780.97 149.566C1782.86 151.244 1785.04 152.306 1787.69 152.748C1790.61 153.235 1792.71 153.314 1795.82 152.748C1797.96 152.358 1803.28 148.479 1803.28 145.951C1803.28 144.883 1805.37 137.557 1806.11 137.112C1807.61 136.214 1807.53 130.004 1807.53 128.274C1807.53 125.602 1808.97 111.847 1806.82 110.988C1804.85 110.199 1804.22 106.697 1802.58 106.039C1800.51 105.213 1798.82 102.329 1798.33 100.382" stroke="black" stroke-width="2" stroke-linecap="round"/>
<path d="M1790.56 169.168C1790.56 163.293 1789.43 158.087 1789.19 152.355C1793.9 152.394 1794.09 158.313 1794.09 162.412C1794.09 168.202 1795.25 173.546 1794.8 179.382C1794.67 181.021 1792.22 180.874 1790.99 180.6C1790.17 180.419 1790.56 178.121 1790.56 177.457V169.168Z" fill="white"/>
<path d="M1789.14 150.233C1789.14 156.828 1790.56 162.577 1790.56 169.168C1790.56 171.931 1790.56 174.694 1790.56 177.457C1790.56 178.121 1790.17 180.419 1790.99 180.6C1792.22 180.874 1794.67 181.021 1794.8 179.382C1795.25 173.546 1794.09 168.202 1794.09 162.412C1794.09 158.299 1793.89 152.355 1789.14 152.355" stroke="black" stroke-width="2" stroke-linecap="round"/>
<path d="M3145.14 170.153C3150.46 175.472 3150.2 176.887 3158.71 177.222C3166.06 181.19 3178.96 179.255 3181.81 169.265C3184.36 160.334 3178.2 147.701 3167.92 156.265C3165.98 157.882 3158.26 166.405 3158.03 160.82C3157.79 154.665 3152.33 153.457 3146.48 155.709C3139.71 158.313 3141.76 166.774 3145.14 170.153Z" fill="white"/>
<path d="M3160.03 177.265C3150.17 177.018 3150.73 175.736 3145.14 170.153C3141.76 166.774 3139.71 158.313 3146.48 155.709C3152.33 153.457 3157.79 154.665 3158.03 160.82C3158.26 166.405 3165.98 157.882 3167.92 156.265C3178.2 147.701 3184.36 160.334 3181.81 169.265C3178.57 180.624 3162.34 181.569 3156.03 175.265" stroke="black" stroke-width="2" stroke-linecap="round"/>
<path d="M4797.14 173.738C4802.46 179.057 4802.2 180.472 4810.71 180.807C4818.06 184.774 4830.96 182.84 4833.81 172.849C4836.36 163.918 4830.2 151.285 4819.92 159.849C4817.98 161.466 4810.26 169.989 4810.03 164.404C4809.79 158.25 4804.33 157.042 4798.48 159.293C4791.71 161.898 4793.76 170.358 4797.14 173.738Z" fill="white"/>
<path d="M4812.03 180.849C4802.17 180.602 4802.73 179.32 4797.14 173.738C4793.76 170.358 4791.71 161.898 4798.48 159.293C4804.33 157.042 4809.79 158.25 4810.03 164.404C4810.26 169.989 4817.98 161.466 4819.92 159.849C4830.2 151.285 4836.36 163.918 4833.81 172.849C4830.57 184.209 4814.34 185.153 4808.03 178.849" stroke="black" stroke-width="2" stroke-linecap="round"/>
<path d="M3292 179.346C3270 179.346 3262 181.346 3240 181.346C3234.61 181.346 3215.03 184.206 3212.11 179.346C3209 174.164 3208 163.011 3208 156.901C3208 139.014 3206 121.793 3206 103.79C3206 90.7785 3214.55 90.6445 3224 84.5679C3229.04 81.3285 3236.66 70.4581 3242.44 69.3457C3248.65 68.153 3255.16 52.4343 3262 51.4568C3268.61 50.5121 3276.25 66.1516 3280 70.679C3284.26 75.8109 3286.87 81.5933 3292 85.7901C3294.81 88.0881 3300.39 93.1072 3301.89 96.3457C3305.52 104.212 3312.62 109.89 3320.44 112.901C3328.39 115.955 3324 152.458 3324 160.901C3324 169.348 3327.24 177.346 3317 177.346C3308.4 177.346 3300.91 179.346 3292 179.346Z" fill="white" stroke="black" stroke-width="2" stroke-linecap="round"/>
<path d="M3332.64 165.951C3339.71 175.048 3331.8 177.322 3326.95 177.322H3303.58C3297.51 177.322 3298.1 171.847 3299.16 169.109C3303.71 158.496 3311.58 164.687 3314.95 169.109C3319.5 162.539 3328.64 164.266 3332.64 165.951Z" fill="white"/>
<path d="M3321.27 174.795C3324.78 175.464 3332.41 177.983 3334.89 173.532C3336.48 170.663 3333.4 166.983 3331.38 165.389C3328.07 162.79 3325.34 161.979 3321.27 163.143C3319.06 163.774 3317.94 164.997 3316.28 166.512C3315.59 167.15 3315.23 169.845 3314.88 168.969C3308.42 152.814 3288.35 170.984 3303.58 176.059" stroke="black" stroke-width="2" stroke-linecap="round"/>
<path d="M2958.45 165.473C2958.45 150.721 2967.19 133.947 2972.45 120.473C2974.84 120.473 2987.62 117.023 2986.01 121.584C2984.62 125.531 2981.81 129.176 2980.68 132.584C2979.31 136.671 2979.66 145.904 2976.45 148.473C2973.62 150.74 2968.58 159.621 2968.45 162.917C2968.31 166.524 2966.72 178.179 2962.9 178.473C2952.72 179.256 2958.45 171.87 2958.45 165.473Z" fill="white" stroke="black" stroke-width="2" stroke-linecap="round"/>
<path d="M2980.45 162.917C2981.1 146.212 2992.45 135.528 2992.45 118.473C2992.45 116.302 2994.03 103.285 2998.34 110.473C3000.97 114.861 3004.85 110.578 3002.9 116.917C3001.43 121.699 3002.85 124.312 2999.34 128.473C2997.34 130.855 2998.45 136.592 2998.45 139.473C2998.45 143.742 2995.33 143.889 2994.34 147.362C2992.55 153.624 2988.45 159.301 2988.45 166.473C2988.45 181.007 2984.23 170.253 2978.45 177.473C2975.87 180.702 2980.41 164.06 2980.45 162.917Z" fill="white" stroke="black" stroke-width="2" stroke-linecap="round"/>
<path d="M2940.45 148.473V180.473C2940.45 180.473 2948.37 180.186 2948.45 178.028C2948.65 173.01 2948.45 167.941 2948.45 162.917C2948.45 158.613 2950.95 136.708 2947.56 134.917C2937.32 129.492 2940.45 142.073 2940.45 148.473Z" fill="white" stroke="black" stroke-width="2" stroke-linecap="round"/>
<path d="M3002.01 139.584C2997.52 149.68 2998.45 167.467 2998.45 178.473C3009.09 189.109 3006.45 161.359 3006.45 156.028C3006.45 150.974 3009.62 148.219 3010.56 142.584C3011.03 139.802 3012.2 138.087 3012.45 134.917C3012.69 132.002 3016.15 133.088 3016.45 130.473C3017.21 124.078 3012.48 122.722 3006.56 124.695C3002.48 126.056 3003.5 136.236 3002.01 139.584Z" fill="white" stroke="black" stroke-width="2" stroke-linecap="round"/>
<path d="M3014.45 138.028C3014.45 151.896 3021.03 164.493 3022.3 178.285C3023.29 179.048 3024.76 179.534 3026.9 180.028C3031.75 181.147 3030.45 173.685 3030.45 170.917C3030.45 165.189 3028.45 159.452 3028.45 152.917C3028.45 148.61 3024.79 149.512 3024.45 146.473C3024.08 143.082 3024.45 139.447 3024.45 136.028V114.917C3024.45 106.434 3014.45 105.437 3014.45 114.028V138.028Z" fill="white"/>
<path d="M3022.45 180.473C3021.74 165.815 3014.45 152.626 3014.45 138.028C3014.45 130.028 3014.45 122.028 3014.45 114.028C3014.45 105.437 3024.45 106.434 3024.45 114.917C3024.45 121.954 3024.45 128.991 3024.45 136.028C3024.45 139.447 3024.08 143.082 3024.45 146.473C3024.79 149.512 3028.45 148.61 3028.45 152.917C3028.45 159.452 3030.45 165.189 3030.45 170.917C3030.45 173.685 3031.75 181.147 3026.9 180.028C3021.69 178.826 3020.45 177.669 3020.45 172.473" stroke="black" stroke-width="2" stroke-linecap="round"/>
<path d="M3032.45 138.028C3032.45 151.399 3037.55 163.578 3040.45 176.473C3030.57 178.943 3042.24 182.589 3044.01 179.584C3046.22 175.816 3044.43 168.122 3042.9 164.473C3039.57 156.569 3042.45 141.53 3042.45 132.917C3042.45 124.578 3035.64 131.349 3030.9 128.028C3028.13 126.094 3032.45 134.655 3032.45 138.028Z" fill="white" stroke="black" stroke-width="2" stroke-linecap="round"/>
<path d="M3046.45 154.028C3046.74 161.763 3047.7 171.421 3050.45 178.473C3048.98 179.209 3056.45 183.374 3056.45 174.028V156.473C3056.45 151.876 3058.55 122.714 3054.45 122.473C3052.34 122.348 3037.2 120.612 3036.9 120.917C3036.78 121.031 3040.3 134.029 3040.9 136.028C3043.11 143.487 3046.16 146.024 3046.45 154.028Z" fill="white" stroke="black" stroke-width="2" stroke-linecap="round"/>
<path d="M3061.52 126.63C3062.85 143.188 3062.58 159.916 3062.58 176.856C3064.21 182.626 3071.61 181.532 3071.61 173.284V155.203C3071.61 142.567 3077.94 133.751 3079.45 121.608C3079.54 120.896 3060.19 110.061 3061.52 126.63Z" fill="white" stroke="black" stroke-width="2" stroke-linecap="round"/>
<path d="M3086.45 135.473C3092.63 143.498 3090.64 166.551 3090.46 177.16C3090.7 183.63 3094.45 175.576 3094.45 172.473V157.473V120.028C3094.45 116.383 3085.07 117.559 3084.56 120.584C3083.83 125.013 3083.72 131.917 3086.45 135.473Z" fill="white"/>
<path d="M3090.45 178.473C3090.45 168.588 3092.89 143.847 3086.45 135.473C3083.72 131.917 3083.83 125.013 3084.56 120.584C3085.07 117.559 3094.45 116.383 3094.45 120.028C3094.45 132.51 3094.45 144.991 3094.45 157.473C3094.45 162.473 3094.45 167.473 3094.45 172.473C3094.45 175.678 3090.45 184.165 3090.45 176.473" stroke="black" stroke-width="2" stroke-linecap="round"/>
<path d="M3096.5 175.14C3097.02 164.661 3100.45 154.688 3100.45 144.028V120.028C3100.45 115.172 3097.79 98.951 3104.01 98.4728C3113.51 97.7421 3112.45 104.136 3112.45 111.473V131.584C3112.45 139.215 3108.45 144.495 3108.45 152.473V173.362C3108.45 177.413 3098.92 177.486 3096.46 176.357C3095.74 176.029 3095.62 175.601 3096.5 175.14Z" fill="white"/>
<path d="M3096.45 176.473C3096.73 165.504 3100.45 155.139 3100.45 144.028C3100.45 136.028 3100.45 128.028 3100.45 120.028C3100.45 115.172 3097.79 98.951 3104.01 98.4728C3113.51 97.7421 3112.45 104.136 3112.45 111.473C3112.45 118.177 3112.45 124.88 3112.45 131.584C3112.45 139.215 3108.45 144.495 3108.45 152.473C3108.45 159.436 3108.45 166.399 3108.45 173.362C3108.45 179.141 3089.05 176.823 3098.45 174.473" stroke="black" stroke-width="2" stroke-linecap="round"/>
<path d="M3113.45 142.362C3109.47 147.145 3112.45 171.11 3112.45 176.473C3121.7 185.716 3124.45 178.229 3124.45 168.917C3124.45 161.448 3126.45 154.518 3126.45 147.362C3126.45 137.66 3119.77 134.778 3113.45 142.362Z" fill="white" stroke="black" stroke-width="2" stroke-linecap="round"/>
<path d="M3920 166.057C3920 151.305 3911.26 134.532 3906 121.057C3903.61 121.057 3890.83 117.608 3892.44 122.168C3893.84 126.115 3896.64 129.76 3897.78 133.168C3899.14 137.256 3898.79 146.488 3902 149.057C3904.83 151.324 3909.87 160.205 3910 163.502C3910.14 167.108 3911.73 178.763 3915.56 179.057C3925.74 179.84 3920 172.455 3920 166.057Z" fill="white" stroke="black" stroke-width="2" stroke-linecap="round"/>
<path d="M3898 163.501C3897.36 146.796 3886 136.112 3886 119.057C3886 116.887 3884.42 103.869 3880.11 111.057C3877.48 115.445 3873.6 111.162 3875.56 117.502C3877.03 122.283 3875.61 124.896 3879.11 129.057C3881.12 131.439 3880 137.176 3880 140.057C3880 144.326 3883.12 144.473 3884.11 147.946C3885.9 154.208 3890 159.886 3890 167.057C3890 181.591 3894.22 170.837 3900 178.057C3902.58 181.287 3898.04 164.644 3898 163.501Z" fill="white" stroke="black" stroke-width="2" stroke-linecap="round"/>
<path d="M3938 149.057V181.057C3938 181.057 3930.09 180.77 3930 178.613C3929.8 173.594 3930 168.525 3930 163.501C3930 159.197 3927.51 137.292 3930.89 135.501C3941.14 130.076 3938 142.657 3938 149.057Z" fill="white" stroke="black" stroke-width="2" stroke-linecap="round"/>
<path d="M3876.44 140.168C3880.93 150.264 3880 168.052 3880 179.057C3869.36 189.694 3872 161.943 3872 156.613C3872 151.558 3868.83 148.803 3867.89 143.168C3867.43 140.386 3866.25 138.671 3866 135.501C3865.77 132.586 3862.31 133.672 3862 131.057C3861.25 124.662 3865.97 123.306 3871.89 125.279C3875.97 126.641 3874.96 136.82 3876.44 140.168Z" fill="white" stroke="black" stroke-width="2" stroke-linecap="round"/>
<path d="M3864 138.613C3864 152.48 3857.43 165.077 3856.15 178.869C3855.17 179.632 3853.7 180.118 3851.56 180.613C3846.71 181.731 3848 174.27 3848 171.501C3848 165.774 3850 160.037 3850 153.501C3850 149.194 3853.66 150.096 3854 147.057C3854.38 143.666 3854 140.031 3854 136.613V115.501C3854 107.019 3864 106.021 3864 114.613V138.613Z" fill="white"/>
<path d="M3856 181.057C3856.72 166.399 3864 153.21 3864 138.613C3864 130.613 3864 122.613 3864 114.613C3864 106.021 3854 107.019 3854 115.501C3854 122.538 3854 129.575 3854 136.613C3854 140.031 3854.38 143.666 3854 147.057C3853.66 150.096 3850 149.194 3850 153.501C3850 160.037 3848 165.774 3848 171.501C3848 174.27 3846.71 181.731 3851.56 180.613C3856.76 179.411 3858 178.253 3858 173.057" stroke="black" stroke-width="2" stroke-linecap="round"/>
<path d="M3846 138.613C3846 151.983 3840.9 164.162 3838 177.057C3847.88 179.528 3836.21 183.173 3834.44 180.168C3832.23 176.4 3834.02 168.706 3835.56 165.057C3838.88 157.153 3836 142.115 3836 133.502C3836 125.163 3842.81 131.933 3847.56 128.613C3850.32 126.678 3846 135.239 3846 138.613Z" fill="white" stroke="black" stroke-width="2" stroke-linecap="round"/>
<path d="M3832 154.613C3831.71 162.347 3830.75 172.005 3828 179.057C3829.47 179.794 3822 183.958 3822 174.613V157.057C3822 152.461 3819.9 123.298 3824 123.057C3826.12 122.933 3841.25 121.196 3841.56 121.502C3841.67 121.615 3838.15 134.614 3837.56 136.613C3835.35 144.071 3832.3 146.608 3832 154.613Z" fill="white" stroke="black" stroke-width="2" stroke-linecap="round"/>
<path d="M3816.93 127.214C3815.61 143.772 3815.87 160.5 3815.87 177.44C3814.25 183.211 3806.84 182.117 3806.84 173.869V155.787C3806.84 143.152 3800.52 134.335 3799 122.192C3798.91 121.48 3818.26 110.645 3816.93 127.214Z" fill="white" stroke="black" stroke-width="2" stroke-linecap="round"/>
<path d="M3792 136.057C3785.83 144.082 3787.81 167.136 3787.99 177.744C3787.75 184.214 3784 176.16 3784 173.057V158.057V120.613C3784 116.968 3793.38 118.143 3793.89 121.168C3794.63 125.597 3794.74 132.501 3792 136.057Z" fill="white"/>
<path d="M3788 179.057C3788 169.172 3785.56 144.432 3792 136.057C3794.74 132.501 3794.63 125.597 3793.89 121.168C3793.38 118.143 3784 116.968 3784 120.613C3784 133.094 3784 145.576 3784 158.057C3784 163.057 3784 168.057 3784 173.057C3784 176.262 3788 184.75 3788 177.057" stroke="black" stroke-width="2" stroke-linecap="round"/>
<path d="M3781.95 175.724C3781.43 165.245 3778 155.273 3778 144.613V120.613C3778 115.757 3780.66 99.5353 3774.44 99.0571C3764.94 98.3263 3766 104.72 3766 112.057V132.168C3766 139.8 3770 145.08 3770 153.057V173.946C3770 177.998 3779.53 178.07 3782 176.941C3782.71 176.614 3782.83 176.185 3781.95 175.724Z" fill="white"/>
<path d="M3782 177.057C3781.73 166.088 3778 155.724 3778 144.613C3778 136.613 3778 128.613 3778 120.613C3778 115.757 3780.66 99.5353 3774.44 99.0571C3764.94 98.3263 3766 104.72 3766 112.057C3766 118.761 3766 125.464 3766 132.168C3766 139.8 3770 145.08 3770 153.057C3770 160.02 3770 166.983 3770 173.946C3770 179.725 3789.4 177.407 3780 175.057" stroke="black" stroke-width="2" stroke-linecap="round"/>
<path d="M3765 142.946C3768.99 147.729 3766 171.694 3766 177.057C3756.76 186.301 3754 178.813 3754 169.502C3754 162.032 3752 155.102 3752 147.946C3752 138.244 3758.68 135.362 3765 142.946Z" fill="white" stroke="black" stroke-width="2" stroke-linecap="round"/>
<path d="M1705 172.223C1705 163.374 1696.26 153.313 1691 145.23C1688.61 145.23 1675.83 143.161 1677.44 145.897C1678.84 148.264 1681.64 150.45 1682.78 152.495C1684.14 154.947 1683.79 160.485 1687 162.026C1689.83 163.385 1694.87 168.712 1695 170.69C1695.14 172.853 1696.73 179.844 1700.56 180.02C1710.74 180.49 1705 176.06 1705 172.223Z" fill="white" stroke="black" stroke-width="2" stroke-linecap="round"/>
<path d="M1683 170.69C1682.36 160.669 1671 154.261 1671 144.031C1671 142.729 1669.42 134.921 1665.11 139.232C1662.48 141.864 1658.6 139.295 1660.56 143.098C1662.03 145.966 1660.61 147.533 1664.11 150.029C1666.12 151.458 1665 154.899 1665 156.627C1665 159.188 1668.12 159.276 1669.11 161.359C1670.9 165.115 1675 168.521 1675 172.822C1675 181.54 1679.22 175.09 1685 179.42C1687.58 181.358 1683.04 171.375 1683 170.69Z" fill="white" stroke="black" stroke-width="2" stroke-linecap="round"/>
<path d="M1723 162.025V181.22C1723 181.22 1715.09 181.048 1715 179.754C1714.8 176.743 1715 173.703 1715 170.69C1715 168.108 1712.51 154.969 1715.89 153.894C1726.14 150.64 1723 158.187 1723 162.025Z" fill="white" stroke="black" stroke-width="2" stroke-linecap="round"/>
<path d="M1661.44 156.694C1665.93 162.75 1665 173.419 1665 180.02C1654.36 186.4 1657 169.755 1657 166.558C1657 163.526 1653.83 161.874 1652.89 158.493C1652.43 156.825 1651.25 155.796 1651 153.895C1650.77 152.146 1647.31 152.797 1647 151.229C1646.25 147.393 1650.97 146.58 1656.89 147.763C1660.97 148.58 1659.96 154.686 1661.44 156.694Z" fill="white" stroke="black" stroke-width="2" stroke-linecap="round"/>
<path d="M1649 155.761C1649 164.079 1642.43 171.635 1641.15 179.908C1640.17 180.365 1638.7 180.657 1636.56 180.953C1631.71 181.624 1633 177.149 1633 175.488C1633 172.053 1635 168.611 1635 164.691C1635 162.108 1638.66 162.649 1639 160.826C1639.38 158.792 1639 156.612 1639 154.561V141.898C1639 136.81 1649 136.212 1649 141.365V155.761Z" fill="white"/>
<path d="M1641 181.22C1641.72 172.428 1649 164.517 1649 155.761C1649 150.962 1649 146.163 1649 141.365C1649 136.212 1639 136.81 1639 141.898C1639 146.119 1639 150.34 1639 154.561C1639 156.612 1639.38 158.792 1639 160.826C1638.66 162.649 1635 162.108 1635 164.691C1635 168.611 1633 172.053 1633 175.488C1633 177.149 1631.71 181.624 1636.56 180.953C1641.76 180.232 1643 179.538 1643 176.421" stroke="black" stroke-width="2" stroke-linecap="round"/>
<path d="M1631 155.761C1631 163.78 1625.9 171.086 1623 178.821C1632.88 180.302 1621.21 182.489 1619.44 180.687C1617.23 178.427 1619.02 173.811 1620.56 171.623C1623.88 166.882 1621 157.861 1621 152.695C1621 147.693 1627.81 151.754 1632.56 149.762C1635.32 148.602 1631 153.737 1631 155.761Z" fill="white" stroke="black" stroke-width="2" stroke-linecap="round"/>
<path d="M1617 165.358C1616.71 169.997 1615.75 175.79 1613 180.02C1614.47 180.462 1607 182.96 1607 177.354V166.824C1607 164.067 1604.9 146.575 1609 146.43C1611.12 146.355 1626.25 145.314 1626.56 145.497C1626.67 145.565 1623.15 153.362 1622.56 154.561C1620.35 159.035 1617.3 160.557 1617 165.358Z" fill="white" stroke="black" stroke-width="2" stroke-linecap="round"/>
<path d="M1601.93 148.924C1600.61 158.855 1600.87 168.889 1600.87 179.05C1599.25 182.512 1591.84 181.855 1591.84 176.908V166.062C1591.84 158.483 1585.52 153.195 1584 145.911C1583.91 145.484 1603.26 138.985 1601.93 148.924Z" fill="white" stroke="black" stroke-width="2" stroke-linecap="round"/>
<path d="M1577 154.228C1570.83 159.041 1572.81 172.869 1572.99 179.233C1572.75 183.113 1569 178.283 1569 176.421V167.424V144.964C1569 142.777 1578.38 143.482 1578.89 145.297C1579.63 147.954 1579.74 152.095 1577 154.228Z" fill="white"/>
<path d="M1573 180.02C1573 174.091 1570.56 159.251 1577 154.228C1579.74 152.095 1579.63 147.954 1578.89 145.297C1578.38 143.482 1569 142.777 1569 144.964C1569 152.451 1569 159.937 1569 167.424C1569 170.423 1569 173.422 1569 176.421C1569 178.344 1573 183.435 1573 178.821" stroke="black" stroke-width="2" stroke-linecap="round"/>
<path d="M1566.95 178.021C1566.43 171.736 1563 165.754 1563 159.36V144.964C1563 142.051 1565.66 132.321 1559.44 132.034C1549.94 131.596 1551 135.431 1551 139.832V151.895C1551 156.473 1555 159.64 1555 164.425V176.954C1555 179.385 1564.53 179.428 1567 178.751C1567.71 178.555 1567.83 178.298 1566.95 178.021Z" fill="white"/>
<path d="M1567 178.821C1566.73 172.241 1563 166.024 1563 159.36C1563 154.561 1563 149.762 1563 144.964C1563 142.051 1565.66 132.321 1559.44 132.034C1549.94 131.596 1551 135.431 1551 139.832C1551 143.853 1551 147.874 1551 151.895C1551 156.473 1555 159.64 1555 164.425C1555 168.601 1555 172.778 1555 176.954C1555 180.421 1574.4 179.031 1565 177.621" stroke="black" stroke-width="2" stroke-linecap="round"/>
<path d="M1550 158.36C1553.99 161.229 1551 175.604 1551 178.821C1541.76 184.365 1539 179.874 1539 174.289C1539 169.808 1537 165.652 1537 161.359C1537 155.54 1543.68 153.811 1550 158.36Z" fill="white" stroke="black" stroke-width="2" stroke-linecap="round"/>
<path d="M5317 172.223C5317 163.374 5308.26 153.313 5303 145.23C5300.61 145.23 5287.84 143.161 5289.44 145.897C5290.84 148.264 5293.64 150.45 5294.78 152.495C5296.14 154.947 5295.79 160.485 5299 162.026C5301.83 163.385 5306.87 168.712 5307 170.69C5307.14 172.853 5308.73 179.844 5312.56 180.02C5322.74 180.49 5317 176.06 5317 172.223Z" fill="white" stroke="black" stroke-width="2" stroke-linecap="round"/>
<path d="M5295 170.69C5294.36 160.669 5283 154.261 5283 144.031C5283 142.729 5281.42 134.921 5277.11 139.232C5274.48 141.864 5270.61 139.295 5272.56 143.098C5274.03 145.966 5272.61 147.533 5276.11 150.029C5278.12 151.458 5277 154.899 5277 156.627C5277 159.188 5280.12 159.276 5281.11 161.359C5282.9 165.115 5287 168.521 5287 172.822C5287 181.54 5291.22 175.09 5297 179.42C5299.58 181.358 5295.04 171.375 5295 170.69Z" fill="white" stroke="black" stroke-width="2" stroke-linecap="round"/>
<path d="M5335 162.025V181.22C5335 181.22 5327.09 181.048 5327 179.754C5326.8 176.743 5327 173.703 5327 170.69C5327 168.108 5324.51 154.969 5327.89 153.894C5338.14 150.64 5335 158.187 5335 162.025Z" fill="white" stroke="black" stroke-width="2" stroke-linecap="round"/>
<path d="M5273.44 156.694C5277.93 162.75 5277 173.419 5277 180.02C5266.36 186.4 5269 169.755 5269 166.558C5269 163.526 5265.83 161.874 5264.89 158.493C5264.43 156.825 5263.25 155.796 5263 153.895C5262.77 152.146 5259.31 152.797 5259 151.229C5258.25 147.393 5262.97 146.58 5268.89 147.763C5272.97 148.58 5271.96 154.686 5273.44 156.694Z" fill="white" stroke="black" stroke-width="2" stroke-linecap="round"/>
<path d="M5261 155.761C5261 164.079 5254.43 171.635 5253.16 179.908C5252.17 180.365 5250.7 180.657 5248.56 180.953C5243.71 181.624 5245 177.149 5245 175.488C5245 172.053 5247 168.611 5247 164.691C5247 162.108 5250.66 162.649 5251 160.826C5251.38 158.792 5251 156.612 5251 154.561V141.898C5251 136.81 5261 136.212 5261 141.365V155.761Z" fill="white"/>
<path d="M5253 181.22C5253.72 172.428 5261 164.517 5261 155.761C5261 150.962 5261 146.163 5261 141.365C5261 136.212 5251 136.81 5251 141.898C5251 146.119 5251 150.34 5251 154.561C5251 156.612 5251.38 158.792 5251 160.826C5250.66 162.649 5247 162.108 5247 164.691C5247 168.611 5245 172.053 5245 175.488C5245 177.149 5243.71 181.624 5248.56 180.953C5253.76 180.232 5255 179.538 5255 176.421" stroke="black" stroke-width="2" stroke-linecap="round"/>
<path d="M5243 155.761C5243 163.78 5237.9 171.086 5235 178.821C5244.88 180.302 5233.21 182.489 5231.44 180.687C5229.23 178.427 5231.02 173.811 5232.56 171.623C5235.88 166.882 5233 157.861 5233 152.695C5233 147.693 5239.81 151.754 5244.56 149.762C5247.32 148.602 5243 153.737 5243 155.761Z" fill="white" stroke="black" stroke-width="2" stroke-linecap="round"/>
<path d="M5229 165.358C5228.71 169.997 5227.75 175.79 5225 180.02C5226.47 180.462 5219 182.96 5219 177.354V166.824C5219 164.067 5216.9 146.575 5221 146.43C5223.12 146.355 5238.25 145.314 5238.56 145.497C5238.67 145.565 5235.15 153.362 5234.56 154.561C5232.35 159.035 5229.3 160.557 5229 165.358Z" fill="white" stroke="black" stroke-width="2" stroke-linecap="round"/>
<path d="M5213.93 148.924C5212.61 158.855 5212.87 168.889 5212.87 179.05C5211.25 182.512 5203.84 181.855 5203.84 176.908V166.062C5203.84 158.483 5197.52 153.195 5196 145.911C5195.91 145.484 5215.26 138.985 5213.93 148.924Z" fill="white" stroke="black" stroke-width="2" stroke-linecap="round"/>
<path d="M5189 154.228C5182.83 159.041 5184.81 172.869 5184.99 179.233C5184.75 183.113 5181 178.283 5181 176.421V167.424V144.964C5181 142.777 5190.39 143.482 5190.89 145.297C5191.63 147.954 5191.74 152.095 5189 154.228Z" fill="white"/>
<path d="M5185 180.02C5185 174.091 5182.56 159.251 5189 154.228C5191.74 152.095 5191.63 147.954 5190.89 145.297C5190.39 143.482 5181 142.777 5181 144.964C5181 152.451 5181 159.937 5181 167.424C5181 170.423 5181 173.422 5181 176.421C5181 178.344 5185 183.435 5185 178.821" stroke="black" stroke-width="2" stroke-linecap="round"/>
<path d="M5178.95 178.021C5178.43 171.736 5175 165.754 5175 159.36V144.964C5175 142.051 5177.66 132.321 5171.45 132.034C5161.95 131.596 5163 135.431 5163 139.832V151.895C5163 156.473 5167 159.64 5167 164.425V176.954C5167 179.385 5176.54 179.428 5179 178.751C5179.71 178.555 5179.83 178.298 5178.95 178.021Z" fill="white"/>
<path d="M5179 178.821C5178.73 172.241 5175 166.024 5175 159.36C5175 154.561 5175 149.762 5175 144.964C5175 142.051 5177.66 132.321 5171.45 132.034C5161.95 131.596 5163 135.431 5163 139.832C5163 143.853 5163 147.874 5163 151.895C5163 156.473 5167 159.64 5167 164.425C5167 168.601 5167 172.778 5167 176.954C5167 180.421 5186.4 179.031 5177 177.621" stroke="black" stroke-width="2" stroke-linecap="round"/>
<path d="M5162 158.36C5165.99 161.229 5163 175.604 5163 178.821C5153.76 184.365 5151 179.874 5151 174.289C5151 169.808 5149 165.652 5149 161.359C5149 155.54 5155.68 153.811 5162 158.36Z" fill="white" stroke="black" stroke-width="2" stroke-linecap="round"/>
<path d="M2479.14 147.791C2479.14 157.383 2483.54 166.12 2486.04 175.371C2477.52 177.143 2487.58 179.758 2489.1 177.603C2491.02 174.9 2489.47 169.38 2488.15 166.762C2485.28 161.092 2487.76 150.303 2487.76 144.125C2487.76 138.143 2481.89 142.999 2477.8 140.617C2475.41 139.23 2479.14 145.371 2479.14 147.791Z" fill="white" stroke="black" stroke-width="2" stroke-linecap="round"/>
<path d="M2537.86 148.791C2537.86 158.383 2533.46 167.12 2530.96 176.371C2539.48 178.143 2529.42 180.758 2527.9 178.603C2525.98 175.9 2527.53 170.38 2528.85 167.762C2531.72 162.092 2529.24 151.303 2529.24 145.125C2529.24 139.143 2535.11 143.999 2539.2 141.617C2541.59 140.23 2537.86 146.371 2537.86 148.791Z" fill="white" stroke="black" stroke-width="2" stroke-linecap="round"/>
<path d="M2491.09 159.512C2491.33 165.135 2492.14 172.156 2494.47 177.282C2493.22 177.818 2499.54 180.845 2499.54 174.051V161.289C2499.54 157.948 2501.32 136.748 2497.85 136.573C2496.06 136.482 2483.26 135.22 2483 135.442C2482.91 135.525 2485.88 144.974 2486.39 146.427C2488.26 151.849 2490.83 153.693 2491.09 159.512Z" fill="white" stroke="black" stroke-width="2" stroke-linecap="round"/>
<path d="M2504.05 139.957C2505.16 151.784 2504.94 163.732 2504.94 175.832C2506.29 179.954 2512.47 179.173 2512.47 173.281V160.366C2512.47 151.34 2517.74 145.043 2519 136.369C2519.07 135.861 2502.95 128.121 2504.05 139.957Z" fill="white" stroke="black" stroke-width="2" stroke-linecap="round"/>
<path d="M4016.14 147.376C4016.14 156.967 4020.54 165.704 4023.04 174.955C4014.52 176.727 4024.58 179.342 4026.1 177.187C4028.02 174.484 4026.47 168.964 4025.15 166.346C4022.28 160.676 4024.76 149.888 4024.76 143.709C4024.76 137.727 4018.89 142.584 4014.8 140.202C4012.41 138.814 4016.14 144.956 4016.14 147.376Z" fill="white" stroke="black" stroke-width="2" stroke-linecap="round"/>
<path d="M4074.86 148.376C4074.86 157.967 4070.46 166.704 4067.96 175.955C4076.48 177.727 4066.42 180.342 4064.9 178.187C4062.98 175.484 4064.53 169.964 4065.85 167.346C4068.72 161.676 4066.24 150.888 4066.24 144.709C4066.24 138.727 4072.11 143.584 4076.2 141.202C4078.59 139.814 4074.86 145.956 4074.86 148.376Z" fill="white" stroke="black" stroke-width="2" stroke-linecap="round"/>
<path d="M4028.09 159.096C4028.33 164.719 4029.14 171.74 4031.47 176.867C4030.22 177.402 4036.54 180.429 4036.54 173.636V160.873C4036.54 157.532 4038.32 136.332 4034.85 136.157C4033.06 136.067 4020.26 134.804 4020 135.026C4019.91 135.109 4022.88 144.558 4023.39 146.011C4025.26 151.433 4027.83 153.278 4028.09 159.096Z" fill="white" stroke="black" stroke-width="2" stroke-linecap="round"/>
<path d="M4041.05 139.541C4042.16 151.368 4041.94 163.316 4041.94 175.417C4043.29 179.538 4049.47 178.757 4049.47 172.865V159.95C4049.47 150.925 4054.74 144.627 4056 135.953C4056.07 135.445 4039.95 127.706 4041.05 139.541Z" fill="white" stroke="black" stroke-width="2" stroke-linecap="round"/>
</svg>
