<svg width="1440" height="47" viewBox="0 0 1440 47" fill="none" xmlns="http://www.w3.org/2000/svg">
<path d="M-6 25C15.8638 25 38.1699 26.18 60 25C65.8032 24.6863 70.2756 21 76.4444 21C83.037 21 89.6296 21 96.2222 21C111.581 21 132.89 18.5559 147.556 23.8889C172.695 33.0304 205.893 33 232.889 33C301.769 33 370.611 29 439.556 29C496.796 29 553.586 33 610.667 33C647.957 33 685.215 34.3849 722 27.4444C729.384 26.0512 736.044 22.7798 743.556 21.4444C748.734 20.5238 753.973 17 758.889 17C773.197 17 787.15 16.8815 801.111 20.5556C811.244 23.2221 815.843 26.4227 826.111 23C836.418 19.5644 849.957 17 860.667 17C868.61 17 876.206 17.0853 884 15.4444C891.151 13.9389 898.831 11 906.111 11C909.517 11 917.753 12.5695 920.889 10.7778C925.088 8.37824 924.18 7.22372 930.444 7C935.712 6.81186 940.628 5 946 5C951.482 5 954.411 1 959.889 1C969.111 1 978.333 1 987.556 1C1001.83 1 1020.44 10.6269 1033 17.1111C1051.79 26.8077 1072.35 28.1259 1091.56 35.8889C1099 38.8971 1104.16 43.451 1112.44 44.5556C1120.85 45.6765 1129.64 45 1138.11 45C1143.7 45 1149.3 45 1154.89 45C1162.87 45 1169.55 41.2081 1177.56 41C1189.47 40.6906 1203.32 43.0331 1215.11 40.8889C1220.73 39.868 1225.38 36.6402 1229.78 33.2222C1234.89 29.2438 1241.8 33.1569 1246.44 29.4444C1259.22 19.2277 1288.76 25 1304.44 25C1328.3 25 1434.15 21 1458 21" stroke="black" stroke-width="2" stroke-linecap="round"/>
</svg>
