<svg width="68" height="33" viewBox="0 0 68 33" fill="none" xmlns="http://www.w3.org/2000/svg">
<path d="M61.4353 23.5128C45.0627 23.5128 28.2442 22.1058 11.485 22.1058C8.92542 22.1058 3.22819 24.6239 1.01029 23.3565C0.83078 23.2539 3.04269 16.8892 3.04269 15.0705C3.04269 9.83953 9.10043 6.98037 12.5794 3.50142C15.0472 1.03356 19.5045 1 22.7414 1C26.642 1 27.588 3.61399 30.0894 3.8141C33.2171 4.06432 36.029 3.18724 38.219 5.92468C39.5568 7.59696 42.0648 5.22115 43.8472 5.22115C51.2797 5.22115 56.3837 6.58989 62.8424 10.0677C68.1832 12.9435 69.052 23.5128 61.4353 23.5128Z" fill="white" stroke="black" stroke-width="2" stroke-linecap="round"/>
<path d="M50.8823 24.9198C50.8823 19.2333 45.7158 20.2614 40.7623 20.6116C40.0099 20.5963 39.2945 20.6084 38.6457 20.6986C36.6472 20.9762 35.2802 21.9942 35.4048 25.2325C35.589 30.0224 40.5272 31.9551 44.6288 31.9551C49.6996 31.9551 50.8823 29.529 50.8823 24.9198Z" fill="white"/>
<path d="M38.6453 20.6986C44.1153 20.6986 50.8823 18.4119 50.8823 24.9198C50.8823 29.529 49.6996 31.9551 44.6288 31.9551C40.5272 31.9551 35.589 30.0224 35.4048 25.2325C35.1868 19.5646 39.5382 20.6986 43.8471 20.6986" stroke="black" stroke-width="2" stroke-linecap="round"/>
<path d="M16.0191 30.2355C22.1287 35.7341 34.5065 25.6466 20.1519 19.3883C18.3735 19.5829 16.6469 20.1082 15.8627 21.4805C15.2167 22.611 15.1089 29.4163 16.0191 30.2355Z" fill="white"/>
<path d="M19.9275 19.2917C34.6344 25.5421 22.1602 35.7625 16.0191 30.2355C15.1089 29.4163 15.2167 22.611 15.8627 21.4805C17.2917 18.9798 21.8505 19.2917 24.1487 19.2917" stroke="black" stroke-width="2" stroke-linecap="round"/>
</svg>
