<svg width="676" height="285" viewBox="0 0 676 285" fill="none" xmlns="http://www.w3.org/2000/svg">
<path d="M7.25319 195.914C7.25319 211.761 5.60878 227.046 5.24112 242.2C13.251 247.354 39.6509 243.19 40.6036 260.652C40.7997 264.248 39.7463 268.74 40.7194 272.208C40.9938 273.186 46.1013 271.265 47.8989 271.265C53.7849 271.265 63.5415 273.146 68.7429 270.203C79.1694 264.305 103.514 269.142 115.642 269.142C131.857 269.142 147.865 271.265 163.583 271.265H221.946H252.286C259.445 271.265 282.77 271.682 288.531 276.571C294.215 281.395 314.525 284 321.997 284H358.474H386.614C398.351 284 409.038 278.062 420.427 277.632C442.422 276.803 464.647 269.142 486.665 269.142H514.804H529.395C534.225 269.142 539.849 264.086 543.87 265.84C550.874 268.897 564.688 268.601 572.588 269.85C579.892 271.004 593.484 271.916 600.264 268.081C606.47 264.57 617.27 267.437 624.235 267.02C630.848 266.623 627.212 255.27 630.025 251.69C639.078 240.167 653.562 228.814 670.092 228.814C678.65 228.814 673.713 193.937 672.292 187.424C669.429 174.304 672.176 157.385 672.176 143.911V98.2765C672.176 90.9694 670.6 81.3483 672.639 74.3388C673.625 70.9496 677.135 52.8657 673.103 50.5191C660.592 43.2391 640.977 41.7264 633.036 27.171C628.844 19.487 630.749 12.7077 632.457 4.88414C633.79 -1.2257 621.552 1.70031 615.434 1.70031H540.859C442.969 1.70031 345.648 8.06797 247.885 8.06797C224.199 8.06797 201.02 10.1905 177.247 10.1905C151.491 10.1905 124.716 8.06797 98.5035 8.06797C86.103 8.06797 74.4626 5.94542 62.4897 5.94542C51.2913 5.94542 54.1826 9.56734 50.5623 19.1524C44.7413 34.5641 31.1643 49.4688 14.6644 52.5237C5.10098 54.2943 1 49.4347 1 61.6035V92.0268C1 110.238 2.16447 128.235 3.0844 146.034C3.9606 162.987 7.25319 178.733 7.25319 195.914Z" fill="white"/>
<path d="M5.1688 247.917C5.1688 230.884 7.25319 213.756 7.25319 195.914C7.25319 178.733 3.9606 162.987 3.0844 146.034C2.16447 128.235 1 110.238 1 92.0268C1 81.8857 1 71.7446 1 61.6035C1 49.4347 5.10098 54.2943 14.6644 52.5237C31.1643 49.4688 44.7413 34.5641 50.5623 19.1524C54.1826 9.56734 51.2913 5.94542 62.4897 5.94542C74.4626 5.94542 86.103 8.06797 98.5035 8.06797C124.716 8.06797 151.491 10.1905 177.247 10.1905C201.02 10.1905 224.199 8.06797 247.885 8.06797C345.648 8.06797 442.969 1.70031 540.859 1.70031C565.717 1.70031 590.576 1.70031 615.434 1.70031C621.552 1.70031 633.79 -1.2257 632.457 4.88414C630.749 12.7077 628.844 19.487 633.036 27.171C640.977 41.7264 660.592 43.2391 673.103 50.5191C677.135 52.8657 673.625 70.9496 672.639 74.3388C670.6 81.3483 672.176 90.9694 672.176 98.2765C672.176 113.488 672.176 128.7 672.176 143.911C672.176 157.385 669.429 174.304 672.292 187.424C673.713 193.937 678.65 228.814 670.092 228.814C653.562 228.814 639.078 240.167 630.025 251.69C627.212 255.27 630.848 266.623 624.235 267.02C617.27 267.437 606.47 264.57 600.264 268.081C593.484 271.916 579.892 271.004 572.588 269.85C564.688 268.601 550.874 268.897 543.87 265.84C539.849 264.086 534.225 269.142 529.395 269.142C524.531 269.142 519.668 269.142 514.804 269.142C505.424 269.142 496.044 269.142 486.665 269.142C464.647 269.142 442.422 276.803 420.427 277.632C409.038 278.062 398.351 284 386.614 284C377.234 284 367.854 284 358.474 284C346.315 284 334.156 284 321.997 284C314.525 284 294.215 281.395 288.531 276.571C282.77 271.682 259.445 271.265 252.286 271.265C242.173 271.265 232.059 271.265 221.946 271.265C202.492 271.265 183.037 271.265 163.583 271.265C147.865 271.265 131.857 269.142 115.642 269.142C103.514 269.142 79.1694 264.305 68.7429 270.203C63.5415 273.146 53.7849 271.265 47.899 271.265C46.1013 271.265 40.9938 273.186 40.7194 272.208C39.7463 268.74 40.7997 264.248 40.6036 260.652C39.5184 240.762 5.41773 248.931 3.0844 239.426" stroke="black" stroke-width="2" stroke-linecap="round"/>
</svg>
