<svg width="659" height="278" viewBox="0 0 659 278" fill="none" xmlns="http://www.w3.org/2000/svg">
<path fill-rule="evenodd" clip-rule="evenodd" d="M1 51C28.6142 51 51 28.6142 51 1C51 0.665891 50.9967 0.332548 50.9902 0H608.01C608.003 0.332548 608 0.665891 608 1C608 28.6142 630.386 51 658 51C658.334 51 658.667 50.9967 659 50.9902V228.01C658.667 228.003 658.334 228 658 228C630.386 228 608 250.386 608 278H51C51 250.386 28.6142 228 1 228C0.665891 228 0.332548 228.003 0 228.01V50.9902C0.332548 50.9967 0.665891 51 1 51Z" fill="white"/>
<path fill-rule="evenodd" clip-rule="evenodd" d="M0 50.9902C0.332548 50.9967 0.665891 51 1 51C1.33411 51 1.66745 50.9967 2 50.9902C28.8201 50.4641 50.4641 28.8201 50.9902 2C50.9967 1.66745 51 1.33411 51 1C51 0.665891 50.9967 0.332548 50.9902 0H608.01C608.003 0.332548 608 0.665891 608 1C608 1.33411 608.003 1.66745 608.01 2C608.536 28.8201 630.18 50.4641 657 50.9902C657.333 50.9967 657.666 51 658 51C658.334 51 658.667 50.9967 659 50.9902V228.01C658.667 228.003 658.334 228 658 228C657.666 228 657.333 228.003 657 228.01C629.847 228.542 608 250.72 608 278H51C51 250.72 29.1527 228.542 2 228.01C1.66745 228.003 1.33411 228 1 228C0.665891 228 0.332548 228.003 0 228.01V50.9902ZM2 226.009C29.5906 226.53 51.9238 248.539 52.9622 276H606.038C607.076 248.539 629.409 226.53 657 226.009V52.9906C629.075 52.4639 606.536 29.9247 606.009 2H52.9906C52.4639 29.9247 29.9247 52.4639 2 52.9906V226.009Z" fill="black"/>
</svg>
