<svg width="1440" height="805" viewBox="0 0 1440 805" fill="none" xmlns="http://www.w3.org/2000/svg">
<path d="M1383.89 473.619C1379.7 479.384 1375.04 487.208 1380.43 493.561C1383.26 496.889 1389.13 497.301 1393.17 497.301C1397.08 497.301 1406.84 489.827 1403.21 491.276C1399.55 492.742 1404.68 498.485 1406.33 499.24C1410.11 500.97 1416.74 499.977 1420.11 497.785C1423.79 495.396 1428.77 487.883 1428.77 487.883C1428.77 487.883 1429.51 490.956 1430.77 491.553C1433.07 492.642 1435.8 493.275 1438.18 494.254C1450.71 499.394 1461.47 487.662 1468.65 479.851C1479.5 468.044 1457.95 463.453 1450.09 461.916C1435.77 459.113 1414.94 458.843 1401.48 464.824C1391.54 469.246 1386.39 467.274 1386.39 479.851" stroke="black" stroke-width="2" stroke-linecap="round"/>
<path d="M856.103 761.009C838.732 789.445 858.171 796.555 870.061 796.555H927.446C942.336 796.555 940.888 779.44 938.303 770.883C927.136 737.707 907.801 757.059 899.529 770.883C888.362 750.345 865.925 755.743 856.103 761.009Z" fill="white"/>
<path d="M884.02 788.655C875.403 790.745 856.66 798.621 850.588 784.706C846.676 775.74 854.224 764.236 859.205 759.253C867.326 751.128 874.02 748.594 884.02 752.232C889.444 754.205 892.197 758.027 896.255 762.764C897.962 764.756 898.842 773.181 899.702 770.444C915.566 719.945 964.825 776.741 927.447 792.605" stroke="black" stroke-width="2" stroke-linecap="round"/>
<path d="M950.025 780.554C961.225 794.954 948.691 798.554 941.025 798.554H904.025C894.425 798.554 895.358 789.888 897.025 785.554C904.225 768.754 916.691 778.554 922.025 785.554C929.225 775.154 943.691 777.888 950.025 780.554Z" fill="white"/>
<path d="M932.025 794.554C937.581 795.613 949.666 799.601 953.581 792.554C956.103 788.014 951.236 782.189 948.025 779.666C942.789 775.551 938.473 774.268 932.025 776.11C928.528 777.109 926.753 779.045 924.136 781.443C923.035 782.452 922.468 786.718 921.914 785.332C911.685 759.76 879.925 788.521 904.025 796.554" stroke="black" stroke-width="2" stroke-linecap="round"/>
<path d="M954.57 584.637C955.512 588.653 960.247 591.142 963.247 593.406C963.051 592.008 967.576 590.375 968.473 588.046C968.951 586.806 963.573 583.654 962.472 582.824C957.859 579.344 959.719 573.471 956.036 569.151C953.437 566.103 955.463 562.186 954.172 558.998C952.51 554.892 955.725 547.882 951.708 544.851C949.004 542.811 945.582 541.339 942.758 539.208C939.915 537.064 939.649 534.364 936.827 532.235C930.971 527.816 937.535 517.621 933.441 513.505C929.677 509.72 927.15 505.256 926.883 499.809C926.603 494.101 921.505 490.683 917.359 487.555C915.279 485.986 913.12 486.857 910.532 484.903C908.457 483.338 914.271 489.15 914.266 491.747C914.259 494.546 914.495 496.866 915.446 499.58C915.839 500.7 917.652 501.413 918.502 502.164C919.763 503.276 918.787 504.462 919.559 505.738C923.678 512.542 921.632 522.135 921.014 529.606C920.75 532.802 918.415 535.837 921.24 537.968C923.374 539.578 925.59 541.871 928.486 541.631C930.081 541.498 937.046 541.263 938.026 541.886C941.49 544.091 939.944 545.822 941.072 548.905C941.723 550.686 942.273 554.298 942.187 556.272C942.084 558.635 943.984 561.369 944.655 563.688C945.287 565.873 942.977 569.112 944.95 570.853C946.788 572.475 948.926 573.853 950.886 575.331C953.804 577.533 953.774 581.244 954.57 584.637Z" fill="white" stroke="black" stroke-width="2" stroke-linecap="round"/>
<path d="M993.308 786.119C997.008 774.789 1002.75 752.066 987.579 747.396C977.384 744.26 977.798 739.661 977.305 728.825C976.854 718.9 970.608 715.621 963.081 711.44C950.011 704.179 940.052 687.754 924.358 686.547C921.875 686.356 910.048 681.412 907.96 679.434C897.765 669.775 892.226 662.518 876.943 660.073C864.973 658.158 842.172 645.081 842.172 631.624C842.172 625.496 840.834 620.309 845.629 616.313C849.492 613.093 853.6 622.877 854.595 625.247L854.618 625.302C856.894 630.72 864.041 631.706 868.843 634.587C874.796 638.159 877.262 638.117 884.845 638.539C887.413 638.681 887.562 642.675 888.402 644.564C889.482 646.995 893.926 646.507 895.712 648.516C901.249 654.745 907.446 659.875 915.863 659.875C923.808 659.875 929.471 662.965 937.397 663.432C942.455 663.729 948.82 671.646 953.795 673.705C962.148 677.161 970.913 677.959 978.293 683.386C995.042 695.701 993.184 717.826 1005.66 734.456C1011.86 742.733 1007.53 764.958 1007.53 775.45C1007.53 777.157 1006.64 790.974 1012.47 785.724C1015.19 783.281 1013.07 767.749 1011.09 765.572C1003.12 756.804 1020.11 738.147 1011.09 729.122C1007.62 725.658 1009.31 716.962 1009.31 712.23C1009.31 703.897 1007.12 697.792 1001.21 691.881C982.175 672.846 993.173 641.242 1002.99 619.77C1009.85 604.754 1007.53 587.433 1007.53 570.972C1007.53 563.756 1005.65 558.183 1013.26 555.364C1019.38 553.099 1027.92 546.88 1030.55 540.744C1032.68 535.781 1033.54 528.645 1036.87 524.643C1038.8 522.331 1037.76 522.147 1037.76 526.125V544.696C1037.76 564.721 1035.14 581.469 1027.29 599.421C1023.57 607.921 1021.95 614.16 1016.52 621.844C1011.96 628.306 1012.87 638.929 1012.87 646.54C1012.87 651.173 1010.88 661.425 1014.74 664.321C1019.33 667.761 1021.76 677.619 1021.76 683.386C1021.76 695.894 1023.54 708.402 1023.54 721.219C1023.54 731.179 1032.36 734.349 1036.12 741.264C1038.28 738.162 1041.07 735.482 1044.08 733.567C1050.08 729.747 1055.03 719.945 1058.31 713.81C1058.43 713.583 1059.15 693.02 1065.81 701.166C1071.44 708.042 1062.36 719.617 1060.87 725.565C1059.16 732.444 1055.01 737.99 1052.08 744.334C1050.5 747.773 1046.5 749.52 1045.27 752.731C1044.12 755.724 1045.36 758.99 1043.98 762.016C1041.8 766.827 1043.1 794.692 1039.14 795.009C1027.84 795.913 1016.11 795.009 1004.77 795.009C1002.65 795.009 990.521 796.369 989.851 794.021C988.866 790.576 991.898 788.939 993.308 786.119Z" fill="white"/>
<path d="M993.308 786.119C997.008 774.789 1002.75 752.066 987.579 747.396C977.384 744.26 977.798 739.661 977.305 728.825C976.854 718.9 970.608 715.621 963.081 711.44C950.011 704.179 940.052 687.754 924.358 686.547C921.875 686.356 910.048 681.412 907.96 679.434C897.765 669.775 892.226 662.518 876.943 660.073C864.973 658.158 842.172 645.081 842.172 631.624C842.172 625.496 840.834 620.309 845.629 616.313C849.523 613.068 853.665 623.031 854.618 625.302C856.894 630.72 864.041 631.706 868.843 634.587C874.796 638.159 877.262 638.117 884.845 638.539C887.413 638.681 887.562 642.675 888.402 644.564C889.482 646.995 893.926 646.507 895.712 648.516C901.249 654.745 907.446 659.875 915.863 659.875C923.808 659.875 929.471 662.965 937.398 663.432C942.455 663.729 948.82 671.646 953.795 673.705C962.148 677.161 970.913 677.959 978.293 683.386C995.042 695.701 993.184 717.826 1005.66 734.456C1011.86 742.733 1007.53 764.958 1007.53 775.45C1007.53 777.157 1006.64 790.974 1012.47 785.724C1015.19 783.281 1013.07 767.749 1011.09 765.572C1003.12 756.804 1020.11 738.147 1011.09 729.122C1007.62 725.658 1009.31 716.962 1009.31 712.23C1009.31 703.897 1007.12 697.792 1001.21 691.881C982.175 672.846 993.173 641.242 1002.99 619.77C1009.85 604.754 1007.53 587.433 1007.53 570.972C1007.53 563.756 1005.65 558.183 1013.26 555.364C1019.38 553.099 1027.92 546.88 1030.55 540.744C1032.68 535.781 1033.54 528.645 1036.87 524.643C1038.8 522.331 1037.76 522.147 1037.76 526.125C1037.76 532.315 1037.76 538.505 1037.76 544.696C1037.76 564.721 1035.14 581.469 1027.29 599.421C1023.57 607.921 1021.95 614.16 1016.52 621.844C1011.96 628.306 1012.87 638.929 1012.87 646.54C1012.87 651.173 1010.88 661.425 1014.74 664.321C1019.33 667.761 1021.76 677.619 1021.76 683.386C1021.76 695.894 1023.54 708.402 1023.54 721.219C1023.54 734.166 1038.45 735.639 1037.76 748.779C1037.55 752.839 1034.33 762.763 1031.64 765.77C1027.6 770.277 1028.87 776.118 1028.87 782.168C1028.87 793.576 1029.9 773.824 1030.25 771.302C1031.27 763.911 1030.71 756.943 1032.33 749.668C1033.78 743.144 1038.57 737.073 1044.08 733.567C1050.08 729.747 1055.03 719.945 1058.31 713.81C1058.43 713.583 1059.15 693.02 1065.81 701.166C1071.44 708.042 1062.36 719.617 1060.87 725.565C1059.16 732.444 1055.01 737.99 1052.08 744.334C1050.5 747.773 1046.5 749.52 1045.27 752.731C1044.12 755.724 1045.36 758.99 1043.98 762.016C1041.8 766.827 1043.1 794.692 1039.14 795.009C1027.84 795.913 1016.11 795.009 1004.77 795.009C1002.65 795.009 990.522 796.369 989.851 794.021C988.866 790.576 991.898 788.939 993.308 786.119Z" stroke="black" stroke-width="1.77808" stroke-linecap="round"/>
<path d="M441.444 716.649C443.183 709.52 449.102 708.233 455.259 708.103C483.2 697.391 495.034 768.205 464 768.205C455.343 768.205 448.979 769.91 443.444 763.76C438.347 758.096 435 753.267 435 745.316C435 734.321 438.924 726.982 441.444 716.649Z" fill="white"/>
<path d="M463 708.205C454.949 708.205 443.929 706.462 441.444 716.649C438.924 726.982 435 734.321 435 745.316C435 753.267 438.347 758.096 443.444 763.76C448.979 769.91 455.343 768.205 464 768.205C495.129 768.205 483.127 696.954 455 708.205" stroke="black" stroke-width="2" stroke-linecap="round"/>
<path d="M456 785.205C456 778.821 455.708 772.498 456.655 766.205H459C461.712 766.205 460.076 767.221 461.444 768.761C463.581 771.165 461.986 773.964 463.778 776.427C464.592 777.547 465.01 793.988 464.444 794.15C463.254 794.49 456.362 794.722 456.056 793.65C455.368 791.243 456 787.735 456 785.205Z" fill="white"/>
<path d="M457 764.205C455.643 771.159 456 778.144 456 785.205C456 787.735 455.368 791.243 456.056 793.65C456.362 794.722 463.254 794.49 464.444 794.15C465.01 793.988 464.592 777.547 463.778 776.427C461.986 773.964 463.581 771.165 461.444 768.761C460.076 767.221 461.712 766.205 459 766.205C457.667 766.205 456.333 766.205 455 766.205" stroke="black" stroke-width="2" stroke-linecap="round"/>
<path d="M360.784 83.4444C367.914 85.1833 369.2 91.1024 369.33 97.2586C380.043 125.2 309.229 137.034 309.229 106C309.229 97.3429 307.524 90.9787 313.673 85.4444C319.338 80.3466 324.167 77 332.118 77C343.112 77 350.452 80.9243 360.784 83.4444Z" fill="white"/>
<path d="M369.229 105C369.229 96.9491 370.972 85.9291 360.784 83.4444C350.452 80.9243 343.112 77 332.118 77C324.167 77 319.338 80.3466 313.673 85.4444C307.524 90.9787 309.229 97.3429 309.229 106C309.229 137.129 380.48 125.127 369.229 97" stroke="black" stroke-width="2" stroke-linecap="round"/>
<path d="M292.229 98C298.613 98 304.935 97.7083 311.229 98.6553L311.229 101C311.229 103.712 310.213 102.076 308.673 103.444C306.269 105.581 303.469 103.986 301.006 105.778C299.886 106.592 283.446 107.01 283.284 106.444C282.944 105.254 282.711 98.362 283.784 98.0556C286.19 97.3681 289.699 98 292.229 98Z" fill="white"/>
<path d="M313.229 99C306.275 97.6432 299.289 98 292.229 98C289.699 98 286.19 97.3681 283.784 98.0556C282.711 98.362 282.944 105.254 283.284 106.444C283.446 107.01 299.886 106.592 301.006 105.778C303.469 103.986 306.269 105.581 308.673 103.444C310.213 102.076 311.229 103.712 311.229 101C311.229 99.6667 311.229 98.3333 311.229 97" stroke="black" stroke-width="2" stroke-linecap="round"/>
<path d="M47.4865 740.718C48.6971 735.754 52.8179 734.859 57.1037 734.768C76.5561 727.31 84.7947 776.61 63.1893 776.61C57.1624 776.61 52.7318 777.797 48.8789 773.516C45.3299 769.572 43 766.21 43 760.675C43 753.021 45.732 747.911 47.4865 740.718Z" fill="white"/>
<path d="M62.4932 734.839C56.8882 734.839 49.2163 733.625 47.4865 740.718C45.732 747.911 43 753.021 43 760.675C43 766.21 45.3299 769.572 48.8789 773.516C52.7318 777.797 57.1624 776.61 63.1893 776.61C84.8612 776.61 76.5051 727.006 56.9237 734.839" stroke="black" stroke-width="2" stroke-linecap="round"/>
<path d="M57.62 788.445C57.62 784.001 57.4169 779.599 58.0762 775.218H59.7086C61.5968 775.218 60.4573 775.925 61.4103 776.997C62.898 778.67 61.7877 780.619 63.0348 782.334C63.6018 783.114 63.8926 794.56 63.4989 794.672C62.6704 794.909 57.872 795.071 57.6587 794.324C57.1801 792.649 57.62 790.206 57.62 788.445Z" fill="white"/>
<path d="M58.3162 773.825C57.3716 778.666 57.62 783.53 57.62 788.445C57.62 790.206 57.1801 792.649 57.6587 794.324C57.872 795.071 62.6704 794.909 63.4989 794.672C63.8926 794.56 63.6018 783.114 63.0348 782.334C61.7877 780.619 62.898 778.67 61.4103 776.997C60.4573 775.925 61.5968 775.218 59.7086 775.218C58.7803 775.218 57.8521 775.218 56.9238 775.218" stroke="black" stroke-width="2" stroke-linecap="round"/>
<path d="M160.104 775.939C160.104 762.596 160.433 749.381 159.365 736.227H156.72C153.662 736.227 155.507 738.35 153.964 741.569C151.554 746.593 153.352 752.445 151.332 757.593C150.414 759.934 149.943 794.297 150.58 794.634C151.923 795.345 159.695 795.831 160.041 793.589C160.816 788.56 160.104 781.227 160.104 775.939Z" fill="white"/>
<path d="M158.976 732.047C160.506 746.581 160.104 761.182 160.104 775.939C160.104 781.227 160.816 788.56 160.041 793.589C159.695 795.831 151.923 795.345 150.58 794.634C149.943 794.297 150.414 759.934 151.332 757.593C153.352 752.445 151.554 746.593 153.964 741.569C155.507 738.35 153.662 736.227 156.72 736.227C158.224 736.227 159.728 736.227 161.231 736.227" stroke="black" stroke-width="2" stroke-linecap="round"/>
<path d="M145.442 615C137.707 615 132.612 618.05 127.001 622.603C128.478 626.606 129.719 632.075 129.654 634.972C129.456 643.783 121.853 654.588 117.875 659.125C111.411 666.498 80.5622 673.555 80.0325 690.244C79.1772 717.194 95.3434 758.724 111.61 761.308C118.655 762.428 136.024 769.846 141.683 763.631C148.239 756.431 153.402 757.128 161.732 757.128C168.473 757.128 176.709 759.874 182.533 753.877C188.188 748.054 194.259 737.607 199.074 731.118C210.977 715.073 221.7 681.134 214.862 652.622C209.095 628.571 190.598 615 177.02 615H145.442Z" fill="white"/>
<path d="M116.121 631.721C127.597 622.605 133.227 615 145.442 615C155.968 615 166.494 615 177.02 615C190.598 615 209.095 628.571 214.862 652.622C221.7 681.134 210.977 715.073 199.074 731.118C194.259 737.607 188.188 748.054 182.533 753.877C176.709 759.874 168.473 757.128 161.732 757.128C153.402 757.128 148.239 756.431 141.683 763.631C136.024 769.846 118.655 762.428 111.61 761.308C95.3434 758.724 79.1771 717.194 80.0325 690.244C80.5622 673.555 111.411 666.498 117.875 659.125C121.853 654.588 129.456 643.783 129.654 634.972C129.785 629.129 124.602 612.823 122.887 619.18" stroke="black" stroke-width="2" stroke-linecap="round"/>
<path d="M100.765 589C114.294 589 121.289 591.689 128.512 598.161C135.935 600.472 135.905 601.37 139.265 606.384C141.978 610.434 147.881 614.959 149.941 618.65C154.739 627.243 159 633.869 159 643.76C159 649.84 157.04 655.386 151.721 660.468C147.957 664.063 151.234 665.359 145.088 668.001C142.629 669.058 138.022 671.676 136.353 673.216C126.008 682.762 102.641 671.495 92.6765 669.353C83.5953 667.401 67.5947 653.774 65.9853 648.009C64.5693 642.937 60 640.595 60 634.199V620.291C60 609.319 63.5705 598.439 80.3824 592.863C84.9096 591.362 82.7583 589 89.1176 589H100.765Z" fill="white"/>
<path d="M129.882 599.43C122.145 592.039 115.147 589 100.765 589C96.8824 589 93 589 89.1176 589C82.7583 589 84.9096 591.362 80.3824 592.863C63.5705 598.439 60 609.319 60 620.291C60 624.927 60 629.563 60 634.199C60 640.595 64.5693 642.937 65.9853 648.009C67.5947 653.774 83.5953 667.401 92.6765 669.353C102.641 671.495 126.008 682.762 136.353 673.216C138.022 671.676 142.629 669.058 145.088 668.001C151.234 665.359 147.957 664.063 151.721 660.468C157.04 655.386 159 649.84 159 643.76C159 633.869 154.739 627.243 149.941 618.65C147.881 614.959 141.978 610.434 139.265 606.384C135.687 601.044 135.953 600.373 126.971 597.692" stroke="black" stroke-width="2" stroke-linecap="round"/>
<path d="M778.46 795.581H806.906C821.806 795.834 836.607 796.29 842.089 796.29C862.35 796.29 854.222 794.422 848.064 792.427C842.138 790.507 831.773 789.905 819.109 789.905C786.723 789.905 758.669 789.547 728.105 787.934C695.66 786.221 664.329 790.614 632.045 790.614C603.116 790.614 607.226 786.858 607.226 783.164C607.226 779.802 606.23 776.758 596.425 773.782C582.834 769.658 555.238 767.588 528.632 770.077C514.218 771.426 501.29 771.556 489.105 773.506C483.417 774.417 469.176 775.213 461.528 775.556C438.284 776.6 291.144 792.839 285.495 791.008C283.118 790.238 287.668 788.554 280.44 788.486C271.716 788.402 261.786 788.768 253.322 788.328C243.768 787.831 242.435 784.676 234.019 783.676C227.839 782.943 214.568 787.094 212.417 787.697C199.424 791.344 188.465 783.23 181.622 781.469C180.657 781.221 179.351 782.576 178.635 782.849C175.446 784.064 170.655 785.151 166.915 786.318C160.709 788.253 158.098 788.744 150.139 787.106C141.954 785.421 132.959 782.737 126.928 786.357C123.228 788.578 102.097 791.005 111.301 793.768C113.753 794.503 125.363 794.162 129.686 794.162C138.568 794.162 138.683 795.581 146.232 795.581H203.454H304.34H778.46Z" fill="white"/>
<path d="M838.872 795.581C660.695 795.581 482.517 795.581 304.34 795.581C270.711 795.581 237.083 795.581 203.454 795.581C184.38 795.581 165.306 795.581 146.232 795.581C138.683 795.581 138.568 794.162 129.686 794.162C125.363 794.162 113.753 794.503 111.301 793.768C102.097 791.005 123.228 788.578 126.928 786.357C132.959 782.737 141.954 785.421 150.139 787.106C158.098 788.744 160.709 788.253 166.915 786.318C170.655 785.151 175.446 784.064 178.635 782.849C179.351 782.576 180.657 781.221 181.622 781.469C188.465 783.23 199.424 791.344 212.417 787.697C214.567 787.094 227.839 782.943 234.019 783.676C242.436 784.676 243.768 787.831 253.322 788.328C261.786 788.768 271.716 788.402 280.44 788.486C287.668 788.554 283.118 790.238 285.495 791.008C291.144 792.839 438.284 776.6 461.528 775.556C469.175 775.213 483.417 774.417 489.105 773.506C501.29 771.556 514.218 771.426 528.632 770.077C555.238 767.588 582.834 769.658 596.425 773.782C606.23 776.758 607.226 779.802 607.226 783.164C607.226 786.858 603.116 790.614 632.045 790.614C664.329 790.614 695.66 786.221 728.105 787.934C758.669 789.547 786.723 789.905 819.109 789.905C831.773 789.905 842.138 790.507 848.064 792.427C854.222 794.422 862.35 796.29 842.089 796.29C829.581 796.29 768.551 793.914 768.551 797" stroke="black" stroke-width="2" stroke-linecap="round"/>
<path d="M1242.9 742.935C1242.9 759.155 1244.61 772.949 1245 789.241C1248.47 783.426 1255.85 789.387 1258.65 789.387C1265.22 789.387 1271.22 801 1277.62 801H1293.69C1299.42 801 1304.28 789.387 1309.77 789.387H1327.17C1329.89 789.387 1332.07 793.581 1334.72 794.763C1336.76 795.673 1334.79 766.941 1334.76 762.29C1334.72 754.876 1334.87 747.32 1334.76 739.924C1334.64 731.194 1333.32 726.373 1333.32 716.698V650.891C1333.32 628.783 1332.62 602.789 1333.48 581.213C1334.12 565.172 1335.63 551.857 1336.05 534.761C1336.33 523.542 1336.62 512.397 1336.89 501.213C1337.44 479.372 1335.84 487.449 1332.96 487.449C1331.8 487.449 1329.76 489.554 1328.7 487.019C1327.4 483.924 1327.5 479.707 1325.68 479.707H1308H1281.28H1263.96C1257.71 479.707 1252.01 468.625 1245.95 468.094C1245.38 468.044 1234.75 461.806 1237.43 471.105C1239.51 478.293 1239.28 495.442 1239.28 507.664C1239.28 541.376 1240.73 575.003 1240.73 609.17V656.053C1240.73 665.231 1242.18 669.844 1242.18 679.064V702.29C1242.18 716.941 1242.9 728.352 1242.9 742.935Z" fill="white"/>
<path d="M1245.07 793.258C1244.9 775.172 1242.9 760.471 1242.9 742.935C1242.9 728.352 1242.18 716.941 1242.18 702.29C1242.18 694.548 1242.18 686.806 1242.18 679.064C1242.18 669.844 1240.73 665.231 1240.73 656.053C1240.73 640.425 1240.73 624.798 1240.73 609.17C1240.73 575.003 1239.28 541.376 1239.28 507.664C1239.28 495.442 1239.51 478.293 1237.43 471.105C1234.75 461.806 1245.38 468.044 1245.95 468.094C1252.01 468.625 1257.71 479.707 1263.96 479.707C1269.73 479.707 1275.5 479.707 1281.28 479.707C1290.18 479.707 1299.09 479.707 1308 479.707C1313.89 479.707 1319.79 479.707 1325.68 479.707C1327.5 479.707 1327.4 483.924 1328.7 487.019C1329.76 489.554 1331.8 487.449 1332.96 487.449C1335.84 487.449 1337.44 479.372 1336.89 501.213C1336.62 512.397 1336.33 523.542 1336.05 534.761C1335.63 551.857 1334.12 565.172 1333.48 581.213C1332.62 602.789 1333.32 628.783 1333.32 650.891C1333.32 672.827 1333.32 694.763 1333.32 716.698C1333.32 726.373 1334.64 731.194 1334.76 739.924C1334.87 747.32 1334.72 754.876 1334.76 762.29C1334.79 766.941 1336.76 795.673 1334.72 794.763C1332.07 793.581 1329.89 789.387 1327.17 789.387C1321.37 789.387 1315.57 789.387 1309.77 789.387C1304.28 789.387 1299.42 801 1293.69 801C1288.34 801 1282.98 801 1277.62 801C1271.22 801 1265.22 789.387 1258.65 789.387C1255.37 789.387 1245.87 781.252 1243.62 793.258" stroke="black" stroke-width="2" stroke-linecap="round"/>
<path d="M1277 602C1277 609.136 1273.37 622.388 1283.44 622C1287.29 621.852 1295 619.991 1295 616C1295 613.49 1296.65 600.814 1292.11 602.111C1287.2 603.514 1282.76 604 1277 604" stroke="black" stroke-width="2" stroke-linecap="round"/>
<path d="M1277 642C1277 652.059 1273.32 660 1284.56 660C1293.62 660 1293 656.569 1293 648.444C1293 646.828 1292.92 631.326 1289.44 636.889C1287.16 640.547 1279.72 642 1275 642" stroke="black" stroke-width="2" stroke-linecap="round"/>
<path d="M1277 521C1277 528.136 1273.37 541.388 1283.44 541C1287.29 540.852 1295 538.991 1295 535C1295 532.49 1296.65 519.814 1292.11 521.111C1287.2 522.514 1282.76 523 1277 523" stroke="black" stroke-width="2" stroke-linecap="round"/>
<path d="M1277 561C1277 571.059 1273.32 579 1284.56 579C1293.62 579 1293 575.569 1293 567.444C1293 565.828 1292.92 550.326 1289.44 555.889C1287.16 559.547 1279.72 561 1275 561" stroke="black" stroke-width="2" stroke-linecap="round"/>
<path d="M1277 686C1277 699.565 1276.17 700 1288.56 700C1294.84 700 1295.77 696.41 1292 691.889C1288.27 687.415 1294.45 682 1286 682C1281.25 682 1275 679.973 1275 686" stroke="black" stroke-width="2" stroke-linecap="round"/>
<path d="M1278.56 746C1271.89 746.256 1275 738.809 1275 732C1286.91 732 1289.75 731.244 1289 744C1288.79 747.597 1281.03 745.905 1278.56 746Z" stroke="black" stroke-width="2" stroke-linecap="round"/>
<path d="M814.769 238C821.038 253.489 830.933 258.164 841.769 269C851.535 278.766 865.218 283.846 874.102 294C878.183 298.664 885.388 299.598 890.325 302.889C897.214 307.482 902.846 313.258 910.769 316.889C924.672 323.261 936.771 333.592 950.325 339.556C956.695 342.359 960.194 351.253 965.88 355.556C972.217 360.351 981.081 361.148 986.88 366.222C993.854 372.325 1001.05 371.714 1008.77 376C1016.45 380.267 1024.24 385.196 1031.66 389.111C1047.86 397.661 1069.23 394.677 1084.77 403C1099.36 410.816 1114.85 410.839 1130.66 414C1161.31 420.13 1190.35 424 1221.77 424C1252.24 424 1279.91 428 1310.55 428C1339.55 428 1367.72 424.352 1395.66 417.778C1398.9 417.014 1399.58 414.254 1403.21 414C1408.3 413.645 1412.22 412.994 1416.55 410.111C1423.28 405.626 1432.67 408.231 1439.88 405.111C1447.37 401.874 1456.72 396.783 1464.77 395.889C1471.03 395.193 1478.77 395.269 1478.77 388" stroke="black" stroke-width="2" stroke-linecap="round"/>
<path d="M808.114 155.483C819.56 167.656 830.476 168.437 844.497 174.622C857.133 180.195 871.727 179.984 883.682 186.238C889.174 189.111 896.229 187.376 902.021 188.659C910.105 190.45 917.445 193.798 926.144 194.319C941.411 195.232 956.426 200.489 971.22 201.148C978.173 201.458 984.651 208.485 991.508 210.44C999.151 212.62 1007.7 210.158 1014.94 212.791C1023.65 215.959 1030.14 212.786 1038.89 213.992C1047.59 215.193 1056.64 216.971 1064.97 217.939C1083.16 220.053 1102.01 209.541 1119.51 211.683C1135.94 213.694 1150.39 208.113 1166.27 205.345C1197.06 199.977 1225.54 193.084 1254.83 181.721C1283.24 170.704 1310.48 164.428 1339.05 153.348C1366.08 142.861 1391.03 129.272 1414.7 113.04C1417.45 111.154 1417.08 108.336 1420.38 106.786C1424.99 104.617 1428.42 102.59 1431.41 98.3386C1436.06 91.7235 1445.75 90.7563 1451.35 85.2394C1457.16 79.5136 1464.04 71.3852 1471.22 67.6412C1476.81 64.7275 1484.05 62.0007 1481.42 55.2236" stroke="black" stroke-width="2" stroke-linecap="round"/>
<path d="M626.769 515C600.708 510.036 574.648 517.303 548.325 516.889C467.615 515.618 379.721 479.579 324.991 418.555C287.631 376.899 282.389 312.451 274.769 259.111C273.606 250.972 266.565 225.637 280.769 237" stroke="black" stroke-width="2" stroke-linecap="round"/>
<path d="M282.769 361C309.757 377.608 337.309 363.18 363.658 350.444C396.633 334.506 428.565 316.822 460.658 299.222C487.782 284.348 516.935 273.394 543.214 257C575.857 236.635 602.198 212.702 624.769 181.667" stroke="black" stroke-width="2" stroke-linecap="round"/>
<path d="M-11 425C10.8638 425 33.1699 426.18 55 425C60.8032 424.686 65.2756 421 71.4444 421C78.037 421 84.6296 421 91.2222 421C106.581 421 127.89 418.556 142.556 423.889C167.695 433.03 200.893 433 227.889 433C296.769 433 365.611 429 434.556 429C491.796 429 548.586 433 605.667 433C642.957 433 680.215 434.385 717 427.444C724.384 426.051 731.044 422.78 738.556 421.444C743.734 420.524 748.973 417 753.889 417C768.197 417 782.15 416.882 796.111 420.556C806.244 423.222 810.843 426.423 821.111 423C831.418 419.564 844.957 417 855.667 417C863.61 417 871.206 417.085 879 415.444C886.151 413.939 893.831 411 901.111 411C904.517 411 912.753 412.569 915.889 410.778C920.088 408.378 919.18 407.224 925.444 407C930.712 406.812 935.628 405 941 405C946.482 405 949.411 401 954.889 401C964.111 401 973.333 401 982.556 401C996.834 401 1015.44 410.627 1028 417.111C1046.79 426.808 1067.35 428.126 1086.56 435.889C1094 438.897 1099.16 443.451 1107.44 444.556C1115.85 445.676 1124.64 445 1133.11 445C1138.7 445 1144.3 445 1149.89 445C1157.87 445 1164.55 441.208 1172.56 441C1184.47 440.691 1198.32 443.033 1210.11 440.889C1215.73 439.868 1220.38 436.64 1224.78 433.222C1229.89 429.244 1236.8 433.157 1241.44 429.444C1254.22 419.228 1283.76 425 1299.44 425C1323.3 425 1429.15 421 1453 421" stroke="black" stroke-width="2" stroke-linecap="round"/>
<path d="M301.348 448.778C300.239 443.79 302.044 437.717 303.073 432.808C313.956 437.002 330.926 434 342.348 434H382.348C392.359 434 395.237 432.362 395.237 443.111C395.237 448.331 393.801 456.332 396.792 460.444C397.823 461.861 399.237 473.882 399.237 476C399.237 482.096 401.237 487.101 401.237 492.444C401.237 500.626 407.237 507.649 407.237 516.444C407.237 523.969 409.237 531.153 409.237 538.889C409.237 541.814 411.203 558.823 406.126 553.111C404.304 551.062 406.802 546.198 403.237 546C400.557 545.851 394.531 544.896 393.459 548.111C391.313 554.548 390.916 581.599 394.792 586.444C397.399 589.703 395.565 600.515 397.237 605.111C399.913 612.47 389.687 611.875 387.681 607.111C386.227 603.658 387.237 598.166 387.237 594.444C387.237 589.981 383.632 590.213 383.237 586C382.689 580.159 377.964 573.433 372.015 572.111C359.724 569.38 347.237 576.087 347.237 589.111C347.237 592.722 349.29 605.557 346.237 608C339.516 613.377 337.237 608.417 337.237 602C337.237 588.379 335.237 574.727 335.237 561.556C335.237 554.36 331.042 551.714 327.681 546C323.414 538.745 319.58 544.193 316.015 545.778C309.02 548.886 311.237 516.008 311.237 511V470C311.237 466.748 313.105 451.596 310.015 450.222C308.167 449.401 301.937 451.429 301.348 448.778Z" fill="white"/>
<path d="M303.237 432C302.254 437.038 300.178 443.513 301.348 448.778C301.937 451.429 308.167 449.401 310.015 450.222C313.105 451.596 311.237 466.748 311.237 470C311.237 483.667 311.237 497.333 311.237 511C311.237 516.008 309.02 548.886 316.015 545.778C319.58 544.193 323.414 538.745 327.681 546C331.042 551.714 335.237 554.36 335.237 561.556C335.237 574.727 337.237 588.379 337.237 602C337.237 608.417 339.516 613.377 346.237 608C349.29 605.557 347.237 592.722 347.237 589.111C347.237 576.087 359.724 569.38 372.015 572.111C377.964 573.433 382.689 580.159 383.237 586C383.632 590.213 387.237 589.981 387.237 594.444C387.237 598.166 386.227 603.658 387.681 607.111C389.687 611.875 399.913 612.47 397.237 605.111C395.565 600.515 397.399 589.703 394.792 586.444C390.916 581.599 391.313 554.548 393.459 548.111C394.531 544.896 400.557 545.851 403.237 546C406.802 546.198 404.304 551.062 406.126 553.111C411.203 558.823 409.237 541.814 409.237 538.889C409.237 531.153 407.237 523.969 407.237 516.444C407.237 507.649 401.237 500.626 401.237 492.444C401.237 487.101 399.237 482.096 399.237 476C399.237 473.882 397.823 461.861 396.792 460.444C393.801 456.332 395.237 448.331 395.237 443.111C395.237 432.362 392.359 434 382.348 434C369.015 434 355.681 434 342.348 434C330.261 434 311.961 437.362 301.237 432" stroke="black" stroke-width="2" stroke-linecap="round"/>
<path d="M319 443C319 436.819 317 430.877 317 424C328.762 424 325.546 436.18 325 446C324.738 450.724 319 447.158 319 443Z" stroke="black" stroke-width="2" stroke-linecap="round"/>
<path d="M367 424C367 430.704 366.484 437.739 367 444.444C367.53 451.34 373 447.176 373 442C373 430.581 376.173 424 363 424" stroke="black" stroke-width="2" stroke-linecap="round"/>
<path d="M779.154 769L768.288 774.949V788.631H796.702V774.949L779.154 769Z" fill="white"/>
<path d="M768.446 775.99C770.224 775.223 771.538 773.727 773.35 772.978C773.995 772.711 774.538 772.024 775.224 771.687C775.755 771.426 776.529 771.088 776.819 770.564C777.112 770.031 778.332 769.876 778.863 769.488C779.736 768.851 779.616 768.884 780.506 769.321C781.283 769.702 781.846 769.751 782.708 769.751C783.611 769.751 784.049 770.054 784.874 770.229C786.309 770.534 787.465 771.211 788.817 771.579C789.307 771.713 789.895 772.029 790.363 772.105C790.961 772.203 791.348 772.548 791.932 772.548C792.591 772.548 794.006 773.111 794.5 773.516C795.119 774.022 795.907 774.308 796.703 774.699" stroke="black" stroke-width="2" stroke-linecap="round"/>
<path d="M768 775.99C768 777.322 768.446 778.398 768.446 779.675C768.446 780.998 768.446 782.321 768.446 783.644C768.446 784.765 768.259 785.85 768.223 786.952C768.211 787.312 768.223 789.467 768.223 788.275" stroke="black" stroke-width="2" stroke-linecap="round"/>
<path d="M796.851 774.8C796.851 779.43 797 783.965 797 788.631" stroke="black" stroke-width="2" stroke-linecap="round"/>
<path d="M1422.47 800.857H1450.59C1448.85 797.337 1450.53 792.815 1446.83 789.857C1443.01 786.801 1438.43 782 1432.69 782H1421.77C1418.6 782 1419.52 786.021 1416.8 786.627C1409.33 788.287 1400.64 789.857 1392.7 789.857C1385.27 789.857 1379.5 786.714 1371.4 786.714H1349.31H1328.1H1313.26C1308.01 786.714 1306.1 785.068 1301.47 783.746C1293.09 781.35 1293.02 790.161 1288.55 793.698C1281.51 799.273 1297.54 796.143 1301.82 796.143H1351.41C1357.85 796.143 1363.39 797.714 1370.27 797.714C1377.93 797.714 1386.37 796.253 1392.96 800.159C1399.46 804.008 1415.07 800.857 1422.47 800.857Z" fill="white"/>
<path d="M1452.33 800.857C1442.38 800.857 1432.43 800.857 1422.47 800.857C1415.07 800.857 1399.46 804.008 1392.96 800.159C1386.37 796.253 1377.93 797.714 1370.27 797.714C1363.39 797.714 1357.85 796.143 1351.41 796.143C1334.88 796.143 1318.35 796.143 1301.82 796.143C1297.54 796.143 1281.51 799.273 1288.55 793.698C1293.02 790.161 1293.09 781.35 1301.47 783.746C1306.1 785.068 1308.01 786.714 1313.26 786.714C1318.21 786.714 1323.15 786.714 1328.1 786.714C1335.17 786.714 1342.24 786.714 1349.31 786.714C1356.68 786.714 1364.04 786.714 1371.4 786.714C1379.5 786.714 1385.27 789.857 1392.7 789.857C1400.64 789.857 1409.33 788.287 1416.8 786.627C1419.52 786.021 1418.6 782 1421.77 782C1425.41 782 1429.05 782 1432.69 782C1438.43 782 1443.01 786.801 1446.83 789.857C1451.78 793.821 1447.09 800.594 1453.9 804" stroke="black" stroke-width="1.57143" stroke-linecap="round"/>
</svg>
