<svg width="96" height="46" viewBox="0 0 96 46" fill="none" xmlns="http://www.w3.org/2000/svg">
<path d="M9.00002 33C32.2723 33 56.1783 31 80 31C83.6383 31 91.7364 34.5792 94.8889 32.7778C95.1441 32.632 92 23.5851 92 21C92 13.5646 83.3895 9.50057 78.4445 4.55556C74.9366 1.04771 68.601 1 64 1C58.4557 1 57.1111 4.71556 53.5556 5C49.1097 5.35567 45.1128 4.10897 42 8C40.0984 10.377 36.5336 7 34 7C23.4354 7 16.1805 8.94554 7.00002 13.8889C-0.591437 17.9766 -1.8264 33 9.00002 33Z" fill="white" stroke="black" stroke-width="2" stroke-linecap="round"/>
<path d="M24 35C24 26.9172 31.3438 28.3786 38.3847 28.8762C39.4542 28.8546 40.4711 28.8718 41.3933 28.9999C44.2339 29.3946 46.177 30.8415 46 35.4445C45.7381 42.2529 38.7189 45 32.8889 45C25.6811 45 24 41.5516 24 35Z" fill="white"/>
<path d="M41.3939 28.9999C33.6187 28.9999 24 25.7496 24 35C24 41.5516 25.6811 45 32.8889 45C38.7189 45 45.7381 42.2529 46 35.4445C46.3099 27.388 40.1247 29 34 29" stroke="black" stroke-width="2" stroke-linecap="round"/>
<path d="M73.5555 42.5555C64.8712 50.3714 47.2772 36.0329 67.681 27.1372C70.2088 27.4139 72.6631 28.1606 73.7777 30.1111C74.6959 31.718 74.8492 41.3912 73.5555 42.5555Z" fill="white"/>
<path d="M67.9999 27C47.0954 35.8844 64.8264 50.4117 73.5555 42.5555C74.8492 41.3912 74.6959 31.718 73.7777 30.1111C71.7466 26.5567 65.2666 27 61.9999 27" stroke="black" stroke-width="2" stroke-linecap="round"/>
</svg>
