<svg width="88" height="84" viewBox="0 0 88 84" fill="none" xmlns="http://www.w3.org/2000/svg">
<path d="M60.9998 4.32493C53.4121 9.43497 40.6351 19.4275 35.4442 27.2138C32.9776 30.9137 31.9641 35.6196 29.4442 38.7694C26.8332 42.0331 29.885 48.2856 26.9998 52.3249C22.309 58.892 23.3165 70.3249 32.5553 70.3249C43.6015 70.3249 46.3123 63.48 55.1109 60.5472C64.1091 57.5477 82.9998 35.278 82.9998 25.8805C82.9998 20.6096 86.2288 2.32493 77.8887 2.32493C74.3712 2.32493 67.6704 3.64305 64.8887 1.32493C63.1004 -0.16527 55.3615 3.9313 52.9998 4.32493" stroke="black" stroke-width="2" stroke-linecap="round"/>
<path d="M51 68.325C53.0046 68.3738 68.5087 70.0925 66.6667 69.325C59.7056 66.4245 64.749 66.325 61 66.325" stroke="black" stroke-width="2" stroke-linecap="round"/>
<path d="M86.5 66.325C73.0932 69.3415 35.0532 82.325 21 82.325C11.4605 82.325 -4.39256 76.7547 -7 66.325" stroke="black" stroke-width="2" stroke-linecap="round"/>
</svg>
