<svg width="89" height="71" viewBox="0 0 89 71" fill="none" xmlns="http://www.w3.org/2000/svg">
<path d="M66.9998 4.00009C39.0121 4.00009 25.0543 18.5697 15.4443 43.5556C13.1001 49.6504 4.24972 66.0675 16.9998 67.889C24.1753 68.914 41.7387 70.4785 47.9998 67.0001C57.415 61.7694 63.5327 52.6017 72.111 47.5556C76.5826 44.9252 86.9998 28.185 86.9998 24.0001C86.9998 15.8461 88.782 2.43615 77.4443 2.00009C67.5061 1.61785 56.3725 0.875854 46.9998 4.00009" stroke="black" stroke-width="2" stroke-linecap="round"/>
<path d="M19.0002 4C18.5865 4.26474 0.0384283 14.6847 1.88905 15.5556C5.6653 17.3326 15.6421 16.5768 18.7779 13.8889C21.8541 11.2522 25.115 7.26297 19.889 5.11111C13.442 2.45646 10.9486 6.05151 7.00016 10" stroke="black" stroke-width="2" stroke-linecap="round"/>
<path d="M15 14C21.6722 16.6038 43.2733 18 36.1111 18C29.5185 18 9.83044 16.9162 16.3333 18C42.904 22.4284 1.57324 16.5146 29 22" stroke="black" stroke-width="2" stroke-linecap="round"/>
</svg>
