<svg width="354" height="149" viewBox="0 0 354 149" fill="none" xmlns="http://www.w3.org/2000/svg">
<path d="M1 143C17.3465 149.227 35.8911 147 53.2222 147C75.5753 147 95.6298 139.477 117 135.444C141.695 130.785 166.73 122.241 190.111 112.889C198.408 109.57 205.796 106.502 213 102C218.144 98.7853 227.645 93.696 233.444 93C238.582 92.3835 239.195 87.4464 242.111 84C245.182 80.3711 249.209 79.5306 252.556 76.5556C257.829 71.8682 266.305 67.0559 272.222 63.1111C285.063 54.5503 302.338 49.134 311.444 35.8889C316.597 28.3941 335 22.5514 335 12C335 -0.401905 350.415 -6.65956 353 -17" stroke="black" stroke-width="2" stroke-linecap="round"/>
</svg>
