<svg width="346" height="73" viewBox="0 0 346 73" fill="none" xmlns="http://www.w3.org/2000/svg">
<path d="M17 9C27.8255 16.8731 35.7707 26.2939 48.5556 30.5556C57.0032 33.3714 62.6045 39.8733 71.1111 42C80.4905 44.3448 90.2383 49 100.111 49C119.112 49 138.267 59 157 59C172.691 59 187.331 61 203 61C229.519 61 256.037 61 282.556 61C284.709 61 295.147 57.4518 296.889 56C299.013 54.23 301.966 55.3227 304.556 54.5556C308.037 53.5239 310.349 49.9682 313.333 49.2222C317.143 48.2699 322.207 50.3649 325.778 48.7778C327.822 47.8691 328.258 44.5992 331 43.4444C335.955 41.3582 340.089 39.4556 345 37" stroke="black" stroke-width="2" stroke-linecap="round"/>
<path d="M275 60C258.846 49.6613 233.579 46.6118 214.333 50.1111C208.052 51.2531 228.307 59.5612 230 59.8888C238.459 61.526 246.447 62 255 62C257.778 62 268.825 63.7531 269 59.5555C269.277 52.9096 256.509 54 252 54C247.547 54 243 57.6659 243 62C243 68.7846 251 63.1598 251 72" stroke="black" stroke-width="2" stroke-linecap="round"/>
<path d="M42.9999 3.99998C40.5165 3.51541 23.8446 -0.951513 21.4443 2.88887C19.8686 5.41004 16.1629 13.7968 21.4443 14C28.7115 14.2795 33.4465 18 40.9999 18C44.8821 18 54.2455 15.0388 45.8888 12C37.5045 8.95114 13.6881 -1.33592 4.99988 6.11109C-3.59474 13.4779 4.50909 19.287 10.2221 25C17.1054 31.8833 28.1429 30 36.9999 30" stroke="black" stroke-width="2" stroke-linecap="round"/>
</svg>
