<svg width="67" height="81" viewBox="0 0 67 81" fill="none" xmlns="http://www.w3.org/2000/svg">
<path d="M13.247 41.5168C8.22226 53.3398 2.65406 61.7122 13.6915 71.9612C23.7906 81.339 36.765 74.221 44.3582 66.6279C57.8177 53.1683 70.4648 30.6398 63.6915 11.0723C56.8758 -8.61752 24.5778 4.60429 17.247 16.5168C11.6581 25.5988 6.24345 33.0293 3.24704 43.5168C-0.036294 55.0084 1.24704 67.4848 1.24704 79.5168" stroke="black" stroke-width="2" stroke-linecap="round"/>
<path d="M27.247 53.5167C25.6109 52.9825 6.17432 49.1007 13.247 49.5167C16.2209 49.6917 21.6341 51.7378 24.1359 53.4056C24.2543 53.4845 13.3605 53.5167 18.247 53.5167C21.8337 53.5167 24.9097 55.5167 29.247 55.5167" stroke="black" stroke-width="2" stroke-linecap="round"/>
</svg>
