<svg width="627" height="198" viewBox="0 0 627 198" fill="none" xmlns="http://www.w3.org/2000/svg">
<path d="M1 1C7.26921 16.4886 17.1643 21.1643 28 32C37.7656 41.7656 51.4489 46.8463 60.3333 57C64.4143 61.664 71.6192 62.598 76.5556 65.8889C83.445 70.4818 89.0772 76.2576 97 79.8889C110.903 86.2613 123.002 96.5918 136.556 102.556C142.926 105.359 146.425 114.253 152.111 118.556C158.448 123.351 167.312 124.148 173.111 129.222C180.085 135.325 187.284 134.714 195 139C202.681 143.267 210.471 148.196 217.889 152.111C234.089 160.661 255.464 157.677 271 166C285.59 173.816 301.083 173.839 316.889 177C347.537 183.13 376.578 187 408 187C438.466 187 466.136 191 496.778 191C525.777 191 553.95 187.352 581.889 180.778C585.136 180.014 585.81 177.254 589.444 177C594.527 176.645 598.454 175.994 602.778 173.111C609.506 168.626 618.897 171.231 626.111 168.111C633.598 164.874 642.952 159.783 651 158.889C657.263 158.193 665 158.269 665 151" stroke="black" stroke-width="2" stroke-linecap="round"/>
<path d="M299 164C300.72 168.299 311.607 166 315 166C322.828 169.914 314.477 176 309 176C304.348 176 291.692 178.3 289.111 174L289.096 173.975C286.422 169.519 282.135 162.372 291.445 162C294.178 161.891 297.818 161.046 299 164Z" stroke="black" stroke-width="2" stroke-linecap="round"/>
<path d="M593 160C573.824 156.347 557.459 156.071 544.555 171.556C530.945 187.888 569.539 185.822 576.555 183.111C582.496 180.816 598.76 172.043 599 165.556C599.327 156.719 584.686 154.154 577.444 154C564.433 153.723 542.986 150.567 533.889 162.444C519.641 181.046 540.656 184 553.111 184C559.097 184 584.353 182.249 582.889 172C580.923 158.24 554.806 165.108 548.555 170C534.443 181.045 555.454 182.729 563.778 181.778C566.148 181.507 591.635 169.975 585.889 168.333C578.625 166.258 577 180.985 577 185C577 193.729 579.197 194.268 588.111 195.889C597.968 197.681 605 194.389 605 184.222C605 174.985 596.583 178 589 178" stroke="black" stroke-width="2" stroke-linecap="round"/>
</svg>
