<svg width="344" height="154" viewBox="0 0 344 154" fill="none" xmlns="http://www.w3.org/2000/svg">
<path d="M1 153C14.074 147.898 27.0775 145.179 39 138.556C44.5592 135.467 51.0214 133.823 56.8889 130.889C63.4853 127.591 69.9084 126.601 76.8889 123.111C107.606 107.753 137.672 91.6887 169 75.4444C184.791 67.2567 202.858 55.5052 220.556 52.5556C230.842 50.8411 240.332 44.5985 250 43.1111C254.198 42.4653 255.397 39.4967 259.444 38.5556C264.633 37.3489 270.066 37.5765 275.111 36C283.604 33.346 305.352 26.1194 309 17C311.031 11.923 321.116 12.614 325.444 9.88889C330.736 6.55742 337.478 3.76099 343 1" stroke="black" stroke-width="2" stroke-linecap="round"/>
</svg>
