<svg width="348" height="208" viewBox="0 0 348 208" fill="none" xmlns="http://www.w3.org/2000/svg">
<path d="M1 1C6.52698 2.80473 14.7695 3.77225 19.7778 7.11111C22.0578 8.63114 21.6052 11.8464 24.5556 13.8889C30.7162 18.154 34.7528 24.8807 41 28.5556C43.7748 30.1878 45.4813 34.564 48 36.8889C51.7808 40.3789 58.0666 40.3686 62.5556 43C69.6928 47.1839 77.6159 54.6497 85 57.1111C93.1772 59.8369 99.6941 68.266 108 70.8889C113.184 72.5259 116.203 76.5366 121 79C126.532 81.8408 132.218 82.8205 137.444 86.1111C143.899 90.1749 153.502 95.5807 160.333 98.5556C167.079 101.493 174.784 102.756 182 104C188.907 105.191 193.344 109.375 200 111.111C206.478 112.801 219.304 118.777 224 123.111C227.814 126.632 234.422 132.878 238.889 135.111C254.702 143.018 268.551 156.368 285.667 164.111C293.826 167.802 300.704 173.711 309 177.444C314.768 180.04 321.958 183.027 324.889 188.889C326.652 192.416 345.041 207 347 207" stroke="black" stroke-width="2" stroke-linecap="round"/>
</svg>
