<svg width="350" height="112" viewBox="0 0 350 112" fill="none" xmlns="http://www.w3.org/2000/svg">
<path d="M1 111C10.149 107.43 14.7308 106.368 22.1111 101C27.8956 96.7931 37.9487 99.5015 42 95C46.4752 90.0276 58.137 90.4723 64.1111 87.8889C68.1811 86.1289 79.7352 87.8716 82.5556 84.1111C86.3141 79.0998 99.6036 79 105.889 79C113.903 79 118.954 73 127 73C137.489 73 151.247 66.2894 161.778 64C173.267 61.5023 185.427 59.4518 196 55C212.407 48.0919 228.975 40.7377 245.667 34.5556C250.755 32.671 255.874 28.5316 261.111 27.2222C268.916 25.2709 278.391 27.1189 286 24.7778C290.343 23.4414 301.125 21.263 303.444 17.8889C305.151 15.4071 314.711 11.5318 317.444 10.5556C323.417 8.42263 331.184 7.48158 337.444 7C338.811 6.89488 348.537 1.92503 349 1" stroke="black" stroke-width="2" stroke-linecap="round"/>
</svg>
