<svg width="630" height="210" viewBox="0 0 630 210" fill="none" xmlns="http://www.w3.org/2000/svg">
<path d="M1 1C11.0964 3.2717 17.6497 10.1467 27.8889 11C37.0506 11.7635 48.1273 17.2104 57 20.1111C68.9259 24.01 79.6678 25.2785 90.5556 31.8889C97.9455 36.3756 109.799 42.4765 118 45C129.145 48.4292 138.261 55.0788 148.778 58C159.904 61.0906 170.27 65.3863 181.111 69C187.178 71.0222 193.139 73.5534 198.667 76.7778C204.291 80.0588 210.403 77.9958 216.111 81C222.32 84.2678 229.861 83.2616 236.111 86.2222C242.882 89.4297 250.982 94.1188 258.333 95.4444C278.894 99.152 296.595 109.153 316.333 114.556C329.32 118.11 342.109 118.079 355 122.556C364.303 125.786 372.881 129.063 382.111 132.556C393.838 136.993 406.81 137.516 418.111 143C427.704 147.655 435.483 151.357 446.111 153.444C467.374 157.621 486.634 173.171 508.111 174.889C521.016 175.921 533.276 183 546 183C558.816 183 572.105 193 585 193C599.779 193 614.933 199.289 628.889 202.778C636.621 204.711 641.357 203.357 647 209" stroke="black" stroke-width="2" stroke-linecap="round"/>
</svg>
