<svg width="5466" height="311" viewBox="0 0 5466 311" fill="none" xmlns="http://www.w3.org/2000/svg">
<path d="M717.927 141.164C709.177 152.209 700.348 170.709 690.468 180.349C705.21 182.405 719.541 186.43 733.879 188.43L755.183 191.401C757.136 191.673 764.682 194.707 765.657 190.722C767.206 184.389 765.363 177.721 763.159 173.146C760.17 166.94 759.465 158.074 756.468 152.619C754.36 148.782 750.954 143.79 750.465 138.495C749.948 132.891 745.734 127.901 743.353 124.441C742.718 123.519 740.526 111.71 739.708 113.123C733.769 123.374 724.928 132.326 717.927 141.164Z" fill="white" stroke="black" stroke-width="2" stroke-linecap="round"/>
<path d="M717.131 242.551L725.204 184.667C732.078 182.35 727.996 193.609 727.293 198.645C726.147 206.864 729.704 210.319 728.431 219.446L722.077 265.005C721.797 267.015 721.915 274.437 719.501 274.631C716.502 274.871 713.067 272.584 713.387 269.403C714.287 260.436 715.886 251.478 717.131 242.551Z" fill="white" stroke="black" stroke-width="2" stroke-linecap="round"/>
<path d="M1044.99 244.146L1143.06 244.146C1148.51 250.303 1128.85 247.942 1120.32 247.942C1106.39 247.942 1101.47 251.738 1086.01 251.738L1008.82 251.738C1005.41 251.738 993.106 252.822 992.224 250.578C991.129 247.791 994.134 244.263 999.495 244.146C1014.61 243.817 1029.87 244.146 1044.99 244.146Z" fill="white" stroke="black" stroke-width="2" stroke-linecap="round"/>
<path d="M1158.92 213.104C1171.78 213.104 1180.84 213.103 1192.98 217.865C1198.01 217.865 1195.01 221.177 1196.15 223.596C1197.9 227.334 1199.88 228.992 1201.74 232.149C1206.36 240.023 1204.72 249.549 1204.72 258.424C1204.72 261.311 1198.2 266.36 1195.96 269.533C1192.86 273.931 1187.26 275 1182.17 275H1169.13C1162.54 275 1162.26 272.248 1157.76 269.886C1148.25 264.882 1142.39 257.229 1137.27 248.02C1135.78 245.342 1134.29 239.127 1134.29 236.117C1134.29 233.93 1133.53 230.371 1134.47 228.358C1135.54 226.085 1137.64 227.622 1137.64 224.214C1137.64 211.147 1147.64 213.104 1158.6 213.104L1158.92 213.104Z" fill="white" stroke="black" stroke-width="2" stroke-linecap="round"/>
<path d="M800.16 213.055L800.16 98.4063C806.913 92.0429 804.324 115.023 804.324 124.998C804.324 141.276 808.487 147.024 808.487 165.103L808.487 255.34C808.487 259.32 809.676 273.708 807.215 274.738C804.158 276.019 800.288 272.506 800.16 266.238C799.8 248.572 800.16 230.735 800.16 213.055Z" fill="white" stroke="black" stroke-width="2" stroke-linecap="round"/>
<path d="M766.114 79.8707C766.114 64.8387 766.113 54.2376 771.336 40.0527C771.336 34.1719 774.968 37.6781 777.622 36.35C781.721 34.298 783.54 31.9817 787.002 29.8157C795.638 24.4125 806.086 26.3307 815.82 26.3307C818.987 26.3307 824.524 33.9546 828.004 36.5678C832.828 40.189 834 46.7406 834 52.6857L834 67.9324C834 75.6378 830.981 75.9685 828.391 81.2188C822.903 92.3444 814.509 99.1913 804.409 105.178C801.472 106.919 794.655 108.663 791.354 108.663C788.955 108.663 785.052 109.551 782.844 108.445C780.351 107.198 782.037 104.742 778.299 104.742C763.968 104.742 766.114 93.0506 766.114 80.2387L766.114 79.8707Z" fill="white" stroke="black" stroke-width="2" stroke-linecap="round"/>
<path d="M11.6545 139.283L38.1238 126.086C41.7289 130.302 47.2487 136.606 51.878 138.749C55.5191 140.434 61.8799 154.546 63.845 158.487C68.8902 168.606 55.3725 167.083 49.5566 173.438C44.4406 179.029 37.407 185.242 30.7039 188.926C20.2001 194.698 22.1147 186.429 18.0304 178.237L7.11008 156.334C5.46874 153.042 2.3415 148.835 1.66943 145.228C1.31529 143.327 10.0762 140.07 11.6545 139.283Z" fill="white"/>
<path d="M41.6066 124.35C31.6226 129.328 21.6386 134.306 11.6545 139.283C10.0762 140.07 1.31529 143.327 1.66942 145.228C2.3415 148.835 5.46874 153.042 7.11008 156.334C10.7502 163.635 14.3903 170.936 18.0304 178.237C22.1147 186.429 20.2001 194.698 30.7039 188.926C37.407 185.242 44.4406 179.029 49.5566 173.438C55.3725 167.083 68.8902 168.606 63.845 158.487C61.8799 154.546 55.5191 140.434 51.878 138.749C47.2487 136.606 41.7289 130.302 38.1238 126.086" stroke="black" stroke-width="1.55667" stroke-linecap="round"/>
<path d="M74.8952 236.47C63.8737 214.364 53.8701 190.812 42.9485 168.906C42.9485 168.906 39.6919 169.774 39.2331 171.145C38.7388 172.622 41.2681 176.002 41.8948 177.259C44.3521 182.188 42.6024 185.656 45.3211 191.109C49.5546 199.6 53.486 208.335 58.0551 216.649C66.8135 232.587 76.2156 249.585 84.6074 266.416C87.0112 271.238 87.6688 277.066 93.6488 274.084C98.0302 271.9 93.0328 265.871 91.4187 262.634C90.0434 259.876 88.8332 256.919 87.2512 254.275C85.8272 251.896 83.3485 253.425 82.1497 251.021L74.8952 236.47Z" fill="white" stroke="black" stroke-width="1.55667" stroke-linecap="round"/>
<path d="M161 251C161 259.38 165.744 266.507 166.816 274.924C176.414 271.92 196.796 275 204.556 275C222.719 275 239.307 281 257 281H301.445C317.282 281 330.714 275 345.889 275H394C401.532 275 407.556 277.167 414.889 277.778C420.528 278.248 415.073 263.403 415 261C414.884 257.169 415.283 253.265 415 249.444C414.666 244.934 411 242.443 411 237.444V203.444C411 192.022 409.073 178.592 411.445 167.444C413.208 159.156 417.397 152.277 418.556 143.444C419.316 137.648 420.119 131.89 420.889 126.111C422.394 114.827 417.975 119 410 119C406.792 119 401.169 120.087 398.222 118.778C394.624 117.178 394.923 115 389.889 115H341H267.111H219.222C201.942 115 186.191 109.274 169.445 109C167.869 108.974 138.464 105.751 145.889 110.555C151.629 114.269 151 123.129 151 129.444C151 146.862 155 164.235 155 181.889V206.111C155 210.853 159 213.236 159 218V230C159 237.57 161 243.466 161 251Z" fill="white"/>
<path d="M167 277C166.544 267.655 161 260.06 161 251C161 243.466 159 237.57 159 230C159 226 159 222 159 218C159 213.236 155 210.853 155 206.111C155 198.037 155 189.963 155 181.889C155 164.235 151 146.862 151 129.444C151 123.129 151.629 114.269 145.889 110.555C138.464 105.751 167.869 108.974 169.445 109C186.191 109.274 201.942 115 219.222 115C235.185 115 251.148 115 267.111 115C291.741 115 316.371 115 341 115C357.297 115 373.593 115 389.889 115C394.923 115 394.624 117.178 398.222 118.778C401.169 120.087 406.792 119 410 119C417.975 119 422.394 114.827 420.889 126.111C420.119 131.89 419.316 137.648 418.556 143.444C417.397 152.277 413.208 159.156 411.445 167.444C409.073 178.592 411 192.022 411 203.444C411 214.778 411 226.111 411 237.444C411 242.443 414.666 244.934 415 249.444C415.283 253.265 414.884 257.169 415 261C415.073 263.403 420.528 278.248 414.889 277.778C407.556 277.167 401.532 275 394 275C377.963 275 361.926 275 345.889 275C330.714 275 317.282 281 301.445 281C286.63 281 271.815 281 257 281C239.307 281 222.719 275 204.556 275C195.491 275 169.203 270.797 163 277" stroke="black" stroke-width="2" stroke-linecap="round"/>
<path d="M223 117C223 126.185 223 135.37 223 144.556C223 153.103 227 158.929 227 167C227 181.333 227 195.667 227 210C227 224.255 226.209 238.77 227 253C227.275 257.951 229 263.355 229 269C229 273.485 231 287.223 231 275.444C231 262.259 231 249.074 231 235.889C231 222.982 228.307 206.84 231.111 194.222C234.08 180.863 231 168.194 231 154.556C231 138.704 231 122.852 231 107" stroke="black" stroke-width="2" stroke-linecap="round"/>
<path d="M339 111C339.359 128.582 345 143.206 345 159.889C345 168.395 340.811 196.43 347 202C353.537 207.884 347 232.388 347 241C347 247.815 347 254.63 347 261.444C347 263.847 348.748 278.846 349 272.556C349.499 260.082 349 247.487 349 235C349 223.185 345 211.738 345 199.778C345 171.909 343 143.415 343 115" stroke="black" stroke-width="2" stroke-linecap="round"/>
<path d="M229 233C250.704 233 272.407 233 294.111 233C301.658 233 338.25 221.5 343 231" stroke="black" stroke-width="2" stroke-linecap="round"/>
<path d="M229 227C240.185 227 251.37 227 262.556 227C267.472 227 272.541 226.623 277.444 227C282.635 227.399 286.127 231 292 231C310.333 231 328.667 231 347 231" stroke="black" stroke-width="2" stroke-linecap="round"/>
<path d="M229 199H343" stroke="black" stroke-width="2" stroke-linecap="round"/>
<path d="M289 201C289 212.309 291 222.589 291 233" stroke="black" stroke-width="2" stroke-linecap="round"/>
<path d="M381 201C381 204.49 378.146 227.539 384.222 228.889C391.729 230.557 401.299 229 409 229" stroke="black" stroke-width="2" stroke-linecap="round"/>
<path d="M379 203C391.668 203 400.059 203.376 411 199" stroke="black" stroke-width="2" stroke-linecap="round"/>
<path d="M383 233C393.226 231.33 402.704 231 413 231" stroke="black" stroke-width="2" stroke-linecap="round"/>
<path d="M227 145C247.409 145 268.19 147 289 147C304.988 147 321.849 145 337 145" stroke="black" stroke-width="2" stroke-linecap="round"/>
<path d="M227 173C239.277 170.661 251.636 169 264.111 169C268.704 169 273.296 169 277.889 169C284.409 169 288.803 165.426 294.556 165C311.179 163.769 328.323 165 345 165" stroke="black" stroke-width="2" stroke-linecap="round"/>
<path d="M287 147V169" stroke="black" stroke-width="2" stroke-linecap="round"/>
<path d="M379 145C378.834 145.852 375.005 178.495 385 166C387.874 162.408 406.107 165 411 165" stroke="black" stroke-width="2" stroke-linecap="round"/>
<path d="M375 145H417" stroke="black" stroke-width="2" stroke-linecap="round"/>
<path d="M466.899 236.095C466.899 247.521 468.615 257.239 469.003 268.716C472.474 264.619 479.846 268.819 482.652 268.819C489.221 268.819 495.221 277 501.62 277H517.694C523.422 277 528.28 268.819 533.769 268.819H551.169C553.894 268.819 556.072 271.773 558.724 272.606C560.764 273.247 558.791 253.006 558.765 249.73C558.723 244.507 558.867 239.184 558.765 233.973C558.644 227.823 557.318 224.427 557.318 217.611V171.252C557.318 155.677 556.621 137.365 557.479 122.165C558.116 110.864 559.632 101.484 560.051 89.4408C560.326 81.537 560.616 73.6858 560.895 65.8065C561.439 50.4205 559.841 56.1104 556.956 56.1104C555.796 56.1104 553.762 57.5932 552.697 55.8074C551.395 53.6268 551.503 50.6563 549.683 50.6563H532.001H505.277H487.957C481.707 50.6563 476.01 42.8495 469.953 42.4752C469.383 42.44 458.748 38.0452 461.434 44.5962C463.51 49.66 463.282 61.7412 463.282 70.3515C463.282 94.1004 464.729 117.79 464.729 141.86V174.888C464.729 181.354 466.176 184.603 466.176 191.098V207.461C466.176 217.782 466.899 225.821 466.899 236.095Z" fill="white"/>
<path d="M469.069 271.546C468.904 258.805 466.899 248.448 466.899 236.095C466.899 225.821 466.176 217.782 466.176 207.461C466.176 202.007 466.176 196.553 466.176 191.098C466.176 184.603 464.729 181.354 464.729 174.888C464.729 163.879 464.729 152.87 464.729 141.86C464.729 117.79 463.282 94.1004 463.282 70.3515C463.282 61.7412 463.51 49.66 461.434 44.5962C458.748 38.0452 469.383 42.44 469.953 42.4752C476.01 42.8495 481.707 50.6563 487.957 50.6563C493.73 50.6563 499.504 50.6563 505.277 50.6563C514.185 50.6563 523.093 50.6563 532.001 50.6563C537.895 50.6563 543.789 50.6563 549.683 50.6563C551.503 50.6563 551.395 53.6268 552.697 55.8074C553.762 57.5932 555.796 56.1104 556.956 56.1104C559.841 56.1104 561.439 50.4205 560.895 65.8065C560.616 73.6858 560.326 81.537 560.051 89.4408C559.632 101.484 558.116 110.864 557.479 122.165C556.621 137.365 557.318 155.677 557.318 171.252C557.318 186.705 557.318 202.158 557.318 217.611C557.318 224.427 558.644 227.823 558.765 233.973C558.867 239.183 558.723 244.507 558.765 249.73C558.791 253.006 560.764 273.247 558.724 272.606C556.072 271.773 553.894 268.819 551.169 268.819C545.369 268.819 539.569 268.819 533.769 268.819C528.28 268.819 523.422 277 517.694 277C512.336 277 506.978 277 501.62 277C495.221 277 489.221 268.819 482.652 268.819C479.374 268.819 469.866 263.088 467.623 271.546" stroke="black" stroke-width="2" stroke-linecap="round"/>
<path d="M501 83C501 90.1356 497.37 103.388 507.445 103C511.288 102.852 519 100.991 519 97C519 94.4897 520.651 81.8142 516.111 83.1111C511.201 84.5141 506.762 85 501 85" stroke="black" stroke-width="2" stroke-linecap="round"/>
<path d="M501 123C501 133.059 497.325 141 508.556 141C517.623 141 517 137.569 517 129.444C517 127.828 516.921 112.326 513.444 117.889C511.158 121.547 503.723 123 499 123" stroke="black" stroke-width="2" stroke-linecap="round"/>
<path d="M501 167C501 180.565 500.175 181 512.556 181C518.836 181 519.767 177.41 516 172.889C512.272 168.416 518.447 163 510 163C505.25 163 499 160.973 499 167" stroke="black" stroke-width="2" stroke-linecap="round"/>
<path d="M502.556 227C495.891 227.256 499 219.809 499 213C510.908 213 513.75 212.244 513 225C512.788 228.597 505.025 226.905 502.556 227Z" stroke="black" stroke-width="2" stroke-linecap="round"/>
<path d="M1270.03 256.387C1270.03 263.263 1273.24 269.11 1273.97 276.016C1280.46 273.551 1294.24 276.077 1299.49 276.077C1311.77 276.077 1322.99 281 1334.96 281H1365.02C1375.73 281 1384.81 276.077 1395.08 276.077H1427.62C1432.71 276.077 1436.79 277.855 1441.74 278.356C1445.56 278.742 1441.87 266.563 1441.82 264.592C1441.74 261.449 1442.01 258.246 1441.82 255.111C1441.59 251.411 1439.11 249.367 1439.11 245.266V217.372C1439.11 208.001 1437.81 196.982 1439.42 187.837C1440.61 181.037 1443.44 175.393 1444.22 168.147C1444.74 163.391 1445.28 158.667 1445.8 153.926C1446.82 144.668 1443.83 148.092 1438.44 148.092C1436.27 148.092 1432.47 148.984 1430.47 147.91C1428.04 146.598 1428.24 144.81 1424.84 144.81H1391.77H1341.8H1309.41C1297.72 144.81 1287.07 140.113 1275.74 139.888C1274.68 139.866 1254.79 137.222 1259.81 141.164C1263.69 144.211 1263.27 151.48 1263.27 156.661C1263.27 170.95 1265.97 185.204 1265.97 199.687V219.56C1265.97 223.45 1268.68 225.405 1268.68 229.313V239.159C1268.68 245.369 1270.03 250.206 1270.03 256.387Z" fill="white"/>
<path d="M1274.09 277.718C1273.78 270.052 1270.03 263.82 1270.03 256.387C1270.03 250.206 1268.68 245.369 1268.68 239.159C1268.68 235.877 1268.68 232.595 1268.68 229.313C1268.68 225.405 1265.97 223.45 1265.97 219.56C1265.97 212.935 1265.97 206.311 1265.97 199.687C1265.97 185.204 1263.27 170.95 1263.27 156.661C1263.27 151.48 1263.69 144.211 1259.81 141.164C1254.79 137.222 1274.68 139.866 1275.74 139.888C1287.07 140.113 1297.72 144.81 1309.41 144.81C1320.21 144.81 1331 144.81 1341.8 144.81C1358.46 144.81 1375.11 144.81 1391.77 144.81C1402.79 144.81 1413.81 144.81 1424.84 144.81C1428.24 144.81 1428.04 146.598 1430.47 147.91C1432.47 148.984 1436.27 148.092 1438.44 148.092C1443.83 148.092 1446.82 144.668 1445.8 153.926C1445.28 158.667 1444.74 163.391 1444.22 168.147C1443.44 175.393 1440.61 181.037 1439.42 187.837C1437.81 196.982 1439.11 208.001 1439.11 217.372C1439.11 226.67 1439.11 235.968 1439.11 245.266C1439.11 249.367 1441.59 251.411 1441.82 255.111C1442.01 258.246 1441.74 261.449 1441.82 264.592C1441.87 266.563 1445.56 278.742 1441.74 278.356C1436.79 277.855 1432.71 276.077 1427.62 276.077C1416.77 276.077 1405.92 276.077 1395.08 276.077C1384.81 276.077 1375.73 281 1365.02 281C1355 281 1344.98 281 1334.96 281C1322.99 281 1311.77 276.077 1299.49 276.077C1293.36 276.077 1275.58 272.629 1271.38 277.718" stroke="black" stroke-width="2" stroke-linecap="round"/>
<path d="M1307 145C1307 172.963 1309 200.975 1309 228.556C1309 240.093 1311 251.036 1311 262.889C1311 267.343 1309.25 276.138 1312.56 279.444C1315.14 282.024 1317 269.438 1317 267.889C1317 248.226 1311 230.977 1311 211C1311 192.635 1317.29 157.295 1305 145" stroke="black" stroke-width="2" stroke-linecap="round"/>
<path d="M1311 181C1322.73 180.521 1332.72 177 1345 177C1353.67 177 1362.33 177 1371 177" stroke="black" stroke-width="2" stroke-linecap="round"/>
<path d="M1307 203C1330.3 203 1351.61 199 1375 199" stroke="black" stroke-width="2" stroke-linecap="round"/>
<path d="M1351 179C1352.6 187.215 1353 194.705 1353 203" stroke="black" stroke-width="2" stroke-linecap="round"/>
<path d="M1311 237C1320.57 237 1338.9 240.098 1345.89 233.889C1351.58 228.83 1367.69 234.656 1375 231" stroke="black" stroke-width="2" stroke-linecap="round"/>
<path d="M1311 261C1326.53 261 1334.53 256.992 1348.11 253.111C1355.7 250.943 1367.02 253 1375 253" stroke="black" stroke-width="2" stroke-linecap="round"/>
<path d="M1355 229C1355 232.862 1352.47 252.734 1357 255" stroke="black" stroke-width="2" stroke-linecap="round"/>
<path d="M5229.38 191L5183.22 216.27V274.39H5303.93V216.27L5229.38 191Z" fill="white"/>
<path d="M5183.9 220.692C5191.44 217.437 5197.03 211.082 5204.73 207.898C5207.47 206.766 5209.77 203.846 5212.69 202.414C5214.94 201.307 5218.23 199.871 5219.46 197.642C5220.71 195.379 5225.89 194.719 5228.14 193.073C5231.85 190.367 5231.35 190.506 5235.12 192.362C5238.43 193.984 5240.82 194.19 5244.48 194.19C5248.31 194.19 5250.17 195.476 5253.68 196.22C5259.77 197.514 5264.68 200.39 5270.43 201.958C5272.51 202.525 5275.01 203.866 5276.99 204.191C5279.54 204.608 5281.18 206.07 5283.66 206.07C5286.46 206.07 5292.47 208.464 5294.57 210.182C5297.2 212.333 5300.55 213.549 5303.93 215.209" stroke="black" stroke-width="2" stroke-linecap="round"/>
<path d="M5182 220.692C5182 226.352 5183.9 230.922 5183.9 236.348C5183.9 241.968 5183.9 247.588 5183.9 253.208C5183.9 257.967 5183.1 262.576 5182.95 267.258C5182.9 268.788 5182.95 277.943 5182.95 272.878" stroke="black" stroke-width="2" stroke-linecap="round"/>
<path d="M5304.56 215.638C5304.56 235.308 5305.19 254.572 5305.19 274.391" stroke="black" stroke-width="2" stroke-linecap="round"/>
<path d="M2256.93 144.164C2248.18 155.209 2239.35 173.709 2229.47 183.349C2244.21 185.405 2258.54 189.43 2272.88 191.43L2294.18 194.401C2296.14 194.673 2303.68 197.707 2304.66 193.722C2306.21 187.389 2304.36 180.721 2302.16 176.146C2299.17 169.94 2298.47 161.074 2295.47 155.619C2293.36 151.782 2289.95 146.79 2289.47 141.495C2288.95 135.891 2284.73 130.901 2282.35 127.441C2281.72 126.519 2279.53 114.71 2278.71 116.123C2272.77 126.374 2263.93 135.326 2256.93 144.164Z" fill="white" stroke="black" stroke-width="2" stroke-linecap="round"/>
<path d="M2256.13 245.551L2264.2 187.667C2271.08 185.35 2267 196.609 2266.29 201.645C2265.15 209.864 2268.7 213.319 2267.43 222.446L2261.08 268.005C2260.8 270.015 2260.92 277.437 2258.5 277.631C2255.5 277.871 2252.07 275.584 2252.39 272.403C2253.29 263.436 2254.89 254.478 2256.13 245.551Z" fill="white" stroke="black" stroke-width="2" stroke-linecap="round"/>
<path d="M3707.75 193.138C3694.77 189.532 3675.38 188.811 3663.14 183.616C3667.36 197.889 3669.73 212.569 3673.84 226.451L3679.94 247.079C3680.5 248.969 3680.97 257.061 3684.77 256.371C3690.8 255.273 3695.75 250.945 3698.77 247.118C3702.86 241.928 3710.15 237.767 3713.59 232.867C3716.02 229.42 3718.9 224.33 3723.23 221.784C3727.8 219.088 3730.36 213.262 3732.35 209.715C3732.88 208.77 3742.08 202.085 3740.54 201.898C3729.37 200.544 3718.14 196.024 3707.75 193.138Z" fill="white" stroke="black" stroke-width="2" stroke-linecap="round"/>
<path d="M3556.04 251.79L3674.69 216.698C3683.12 220.972 3658.63 225.62 3648.31 228.673C3631.46 233.655 3626.64 239.25 3607.93 244.784L3514.54 272.404C3510.42 273.622 3495.86 279.121 3494.12 277.169C3491.96 274.744 3494.54 270.104 3500.99 268.068C3519.18 262.329 3537.74 257.201 3556.04 251.79Z" fill="white" stroke="black" stroke-width="2" stroke-linecap="round"/>
<path d="M2583.99 247.146L2682.06 247.146C2687.51 253.303 2667.85 250.942 2659.32 250.942C2645.39 250.942 2640.47 254.738 2625.01 254.738L2547.82 254.738C2544.41 254.738 2532.11 255.822 2531.22 253.578C2530.13 250.791 2533.13 247.263 2538.5 247.146C2553.61 246.817 2568.87 247.146 2583.99 247.146Z" fill="white" stroke="black" stroke-width="2" stroke-linecap="round"/>
<path d="M2697.92 216.104C2710.78 216.104 2719.84 216.103 2731.98 220.865C2737.01 220.865 2734.01 224.177 2735.15 226.596C2736.9 230.334 2738.88 231.992 2740.74 235.149C2745.36 243.023 2743.72 252.549 2743.72 261.424C2743.72 264.311 2737.2 269.36 2734.96 272.533C2731.86 276.931 2726.26 278 2721.17 278H2708.13C2701.54 278 2701.26 275.248 2696.76 272.886C2687.25 267.882 2681.39 260.229 2676.27 251.02C2674.78 248.342 2673.29 242.127 2673.29 239.117C2673.29 236.93 2672.53 233.371 2673.47 231.358C2674.54 229.085 2676.64 230.622 2676.64 227.214C2676.64 214.147 2686.64 216.104 2697.6 216.104L2697.92 216.104Z" fill="white" stroke="black" stroke-width="2" stroke-linecap="round"/>
<path d="M5007.01 247.146L4908.94 247.146C4903.49 253.303 4923.15 250.942 4931.68 250.942C4945.61 250.942 4950.53 254.738 4965.99 254.738L5043.18 254.738C5046.59 254.738 5058.89 255.822 5059.78 253.578C5060.87 250.791 5057.87 247.263 5052.5 247.146C5037.39 246.817 5022.13 247.146 5007.01 247.146Z" fill="white" stroke="black" stroke-width="2" stroke-linecap="round"/>
<path d="M4893.08 216.104C4880.22 216.104 4871.16 216.103 4859.02 220.865C4853.99 220.865 4856.99 224.177 4855.85 226.596C4854.1 230.334 4852.12 231.992 4850.26 235.149C4845.64 243.023 4847.28 252.549 4847.28 261.424C4847.28 264.311 4853.8 269.36 4856.04 272.533C4859.14 276.931 4864.74 278 4869.83 278H4882.87C4889.46 278 4889.74 275.248 4894.24 272.886C4903.75 267.882 4909.61 260.229 4914.73 251.02C4916.22 248.342 4917.71 242.127 4917.71 239.117C4917.71 236.93 4918.47 233.371 4917.53 231.358C4916.46 229.085 4914.36 230.622 4914.36 227.214C4914.36 214.147 4904.36 216.104 4893.4 216.104L4893.08 216.104Z" fill="white" stroke="black" stroke-width="2" stroke-linecap="round"/>
<path d="M2339.16 216.055L2339.16 101.406C2345.91 95.0429 2343.32 118.023 2343.32 127.998C2343.32 144.276 2347.49 150.024 2347.49 168.103L2347.49 258.34C2347.49 262.32 2348.68 276.708 2346.21 277.738C2343.16 279.019 2339.29 275.506 2339.16 269.238C2338.8 251.572 2339.16 233.735 2339.16 216.055Z" fill="white" stroke="black" stroke-width="2" stroke-linecap="round"/>
<path d="M2305.11 82.8707C2305.11 67.8387 2305.11 57.2376 2310.34 43.0527C2310.34 37.1719 2313.97 40.6781 2316.62 39.35C2320.72 37.298 2322.54 34.9817 2326 32.8157C2334.64 27.4125 2345.09 29.3307 2354.82 29.3307C2357.99 29.3307 2363.52 36.9546 2367 39.5678C2371.83 43.189 2373 49.7406 2373 55.6857L2373 70.9324C2373 78.6378 2369.98 78.9685 2367.39 84.2188C2361.9 95.3444 2353.51 102.191 2343.41 108.178C2340.47 109.919 2333.66 111.663 2330.35 111.663C2327.96 111.663 2324.05 112.551 2321.84 111.445C2319.35 110.198 2321.04 107.742 2317.3 107.742C2302.97 107.742 2305.11 96.0506 2305.11 83.2387L2305.11 82.8707Z" fill="white" stroke="black" stroke-width="2" stroke-linecap="round"/>
<path d="M4218.16 212.055L4218.16 97.4063C4224.91 91.0429 4222.32 114.023 4222.32 123.998C4222.32 140.276 4226.49 146.024 4226.49 164.103L4226.49 254.34C4226.49 258.32 4227.68 272.708 4225.21 273.738C4222.16 275.019 4218.29 271.506 4218.16 265.238C4217.8 247.572 4218.16 229.735 4218.16 212.055Z" fill="white" stroke="black" stroke-width="2" stroke-linecap="round"/>
<path d="M4184.11 78.8707C4184.11 63.8387 4184.11 53.2376 4189.34 39.0527C4189.34 33.1719 4192.97 36.6781 4195.62 35.35C4199.72 33.298 4201.54 30.9817 4205 28.8157C4213.64 23.4125 4224.09 25.3307 4233.82 25.3307C4236.99 25.3307 4242.52 32.9546 4246 35.5678C4250.83 39.189 4252 45.7406 4252 51.6857L4252 66.9324C4252 74.6378 4248.98 74.9685 4246.39 80.2188C4240.9 91.3444 4232.51 98.1913 4222.41 104.178C4219.47 105.919 4212.66 107.663 4209.35 107.663C4206.96 107.663 4203.05 108.551 4200.84 107.445C4198.35 106.198 4200.04 103.742 4196.3 103.742C4181.97 103.742 4184.11 92.0506 4184.11 79.2387L4184.11 78.8707Z" fill="white" stroke="black" stroke-width="2" stroke-linecap="round"/>
<path d="M1550.65 142.283L1577.12 129.086C1580.73 133.302 1586.25 139.606 1590.88 141.749C1594.52 143.434 1600.88 157.546 1602.85 161.487C1607.89 171.606 1594.37 170.083 1588.56 176.438C1583.44 182.029 1576.41 188.242 1569.7 191.926C1559.2 197.698 1561.11 189.429 1557.03 181.237L1546.11 159.334C1544.47 156.042 1541.34 151.835 1540.67 148.228C1540.32 146.327 1549.08 143.07 1550.65 142.283Z" fill="white"/>
<path d="M1580.61 127.35C1570.62 132.328 1560.64 137.306 1550.65 142.283C1549.08 143.07 1540.32 146.327 1540.67 148.228C1541.34 151.835 1544.47 156.042 1546.11 159.334C1549.75 166.635 1553.39 173.936 1557.03 181.237C1561.11 189.429 1559.2 197.698 1569.7 191.926C1576.41 188.242 1583.44 182.029 1588.56 176.438C1594.37 170.083 1607.89 171.606 1602.85 161.487C1600.88 157.546 1594.52 143.434 1590.88 141.749C1586.25 139.606 1580.73 133.302 1577.12 129.086" stroke="black" stroke-width="1.55667" stroke-linecap="round"/>
<path d="M1613.9 239.47C1602.87 217.364 1592.87 193.812 1581.95 171.906C1581.95 171.906 1578.69 172.774 1578.23 174.145C1577.74 175.622 1580.27 179.002 1580.89 180.259C1583.35 185.188 1581.6 188.656 1584.32 194.109C1588.55 202.6 1592.49 211.335 1597.06 219.649C1605.81 235.587 1615.22 252.585 1623.61 269.416C1626.01 274.238 1626.67 280.066 1632.65 277.084C1637.03 274.9 1632.03 268.871 1630.42 265.634C1629.04 262.876 1627.83 259.919 1626.25 257.275C1624.83 254.896 1622.35 256.425 1621.15 254.021L1613.9 239.47Z" fill="white" stroke="black" stroke-width="1.55667" stroke-linecap="round"/>
<path d="M5454.34 138.283L5427.87 125.086C5424.27 129.302 5418.75 135.606 5414.12 137.749C5410.48 139.434 5404.12 153.546 5402.15 157.487C5397.1 167.606 5410.62 166.083 5416.44 172.438C5421.55 178.029 5428.59 184.242 5435.29 187.926C5445.79 193.698 5443.88 185.429 5447.96 177.237L5458.89 155.334C5460.53 152.042 5463.65 147.835 5464.33 144.228C5464.68 142.327 5455.92 139.07 5454.34 138.283Z" fill="white"/>
<path d="M5424.39 123.35C5434.37 128.328 5444.36 133.306 5454.34 138.283C5455.92 139.07 5464.68 142.327 5464.33 144.228C5463.65 147.835 5460.53 152.042 5458.89 155.334C5455.24 162.635 5451.6 169.936 5447.96 177.237C5443.88 185.429 5445.8 193.698 5435.29 187.926C5428.59 184.242 5421.55 178.029 5416.44 172.438C5410.62 166.083 5397.1 167.606 5402.15 157.487C5404.12 153.546 5410.48 139.434 5414.12 137.749C5418.75 135.606 5424.27 129.302 5427.87 125.086" stroke="black" stroke-width="1.55667" stroke-linecap="round"/>
<path d="M5391.1 235.47C5402.12 213.364 5412.13 189.812 5423.05 167.906C5423.05 167.906 5426.3 168.774 5426.76 170.145C5427.26 171.622 5424.73 175.002 5424.1 176.259C5421.64 181.188 5423.39 184.656 5420.67 190.109C5416.44 198.6 5412.51 207.335 5407.94 215.649C5399.18 231.587 5389.78 248.585 5381.39 265.416C5378.98 270.238 5378.33 276.066 5372.35 273.084C5367.97 270.9 5372.96 264.871 5374.58 261.634C5375.95 258.876 5377.16 255.919 5378.74 253.275C5380.17 250.896 5382.65 252.425 5383.85 250.021L5391.1 235.47Z" fill="white" stroke="black" stroke-width="1.55667" stroke-linecap="round"/>
<path d="M3249.57 93.318L3296.78 93.318C3298.93 99.7629 3302.32 109.469 3307.41 114.24C3311.41 117.992 3310.44 136.516 3310.44 141.79C3310.44 155.332 3292.22 146.476 3279.39 150.18C3268.1 153.438 3253.63 156.339 3241.43 156.705C3222.32 157.279 3230.94 149.439 3230.94 138.476L3230.94 109.165C3230.94 104.759 3229.47 98.579 3231.08 94.3537C3231.93 92.1274 3246.76 93.318 3249.57 93.318Z" fill="white"/>
<path d="M3302.99 93.318C3285.18 93.318 3267.38 93.318 3249.57 93.318C3246.76 93.318 3231.93 92.1274 3231.08 94.3537C3229.47 98.579 3230.94 104.759 3230.94 109.165C3230.94 118.935 3230.94 128.706 3230.94 138.476C3230.94 149.439 3222.32 157.279 3241.43 156.705C3253.63 156.339 3268.1 153.438 3279.39 150.18C3292.22 146.476 3310.44 155.332 3310.44 141.79C3310.44 136.516 3311.41 117.992 3307.41 114.24C3302.32 109.469 3298.92 99.7628 3296.78 93.3179" stroke="black" stroke-width="1.55667" stroke-linecap="round"/>
<path d="M3270.69 231.278C3270.69 201.695 3273.18 171.105 3273.18 141.79C3273.18 141.79 3267.91 140.98 3266.27 142.204C3264.52 143.524 3265.72 148.498 3265.72 150.18C3265.72 156.776 3260.75 159.558 3260.75 166.855C3260.75 178.218 3260.15 189.681 3260.75 201.034C3261.91 222.797 3263.24 246.04 3263.24 268.564C3263.24 275.016 3260.03 281.614 3270.69 281.614C3278.5 281.614 3275.66 272.482 3275.66 268.15C3275.66 264.459 3276.04 260.643 3275.66 256.964C3275.32 253.653 3270.69 253.967 3270.69 250.749L3270.69 231.278Z" fill="white" stroke="black" stroke-width="1.55667" stroke-linecap="round"/>
<path d="M1700 254C1700 262.38 1704.74 269.507 1705.82 277.924C1715.41 274.92 1735.8 278 1743.56 278C1761.72 278 1778.31 284 1796 284H1840.44C1856.28 284 1869.71 278 1884.89 278H1933C1940.53 278 1946.56 280.167 1953.89 280.778C1959.53 281.248 1954.07 266.403 1954 264C1953.88 260.169 1954.28 256.265 1954 252.444C1953.67 247.934 1950 245.443 1950 240.444V206.444C1950 195.022 1948.07 181.592 1950.44 170.444C1952.21 162.156 1956.4 155.277 1957.56 146.444C1958.32 140.648 1959.12 134.89 1959.89 129.111C1961.39 117.827 1956.98 122 1949 122C1945.79 122 1940.17 123.087 1937.22 121.778C1933.62 120.178 1933.92 118 1928.89 118H1880H1806.11H1758.22C1740.94 118 1725.19 112.274 1708.44 112C1706.87 111.974 1677.46 108.751 1684.89 113.555C1690.63 117.269 1690 126.129 1690 132.444C1690 149.862 1694 167.235 1694 184.889V209.111C1694 213.853 1698 216.236 1698 221V233C1698 240.57 1700 246.466 1700 254Z" fill="white"/>
<path d="M1706 280C1705.54 270.655 1700 263.06 1700 254C1700 246.466 1698 240.57 1698 233C1698 229 1698 225 1698 221C1698 216.236 1694 213.853 1694 209.111C1694 201.037 1694 192.963 1694 184.889C1694 167.235 1690 149.862 1690 132.444C1690 126.129 1690.63 117.269 1684.89 113.555C1677.46 108.751 1706.87 111.974 1708.44 112C1725.19 112.274 1740.94 118 1758.22 118C1774.19 118 1790.15 118 1806.11 118C1830.74 118 1855.37 118 1880 118C1896.3 118 1912.59 118 1928.89 118C1933.92 118 1933.62 120.178 1937.22 121.778C1940.17 123.087 1945.79 122 1949 122C1956.98 122 1961.39 117.827 1959.89 129.111C1959.12 134.89 1958.32 140.648 1957.56 146.444C1956.4 155.277 1952.21 162.156 1950.44 170.444C1948.07 181.592 1950 195.022 1950 206.444C1950 217.778 1950 229.111 1950 240.444C1950 245.443 1953.67 247.934 1954 252.444C1954.28 256.265 1953.88 260.169 1954 264C1954.07 266.403 1959.53 281.248 1953.89 280.778C1946.56 280.167 1940.53 278 1933 278C1916.96 278 1900.93 278 1884.89 278C1869.71 278 1856.28 284 1840.44 284C1825.63 284 1810.82 284 1796 284C1778.31 284 1761.72 278 1743.56 278C1734.49 278 1708.2 273.797 1702 280" stroke="black" stroke-width="2" stroke-linecap="round"/>
<path d="M1762 120C1762 129.185 1762 138.37 1762 147.556C1762 156.103 1766 161.929 1766 170C1766 184.333 1766 198.667 1766 213C1766 227.255 1765.21 241.77 1766 256C1766.28 260.951 1768 266.355 1768 272C1768 276.485 1770 290.223 1770 278.444C1770 265.259 1770 252.074 1770 238.889C1770 225.982 1767.31 209.84 1770.11 197.222C1773.08 183.863 1770 171.194 1770 157.556C1770 141.704 1770 125.852 1770 110" stroke="black" stroke-width="2" stroke-linecap="round"/>
<path d="M1878 114C1878.36 131.582 1884 146.206 1884 162.889C1884 171.395 1879.81 199.43 1886 205C1892.54 210.884 1886 235.388 1886 244C1886 250.815 1886 257.63 1886 264.444C1886 266.847 1887.75 281.846 1888 275.556C1888.5 263.082 1888 250.487 1888 238C1888 226.185 1884 214.738 1884 202.778C1884 174.909 1882 146.415 1882 118" stroke="black" stroke-width="2" stroke-linecap="round"/>
<path d="M1768 236C1789.7 236 1811.41 236 1833.11 236C1840.66 236 1877.25 224.5 1882 234" stroke="black" stroke-width="2" stroke-linecap="round"/>
<path d="M1768 230C1779.19 230 1790.37 230 1801.56 230C1806.47 230 1811.54 229.623 1816.44 230C1821.64 230.399 1825.13 234 1831 234C1849.33 234 1867.67 234 1886 234" stroke="black" stroke-width="2" stroke-linecap="round"/>
<path d="M1768 202H1882" stroke="black" stroke-width="2" stroke-linecap="round"/>
<path d="M1828 204C1828 215.309 1830 225.589 1830 236" stroke="black" stroke-width="2" stroke-linecap="round"/>
<path d="M1920 204C1920 207.49 1917.15 230.539 1923.22 231.889C1930.73 233.557 1940.3 232 1948 232" stroke="black" stroke-width="2" stroke-linecap="round"/>
<path d="M1918 206C1930.67 206 1939.06 206.376 1950 202" stroke="black" stroke-width="2" stroke-linecap="round"/>
<path d="M1922 236C1932.23 234.33 1941.7 234 1952 234" stroke="black" stroke-width="2" stroke-linecap="round"/>
<path d="M1766 148C1786.41 148 1807.19 150 1828 150C1843.99 150 1860.85 148 1876 148" stroke="black" stroke-width="2" stroke-linecap="round"/>
<path d="M1766 176C1778.28 173.661 1790.64 172 1803.11 172C1807.7 172 1812.3 172 1816.89 172C1823.41 172 1827.8 168.426 1833.56 168C1850.18 166.769 1867.32 168 1884 168" stroke="black" stroke-width="2" stroke-linecap="round"/>
<path d="M1826 150V172" stroke="black" stroke-width="2" stroke-linecap="round"/>
<path d="M1918 148C1917.83 148.852 1914 181.495 1924 169C1926.87 165.408 1945.11 168 1950 168" stroke="black" stroke-width="2" stroke-linecap="round"/>
<path d="M1914 148H1956" stroke="black" stroke-width="2" stroke-linecap="round"/>
<path d="M3871.31 250C3871.31 258.38 3876.05 265.507 3877.13 273.924C3886.72 270.92 3907.11 274 3914.87 274C3933.03 274 3949.62 280 3967.31 280H4011.76C4027.59 280 4041.02 274 4056.2 274H4104.31C4111.84 274 4117.87 276.167 4125.2 276.778C4130.84 277.248 4125.38 262.403 4125.31 260C4125.19 256.169 4125.59 252.265 4125.31 248.444C4124.98 243.934 4121.31 241.443 4121.31 236.444V202.444C4121.31 191.022 4119.38 177.592 4121.76 166.444C4123.52 158.156 4127.71 151.277 4128.87 142.444C4129.63 136.648 4130.43 130.89 4131.2 125.111C4132.7 113.827 4128.29 118 4120.31 118C4117.1 118 4111.48 119.087 4108.53 117.778C4104.93 116.178 4105.23 114 4100.2 114H4051.31H3977.42H3929.53C3912.25 114 3896.5 108.274 3879.76 108C3878.18 107.974 3848.77 104.751 3856.2 109.555C3861.94 113.269 3861.31 122.129 3861.31 128.444C3861.31 145.862 3865.31 163.235 3865.31 180.889V205.111C3865.31 209.853 3869.31 212.236 3869.31 217V229C3869.31 236.57 3871.31 242.466 3871.31 250Z" fill="white"/>
<path d="M3877.31 276C3876.85 266.655 3871.31 259.06 3871.31 250C3871.31 242.466 3869.31 236.57 3869.31 229C3869.31 225 3869.31 221 3869.31 217C3869.31 212.236 3865.31 209.853 3865.31 205.111C3865.31 197.037 3865.31 188.963 3865.31 180.889C3865.31 163.235 3861.31 145.862 3861.31 128.444C3861.31 122.129 3861.94 113.269 3856.2 109.555C3848.77 104.751 3878.18 107.974 3879.76 108C3896.5 108.274 3912.25 114 3929.53 114C3945.5 114 3961.46 114 3977.42 114C4002.05 114 4026.68 114 4051.31 114C4067.61 114 4083.9 114 4100.2 114C4105.23 114 4104.93 116.178 4108.53 117.778C4111.48 119.087 4117.1 118 4120.31 118C4128.29 118 4132.7 113.827 4131.2 125.111C4130.43 130.89 4129.63 136.648 4128.87 142.444C4127.71 151.277 4123.52 158.156 4121.76 166.444C4119.38 177.592 4121.31 191.022 4121.31 202.444C4121.31 213.778 4121.31 225.111 4121.31 236.444C4121.31 241.443 4124.98 243.934 4125.31 248.444C4125.59 252.265 4125.19 256.169 4125.31 260C4125.38 262.403 4130.84 277.248 4125.2 276.778C4117.87 276.167 4111.84 274 4104.31 274C4088.27 274 4072.24 274 4056.2 274C4041.02 274 4027.59 280 4011.76 280C3996.94 280 3982.13 280 3967.31 280C3949.62 280 3933.03 274 3914.87 274C3905.8 274 3879.51 269.797 3873.31 276" stroke="black" stroke-width="2" stroke-linecap="round"/>
<path d="M3933.31 116C3933.31 125.185 3933.31 134.37 3933.31 143.556C3933.31 152.103 3937.31 157.929 3937.31 166C3937.31 180.333 3937.31 194.667 3937.31 209C3937.31 223.255 3936.52 237.77 3937.31 252C3937.59 256.951 3939.31 262.355 3939.31 268C3939.31 272.485 3941.31 286.223 3941.31 274.444C3941.31 261.259 3941.31 248.074 3941.31 234.889C3941.31 221.982 3938.62 205.84 3941.42 193.222C3944.39 179.863 3941.31 167.194 3941.31 153.556C3941.31 137.704 3941.31 121.852 3941.31 106" stroke="black" stroke-width="2" stroke-linecap="round"/>
<path d="M4049.31 110C4049.67 127.582 4055.31 142.206 4055.31 158.889C4055.31 167.395 4051.12 195.43 4057.31 201C4063.85 206.884 4057.31 231.388 4057.31 240C4057.31 246.815 4057.31 253.63 4057.31 260.444C4057.31 262.847 4059.06 277.846 4059.31 271.556C4059.81 259.082 4059.31 246.487 4059.31 234C4059.31 222.185 4055.31 210.738 4055.31 198.778C4055.31 170.909 4053.31 142.415 4053.31 114" stroke="black" stroke-width="2" stroke-linecap="round"/>
<path d="M3939.31 232C3961.01 232 3982.72 232 4004.42 232C4011.97 232 4048.56 220.5 4053.31 230" stroke="black" stroke-width="2" stroke-linecap="round"/>
<path d="M3939.31 226C3950.5 226 3961.68 226 3972.87 226C3977.78 226 3982.85 225.623 3987.75 226C3992.95 226.399 3996.44 230 4002.31 230C4020.64 230 4038.98 230 4057.31 230" stroke="black" stroke-width="2" stroke-linecap="round"/>
<path d="M3939.31 198H4053.31" stroke="black" stroke-width="2" stroke-linecap="round"/>
<path d="M3999.31 200C3999.31 211.309 4001.31 221.589 4001.31 232" stroke="black" stroke-width="2" stroke-linecap="round"/>
<path d="M4091.31 200C4091.31 203.49 4088.46 226.539 4094.53 227.889C4102.04 229.557 4111.61 228 4119.31 228" stroke="black" stroke-width="2" stroke-linecap="round"/>
<path d="M4089.31 202C4101.98 202 4110.37 202.376 4121.31 198" stroke="black" stroke-width="2" stroke-linecap="round"/>
<path d="M4093.31 232C4103.54 230.33 4113.01 230 4123.31 230" stroke="black" stroke-width="2" stroke-linecap="round"/>
<path d="M3937.31 144C3957.72 144 3978.5 146 3999.31 146C4015.3 146 4032.16 144 4047.31 144" stroke="black" stroke-width="2" stroke-linecap="round"/>
<path d="M3937.31 172C3949.59 169.661 3961.95 168 3974.42 168C3979.01 168 3983.61 168 3988.2 168C3994.72 168 3999.11 164.426 4004.87 164C4021.49 162.769 4038.63 164 4055.31 164" stroke="black" stroke-width="2" stroke-linecap="round"/>
<path d="M3997.31 146V168" stroke="black" stroke-width="2" stroke-linecap="round"/>
<path d="M4089.31 144C4089.14 144.852 4085.32 177.495 4095.31 165C4098.18 161.408 4116.42 164 4121.31 164" stroke="black" stroke-width="2" stroke-linecap="round"/>
<path d="M4085.31 144H4127.31" stroke="black" stroke-width="2" stroke-linecap="round"/>
<path d="M2005.9 239.095C2005.9 250.521 2007.61 260.239 2008 271.716C2011.47 267.619 2018.85 271.819 2021.65 271.819C2028.22 271.819 2034.22 280 2040.62 280H2056.69C2062.42 280 2067.28 271.819 2072.77 271.819H2090.17C2092.89 271.819 2095.07 274.773 2097.72 275.606C2099.76 276.247 2097.79 256.006 2097.76 252.73C2097.72 247.507 2097.87 242.184 2097.76 236.973C2097.64 230.823 2096.32 227.427 2096.32 220.611V174.252C2096.32 158.677 2095.62 140.365 2096.48 125.165C2097.12 113.864 2098.63 104.484 2099.05 92.4408C2099.33 84.537 2099.62 76.6858 2099.89 68.8065C2100.44 53.4205 2098.84 59.1104 2095.96 59.1104C2094.8 59.1104 2092.76 60.5932 2091.7 58.8074C2090.4 56.6268 2090.5 53.6563 2088.68 53.6563H2071H2044.28H2026.96C2020.71 53.6563 2015.01 45.8495 2008.95 45.4752C2008.38 45.44 1997.75 41.0452 2000.43 47.5962C2002.51 52.66 2002.28 64.7412 2002.28 73.3515C2002.28 97.1004 2003.73 120.79 2003.73 144.86V177.888C2003.73 184.354 2005.18 187.603 2005.18 194.098V210.461C2005.18 220.782 2005.9 228.821 2005.9 239.095Z" fill="white"/>
<path d="M2008.07 274.546C2007.9 261.805 2005.9 251.448 2005.9 239.095C2005.9 228.821 2005.18 220.782 2005.18 210.461C2005.18 205.007 2005.18 199.553 2005.18 194.098C2005.18 187.603 2003.73 184.354 2003.73 177.888C2003.73 166.879 2003.73 155.87 2003.73 144.86C2003.73 120.79 2002.28 97.1004 2002.28 73.3515C2002.28 64.7412 2002.51 52.66 2000.43 47.5962C1997.75 41.0452 2008.38 45.44 2008.95 45.4752C2015.01 45.8495 2020.71 53.6563 2026.96 53.6563C2032.73 53.6563 2038.5 53.6563 2044.28 53.6563C2053.18 53.6563 2062.09 53.6563 2071 53.6563C2076.89 53.6563 2082.79 53.6563 2088.68 53.6563C2090.5 53.6563 2090.4 56.6268 2091.7 58.8074C2092.76 60.5932 2094.8 59.1104 2095.96 59.1104C2098.84 59.1104 2100.44 53.4205 2099.89 68.8065C2099.62 76.6858 2099.33 84.537 2099.05 92.4408C2098.63 104.484 2097.12 113.864 2096.48 125.165C2095.62 140.365 2096.32 158.677 2096.32 174.252C2096.32 189.705 2096.32 205.158 2096.32 220.611C2096.32 227.427 2097.64 230.823 2097.76 236.973C2097.87 242.183 2097.72 247.507 2097.76 252.73C2097.79 256.006 2099.76 276.247 2097.72 275.606C2095.07 274.773 2092.89 271.819 2090.17 271.819C2084.37 271.819 2078.57 271.819 2072.77 271.819C2067.28 271.819 2062.42 280 2056.69 280C2051.34 280 2045.98 280 2040.62 280C2034.22 280 2028.22 271.819 2021.65 271.819C2018.37 271.819 2008.87 266.088 2006.62 274.546" stroke="black" stroke-width="2" stroke-linecap="round"/>
<path d="M2040 86C2040 93.1356 2036.37 106.388 2046.44 106C2050.29 105.852 2058 103.991 2058 100C2058 97.4897 2059.65 84.8142 2055.11 86.1111C2050.2 87.5141 2045.76 88 2040 88" stroke="black" stroke-width="2" stroke-linecap="round"/>
<path d="M2040 126C2040 136.059 2036.32 144 2047.56 144C2056.62 144 2056 140.569 2056 132.444C2056 130.828 2055.92 115.326 2052.44 120.889C2050.16 124.547 2042.72 126 2038 126" stroke="black" stroke-width="2" stroke-linecap="round"/>
<path d="M2040 170C2040 183.565 2039.17 184 2051.56 184C2057.84 184 2058.77 180.41 2055 175.889C2051.27 171.416 2057.45 166 2049 166C2044.25 166 2038 163.973 2038 170" stroke="black" stroke-width="2" stroke-linecap="round"/>
<path d="M2041.56 230C2034.89 230.256 2038 222.809 2038 216C2049.91 216 2052.75 215.244 2052 228C2051.79 231.597 2044.03 229.905 2041.56 230Z" stroke="black" stroke-width="2" stroke-linecap="round"/>
<path d="M4581.9 235.095C4581.9 246.521 4583.61 256.239 4584 267.716C4587.47 263.619 4594.85 267.819 4597.65 267.819C4604.22 267.819 4610.22 276 4616.62 276H4632.69C4638.42 276 4643.28 267.819 4648.77 267.819H4666.17C4668.89 267.819 4671.07 270.773 4673.72 271.606C4675.76 272.247 4673.79 252.006 4673.76 248.73C4673.72 243.507 4673.87 238.184 4673.76 232.973C4673.64 226.823 4672.32 223.427 4672.32 216.611V170.252C4672.32 154.677 4671.62 136.365 4672.48 121.165C4673.12 109.864 4674.63 100.484 4675.05 88.4408C4675.33 80.537 4675.62 72.6858 4675.89 64.8065C4676.44 49.4205 4674.84 55.1104 4671.96 55.1104C4670.8 55.1104 4668.76 56.5932 4667.7 54.8074C4666.4 52.6268 4666.5 49.6563 4664.68 49.6563H4647H4620.28H4602.96C4596.71 49.6563 4591.01 41.8495 4584.95 41.4752C4584.38 41.44 4573.75 37.0452 4576.43 43.5962C4578.51 48.66 4578.28 60.7412 4578.28 69.3515C4578.28 93.1004 4579.73 116.79 4579.73 140.86V173.888C4579.73 180.354 4581.18 183.603 4581.18 190.098V206.461C4581.18 216.782 4581.9 224.821 4581.9 235.095Z" fill="white"/>
<path d="M4584.07 270.546C4583.9 257.805 4581.9 247.448 4581.9 235.095C4581.9 224.821 4581.18 216.782 4581.18 206.461C4581.18 201.007 4581.18 195.553 4581.18 190.098C4581.18 183.603 4579.73 180.354 4579.73 173.888C4579.73 162.879 4579.73 151.87 4579.73 140.86C4579.73 116.79 4578.28 93.1004 4578.28 69.3515C4578.28 60.7412 4578.51 48.66 4576.43 43.5962C4573.75 37.0452 4584.38 41.44 4584.95 41.4752C4591.01 41.8495 4596.71 49.6563 4602.96 49.6563C4608.73 49.6563 4614.5 49.6563 4620.28 49.6563C4629.18 49.6563 4638.09 49.6563 4647 49.6563C4652.89 49.6563 4658.79 49.6563 4664.68 49.6563C4666.5 49.6563 4666.4 52.6268 4667.7 54.8074C4668.76 56.5932 4670.8 55.1104 4671.96 55.1104C4674.84 55.1104 4676.44 49.4205 4675.89 64.8065C4675.62 72.6858 4675.33 80.537 4675.05 88.4408C4674.63 100.484 4673.12 109.864 4672.48 121.165C4671.62 136.365 4672.32 154.677 4672.32 170.252C4672.32 185.705 4672.32 201.158 4672.32 216.611C4672.32 223.427 4673.64 226.823 4673.76 232.973C4673.87 238.183 4673.72 243.507 4673.76 248.73C4673.79 252.006 4675.76 272.247 4673.72 271.606C4671.07 270.773 4668.89 267.819 4666.17 267.819C4660.37 267.819 4654.57 267.819 4648.77 267.819C4643.28 267.819 4638.42 276 4632.69 276C4627.34 276 4621.98 276 4616.62 276C4610.22 276 4604.22 267.819 4597.65 267.819C4594.37 267.819 4584.87 262.088 4582.62 270.546" stroke="black" stroke-width="2" stroke-linecap="round"/>
<path d="M4616 82C4616 89.1356 4612.37 102.388 4622.44 102C4626.29 101.852 4634 99.9912 4634 96C4634 93.4897 4635.65 80.8142 4631.11 82.1111C4626.2 83.5141 4621.76 84 4616 84" stroke="black" stroke-width="2" stroke-linecap="round"/>
<path d="M4616 122C4616 132.059 4612.32 140 4623.56 140C4632.62 140 4632 136.569 4632 128.444C4632 126.828 4631.92 111.326 4628.44 116.889C4626.16 120.547 4618.72 122 4614 122" stroke="black" stroke-width="2" stroke-linecap="round"/>
<path d="M4616 166C4616 179.565 4615.17 180 4627.56 180C4633.84 180 4634.77 176.41 4631 171.889C4627.27 167.416 4633.45 162 4625 162C4620.25 162 4614 159.973 4614 166" stroke="black" stroke-width="2" stroke-linecap="round"/>
<path d="M4617.56 226C4610.89 226.256 4614 218.809 4614 212C4625.91 212 4628.75 211.244 4628 224C4627.79 227.597 4620.03 225.905 4617.56 226Z" stroke="black" stroke-width="2" stroke-linecap="round"/>
<path d="M2809.03 259.387C2809.03 266.263 2812.24 272.11 2812.97 279.016C2819.46 276.551 2833.24 279.077 2838.49 279.077C2850.77 279.077 2861.99 284 2873.96 284H2904.02C2914.73 284 2923.81 279.077 2934.08 279.077H2966.62C2971.71 279.077 2975.79 280.855 2980.74 281.356C2984.56 281.742 2980.87 269.563 2980.82 267.592C2980.74 264.449 2981.01 261.246 2980.82 258.111C2980.59 254.411 2978.11 252.367 2978.11 248.266V220.372C2978.11 211.001 2976.81 199.982 2978.42 190.837C2979.61 184.037 2982.44 178.393 2983.22 171.147C2983.74 166.391 2984.28 161.667 2984.8 156.926C2985.82 147.668 2982.83 151.092 2977.44 151.092C2975.27 151.092 2971.47 151.984 2969.47 150.91C2967.04 149.598 2967.24 147.81 2963.84 147.81H2930.77H2880.8H2848.41C2836.72 147.81 2826.07 143.113 2814.74 142.888C2813.68 142.866 2793.79 140.222 2798.81 144.164C2802.69 147.211 2802.27 154.48 2802.27 159.661C2802.27 173.95 2804.97 188.204 2804.97 202.687V222.56C2804.97 226.45 2807.68 228.405 2807.68 232.313V242.159C2807.68 248.369 2809.03 253.206 2809.03 259.387Z" fill="white"/>
<path d="M2813.09 280.718C2812.78 273.052 2809.03 266.82 2809.03 259.387C2809.03 253.206 2807.68 248.369 2807.68 242.159C2807.68 238.877 2807.68 235.595 2807.68 232.313C2807.68 228.405 2804.97 226.45 2804.97 222.56C2804.97 215.935 2804.97 209.311 2804.97 202.687C2804.97 188.204 2802.27 173.95 2802.27 159.661C2802.27 154.48 2802.69 147.211 2798.81 144.164C2793.79 140.222 2813.68 142.866 2814.74 142.888C2826.07 143.113 2836.72 147.81 2848.41 147.81C2859.21 147.81 2870 147.81 2880.8 147.81C2897.46 147.81 2914.11 147.81 2930.77 147.81C2941.79 147.81 2952.81 147.81 2963.84 147.81C2967.24 147.81 2967.04 149.598 2969.47 150.91C2971.47 151.984 2975.27 151.092 2977.44 151.092C2982.83 151.092 2985.82 147.668 2984.8 156.926C2984.28 161.667 2983.74 166.391 2983.22 171.147C2982.44 178.393 2979.61 184.037 2978.42 190.837C2976.81 199.982 2978.11 211.001 2978.11 220.372C2978.11 229.67 2978.11 238.968 2978.11 248.266C2978.11 252.367 2980.59 254.411 2980.82 258.111C2981.01 261.246 2980.74 264.449 2980.82 267.592C2980.87 269.563 2984.56 281.742 2980.74 281.356C2975.79 280.855 2971.71 279.077 2966.62 279.077C2955.77 279.077 2944.92 279.077 2934.08 279.077C2923.81 279.077 2914.73 284 2904.02 284C2894 284 2883.98 284 2873.96 284C2861.99 284 2850.77 279.077 2838.49 279.077C2832.36 279.077 2814.58 275.629 2810.38 280.718" stroke="black" stroke-width="2" stroke-linecap="round"/>
<path d="M2846 148C2846 175.963 2848 203.975 2848 231.556C2848 243.093 2850 254.036 2850 265.889C2850 270.343 2848.25 279.138 2851.56 282.444C2854.14 285.024 2856 272.438 2856 270.889C2856 251.226 2850 233.977 2850 214C2850 195.635 2856.29 160.295 2844 148" stroke="black" stroke-width="2" stroke-linecap="round"/>
<path d="M2850 184C2861.73 183.521 2871.72 180 2884 180C2892.67 180 2901.33 180 2910 180" stroke="black" stroke-width="2" stroke-linecap="round"/>
<path d="M2846 206C2869.3 206 2890.61 202 2914 202" stroke="black" stroke-width="2" stroke-linecap="round"/>
<path d="M2890 182C2891.6 190.215 2892 197.705 2892 206" stroke="black" stroke-width="2" stroke-linecap="round"/>
<path d="M2850 240C2859.57 240 2877.9 243.098 2884.89 236.889C2890.58 231.83 2906.69 237.656 2914 234" stroke="black" stroke-width="2" stroke-linecap="round"/>
<path d="M2850 264C2865.53 264 2873.53 259.992 2887.11 256.111C2894.7 253.943 2906.02 256 2914 256" stroke="black" stroke-width="2" stroke-linecap="round"/>
<path d="M2894 232C2894 235.862 2891.47 255.734 2896 258" stroke="black" stroke-width="2" stroke-linecap="round"/>
<path d="M2911 148C2911 171.601 2915 192.594 2915 216C2915 227.599 2919 234.214 2919 246C2919 256 2919 266 2919 276C2919 283.874 2921 275.302 2921 272C2921 266.815 2921 261.63 2921 256.444C2921 247.43 2924.31 229.434 2919 222C2913.42 214.195 2917 194.798 2917 185.333C2917 173.556 2917 161.778 2917 150" stroke="black" stroke-width="2" stroke-linecap="round"/>
<path d="M4365.03 255.387C4365.03 262.263 4368.24 268.11 4368.97 275.016C4375.46 272.551 4389.24 275.077 4394.49 275.077C4406.77 275.077 4417.99 280 4429.96 280H4460.02C4470.73 280 4479.81 275.077 4490.08 275.077H4522.62C4527.71 275.077 4531.79 276.855 4536.74 277.356C4540.56 277.742 4536.87 265.563 4536.82 263.592C4536.74 260.449 4537.01 257.246 4536.82 254.111C4536.59 250.411 4534.11 248.367 4534.11 244.266V216.372C4534.11 207.001 4532.81 195.982 4534.42 186.837C4535.61 180.037 4538.44 174.393 4539.22 167.147C4539.74 162.391 4540.28 157.667 4540.8 152.926C4541.82 143.668 4538.83 147.092 4533.44 147.092C4531.27 147.092 4527.47 147.984 4525.47 146.91C4523.04 145.598 4523.24 143.81 4519.84 143.81H4486.77H4436.8H4404.41C4392.72 143.81 4382.07 139.113 4370.74 138.888C4369.68 138.866 4349.79 136.222 4354.81 140.164C4358.69 143.211 4358.27 150.48 4358.27 155.661C4358.27 169.95 4360.97 184.204 4360.97 198.687V218.56C4360.97 222.45 4363.68 224.405 4363.68 228.313V238.159C4363.68 244.369 4365.03 249.206 4365.03 255.387Z" fill="white"/>
<path d="M4369.09 276.718C4368.78 269.052 4365.03 262.82 4365.03 255.387C4365.03 249.206 4363.68 244.369 4363.68 238.159C4363.68 234.877 4363.68 231.595 4363.68 228.313C4363.68 224.405 4360.97 222.45 4360.97 218.56C4360.97 211.935 4360.97 205.311 4360.97 198.687C4360.97 184.204 4358.27 169.95 4358.27 155.661C4358.27 150.48 4358.69 143.211 4354.81 140.164C4349.79 136.222 4369.68 138.866 4370.74 138.888C4382.07 139.113 4392.72 143.81 4404.41 143.81C4415.21 143.81 4426 143.81 4436.8 143.81C4453.46 143.81 4470.11 143.81 4486.77 143.81C4497.79 143.81 4508.81 143.81 4519.84 143.81C4523.24 143.81 4523.04 145.598 4525.47 146.91C4527.47 147.984 4531.27 147.092 4533.44 147.092C4538.83 147.092 4541.82 143.668 4540.8 152.926C4540.28 157.667 4539.74 162.391 4539.22 167.147C4538.44 174.393 4535.61 180.037 4534.42 186.837C4532.81 195.982 4534.11 207.001 4534.11 216.372C4534.11 225.67 4534.11 234.968 4534.11 244.266C4534.11 248.367 4536.59 250.411 4536.82 254.111C4537.01 257.246 4536.74 260.449 4536.82 263.592C4536.87 265.563 4540.56 277.742 4536.74 277.356C4531.79 276.855 4527.71 275.077 4522.62 275.077C4511.77 275.077 4500.92 275.077 4490.08 275.077C4479.81 275.077 4470.73 280 4460.02 280C4450 280 4439.98 280 4429.96 280C4417.99 280 4406.77 275.077 4394.49 275.077C4388.36 275.077 4370.58 271.629 4366.38 276.718" stroke="black" stroke-width="2" stroke-linecap="round"/>
<path d="M4402 144C4402 171.963 4404 199.975 4404 227.556C4404 239.093 4406 250.036 4406 261.889C4406 266.343 4404.25 275.138 4407.56 278.444C4410.14 281.024 4412 268.438 4412 266.889C4412 247.226 4406 229.977 4406 210C4406 191.635 4412.29 156.295 4400 144" stroke="black" stroke-width="2" stroke-linecap="round"/>
<path d="M4406 180C4417.73 179.521 4427.72 176 4440 176C4448.67 176 4457.33 176 4466 176" stroke="black" stroke-width="2" stroke-linecap="round"/>
<path d="M4402 202C4425.3 202 4446.61 198 4470 198" stroke="black" stroke-width="2" stroke-linecap="round"/>
<path d="M4446 178C4447.6 186.215 4448 193.705 4448 202" stroke="black" stroke-width="2" stroke-linecap="round"/>
<path d="M4406 236C4415.57 236 4433.9 239.098 4440.89 232.889C4446.58 227.83 4462.69 233.656 4470 230" stroke="black" stroke-width="2" stroke-linecap="round"/>
<path d="M4406 260C4421.53 260 4429.53 255.992 4443.11 252.111C4450.7 249.943 4462.02 252 4470 252" stroke="black" stroke-width="2" stroke-linecap="round"/>
<path d="M4450 228C4450 231.862 4447.47 251.734 4452 254" stroke="black" stroke-width="2" stroke-linecap="round"/>
<path d="M4467 144C4467 167.601 4471 188.594 4471 212C4471 223.599 4475 230.214 4475 242C4475 252 4475 262 4475 272C4475 279.874 4477 271.302 4477 268C4477 262.815 4477 257.63 4477 252.444C4477 243.43 4480.31 225.434 4475 218C4469.42 210.195 4473 190.798 4473 181.333C4473 169.556 4473 157.778 4473 146" stroke="black" stroke-width="2" stroke-linecap="round"/>
<path d="M4361.03 118.387C4361.03 125.263 4364.24 131.11 4364.97 138.016C4371.46 135.551 4385.24 138.077 4390.49 138.077C4402.77 138.077 4413.99 143 4425.96 143H4456.02C4466.73 143 4475.81 138.077 4486.08 138.077H4518.62C4523.71 138.077 4527.79 139.855 4532.74 140.356C4536.56 140.742 4532.87 128.563 4532.82 126.592C4532.74 123.449 4533.01 120.246 4532.82 117.111C4532.59 113.411 4530.11 111.367 4530.11 107.266V79.3718C4530.11 70.0006 4528.81 58.9824 4530.42 49.8367C4531.61 43.037 4534.44 37.393 4535.22 30.1466C4535.74 25.3909 4536.28 20.6669 4536.8 15.9259C4537.82 6.66825 4534.83 10.0918 4529.44 10.0918C4527.27 10.0918 4523.47 10.984 4521.47 9.90952C4519.04 8.5975 4519.24 6.81015 4515.84 6.81015H4482.77H4432.8H4400.41C4388.72 6.81015 4378.07 2.11286 4366.74 1.88763C4365.68 1.86644 4345.79 -0.777867 4350.81 3.16384C4354.69 6.21069 4354.27 13.4799 4354.27 18.6607C4354.27 32.9503 4356.97 47.2041 4356.97 61.6872V81.5596C4356.97 85.4503 4359.68 87.4054 4359.68 91.3135V101.159C4359.68 107.369 4361.03 112.206 4361.03 118.387Z" fill="white"/>
<path d="M4365.09 139.718C4364.78 132.052 4361.03 125.82 4361.03 118.387C4361.03 112.206 4359.68 107.369 4359.68 101.159C4359.68 97.8769 4359.68 94.5952 4359.68 91.3135C4359.68 87.4054 4356.97 85.4503 4356.97 81.5596C4356.97 74.9355 4356.97 68.3113 4356.97 61.6872C4356.97 47.2041 4354.27 32.9503 4354.27 18.6607C4354.27 13.4799 4354.69 6.21069 4350.81 3.16384C4345.79 -0.777867 4365.68 1.86644 4366.74 1.88763C4378.07 2.11286 4388.72 6.81015 4400.41 6.81015C4411.21 6.81015 4422 6.81015 4432.8 6.81015C4449.46 6.81015 4466.11 6.81015 4482.77 6.81015C4493.79 6.81015 4504.81 6.81015 4515.84 6.81015C4519.24 6.81015 4519.04 8.5975 4521.47 9.90952C4523.47 10.984 4527.27 10.0918 4529.44 10.0918C4534.83 10.0918 4537.82 6.66825 4536.8 15.9259C4536.28 20.6669 4535.74 25.3909 4535.22 30.1466C4534.44 37.393 4531.61 43.037 4530.42 49.8367C4528.81 58.9824 4530.11 70.0006 4530.11 79.3718C4530.11 88.6699 4530.11 97.968 4530.11 107.266C4530.11 111.367 4532.59 113.411 4532.82 117.111C4533.01 120.246 4532.74 123.449 4532.82 126.592C4532.87 128.563 4536.56 140.742 4532.74 140.356C4527.79 139.855 4523.71 138.077 4518.62 138.077C4507.77 138.077 4496.92 138.077 4486.08 138.077C4475.81 138.077 4466.73 143 4456.02 143C4446 143 4435.98 143 4425.96 143C4413.99 143 4402.77 138.077 4390.49 138.077C4384.36 138.077 4366.58 134.629 4362.38 139.718" stroke="black" stroke-width="2" stroke-linecap="round"/>
<path d="M4398 7C4398 34.9626 4400 62.9755 4400 90.5556C4400 102.093 4402 113.036 4402 124.889C4402 129.343 4400.25 138.138 4403.56 141.444C4406.14 144.024 4408 131.438 4408 129.889C4408 110.226 4402 92.9765 4402 73C4402 54.6349 4408.29 19.2948 4396 7" stroke="black" stroke-width="2" stroke-linecap="round"/>
<path d="M4402 43C4413.73 42.5212 4423.72 39 4436 39C4444.67 39 4453.33 39 4462 39" stroke="black" stroke-width="2" stroke-linecap="round"/>
<path d="M4398 65C4421.3 65 4442.61 61 4466 61" stroke="black" stroke-width="2" stroke-linecap="round"/>
<path d="M4442 41C4443.6 49.2147 4444 56.7054 4444 65" stroke="black" stroke-width="2" stroke-linecap="round"/>
<path d="M4402 99C4411.57 99 4429.9 102.098 4436.89 95.8889C4442.58 90.8296 4458.69 96.656 4466 93" stroke="black" stroke-width="2" stroke-linecap="round"/>
<path d="M4402 123C4417.53 123 4425.53 118.992 4439.11 115.111C4446.7 112.943 4458.02 115 4466 115" stroke="black" stroke-width="2" stroke-linecap="round"/>
<path d="M4446 91C4446 94.862 4443.47 114.734 4448 117" stroke="black" stroke-width="2" stroke-linecap="round"/>
<path d="M4463 7C4463 30.6009 4467 51.5935 4467 75C4467 86.5989 4471 93.2141 4471 105C4471 115 4471 125 4471 135C4471 142.874 4473 134.302 4473 131C4473 125.815 4473 120.63 4473 115.444C4473 106.43 4476.31 88.4337 4471 81C4465.42 73.195 4469 53.7976 4469 44.3333C4469 32.5556 4469 20.7778 4469 9" stroke="black" stroke-width="2" stroke-linecap="round"/>
</svg>
