<svg width="4115" height="291" viewBox="0 0 4115 291" fill="none" xmlns="http://www.w3.org/2000/svg">
<path d="M2246.18 205.384V281.194H1973.26V223.073L2047.81 197.803L2078.13 215.492V197.803L2162.79 162.425L2246.18 205.384Z" fill="white"/>
<path d="M2246.81 203.489C2242.29 202.777 2237.96 201.54 2233.77 199.751C2229.61 197.973 2226.96 193.421 2222.28 192.531C2211.99 190.576 2202.71 182.588 2193.02 178.194C2183.81 174.019 2176.15 167.249 2166.9 163.448C2163.85 162.197 2161.82 161.19 2158.84 162.219C2155.32 163.433 2152.11 164.666 2148.47 165.496C2144.99 166.29 2141.72 166.335 2138.67 168.466C2134.22 171.573 2130.4 173.759 2125.38 175.429C2121.74 176.637 2117.73 178.312 2114.29 179.935C2112.01 181.008 2109.17 182.68 2106.69 183.11C2103.5 183.664 2101.5 182.879 2098.79 184.646C2096.54 186.111 2093.55 186.707 2091.66 188.281C2090.32 189.392 2090.01 191.655 2088.27 192.429C2083.56 194.518 2080.02 199.465 2074.97 200.724" stroke="black" stroke-width="2" stroke-linecap="round"/>
<path d="M2133.1 146V181.378H2122.99V146H2133.1Z" fill="white"/>
<path d="M2129.82 174.138C2131.8 168.977 2132.56 161.537 2131.47 156.497C2131.18 155.178 2132.26 149.659 2131.07 149.015C2129.07 147.933 2124.24 148.742 2122.01 148.833C2120.13 148.91 2120.91 154.689 2121.83 155.726C2123.47 157.566 2122.63 162.327 2122.63 164.796C2122.63 167.427 2122.63 170.057 2122.63 172.687C2122.63 173.893 2122.74 181.123 2121.83 177.403" stroke="black" stroke-width="2" stroke-linecap="round"/>
<path d="M2093.3 227.495C2085.75 224.24 2080.16 217.885 2072.46 214.701C2069.73 213.569 2067.42 210.649 2064.5 209.218C2062.25 208.11 2058.96 206.675 2057.73 204.445C2056.48 202.182 2051.3 201.523 2049.05 199.876C2045.34 197.17 2045.85 197.31 2042.07 199.165C2038.76 200.787 2036.37 200.993 2032.71 200.993C2028.88 200.993 2027.02 202.279 2023.51 203.024C2017.42 204.318 2012.51 207.193 2006.76 208.761C2004.68 209.328 2002.18 210.669 2000.2 210.995C1997.65 211.411 1996.01 212.873 1993.53 212.873C1990.73 212.873 1984.72 215.267 1982.62 216.986C1979.99 219.136 1976.64 220.352 1973.26 222.012" stroke="black" stroke-width="2" stroke-linecap="round"/>
<path d="M2248.2 204.752C2248.03 209.083 2245.63 212.606 2245.55 216.798C2245.48 220.055 2245.55 223.322 2245.55 226.579C2245.55 234.421 2245.55 242.262 2245.55 250.104C2245.55 255.079 2243.65 265.533 2246.43 269.614C2247.52 271.217 2247.9 274.647 2248.15 276.615C2248.27 277.566 2249.97 282.817 2249.97 281.66" stroke="black" stroke-width="2" stroke-linecap="round"/>
<path d="M2076.87 199.067C2077.29 202.72 2077.5 206.135 2077.5 209.806" stroke="black" stroke-width="2" stroke-linecap="round"/>
<path d="M2095.19 227.495C2095.19 233.155 2093.3 237.726 2093.3 243.151C2093.3 248.771 2093.3 254.391 2093.3 260.011C2093.3 264.77 2094.09 269.379 2094.24 274.061C2094.29 275.591 2094.24 284.746 2094.24 279.681" stroke="black" stroke-width="2" stroke-linecap="round"/>
<path d="M1972.63 222.441C1972.63 242.111 1972 261.375 1972 281.194" stroke="black" stroke-width="2" stroke-linecap="round"/>
<path d="M2193.11 262.241C2187.88 253.993 2176.49 246.177 2172.83 259.012C2172.73 259.352 2166.95 255.226 2165.6 254.66C2159.96 252.301 2155.82 251.791 2150.15 254.941C2147.4 256.468 2150.63 260.729 2146.22 259.012C2140.77 256.893 2134.62 255.406 2128.74 255.994C2113.13 257.556 2124.78 278.616 2132.46 282.457" stroke="black" stroke-width="2" stroke-linecap="round"/>
<path d="M2066.76 278.667C2075.71 271.888 2074.65 262.99 2061.71 264.838C2060.09 265.07 2055.33 269.682 2056.02 269.682C2058.54 269.682 2055.56 264.649 2054.13 264.136C2049.18 262.368 2042.76 265.468 2042.76 271.086C2042.76 276.591 2052.2 277.338 2054.13 281.194" stroke="black" stroke-width="2" stroke-linecap="round"/>
<path d="M2225.96 278.667C2228.53 271.933 2228.17 264.209 2218.66 263.505C2214.76 263.216 2208.58 264.983 2208.27 269.822C2208.19 271.162 2207.19 268.647 2206.31 267.927C2204.21 266.21 2201.68 265.33 2199.15 264.487C2194.9 263.073 2193.47 266.494 2190.58 265.049C2185.62 262.564 2174.19 258.617 2171.91 266.313C2169.23 275.363 2176.06 276.159 2179.21 282.457" stroke="black" stroke-width="2" stroke-linecap="round"/>
<path d="M3822.38 196L3776.22 221.27V279.39H3896.93V221.27L3822.38 196Z" fill="white"/>
<path d="M3776.9 225.692C3784.44 222.437 3790.03 216.082 3797.73 212.898C3800.47 211.766 3802.77 208.846 3805.69 207.414C3807.94 206.307 3811.23 204.871 3812.46 202.642C3813.71 200.379 3818.89 199.719 3821.14 198.073C3824.85 195.367 3824.35 195.506 3828.12 197.362C3831.43 198.984 3833.82 199.19 3837.48 199.19C3841.31 199.19 3843.17 200.476 3846.68 201.22C3852.77 202.514 3857.68 205.39 3863.43 206.958C3865.51 207.525 3868.01 208.866 3869.99 209.191C3872.54 209.608 3874.18 211.07 3876.66 211.07C3879.46 211.07 3885.47 213.464 3887.57 215.182C3890.2 217.333 3893.55 218.549 3896.93 220.209" stroke="black" stroke-width="2" stroke-linecap="round"/>
<path d="M3775 225.692C3775 231.352 3776.9 235.922 3776.9 241.348C3776.9 246.968 3776.9 252.588 3776.9 258.208C3776.9 262.967 3776.1 267.576 3775.95 272.258C3775.9 273.788 3775.95 282.943 3775.95 277.878" stroke="black" stroke-width="2" stroke-linecap="round"/>
<path d="M3897.56 220.638C3897.56 240.308 3898.19 259.572 3898.19 279.391" stroke="black" stroke-width="2" stroke-linecap="round"/>
<path d="M947.722 214L910.973 234.118V280.39H1007.07V234.118L947.722 214Z" fill="white"/>
<path d="M911.509 237.639C917.519 235.047 921.965 229.988 928.094 227.453C930.274 226.552 932.111 224.227 934.432 223.088C936.227 222.206 938.845 221.063 939.824 219.288C940.817 217.486 944.941 216.961 946.738 215.65C949.69 213.496 949.286 213.607 952.294 215.084C954.923 216.375 956.826 216.539 959.743 216.539C962.794 216.539 964.276 217.563 967.068 218.156C971.919 219.186 975.828 221.476 980.402 222.724C982.058 223.175 984.047 224.243 985.629 224.502C987.654 224.834 988.962 225.998 990.938 225.998C993.164 225.998 997.95 227.904 999.622 229.272C1001.71 230.984 1004.38 231.952 1007.07 233.274" stroke="black" stroke-width="2" stroke-linecap="round"/>
<path d="M910 237.639C910 242.145 911.509 245.784 911.509 250.103C911.509 254.578 911.509 259.052 911.509 263.526C911.509 267.315 910.877 270.985 910.754 274.712C910.715 275.93 910.754 283.219 910.754 279.187" stroke="black" stroke-width="2" stroke-linecap="round"/>
<path d="M1007.57 233.615C1007.57 249.275 1008.08 264.612 1008.08 280.391" stroke="black" stroke-width="2" stroke-linecap="round"/>
<path d="M228.378 209.332C232.977 203.318 242.729 198.545 248.625 205.291C249.327 207.132 250.817 209.335 252.578 210.039C254.223 210.697 254.847 214.199 256.82 214.988C258.967 215.847 257.527 229.602 257.527 232.274C257.527 234.004 257.61 240.214 256.113 241.112C255.373 241.557 253.285 248.883 253.285 249.951C253.285 252.479 247.964 256.358 245.821 256.748C242.706 257.314 240.613 257.235 237.689 256.748C235.04 256.306 232.86 255.244 230.971 253.566C227.906 250.841 226.825 250.21 226.414 246.102C226.246 244.423 225 243.466 225 241.545V236.909V227.402C225 222.354 225.276 213.389 228.378 209.332Z" fill="white"/>
<path d="M249.042 205.796C243.199 198.317 233.087 203.174 228.378 209.332C225.276 213.389 225 222.354 225 227.402C225 230.571 225 233.74 225 236.909C225 238.454 225 239.999 225 241.545C225 243.466 226.246 244.423 226.414 246.102C226.825 250.21 227.906 250.841 230.971 253.566C232.86 255.244 235.04 256.306 237.689 256.748C240.613 257.235 242.706 257.314 245.821 256.748C247.964 256.358 253.285 252.479 253.285 249.951C253.285 248.883 255.373 241.557 256.113 241.112C257.61 240.214 257.527 234.004 257.527 232.274C257.527 229.602 258.967 215.847 256.82 214.988C254.847 214.199 254.223 210.697 252.578 210.039C250.514 209.213 248.822 206.329 248.335 204.382" stroke="black" stroke-width="2" stroke-linecap="round"/>
<path d="M240.557 273.168C240.557 267.293 239.433 262.087 239.189 256.355C243.895 256.394 244.092 262.313 244.092 266.412C244.092 272.202 245.248 277.546 244.799 283.382C244.673 285.021 242.222 284.874 240.989 284.6C240.172 284.419 240.557 282.121 240.557 281.457V273.168Z" fill="white"/>
<path d="M239.142 254.233C239.142 260.828 240.557 266.577 240.557 273.168C240.557 275.931 240.557 278.694 240.557 281.457C240.557 282.121 240.172 284.419 240.989 284.6C242.222 284.874 244.673 285.021 244.799 283.382C245.248 277.546 244.092 272.202 244.092 266.412C244.092 262.299 243.894 256.355 239.142 256.355" stroke="black" stroke-width="2" stroke-linecap="round"/>
<path d="M2871.38 209.332C2875.98 203.318 2885.73 198.545 2891.62 205.291C2892.33 207.132 2893.82 209.335 2895.58 210.039C2897.22 210.697 2897.85 214.199 2899.82 214.988C2901.97 215.847 2900.53 229.602 2900.53 232.274C2900.53 234.004 2900.61 240.214 2899.11 241.112C2898.37 241.557 2896.28 248.883 2896.28 249.951C2896.28 252.479 2890.96 256.358 2888.82 256.748C2885.71 257.314 2883.61 257.235 2880.69 256.748C2878.04 256.306 2875.86 255.244 2873.97 253.566C2870.91 250.841 2869.83 250.21 2869.41 246.102C2869.25 244.423 2868 243.466 2868 241.545V236.909V227.402C2868 222.354 2868.28 213.389 2871.38 209.332Z" fill="white"/>
<path d="M2892.04 205.796C2886.2 198.317 2876.09 203.174 2871.38 209.332C2868.28 213.389 2868 222.354 2868 227.402C2868 230.571 2868 233.74 2868 236.909C2868 238.454 2868 239.999 2868 241.545C2868 243.466 2869.25 244.423 2869.41 246.102C2869.83 250.21 2870.91 250.841 2873.97 253.566C2875.86 255.244 2878.04 256.306 2880.69 256.748C2883.61 257.235 2885.71 257.314 2888.82 256.748C2890.96 256.358 2896.28 252.479 2896.28 249.951C2896.28 248.883 2898.37 241.557 2899.11 241.112C2900.61 240.214 2900.53 234.004 2900.53 232.274C2900.53 229.602 2901.97 215.847 2899.82 214.988C2897.85 214.199 2897.22 210.697 2895.58 210.039C2893.51 209.213 2891.82 206.329 2891.33 204.382" stroke="black" stroke-width="2" stroke-linecap="round"/>
<path d="M2883.56 273.168C2883.56 267.293 2882.43 262.087 2882.19 256.355C2886.89 256.394 2887.09 262.313 2887.09 266.412C2887.09 272.202 2888.25 277.546 2887.8 283.382C2887.67 285.021 2885.22 284.874 2883.99 284.6C2883.17 284.419 2883.56 282.121 2883.56 281.457V273.168Z" fill="white"/>
<path d="M2882.14 254.233C2882.14 260.828 2883.56 266.577 2883.56 273.168C2883.56 275.931 2883.56 278.694 2883.56 281.457C2883.56 282.121 2883.17 284.419 2883.99 284.6C2885.22 284.874 2887.67 285.021 2887.8 283.382C2888.25 277.546 2887.09 272.202 2887.09 266.412C2887.09 262.299 2886.89 256.355 2882.14 256.355" stroke="black" stroke-width="2" stroke-linecap="round"/>
<path d="M3359.38 209.332C3363.98 203.318 3373.73 198.545 3379.62 205.291C3380.33 207.132 3381.82 209.335 3383.58 210.039C3385.22 210.697 3385.85 214.199 3387.82 214.988C3389.97 215.847 3388.53 229.602 3388.53 232.274C3388.53 234.004 3388.61 240.214 3387.11 241.112C3386.37 241.557 3384.28 248.883 3384.28 249.951C3384.28 252.479 3378.96 256.358 3376.82 256.748C3373.71 257.314 3371.61 257.235 3368.69 256.748C3366.04 256.306 3363.86 255.244 3361.97 253.566C3358.91 250.841 3357.83 250.21 3357.41 246.102C3357.25 244.423 3356 243.466 3356 241.545V236.909V227.402C3356 222.354 3356.28 213.389 3359.38 209.332Z" fill="white"/>
<path d="M3380.04 205.796C3374.2 198.317 3364.09 203.174 3359.38 209.332C3356.28 213.389 3356 222.354 3356 227.402C3356 230.571 3356 233.74 3356 236.909C3356 238.454 3356 239.999 3356 241.545C3356 243.466 3357.25 244.423 3357.41 246.102C3357.83 250.21 3358.91 250.841 3361.97 253.566C3363.86 255.244 3366.04 256.306 3368.69 256.748C3371.61 257.235 3373.71 257.314 3376.82 256.748C3378.96 256.358 3384.28 252.479 3384.28 249.951C3384.28 248.883 3386.37 241.557 3387.11 241.112C3388.61 240.214 3388.53 234.004 3388.53 232.274C3388.53 229.602 3389.97 215.847 3387.82 214.988C3385.85 214.199 3385.22 210.697 3383.58 210.039C3381.51 209.213 3379.82 206.329 3379.33 204.382" stroke="black" stroke-width="2" stroke-linecap="round"/>
<path d="M3371.56 273.168C3371.56 267.293 3370.43 262.087 3370.19 256.355C3374.89 256.394 3375.09 262.313 3375.09 266.412C3375.09 272.202 3376.25 277.546 3375.8 283.382C3375.67 285.021 3373.22 284.874 3371.99 284.6C3371.17 284.419 3371.56 282.121 3371.56 281.457V273.168Z" fill="white"/>
<path d="M3370.14 254.233C3370.14 260.828 3371.56 266.577 3371.56 273.168C3371.56 275.931 3371.56 278.694 3371.56 281.457C3371.56 282.121 3371.17 284.419 3371.99 284.6C3373.22 284.874 3375.67 285.021 3375.8 283.382C3376.25 277.546 3375.09 272.202 3375.09 266.412C3375.09 262.299 3374.89 256.355 3370.14 256.355" stroke="black" stroke-width="2" stroke-linecap="round"/>
<path d="M293 259C293 267.38 297.744 274.507 298.816 282.925C308.414 279.92 328.796 283 336.556 283C354.719 283 371.307 289 389 289H433.445C449.282 289 462.714 283 477.889 283H526C533.532 283 539.556 285.167 546.889 285.778C552.528 286.248 547.073 271.403 547 269C546.884 265.17 547.283 261.265 547 257.444C546.666 252.934 543 250.443 543 245.444V211.444C543 200.022 541.073 186.592 543.445 175.444C545.208 167.156 549.397 160.277 550.556 151.444C551.316 145.648 552.119 139.89 552.889 134.111C554.394 122.827 549.975 127 542 127C538.792 127 533.169 128.087 530.222 126.778C526.624 125.179 526.923 123 521.889 123H473H399.111H351.222C333.942 123 318.191 117.275 301.445 117C299.869 116.974 270.464 113.751 277.889 118.556C283.629 122.269 283 131.13 283 137.444C283 154.862 287 172.236 287 189.889V214.111C287 218.853 291 221.237 291 226V238C291 245.57 293 251.466 293 259Z" fill="white"/>
<path d="M299 285C298.544 275.655 293 268.06 293 259C293 251.466 291 245.57 291 238C291 234 291 230 291 226C291 221.237 287 218.853 287 214.111C287 206.037 287 197.963 287 189.889C287 172.236 283 154.862 283 137.444C283 131.13 283.629 122.269 277.889 118.556C270.464 113.751 299.869 116.974 301.445 117C318.191 117.275 333.942 123 351.222 123C367.185 123 383.148 123 399.111 123C423.741 123 448.371 123 473 123C489.297 123 505.593 123 521.889 123C526.923 123 526.624 125.179 530.222 126.778C533.169 128.087 538.792 127 542 127C549.975 127 554.394 122.827 552.889 134.111C552.119 139.89 551.316 145.648 550.556 151.444C549.397 160.277 545.208 167.156 543.445 175.444C541.073 186.592 543 200.022 543 211.444C543 222.778 543 234.111 543 245.444C543 250.443 546.666 252.934 547 257.444C547.283 261.265 546.884 265.17 547 269C547.073 271.403 552.528 286.248 546.889 285.778C539.556 285.167 533.532 283 526 283C509.963 283 493.926 283 477.889 283C462.714 283 449.282 289 433.445 289C418.63 289 403.815 289 389 289C371.307 289 354.719 283 336.556 283C327.491 283 301.203 278.797 295 285" stroke="black" stroke-width="2" stroke-linecap="round"/>
<path d="M355 125C355 134.185 355 143.37 355 152.556C355 161.103 359 166.929 359 175C359 189.333 359 203.667 359 218C359 232.255 358.21 246.77 359 261C359.275 265.951 361 271.355 361 277C361 281.485 363 295.223 363 283.444C363 270.259 363 257.074 363 243.889C363 230.982 360.307 214.84 363.111 202.222C366.08 188.863 363 176.194 363 162.556C363 146.704 363 130.852 363 115" stroke="black" stroke-width="2" stroke-linecap="round"/>
<path d="M471 119C471.359 136.582 477 151.206 477 167.889C477 176.395 472.811 204.43 479 210C485.538 215.884 479 240.388 479 249C479 255.815 479 262.63 479 269.444C479 271.847 480.749 286.846 481 280.556C481.499 268.082 481 255.487 481 243C481 231.185 477 219.738 477 207.778C477 179.909 475 151.415 475 123" stroke="black" stroke-width="2" stroke-linecap="round"/>
<path d="M361 241C382.704 241 404.408 241 426.111 241C433.658 241 470.25 229.5 475 239" stroke="black" stroke-width="2" stroke-linecap="round"/>
<path d="M361 235C372.185 235 383.371 235 394.556 235C399.473 235 404.542 234.623 409.445 235C414.635 235.399 418.127 239 424 239C442.334 239 460.667 239 479 239" stroke="black" stroke-width="2" stroke-linecap="round"/>
<path d="M361 207H475" stroke="black" stroke-width="2" stroke-linecap="round"/>
<path d="M421 209C421 220.309 423 230.589 423 241" stroke="black" stroke-width="2" stroke-linecap="round"/>
<path d="M513 209C513 212.49 510.146 235.539 516.222 236.889C523.729 238.557 533.299 237 541 237" stroke="black" stroke-width="2" stroke-linecap="round"/>
<path d="M511 211C523.668 211 532.059 211.376 543 207" stroke="black" stroke-width="2" stroke-linecap="round"/>
<path d="M515 241C525.226 239.33 534.704 239 545 239" stroke="black" stroke-width="2" stroke-linecap="round"/>
<path d="M359 153C379.409 153 400.19 155 421 155C436.988 155 453.849 153 469 153" stroke="black" stroke-width="2" stroke-linecap="round"/>
<path d="M359 181C371.277 178.661 383.636 177 396.111 177C400.704 177 405.297 177 409.889 177C416.41 177 420.803 173.426 426.556 173C443.18 171.769 460.324 173 477 173" stroke="black" stroke-width="2" stroke-linecap="round"/>
<path d="M419 155V177" stroke="black" stroke-width="2" stroke-linecap="round"/>
<path d="M511 153C510.834 153.852 507.005 186.495 517 174C519.874 170.408 538.107 173 543 173" stroke="black" stroke-width="2" stroke-linecap="round"/>
<path d="M507 153H549" stroke="black" stroke-width="2" stroke-linecap="round"/>
<path d="M2464.31 255C2464.31 263.38 2469.05 270.507 2470.13 278.925C2479.72 275.92 2500.11 279 2507.87 279C2526.03 279 2542.62 285 2560.31 285H2604.76C2620.59 285 2634.02 279 2649.2 279H2697.31C2704.84 279 2710.87 281.167 2718.2 281.778C2723.84 282.248 2718.38 267.403 2718.31 265C2718.19 261.17 2718.59 257.265 2718.31 253.444C2717.98 248.934 2714.31 246.443 2714.31 241.444V207.444C2714.31 196.022 2712.38 182.592 2714.76 171.444C2716.52 163.156 2720.71 156.277 2721.87 147.444C2722.63 141.648 2723.43 135.89 2724.2 130.111C2725.7 118.827 2721.29 123 2713.31 123C2710.1 123 2704.48 124.087 2701.53 122.778C2697.93 121.179 2698.23 119 2693.2 119H2644.31H2570.42H2522.53C2505.25 119 2489.5 113.275 2472.76 113C2471.18 112.974 2441.77 109.751 2449.2 114.556C2454.94 118.269 2454.31 127.13 2454.31 133.444C2454.31 150.862 2458.31 168.236 2458.31 185.889V210.111C2458.31 214.853 2462.31 217.237 2462.31 222V234C2462.31 241.57 2464.31 247.466 2464.31 255Z" fill="white"/>
<path d="M2470.31 281C2469.85 271.655 2464.31 264.06 2464.31 255C2464.31 247.466 2462.31 241.57 2462.31 234C2462.31 230 2462.31 226 2462.31 222C2462.31 217.237 2458.31 214.853 2458.31 210.111C2458.31 202.037 2458.31 193.963 2458.31 185.889C2458.31 168.236 2454.31 150.862 2454.31 133.444C2454.31 127.13 2454.94 118.269 2449.2 114.556C2441.77 109.751 2471.18 112.974 2472.76 113C2489.5 113.275 2505.25 119 2522.53 119C2538.5 119 2554.46 119 2570.42 119C2595.05 119 2619.68 119 2644.31 119C2660.61 119 2676.9 119 2693.2 119C2698.23 119 2697.93 121.179 2701.53 122.778C2704.48 124.087 2710.1 123 2713.31 123C2721.29 123 2725.7 118.827 2724.2 130.111C2723.43 135.89 2722.63 141.648 2721.87 147.444C2720.71 156.277 2716.52 163.156 2714.76 171.444C2712.38 182.592 2714.31 196.022 2714.31 207.444C2714.31 218.778 2714.31 230.111 2714.31 241.444C2714.31 246.443 2717.98 248.934 2718.31 253.444C2718.59 257.265 2718.19 261.17 2718.31 265C2718.38 267.403 2723.84 282.248 2718.2 281.778C2710.87 281.167 2704.84 279 2697.31 279C2681.27 279 2665.24 279 2649.2 279C2634.02 279 2620.59 285 2604.76 285C2589.94 285 2575.13 285 2560.31 285C2542.62 285 2526.03 279 2507.87 279C2498.8 279 2472.51 274.797 2466.31 281" stroke="black" stroke-width="2" stroke-linecap="round"/>
<path d="M2526.31 121C2526.31 130.185 2526.31 139.37 2526.31 148.556C2526.31 157.103 2530.31 162.929 2530.31 171C2530.31 185.333 2530.31 199.667 2530.31 214C2530.31 228.255 2529.52 242.77 2530.31 257C2530.59 261.951 2532.31 267.355 2532.31 273C2532.31 277.485 2534.31 291.223 2534.31 279.444C2534.31 266.259 2534.31 253.074 2534.31 239.889C2534.31 226.982 2531.62 210.84 2534.42 198.222C2537.39 184.863 2534.31 172.194 2534.31 158.556C2534.31 142.704 2534.31 126.852 2534.31 111" stroke="black" stroke-width="2" stroke-linecap="round"/>
<path d="M2642.31 115C2642.67 132.582 2648.31 147.206 2648.31 163.889C2648.31 172.395 2644.12 200.43 2650.31 206C2656.85 211.884 2650.31 236.388 2650.31 245C2650.31 251.815 2650.31 258.63 2650.31 265.444C2650.31 267.847 2652.06 282.846 2652.31 276.556C2652.81 264.082 2652.31 251.487 2652.31 239C2652.31 227.185 2648.31 215.738 2648.31 203.778C2648.31 175.909 2646.31 147.415 2646.31 119" stroke="black" stroke-width="2" stroke-linecap="round"/>
<path d="M2532.31 237C2554.01 237 2575.72 237 2597.42 237C2604.97 237 2641.56 225.5 2646.31 235" stroke="black" stroke-width="2" stroke-linecap="round"/>
<path d="M2532.31 231C2543.5 231 2554.68 231 2565.87 231C2570.78 231 2575.85 230.623 2580.76 231C2585.95 231.399 2589.44 235 2595.31 235C2613.64 235 2631.98 235 2650.31 235" stroke="black" stroke-width="2" stroke-linecap="round"/>
<path d="M2532.31 203H2646.31" stroke="black" stroke-width="2" stroke-linecap="round"/>
<path d="M2592.31 205C2592.31 216.309 2594.31 226.589 2594.31 237" stroke="black" stroke-width="2" stroke-linecap="round"/>
<path d="M2684.31 205C2684.31 208.49 2681.46 231.539 2687.53 232.889C2695.04 234.557 2704.61 233 2712.31 233" stroke="black" stroke-width="2" stroke-linecap="round"/>
<path d="M2682.31 207C2694.98 207 2703.37 207.376 2714.31 203" stroke="black" stroke-width="2" stroke-linecap="round"/>
<path d="M2686.31 237C2696.54 235.33 2706.01 235 2716.31 235" stroke="black" stroke-width="2" stroke-linecap="round"/>
<path d="M2530.31 149C2550.72 149 2571.5 151 2592.31 151C2608.3 151 2625.16 149 2640.31 149" stroke="black" stroke-width="2" stroke-linecap="round"/>
<path d="M2530.31 177C2542.59 174.661 2554.95 173 2567.42 173C2572.01 173 2576.61 173 2581.2 173C2587.72 173 2592.11 169.426 2597.87 169C2614.49 167.769 2631.63 169 2648.31 169" stroke="black" stroke-width="2" stroke-linecap="round"/>
<path d="M2590.31 151V173" stroke="black" stroke-width="2" stroke-linecap="round"/>
<path d="M2682.31 149C2682.14 149.852 2678.32 182.495 2688.31 170C2691.18 166.408 2709.42 169 2714.31 169" stroke="black" stroke-width="2" stroke-linecap="round"/>
<path d="M2678.31 149H2720.31" stroke="black" stroke-width="2" stroke-linecap="round"/>
<path d="M598.899 239.752C598.899 253.736 600.615 265.628 601.003 279.674C604.474 274.66 611.846 279.799 614.652 279.799C621.221 279.799 627.221 289.811 633.62 289.811H649.694C655.422 289.811 660.28 279.799 665.769 279.799H683.169C685.894 279.799 688.072 283.415 690.724 284.434C692.764 285.219 690.791 260.448 690.765 256.438C690.723 250.047 690.867 243.532 690.765 237.156C690.644 229.63 689.318 225.474 689.318 217.133V160.399C689.318 141.339 688.621 118.929 689.479 100.328C690.116 86.4983 691.632 75.019 692.051 60.2807C692.326 50.6082 692.616 41.0002 692.895 31.3576C693.439 12.5286 691.841 19.4917 688.956 19.4917C687.796 19.4917 685.762 21.3063 684.697 19.1209C683.395 16.4524 683.503 12.8172 681.683 12.8172H664.001H637.277H619.957C613.707 12.8172 608.01 3.26342 601.953 2.80533C601.383 2.76223 590.748 -2.61597 593.434 5.40099C595.51 11.5979 595.282 26.3825 595.282 36.9197C595.282 65.983 596.729 94.9736 596.729 124.431V164.849C596.729 172.762 598.176 176.738 598.176 184.687V204.711C598.176 217.342 598.899 227.18 598.899 239.752Z" fill="white"/>
<path d="M601.069 283.137C600.904 267.544 598.899 254.87 598.899 239.752C598.899 227.18 598.176 217.342 598.176 204.711C598.176 198.036 598.176 191.361 598.176 184.687C598.176 176.738 596.729 172.762 596.729 164.849C596.729 151.376 596.729 137.903 596.729 124.431C596.729 94.9736 595.282 65.983 595.282 36.9197C595.282 26.3825 595.51 11.5979 593.434 5.40099C590.748 -2.61597 601.383 2.76223 601.953 2.80533C608.01 3.26342 613.707 12.8172 619.957 12.8172C625.73 12.8172 631.504 12.8172 637.277 12.8172C646.185 12.8172 655.093 12.8172 664.001 12.8172C669.895 12.8172 675.789 12.8172 681.683 12.8172C683.503 12.8172 683.395 16.4524 684.697 19.1209C685.762 21.3063 687.796 19.4917 688.956 19.4917C691.841 19.4917 693.439 12.5286 692.895 31.3576C692.616 41.0002 692.326 50.6082 692.051 60.2807C691.632 75.019 690.116 86.4983 689.479 100.328C688.621 118.929 689.318 141.339 689.318 160.399C689.318 179.31 689.318 198.221 689.318 217.133C689.318 225.474 690.644 229.63 690.765 237.156C690.867 243.532 690.723 250.047 690.765 256.438C690.791 260.448 692.764 285.219 690.724 284.434C688.072 283.415 685.894 279.799 683.169 279.799C677.369 279.799 671.569 279.799 665.769 279.799C660.28 279.799 655.422 289.811 649.694 289.811C644.336 289.811 638.978 289.811 633.62 289.811C627.221 289.811 621.221 279.799 614.652 279.799C611.374 279.799 601.866 272.786 599.623 283.137" stroke="black" stroke-width="2" stroke-linecap="round"/>
<path d="M633 52.3986C633 61.131 629.369 77.3483 639.444 76.8741C643.288 76.6932 651 74.4158 651 69.5314C651 66.4594 652.65 50.9474 648.111 52.5345C643.201 54.2515 638.762 54.8461 633 54.8461" stroke="black" stroke-width="2" stroke-linecap="round"/>
<path d="M633 101.35C633 113.66 629.325 123.378 640.556 123.378C649.623 123.378 649 119.179 649 109.236C649 107.258 648.921 88.2875 645.444 95.0947C643.158 99.5714 635.723 101.35 631 101.35" stroke="black" stroke-width="2" stroke-linecap="round"/>
<path d="M633 155.196C633 171.797 632.175 172.329 644.556 172.329C650.836 172.329 651.767 167.935 648 162.402C644.272 156.928 650.447 150.301 642 150.301C637.25 150.301 631 147.82 631 155.196" stroke="black" stroke-width="2" stroke-linecap="round"/>
<path d="M634.556 228.622C627.891 228.936 631 219.823 631 211.489C642.908 211.489 645.75 210.565 645 226.175C644.788 230.577 637.025 228.506 634.556 228.622Z" stroke="black" stroke-width="2" stroke-linecap="round"/>
<path d="M3174.9 240.095C3174.9 251.521 3176.61 261.239 3177 272.716C3180.47 268.619 3187.85 272.819 3190.65 272.819C3197.22 272.819 3203.22 281 3209.62 281H3225.69C3231.42 281 3236.28 272.819 3241.77 272.819H3259.17C3261.89 272.819 3264.07 275.773 3266.72 276.606C3268.76 277.247 3266.79 257.006 3266.76 253.73C3266.72 248.507 3266.87 243.184 3266.76 237.973C3266.64 231.823 3265.32 228.427 3265.32 221.611V175.252C3265.32 159.677 3264.62 141.365 3265.48 126.165C3266.12 114.864 3267.63 105.484 3268.05 93.4408C3268.33 85.537 3268.62 77.6858 3268.89 69.8065C3269.44 54.4205 3267.84 60.1104 3264.96 60.1104C3263.8 60.1104 3261.76 61.5932 3260.7 59.8074C3259.4 57.6268 3259.5 54.6563 3257.68 54.6563H3240H3213.28H3195.96C3189.71 54.6563 3184.01 46.8495 3177.95 46.4752C3177.38 46.44 3166.75 42.0452 3169.43 48.5962C3171.51 53.66 3171.28 65.7412 3171.28 74.3515C3171.28 98.1004 3172.73 121.79 3172.73 145.86V178.888C3172.73 185.354 3174.18 188.603 3174.18 195.098V211.461C3174.18 221.782 3174.9 229.821 3174.9 240.095Z" fill="white"/>
<path d="M3177.07 275.546C3176.9 262.805 3174.9 252.448 3174.9 240.095C3174.9 229.821 3174.18 221.782 3174.18 211.461C3174.18 206.007 3174.18 200.553 3174.18 195.098C3174.18 188.603 3172.73 185.354 3172.73 178.888C3172.73 167.879 3172.73 156.87 3172.73 145.86C3172.73 121.79 3171.28 98.1004 3171.28 74.3515C3171.28 65.7412 3171.51 53.66 3169.43 48.5962C3166.75 42.0452 3177.38 46.44 3177.95 46.4752C3184.01 46.8495 3189.71 54.6563 3195.96 54.6563C3201.73 54.6563 3207.5 54.6563 3213.28 54.6563C3222.18 54.6563 3231.09 54.6563 3240 54.6563C3245.89 54.6563 3251.79 54.6563 3257.68 54.6563C3259.5 54.6563 3259.4 57.6268 3260.7 59.8074C3261.76 61.5932 3263.8 60.1104 3264.96 60.1104C3267.84 60.1104 3269.44 54.4205 3268.89 69.8065C3268.62 77.6858 3268.33 85.537 3268.05 93.4408C3267.63 105.484 3266.12 114.864 3265.48 126.165C3264.62 141.365 3265.32 159.677 3265.32 175.252C3265.32 190.705 3265.32 206.158 3265.32 221.611C3265.32 228.427 3266.64 231.823 3266.76 237.973C3266.87 243.183 3266.72 248.507 3266.76 253.73C3266.79 257.006 3268.76 277.247 3266.72 276.606C3264.07 275.773 3261.89 272.819 3259.17 272.819C3253.37 272.819 3247.57 272.819 3241.77 272.819C3236.28 272.819 3231.42 281 3225.69 281C3220.34 281 3214.98 281 3209.62 281C3203.22 281 3197.22 272.819 3190.65 272.819C3187.37 272.819 3177.87 267.088 3175.62 275.546" stroke="black" stroke-width="2" stroke-linecap="round"/>
<path d="M3209 87C3209 94.1356 3205.37 107.388 3215.44 107C3219.29 106.852 3227 104.991 3227 101C3227 98.4897 3228.65 85.8142 3224.11 87.1111C3219.2 88.5141 3214.76 89 3209 89" stroke="black" stroke-width="2" stroke-linecap="round"/>
<path d="M3209 127C3209 137.06 3205.32 145 3216.56 145C3225.62 145 3225 141.569 3225 133.444C3225 131.828 3224.92 116.326 3221.44 121.889C3219.16 125.547 3211.72 127 3207 127" stroke="black" stroke-width="2" stroke-linecap="round"/>
<path d="M3209 171C3209 184.565 3208.17 185 3220.56 185C3226.84 185 3227.77 181.41 3224 176.889C3220.27 172.416 3226.45 167 3218 167C3213.25 167 3207 164.973 3207 171" stroke="black" stroke-width="2" stroke-linecap="round"/>
<path d="M3210.56 231C3203.89 231.256 3207 223.809 3207 217C3218.91 217 3221.75 216.244 3221 229C3220.79 232.597 3213.03 230.905 3210.56 231Z" stroke="black" stroke-width="2" stroke-linecap="round"/>
<path d="M1311.03 258.387C1311.03 265.263 1314.24 271.11 1314.97 278.016C1321.46 275.551 1335.24 278.077 1340.49 278.077C1352.77 278.077 1363.99 283 1375.96 283H1406.02C1416.73 283 1425.81 278.077 1436.08 278.077H1468.62C1473.71 278.077 1477.79 279.855 1482.74 280.356C1486.56 280.742 1482.87 268.563 1482.82 266.592C1482.74 263.449 1483.01 260.246 1482.82 257.111C1482.59 253.411 1480.11 251.367 1480.11 247.266V219.372C1480.11 210.001 1478.81 198.982 1480.42 189.837C1481.61 183.037 1484.44 177.393 1485.22 170.147C1485.74 165.391 1486.28 160.667 1486.8 155.926C1487.82 146.668 1484.83 150.092 1479.44 150.092C1477.27 150.092 1473.47 150.984 1471.47 149.91C1469.04 148.598 1469.24 146.81 1465.84 146.81H1432.77H1382.8H1350.41C1338.72 146.81 1328.07 142.113 1316.74 141.888C1315.68 141.866 1295.79 139.222 1300.81 143.164C1304.69 146.211 1304.27 153.48 1304.27 158.661C1304.27 172.95 1306.97 187.204 1306.97 201.687V221.56C1306.97 225.45 1309.68 227.405 1309.68 231.313V241.159C1309.68 247.369 1311.03 252.206 1311.03 258.387Z" fill="white"/>
<path d="M1315.09 279.718C1314.78 272.052 1311.03 265.82 1311.03 258.387C1311.03 252.206 1309.68 247.369 1309.68 241.159C1309.68 237.877 1309.68 234.595 1309.68 231.313C1309.68 227.405 1306.97 225.45 1306.97 221.56C1306.97 214.935 1306.97 208.311 1306.97 201.687C1306.97 187.204 1304.27 172.95 1304.27 158.661C1304.27 153.48 1304.69 146.211 1300.81 143.164C1295.79 139.222 1315.68 141.866 1316.74 141.888C1328.07 142.113 1338.72 146.81 1350.41 146.81C1361.21 146.81 1372 146.81 1382.8 146.81C1399.46 146.81 1416.11 146.81 1432.77 146.81C1443.79 146.81 1454.81 146.81 1465.84 146.81C1469.24 146.81 1469.04 148.598 1471.47 149.91C1473.47 150.984 1477.27 150.092 1479.44 150.092C1484.83 150.092 1487.82 146.668 1486.8 155.926C1486.28 160.667 1485.74 165.391 1485.22 170.147C1484.44 177.393 1481.61 183.037 1480.42 189.837C1478.81 198.982 1480.11 210.001 1480.11 219.372C1480.11 228.67 1480.11 237.968 1480.11 247.266C1480.11 251.367 1482.59 253.411 1482.82 257.111C1483.01 260.246 1482.74 263.449 1482.82 266.592C1482.87 268.563 1486.56 280.742 1482.74 280.356C1477.79 279.855 1473.71 278.077 1468.62 278.077C1457.77 278.077 1446.92 278.077 1436.08 278.077C1425.81 278.077 1416.73 283 1406.02 283C1396 283 1385.98 283 1375.96 283C1363.99 283 1352.77 278.077 1340.49 278.077C1334.36 278.077 1316.58 274.629 1312.38 279.718" stroke="black" stroke-width="2" stroke-linecap="round"/>
<path d="M1348 147C1348 174.963 1350 202.975 1350 230.556C1350 242.093 1352 253.036 1352 264.889C1352 269.343 1350.25 278.138 1353.56 281.444C1356.14 284.024 1358 271.438 1358 269.889C1358 250.226 1352 232.977 1352 213C1352 194.635 1358.29 159.295 1346 147" stroke="black" stroke-width="2" stroke-linecap="round"/>
<path d="M1352 183C1363.73 182.521 1373.72 179 1386 179C1394.67 179 1403.33 179 1412 179" stroke="black" stroke-width="2" stroke-linecap="round"/>
<path d="M1348 205C1371.3 205 1392.61 201 1416 201" stroke="black" stroke-width="2" stroke-linecap="round"/>
<path d="M1392 181C1393.6 189.215 1394 196.705 1394 205" stroke="black" stroke-width="2" stroke-linecap="round"/>
<path d="M1352 239C1361.57 239 1379.9 242.098 1386.89 235.889C1392.58 230.83 1408.69 236.656 1416 233" stroke="black" stroke-width="2" stroke-linecap="round"/>
<path d="M1352 263C1367.53 263 1375.53 258.992 1389.11 255.111C1396.7 252.943 1408.02 255 1416 255" stroke="black" stroke-width="2" stroke-linecap="round"/>
<path d="M1396 231C1396 234.862 1393.47 254.734 1398 257" stroke="black" stroke-width="2" stroke-linecap="round"/>
<path d="M1413 147C1413 170.601 1417 191.594 1417 215C1417 226.599 1421 233.214 1421 245C1421 255 1421 265 1421 275C1421 282.874 1423 274.302 1423 271C1423 265.815 1423 260.63 1423 255.444C1423 246.43 1426.31 228.434 1421 221C1415.42 213.195 1419 193.798 1419 184.333C1419 172.556 1419 160.778 1419 149" stroke="black" stroke-width="2" stroke-linecap="round"/>
<path d="M2958.03 260.387C2958.03 267.263 2961.24 273.11 2961.97 280.016C2968.46 277.551 2982.24 280.077 2987.49 280.077C2999.77 280.077 3010.99 285 3022.96 285H3053.02C3063.73 285 3072.81 280.077 3083.08 280.077H3115.62C3120.71 280.077 3124.79 281.855 3129.74 282.356C3133.56 282.742 3129.87 270.563 3129.82 268.592C3129.74 265.449 3130.01 262.246 3129.82 259.111C3129.59 255.411 3127.11 253.367 3127.11 249.266V221.372C3127.11 212.001 3125.81 200.982 3127.42 191.837C3128.61 185.037 3131.44 179.393 3132.22 172.147C3132.74 167.391 3133.28 162.667 3133.8 157.926C3134.82 148.668 3131.83 152.092 3126.44 152.092C3124.27 152.092 3120.47 152.984 3118.47 151.91C3116.04 150.598 3116.24 148.81 3112.84 148.81H3079.77H3029.8H2997.41C2985.72 148.81 2975.07 144.113 2963.74 143.888C2962.68 143.866 2942.79 141.222 2947.81 145.164C2951.69 148.211 2951.27 155.48 2951.27 160.661C2951.27 174.95 2953.97 189.204 2953.97 203.687V223.56C2953.97 227.45 2956.68 229.405 2956.68 233.313V243.159C2956.68 249.369 2958.03 254.206 2958.03 260.387Z" fill="white"/>
<path d="M2962.09 281.718C2961.78 274.052 2958.03 267.82 2958.03 260.387C2958.03 254.206 2956.68 249.369 2956.68 243.159C2956.68 239.877 2956.68 236.595 2956.68 233.313C2956.68 229.405 2953.97 227.45 2953.97 223.56C2953.97 216.935 2953.97 210.311 2953.97 203.687C2953.97 189.204 2951.27 174.95 2951.27 160.661C2951.27 155.48 2951.69 148.211 2947.81 145.164C2942.79 141.222 2962.68 143.866 2963.74 143.888C2975.07 144.113 2985.72 148.81 2997.41 148.81C3008.21 148.81 3019 148.81 3029.8 148.81C3046.46 148.81 3063.11 148.81 3079.77 148.81C3090.79 148.81 3101.81 148.81 3112.84 148.81C3116.24 148.81 3116.04 150.598 3118.47 151.91C3120.47 152.984 3124.27 152.092 3126.44 152.092C3131.83 152.092 3134.82 148.668 3133.8 157.926C3133.28 162.667 3132.74 167.391 3132.22 172.147C3131.44 179.393 3128.61 185.037 3127.42 191.837C3125.81 200.982 3127.11 212.001 3127.11 221.372C3127.11 230.67 3127.11 239.968 3127.11 249.266C3127.11 253.367 3129.59 255.411 3129.82 259.111C3130.01 262.246 3129.74 265.449 3129.82 268.592C3129.87 270.563 3133.56 282.742 3129.74 282.356C3124.79 281.855 3120.71 280.077 3115.62 280.077C3104.77 280.077 3093.92 280.077 3083.08 280.077C3072.81 280.077 3063.73 285 3053.02 285C3043 285 3032.98 285 3022.96 285C3010.99 285 2999.77 280.077 2987.49 280.077C2981.36 280.077 2963.58 276.629 2959.38 281.718" stroke="black" stroke-width="2" stroke-linecap="round"/>
<path d="M2995 149C2995 176.963 2997 204.975 2997 232.556C2997 244.093 2999 255.036 2999 266.889C2999 271.343 2997.25 280.138 3000.56 283.444C3003.14 286.024 3005 273.438 3005 271.889C3005 252.226 2999 234.977 2999 215C2999 196.635 3005.29 161.295 2993 149" stroke="black" stroke-width="2" stroke-linecap="round"/>
<path d="M2999 185C3010.73 184.521 3020.72 181 3033 181C3041.67 181 3050.33 181 3059 181" stroke="black" stroke-width="2" stroke-linecap="round"/>
<path d="M2995 207C3018.3 207 3039.61 203 3063 203" stroke="black" stroke-width="2" stroke-linecap="round"/>
<path d="M3039 183C3040.6 191.215 3041 198.705 3041 207" stroke="black" stroke-width="2" stroke-linecap="round"/>
<path d="M2999 241C3008.57 241 3026.9 244.098 3033.89 237.889C3039.58 232.83 3055.69 238.656 3063 235" stroke="black" stroke-width="2" stroke-linecap="round"/>
<path d="M2999 265C3014.53 265 3022.53 260.992 3036.11 257.111C3043.7 254.943 3055.02 257 3063 257" stroke="black" stroke-width="2" stroke-linecap="round"/>
<path d="M3043 233C3043 236.862 3040.47 256.734 3045 259" stroke="black" stroke-width="2" stroke-linecap="round"/>
<path d="M3060 149C3060 172.601 3064 193.594 3064 217C3064 228.599 3068 235.214 3068 247C3068 257 3068 267 3068 277C3068 284.874 3070 276.302 3070 273C3070 267.815 3070 262.63 3070 257.444C3070 248.43 3073.31 230.434 3068 223C3062.42 215.195 3066 195.798 3066 186.333C3066 174.556 3066 162.778 3066 151" stroke="black" stroke-width="2" stroke-linecap="round"/>
<path d="M2954.03 123.387C2954.03 130.263 2957.24 136.11 2957.97 143.016C2964.46 140.551 2978.24 143.077 2983.49 143.077C2995.77 143.077 3006.99 148 3018.96 148H3049.02C3059.73 148 3068.81 143.077 3079.08 143.077H3111.62C3116.71 143.077 3120.79 144.855 3125.74 145.356C3129.56 145.742 3125.87 133.563 3125.82 131.592C3125.74 128.449 3126.01 125.246 3125.82 122.111C3125.59 118.411 3123.11 116.367 3123.11 112.266V84.3718C3123.11 75.0006 3121.81 63.9824 3123.42 54.8367C3124.61 48.037 3127.44 42.393 3128.22 35.1466C3128.74 30.3909 3129.28 25.6669 3129.8 20.9259C3130.82 11.6683 3127.83 15.0918 3122.44 15.0918C3120.27 15.0918 3116.47 15.984 3114.47 14.9095C3112.04 13.5975 3112.24 11.8102 3108.84 11.8102H3075.77H3025.8H2993.41C2981.72 11.8102 2971.07 7.11286 2959.74 6.88763C2958.68 6.86644 2938.79 4.22213 2943.81 8.16384C2947.69 11.2107 2947.27 18.4799 2947.27 23.6607C2947.27 37.9503 2949.97 52.2041 2949.97 66.6872V86.5596C2949.97 90.4503 2952.68 92.4054 2952.68 96.3135V106.159C2952.68 112.369 2954.03 117.206 2954.03 123.387Z" fill="white"/>
<path d="M2958.09 144.718C2957.78 137.052 2954.03 130.82 2954.03 123.387C2954.03 117.206 2952.68 112.369 2952.68 106.159C2952.68 102.877 2952.68 99.5952 2952.68 96.3135C2952.68 92.4054 2949.97 90.4503 2949.97 86.5596C2949.97 79.9355 2949.97 73.3113 2949.97 66.6872C2949.97 52.2041 2947.27 37.9503 2947.27 23.6607C2947.27 18.4799 2947.69 11.2107 2943.81 8.16384C2938.79 4.22213 2958.68 6.86644 2959.74 6.88763C2971.07 7.11286 2981.72 11.8102 2993.41 11.8102C3004.21 11.8102 3015 11.8102 3025.8 11.8102C3042.46 11.8102 3059.11 11.8102 3075.77 11.8102C3086.79 11.8102 3097.81 11.8102 3108.84 11.8102C3112.24 11.8102 3112.04 13.5975 3114.47 14.9095C3116.47 15.984 3120.27 15.0918 3122.44 15.0918C3127.83 15.0918 3130.82 11.6683 3129.8 20.9259C3129.28 25.6669 3128.74 30.3909 3128.22 35.1466C3127.44 42.393 3124.61 48.037 3123.42 54.8367C3121.81 63.9824 3123.11 75.0006 3123.11 84.3718C3123.11 93.6699 3123.11 102.968 3123.11 112.266C3123.11 116.367 3125.59 118.411 3125.82 122.111C3126.01 125.246 3125.74 128.449 3125.82 131.592C3125.87 133.563 3129.56 145.742 3125.74 145.356C3120.79 144.855 3116.71 143.077 3111.62 143.077C3100.77 143.077 3089.92 143.077 3079.08 143.077C3068.81 143.077 3059.73 148 3049.02 148C3039 148 3028.98 148 3018.96 148C3006.99 148 2995.77 143.077 2983.49 143.077C2977.36 143.077 2959.58 139.629 2955.38 144.718" stroke="black" stroke-width="2" stroke-linecap="round"/>
<path d="M2991 12C2991 39.9626 2993 67.9755 2993 95.5556C2993 107.093 2995 118.036 2995 129.889C2995 134.343 2993.25 143.138 2996.56 146.444C2999.14 149.024 3001 136.438 3001 134.889C3001 115.226 2995 97.9765 2995 78C2995 59.6349 3001.29 24.2948 2989 12" stroke="black" stroke-width="2" stroke-linecap="round"/>
<path d="M2995 48C3006.73 47.5212 3016.72 44 3029 44C3037.67 44 3046.33 44 3055 44" stroke="black" stroke-width="2" stroke-linecap="round"/>
<path d="M2991 70C3014.3 70 3035.61 66 3059 66" stroke="black" stroke-width="2" stroke-linecap="round"/>
<path d="M3035 46C3036.6 54.2147 3037 61.7054 3037 70" stroke="black" stroke-width="2" stroke-linecap="round"/>
<path d="M2995 104C3004.57 104 3022.9 107.098 3029.89 100.889C3035.58 95.8296 3051.69 101.656 3059 98" stroke="black" stroke-width="2" stroke-linecap="round"/>
<path d="M2995 128C3010.53 128 3018.53 123.992 3032.11 120.111C3039.7 117.943 3051.02 120 3059 120" stroke="black" stroke-width="2" stroke-linecap="round"/>
<path d="M3039 96C3039 99.862 3036.47 119.734 3041 122" stroke="black" stroke-width="2" stroke-linecap="round"/>
<path d="M3056 12C3056 35.6009 3060 56.5935 3060 80C3060 91.5989 3064 98.2141 3064 110C3064 120 3064 130 3064 140C3064 147.874 3066 139.302 3066 136C3066 130.815 3066 125.63 3066 120.444C3066 111.43 3069.31 93.4337 3064 86C3058.42 78.195 3062 58.7976 3062 49.3333C3062 37.5556 3062 25.7778 3062 14" stroke="black" stroke-width="2" stroke-linecap="round"/>
<path d="M139.077 47.9318C120.125 28.302 79.9361 12.7231 55.6374 34.7422C52.7438 40.7513 46.6009 47.9418 39.3471 50.2399C32.5649 52.3887 29.9922 63.8214 21.8621 66.3972C13.013 69.2008 18.9479 114.098 18.9479 122.82C18.9479 128.469 18.6064 148.74 24.7762 151.672C27.8285 153.122 36.433 177.036 36.433 180.524C36.433 188.775 58.3589 201.436 67.1937 202.708C80.0313 204.557 88.6562 204.299 100.707 202.708C111.624 201.267 120.608 197.802 128.391 192.322C141.025 183.427 145.478 181.369 147.172 167.957C147.863 162.478 153 159.355 153 153.082V137.951V106.919C153 90.4409 151.864 61.1766 139.077 47.9318Z" fill="white"/>
<path d="M53.918 36.3908C77.9973 11.9785 119.67 27.8314 139.077 47.9318C151.864 61.1766 153 90.4409 153 106.919C153 117.263 153 127.607 153 137.951C153 142.995 153 148.039 153 153.082C153 159.355 147.863 162.478 147.172 167.957C145.478 181.369 141.025 183.427 128.391 192.322C120.608 197.802 111.624 201.267 100.707 202.708C88.6562 204.299 80.0313 204.557 67.1937 202.708C58.3589 201.436 36.433 188.775 36.433 180.524C36.433 177.036 27.8285 153.122 24.7762 151.672C18.6063 148.74 18.9479 128.469 18.9479 122.82C18.9479 114.098 13.013 69.2008 21.8621 66.3972C29.9922 63.8214 32.5649 52.3887 39.3471 50.2399C47.8498 47.5461 54.8261 38.1302 56.8322 31.7745" stroke="black" stroke-width="2" stroke-linecap="round"/>
<path d="M86 249.292C86 232.674 82.8219 217.95 82.1314 201.737C95.4418 201.846 96 218.588 96 230.181C96 246.558 99.2698 261.673 98 278.181C97.6434 282.817 90.7095 282.4 87.2222 281.625C84.9125 281.112 86 274.614 86 272.736V249.292Z" fill="white"/>
<path d="M82 195.736C82 214.388 86 230.649 86 249.292C86 257.107 86 264.922 86 272.736C86 274.614 84.9125 281.112 87.2222 281.625C90.7095 282.4 97.6434 282.817 98 278.181C99.2698 261.673 96 246.558 96 230.181C96 218.55 95.4382 201.736 82 201.736" stroke="black" stroke-width="2" stroke-linecap="round"/>
<path d="M155.471 126C144.674 126 139.093 127.864 133.329 132.35C127.406 133.952 127.429 134.574 124.748 138.05C122.583 140.858 117.873 143.994 116.229 146.553C112.4 152.51 109 157.102 109 163.959C109 168.173 110.564 172.018 114.809 175.54C117.812 178.032 115.197 178.931 120.101 180.762C122.064 181.495 125.74 183.309 127.072 184.377C135.327 190.994 153.974 183.184 161.925 181.699C169.171 180.346 181.94 170.9 183.224 166.904C184.354 163.388 188 161.764 188 157.331V147.691C188 140.085 185.151 132.543 171.735 128.678C168.123 127.637 169.839 126 164.765 126H155.471Z" fill="white"/>
<path d="M132.235 133.23C138.41 128.107 143.994 126 155.471 126C158.569 126 161.667 126 164.765 126C169.839 126 168.123 127.637 171.735 128.678C185.151 132.543 188 140.085 188 147.691C188 150.904 188 154.117 188 157.331C188 161.764 184.354 163.388 183.224 166.904C181.94 170.9 169.171 180.346 161.925 181.699C153.974 183.184 135.327 190.994 127.072 184.377C125.74 183.309 122.064 181.495 120.101 180.762C115.197 178.931 117.812 178.032 114.809 175.54C110.564 172.018 109 168.173 109 163.959C109 157.102 112.4 152.51 116.229 146.553C117.873 143.994 122.583 140.858 124.748 138.05C127.603 134.349 127.391 133.884 134.559 132.025" stroke="black" stroke-width="2" stroke-linecap="round"/>
<path d="M1.82802 99.7473C2.43473 103.779 4.01068 105.744 7.37236 107.609C8.79011 109.718 9.2099 109.669 11.7143 110.448C13.7371 111.077 16.1256 112.635 17.9502 113.085C22.1992 114.133 25.5001 115.109 30.1428 114.67C32.9966 114.4 35.5121 113.57 37.6588 111.76C39.1775 110.479 39.9328 111.398 40.8972 109.449C41.2831 108.67 42.3053 107.181 42.9535 106.615C46.97 103.109 40.6336 96.646 39.1816 93.7719C37.8582 91.1526 30.7445 86.9894 27.9663 86.7657C25.5219 86.5688 24.2176 85.3112 21.2154 85.595L14.6876 86.2121C9.53722 86.6989 4.59076 88.2456 2.72729 93.5025C2.22549 94.9181 1.02056 94.3819 1.30573 96.2768L1.82802 99.7473Z" fill="white"/>
<path d="M8.02961 107.961C4.21323 105.983 2.47297 104.033 1.82802 99.7473C1.65393 98.5905 1.47983 97.4336 1.30573 96.2768C1.02056 94.3819 2.22549 94.9181 2.72729 93.5025C4.59076 88.2456 9.53722 86.6989 14.6876 86.2121C16.8635 86.0064 19.0395 85.8007 21.2154 85.595C24.2176 85.3112 25.5219 86.5688 27.9663 86.7657C30.7445 86.9894 37.8582 91.1526 39.1816 93.7719C40.6336 96.646 46.97 103.109 42.9535 106.615C42.3053 107.181 41.2831 108.67 40.8972 109.449C39.9328 111.398 39.1775 110.479 37.6588 111.76C35.5121 113.57 32.9966 114.4 30.1428 114.67C25.5001 115.109 22.1992 114.133 17.9502 113.085C16.1256 112.635 13.7371 111.077 11.7143 110.448C9.04747 109.619 8.74442 109.728 7.08306 107.17" stroke="black" stroke-width="2" stroke-linecap="round"/>
<path d="M3528.08 49.9318C3509.12 30.302 3468.94 14.7231 3444.64 36.7422C3441.74 42.7513 3435.6 49.9418 3428.35 52.2399C3421.56 54.3887 3418.99 65.8214 3410.86 68.3972C3402.01 71.2008 3407.95 116.098 3407.95 124.82C3407.95 130.469 3407.61 150.74 3413.78 153.672C3416.83 155.122 3425.43 179.036 3425.43 182.524C3425.43 190.775 3447.36 203.436 3456.19 204.708C3469.03 206.557 3477.66 206.299 3489.71 204.708C3500.62 203.267 3509.61 199.802 3517.39 194.322C3530.03 185.427 3534.48 183.369 3536.17 169.957C3536.86 164.478 3542 161.355 3542 155.082V139.951V108.919C3542 92.4409 3540.86 63.1766 3528.08 49.9318Z" fill="white"/>
<path d="M3442.92 38.3908C3467 13.9785 3508.67 29.8314 3528.08 49.9318C3540.86 63.1766 3542 92.4409 3542 108.919C3542 119.263 3542 129.607 3542 139.951C3542 144.995 3542 150.039 3542 155.082C3542 161.355 3536.86 164.478 3536.17 169.957C3534.48 183.369 3530.03 185.427 3517.39 194.322C3509.61 199.802 3500.62 203.267 3489.71 204.708C3477.66 206.299 3469.03 206.557 3456.19 204.708C3447.36 203.436 3425.43 190.775 3425.43 182.524C3425.43 179.036 3416.83 155.122 3413.78 153.672C3407.61 150.74 3407.95 130.469 3407.95 124.82C3407.95 116.098 3402.01 71.2008 3410.86 68.3972C3418.99 65.8214 3421.56 54.3887 3428.35 52.2399C3436.85 49.5461 3443.83 40.1302 3445.83 33.7745" stroke="black" stroke-width="2" stroke-linecap="round"/>
<path d="M3475 251.292C3475 234.674 3471.82 219.95 3471.13 203.737C3484.44 203.846 3485 220.588 3485 232.181C3485 248.558 3488.27 263.673 3487 280.181C3486.64 284.817 3479.71 284.4 3476.22 283.625C3473.91 283.112 3475 276.614 3475 274.736V251.292Z" fill="white"/>
<path d="M3471 197.736C3471 216.388 3475 232.649 3475 251.292C3475 259.107 3475 266.922 3475 274.736C3475 276.614 3473.91 283.112 3476.22 283.625C3479.71 284.4 3486.64 284.817 3487 280.181C3488.27 263.673 3485 248.558 3485 232.181C3485 220.55 3484.44 203.736 3471 203.736" stroke="black" stroke-width="2" stroke-linecap="round"/>
<path d="M3544.47 128C3533.67 128 3528.09 129.864 3522.33 134.35C3516.41 135.952 3516.43 136.574 3513.75 140.05C3511.58 142.858 3506.87 145.994 3505.23 148.553C3501.4 154.51 3498 159.102 3498 165.959C3498 170.173 3499.56 174.018 3503.81 177.54C3506.81 180.032 3504.2 180.931 3509.1 182.762C3511.06 183.495 3514.74 185.309 3516.07 186.377C3524.33 192.994 3542.97 185.184 3550.92 183.699C3558.17 182.346 3570.94 172.9 3572.22 168.904C3573.35 165.388 3577 163.764 3577 159.331V149.691C3577 142.085 3574.15 134.543 3560.74 130.678C3557.12 129.637 3558.84 128 3553.76 128H3544.47Z" fill="white"/>
<path d="M3521.24 135.23C3527.41 130.107 3532.99 128 3544.47 128C3547.57 128 3550.67 128 3553.76 128C3558.84 128 3557.12 129.637 3560.74 130.678C3574.15 134.543 3577 142.085 3577 149.691C3577 152.904 3577 156.117 3577 159.331C3577 163.764 3573.35 165.388 3572.22 168.904C3570.94 172.9 3558.17 182.346 3550.92 183.699C3542.97 185.184 3524.33 192.994 3516.07 186.377C3514.74 185.309 3511.06 183.495 3509.1 182.762C3504.2 180.931 3506.81 180.032 3503.81 177.54C3499.56 174.018 3498 170.173 3498 165.959C3498 159.102 3501.4 154.51 3505.23 148.553C3506.87 145.994 3511.58 142.858 3513.75 140.05C3516.6 136.349 3516.39 135.884 3523.56 134.025" stroke="black" stroke-width="2" stroke-linecap="round"/>
<path d="M3390.83 101.747C3391.43 105.779 3393.01 107.744 3396.37 109.609C3397.79 111.718 3398.21 111.669 3400.71 112.448C3402.74 113.077 3405.13 114.635 3406.95 115.085C3411.2 116.133 3414.5 117.109 3419.14 116.67C3422 116.4 3424.51 115.57 3426.66 113.76C3428.18 112.479 3428.93 113.398 3429.9 111.449C3430.28 110.67 3431.31 109.181 3431.95 108.615C3435.97 105.109 3429.63 98.646 3428.18 95.7719C3426.86 93.1526 3419.74 88.9894 3416.97 88.7657C3414.52 88.5688 3413.22 87.3112 3410.22 87.595L3403.69 88.2121C3398.54 88.6989 3393.59 90.2456 3391.73 95.5025C3391.23 96.9181 3390.02 96.3819 3390.31 98.2768L3390.83 101.747Z" fill="white"/>
<path d="M3397.03 109.961C3393.21 107.983 3391.47 106.033 3390.83 101.747C3390.65 100.59 3390.48 99.4336 3390.31 98.2768C3390.02 96.3819 3391.23 96.9181 3391.73 95.5025C3393.59 90.2456 3398.54 88.6989 3403.69 88.2121C3405.86 88.0064 3408.04 87.8007 3410.22 87.595C3413.22 87.3112 3414.52 88.5688 3416.97 88.7657C3419.74 88.9894 3426.86 93.1526 3428.18 95.7719C3429.63 98.646 3435.97 105.109 3431.95 108.615C3431.31 109.181 3430.28 110.67 3429.9 111.449C3428.93 113.398 3428.18 112.479 3426.66 113.76C3424.51 115.57 3422 116.4 3419.14 116.67C3414.5 117.109 3411.2 116.133 3406.95 115.085C3405.13 114.635 3402.74 113.077 3400.71 112.448C3398.05 111.619 3397.74 111.728 3396.08 109.17" stroke="black" stroke-width="2" stroke-linecap="round"/>
<path d="M1625.54 189.56C1633.11 181.719 1649.17 175.495 1658.88 184.291C1660.03 186.692 1662.49 189.564 1665.38 190.482C1668.09 191.341 1669.12 195.908 1672.37 196.937C1675.9 198.057 1673.53 215.992 1673.53 219.476C1673.53 221.733 1673.67 229.83 1671.2 231.002C1669.98 231.581 1666.55 241.134 1666.55 242.527C1666.55 245.824 1657.79 250.881 1654.26 251.389C1649.13 252.128 1645.69 252.025 1640.87 251.389C1636.51 250.814 1632.92 249.429 1629.81 247.24C1624.77 243.687 1622.99 242.865 1622.31 237.507C1622.03 235.318 1619.98 234.071 1619.98 231.565V225.52V213.124C1619.98 206.541 1620.44 194.851 1625.54 189.56Z" fill="white"/>
<path d="M1659.56 184.95C1649.94 175.198 1633.3 181.531 1625.54 189.56C1620.44 194.851 1619.98 206.541 1619.98 213.124C1619.98 217.256 1619.98 221.388 1619.98 225.52C1619.98 227.535 1619.98 229.55 1619.98 231.565C1619.98 234.071 1622.03 235.318 1622.31 237.507C1622.99 242.865 1624.77 243.687 1629.81 247.24C1632.92 249.429 1636.51 250.814 1640.87 251.389C1645.69 252.025 1649.13 252.128 1654.26 251.389C1657.79 250.881 1666.55 245.824 1666.55 242.527C1666.55 241.134 1669.98 231.581 1671.2 231.002C1673.67 229.83 1673.53 221.733 1673.53 219.476C1673.53 215.992 1675.9 198.057 1672.37 196.937C1669.12 195.908 1668.09 191.341 1665.38 190.482C1661.99 189.406 1659.2 185.645 1658.4 183.106" stroke="black" stroke-width="2" stroke-linecap="round"/>
<path d="M1646.75 269.998C1646.75 263.36 1648.02 257.478 1648.29 251.001C1642.97 251.045 1642.75 257.733 1642.75 262.364C1642.75 268.906 1641.45 274.944 1641.95 281.539C1642.1 283.391 1644.86 283.224 1646.26 282.915C1647.18 282.71 1646.75 280.114 1646.75 279.364V269.998Z" fill="white"/>
<path d="M1648.34 248.604C1648.34 256.055 1646.75 262.551 1646.75 269.998C1646.75 273.12 1646.75 276.242 1646.75 279.364C1646.75 280.114 1647.18 282.71 1646.26 282.915C1644.86 283.224 1642.1 283.391 1641.95 281.539C1641.45 274.944 1642.75 268.906 1642.75 262.364C1642.75 257.718 1642.98 251.001 1648.34 251.001" stroke="black" stroke-width="2" stroke-linecap="round"/>
<path d="M1618.99 220.746C1623.31 220.746 1625.54 221.491 1627.84 223.283C1630.21 223.923 1630.2 224.172 1631.27 225.56C1632.13 226.682 1634.01 227.935 1634.67 228.957C1636.2 231.336 1637.56 233.171 1637.56 235.91C1637.56 237.593 1636.93 239.129 1635.24 240.536C1634.04 241.532 1635.08 241.891 1633.12 242.622C1632.34 242.915 1630.87 243.64 1630.34 244.067C1627.04 246.71 1619.59 243.59 1616.42 242.997C1613.52 242.456 1608.42 238.683 1607.91 237.087C1607.46 235.682 1606 235.033 1606 233.262V229.411C1606 226.373 1607.14 223.36 1612.5 221.816C1613.94 221.4 1613.25 220.746 1615.28 220.746H1618.99Z" fill="white"/>
<path d="M1628.28 223.635C1625.81 221.588 1623.58 220.746 1618.99 220.746C1617.76 220.746 1616.52 220.746 1615.28 220.746C1613.25 220.746 1613.94 221.4 1612.5 221.816C1607.14 223.36 1606 226.373 1606 229.411C1606 230.695 1606 231.979 1606 233.262C1606 235.033 1607.46 235.682 1607.91 237.087C1608.42 238.683 1613.52 242.456 1616.42 242.997C1619.59 243.59 1627.04 246.71 1630.34 244.067C1630.87 243.64 1632.34 242.915 1633.12 242.622C1635.08 241.891 1634.04 241.532 1635.24 240.536C1636.93 239.129 1637.56 237.593 1637.56 235.91C1637.56 233.171 1636.2 231.336 1634.67 228.957C1634.01 227.935 1632.13 226.682 1631.27 225.56C1630.13 224.082 1630.21 223.896 1627.35 223.153" stroke="black" stroke-width="2" stroke-linecap="round"/>
<path d="M1680.37 210.259C1680.13 211.87 1679.5 212.654 1678.16 213.4C1677.59 214.242 1677.42 214.223 1676.42 214.534C1675.61 214.785 1674.66 215.407 1673.93 215.587C1672.23 216.006 1670.91 216.396 1669.06 216.22C1667.92 216.113 1666.91 215.781 1666.06 215.058C1665.45 214.546 1665.15 214.913 1664.76 214.135C1664.61 213.823 1664.2 213.229 1663.94 213.003C1662.34 211.602 1664.87 209.02 1665.45 207.872C1665.98 206.826 1668.82 205.163 1669.93 205.073C1670.91 204.995 1671.43 204.492 1672.63 204.606L1675.23 204.852C1677.29 205.047 1679.27 205.664 1680.01 207.764C1680.21 208.33 1680.69 208.116 1680.58 208.873L1680.37 210.259Z" fill="white"/>
<path d="M1677.89 213.54C1679.42 212.75 1680.11 211.971 1680.37 210.259C1680.44 209.797 1680.51 209.335 1680.58 208.873C1680.69 208.116 1680.21 208.33 1680.01 207.764C1679.27 205.664 1677.29 205.047 1675.23 204.852C1674.36 204.77 1673.5 204.688 1672.63 204.606C1671.43 204.492 1670.91 204.995 1669.93 205.073C1668.82 205.163 1665.98 206.826 1665.45 207.872C1664.87 209.02 1662.34 211.602 1663.94 213.003C1664.2 213.229 1664.61 213.823 1664.76 214.135C1665.15 214.913 1665.45 214.546 1666.06 215.058C1666.91 215.781 1667.92 216.113 1669.06 216.22C1670.91 216.396 1672.23 216.006 1673.93 215.587C1674.66 215.407 1675.61 214.785 1676.42 214.534C1677.49 214.203 1677.61 214.246 1678.27 213.224" stroke="black" stroke-width="2" stroke-linecap="round"/>
<path d="M4058.54 186.56C4066.11 178.719 4082.17 172.495 4091.88 181.291C4093.03 183.692 4095.49 186.564 4098.38 187.482C4101.09 188.341 4102.12 192.908 4105.37 193.937C4108.9 195.057 4106.53 212.992 4106.53 216.476C4106.53 218.733 4106.67 226.83 4104.2 228.002C4102.98 228.581 4099.55 238.134 4099.55 239.527C4099.55 242.824 4090.79 247.881 4087.26 248.389C4082.13 249.128 4078.69 249.025 4073.87 248.389C4069.51 247.814 4065.92 246.429 4062.81 244.24C4057.77 240.687 4055.99 239.865 4055.31 234.507C4055.03 232.318 4052.98 231.071 4052.98 228.565V222.52V210.124C4052.98 203.541 4053.44 191.851 4058.54 186.56Z" fill="white"/>
<path d="M4092.56 181.95C4082.94 172.198 4066.3 178.531 4058.54 186.56C4053.44 191.851 4052.98 203.541 4052.98 210.124C4052.98 214.256 4052.98 218.388 4052.98 222.52C4052.98 224.535 4052.98 226.55 4052.98 228.565C4052.98 231.071 4055.03 232.318 4055.31 234.507C4055.99 239.865 4057.77 240.687 4062.81 244.24C4065.92 246.429 4069.51 247.814 4073.87 248.389C4078.69 249.025 4082.13 249.128 4087.26 248.389C4090.79 247.881 4099.55 242.824 4099.55 239.527C4099.55 238.134 4102.98 228.581 4104.2 228.002C4106.67 226.83 4106.53 218.733 4106.53 216.476C4106.53 212.992 4108.9 195.057 4105.37 193.937C4102.12 192.908 4101.09 188.341 4098.38 187.482C4094.99 186.406 4092.2 182.645 4091.4 180.106" stroke="black" stroke-width="2" stroke-linecap="round"/>
<path d="M4079.75 266.998C4079.75 260.36 4081.02 254.478 4081.29 248.001C4075.97 248.045 4075.75 254.733 4075.75 259.364C4075.75 265.906 4074.45 271.944 4074.95 278.539C4075.1 280.391 4077.86 280.224 4079.26 279.915C4080.18 279.71 4079.75 277.114 4079.75 276.364V266.998Z" fill="white"/>
<path d="M4081.34 245.604C4081.34 253.055 4079.75 259.551 4079.75 266.998C4079.75 270.12 4079.75 273.242 4079.75 276.364C4079.75 277.114 4080.18 279.71 4079.26 279.915C4077.86 280.224 4075.1 280.391 4074.95 278.539C4074.45 271.944 4075.75 265.906 4075.75 259.364C4075.75 254.718 4075.98 248.001 4081.34 248.001" stroke="black" stroke-width="2" stroke-linecap="round"/>
<path d="M4051.99 217.746C4056.31 217.746 4058.54 218.491 4060.84 220.283C4063.21 220.923 4063.2 221.172 4064.27 222.56C4065.13 223.682 4067.01 224.935 4067.67 225.957C4069.2 228.336 4070.56 230.171 4070.56 232.91C4070.56 234.593 4069.93 236.129 4068.24 237.536C4067.04 238.532 4068.08 238.891 4066.12 239.622C4065.34 239.915 4063.87 240.64 4063.34 241.067C4060.04 243.71 4052.59 240.59 4049.42 239.997C4046.52 239.456 4041.42 235.683 4040.91 234.087C4040.46 232.682 4039 232.033 4039 230.262V226.411C4039 223.373 4040.14 220.36 4045.5 218.816C4046.94 218.4 4046.25 217.746 4048.28 217.746H4051.99Z" fill="white"/>
<path d="M4061.28 220.635C4058.81 218.588 4056.58 217.746 4051.99 217.746C4050.76 217.746 4049.52 217.746 4048.28 217.746C4046.25 217.746 4046.94 218.4 4045.5 218.816C4040.14 220.36 4039 223.373 4039 226.411C4039 227.695 4039 228.979 4039 230.262C4039 232.033 4040.46 232.682 4040.91 234.087C4041.42 235.683 4046.52 239.456 4049.42 239.997C4052.59 240.59 4060.04 243.71 4063.34 241.067C4063.87 240.64 4065.34 239.915 4066.12 239.622C4068.08 238.891 4067.04 238.532 4068.24 237.536C4069.93 236.129 4070.56 234.593 4070.56 232.91C4070.56 230.171 4069.2 228.336 4067.67 225.957C4067.01 224.935 4065.13 223.682 4064.27 222.56C4063.13 221.082 4063.21 220.896 4060.35 220.153" stroke="black" stroke-width="2" stroke-linecap="round"/>
<path d="M4113.37 207.259C4113.13 208.87 4112.5 209.654 4111.16 210.4C4110.59 211.242 4110.42 211.223 4109.42 211.534C4108.61 211.785 4107.66 212.407 4106.93 212.587C4105.23 213.006 4103.91 213.396 4102.06 213.22C4100.92 213.113 4099.91 212.781 4099.06 212.058C4098.45 211.546 4098.15 211.913 4097.76 211.135C4097.61 210.823 4097.2 210.229 4096.94 210.003C4095.34 208.602 4097.87 206.02 4098.45 204.872C4098.98 203.826 4101.82 202.163 4102.93 202.073C4103.91 201.995 4104.43 201.492 4105.63 201.606L4108.23 201.852C4110.29 202.047 4112.27 202.664 4113.01 204.764C4113.21 205.33 4113.69 205.116 4113.58 205.873L4113.37 207.259Z" fill="white"/>
<path d="M4110.89 210.54C4112.42 209.75 4113.11 208.971 4113.37 207.259C4113.44 206.797 4113.51 206.335 4113.58 205.873C4113.69 205.116 4113.21 205.33 4113.01 204.764C4112.27 202.664 4110.29 202.047 4108.23 201.852C4107.36 201.77 4106.5 201.688 4105.63 201.606C4104.43 201.492 4103.91 201.995 4102.93 202.073C4101.82 202.163 4098.98 203.826 4098.45 204.872C4097.87 206.02 4095.34 208.602 4096.94 210.003C4097.2 210.229 4097.61 210.823 4097.76 211.135C4098.15 211.913 4098.45 211.546 4099.06 212.058C4099.91 212.781 4100.92 213.113 4102.06 213.22C4103.91 213.396 4105.23 213.006 4106.93 212.587C4107.66 212.407 4108.61 211.785 4109.42 211.534C4110.49 211.203 4110.61 211.246 4111.27 210.224" stroke="black" stroke-width="2" stroke-linecap="round"/>
</svg>
